<svg width="312" height="50" viewBox="0 0 312 50" fill="none" xmlns="http://www.w3.org/2000/svg">
<g filter="url(#filter0_d_2379_5454)">
<g clip-path="url(#clip0_2379_5454)">
<rect x="4" y="4" width="304" height="42" rx="6" fill="#2F3037"/>
<rect x="4" y="4" width="304" height="42" rx="6" fill="url(#paint0_linear_2379_5454)"/>
<path d="M24 18.75V19.792M24 30.208V31.25M27.125 19.587L26.604 20.489M21.396 29.511L20.875 30.413M29.412 21.875L28.51 22.395M19.49 27.605L18.587 28.125M30.25 25H29.208M18.792 25H17.75M29.412 28.125L28.51 27.605M19.49 22.395L18.587 21.875M27.125 30.413L26.605 29.511M21.395 20.489L20.875 19.587" stroke="url(#paint1_radial_2379_5454)" stroke-width="1.25" stroke-linecap="round" stroke-linejoin="round"/>
<path d="M47.2969 29H46.2813L49.2188 21H50.2188L53.1563 29H52.1406L49.75 22.2656H49.6875L47.2969 29ZM47.6719 25.875H51.7656V26.7344H47.6719V25.875ZM54.2773 31.25V23H55.168V23.9531H55.2773C55.3451 23.849 55.4388 23.7161 55.5586 23.5547C55.681 23.3906 55.8555 23.2448 56.082 23.1172C56.3112 22.987 56.6211 22.9219 57.0117 22.9219C57.5169 22.9219 57.9622 23.0482 58.3477 23.3008C58.7331 23.5534 59.0339 23.9115 59.25 24.375C59.4661 24.8385 59.5742 25.3854 59.5742 26.0156C59.5742 26.651 59.4661 27.2018 59.25 27.668C59.0339 28.1315 58.7344 28.4909 58.3516 28.7461C57.9688 28.9987 57.5273 29.125 57.0273 29.125C56.6419 29.125 56.3333 29.0612 56.1016 28.9336C55.8698 28.8034 55.6914 28.6562 55.5664 28.4922C55.4414 28.3255 55.3451 28.1875 55.2773 28.0781H55.1992V31.25H54.2773ZM55.1836 26C55.1836 26.4531 55.25 26.8529 55.3828 27.1992C55.5156 27.543 55.7096 27.8125 55.9648 28.0078C56.2201 28.2005 56.5326 28.2969 56.9023 28.2969C57.2878 28.2969 57.6094 28.1953 57.8672 27.9922C58.1276 27.7865 58.3229 27.5104 58.4531 27.1641C58.5859 26.8151 58.6523 26.4271 58.6523 26C58.6523 25.5781 58.5872 25.1979 58.457 24.8594C58.3294 24.5182 58.1354 24.2487 57.875 24.0508C57.6172 23.8503 57.293 23.75 56.9023 23.75C56.5273 23.75 56.2122 23.8451 55.957 24.0352C55.7018 24.2227 55.5091 24.4857 55.3789 24.8242C55.2487 25.1602 55.1836 25.5521 55.1836 26ZM60.9805 31.25V23H61.8711V23.9531H61.9805C62.0482 23.849 62.1419 23.7161 62.2617 23.5547C62.3841 23.3906 62.5586 23.2448 62.7852 23.1172C63.0143 22.987 63.3242 22.9219 63.7148 22.9219C64.2201 22.9219 64.6654 23.0482 65.0508 23.3008C65.4362 23.5534 65.737 23.9115 65.9531 24.375C66.1693 24.8385 66.2773 25.3854 66.2773 26.0156C66.2773 26.651 66.1693 27.2018 65.9531 27.668C65.737 28.1315 65.4375 28.4909 65.0547 28.7461C64.6719 28.9987 64.2305 29.125 63.7305 29.125C63.3451 29.125 63.0365 29.0612 62.8047 28.9336C62.5729 28.8034 62.3945 28.6562 62.2695 28.4922C62.1445 28.3255 62.0482 28.1875 61.9805 28.0781H61.9023V31.25H60.9805ZM61.8867 26C61.8867 26.4531 61.9531 26.8529 62.0859 27.1992C62.2187 27.543 62.4128 27.8125 62.668 28.0078C62.9232 28.2005 63.2357 28.2969 63.6055 28.2969C63.9909 28.2969 64.3125 28.1953 64.5703 27.9922C64.8307 27.7865 65.026 27.5104 65.1563 27.1641C65.2891 26.8151 65.3555 26.4271 65.3555 26C65.3555 25.5781 65.2904 25.1979 65.1602 24.8594C65.0326 24.5182 64.8385 24.2487 64.5781 24.0508C64.3203 23.8503 63.9961 23.75 63.6055 23.75C63.2305 23.75 62.9154 23.8451 62.6602 24.0352C62.4049 24.2227 62.2122 24.4857 62.082 24.8242C61.9518 25.1602 61.8867 25.5521 61.8867 26ZM67.6836 29V23H68.5742V23.9062H68.6367C68.7461 23.6094 68.944 23.3685 69.2305 23.1836C69.5169 22.9987 69.8398 22.9062 70.1992 22.9062C70.2669 22.9062 70.3516 22.9076 70.4531 22.9102C70.5547 22.9128 70.6315 22.9167 70.6836 22.9219V23.8594C70.6523 23.8516 70.5807 23.8398 70.4688 23.8242C70.3594 23.806 70.2435 23.7969 70.1211 23.7969C69.8294 23.7969 69.569 23.8581 69.3398 23.9805C69.1133 24.1003 68.9336 24.2669 68.8008 24.4805C68.6706 24.6914 68.6055 24.9323 68.6055 25.2031V29H67.6836ZM74.0313 29.125C73.4896 29.125 73.0143 28.9961 72.6055 28.7383C72.1992 28.4805 71.8815 28.1198 71.6523 27.6562C71.4258 27.1927 71.3125 26.651 71.3125 26.0312C71.3125 25.4062 71.4258 24.8607 71.6523 24.3945C71.8815 23.9284 72.1992 23.5664 72.6055 23.3086C73.0143 23.0508 73.4896 22.9219 74.0313 22.9219C74.5729 22.9219 75.0469 23.0508 75.4531 23.3086C75.862 23.5664 76.1797 23.9284 76.4063 24.3945C76.6354 24.8607 76.75 25.4062 76.75 26.0312C76.75 26.651 76.6354 27.1927 76.4063 27.6562C76.1797 28.1198 75.862 28.4805 75.4531 28.7383C75.0469 28.9961 74.5729 29.125 74.0313 29.125ZM74.0313 28.2969C74.4427 28.2969 74.7812 28.1914 75.0469 27.9805C75.3125 27.7695 75.5091 27.4922 75.6367 27.1484C75.7643 26.8047 75.8281 26.4323 75.8281 26.0312C75.8281 25.6302 75.7643 25.2565 75.6367 24.9102C75.5091 24.5638 75.3125 24.2839 75.0469 24.0703C74.7812 23.8568 74.4427 23.75 74.0313 23.75C73.6198 23.75 73.2813 23.8568 73.0156 24.0703C72.75 24.2839 72.5534 24.5638 72.4258 24.9102C72.2982 25.2565 72.2344 25.6302 72.2344 26.0312C72.2344 26.4323 72.2982 26.8047 72.4258 27.1484C72.5534 27.4922 72.75 27.7695 73.0156 27.9805C73.2813 28.1914 73.6198 28.2969 74.0313 28.2969ZM82.8486 23L80.6299 29H79.6924L77.4736 23H78.4736L80.1299 27.7812H80.1924L81.8486 23H82.8486ZM84.0654 29V23H84.9873V29H84.0654ZM84.5342 22C84.3545 22 84.1995 21.9388 84.0693 21.8164C83.9417 21.694 83.8779 21.5469 83.8779 21.375C83.8779 21.2031 83.9417 21.056 84.0693 20.9336C84.1995 20.8112 84.3545 20.75 84.5342 20.75C84.7139 20.75 84.8675 20.8112 84.9951 20.9336C85.1253 21.056 85.1904 21.2031 85.1904 21.375C85.1904 21.5469 85.1253 21.694 84.9951 21.8164C84.8675 21.9388 84.7139 22 84.5342 22ZM87.5977 25.3906V29H86.6758V23H87.5664V23.9375H87.6445C87.7852 23.6328 87.9987 23.388 88.2852 23.2031C88.5716 23.0156 88.9414 22.9219 89.3945 22.9219C89.8008 22.9219 90.1563 23.0052 90.4609 23.1719C90.7656 23.3359 91.0026 23.5859 91.1719 23.9219C91.3411 24.2552 91.4258 24.6771 91.4258 25.1875V29H90.5039V25.25C90.5039 24.7786 90.3815 24.4115 90.1367 24.1484C89.8919 23.8828 89.556 23.75 89.1289 23.75C88.8346 23.75 88.5716 23.8138 88.3398 23.9414C88.1107 24.069 87.9297 24.2552 87.7969 24.5C87.6641 24.7448 87.5977 25.0417 87.5977 25.3906ZM95.5322 31.375C95.0869 31.375 94.7041 31.3177 94.3838 31.2031C94.0635 31.0911 93.7965 30.9427 93.583 30.7578C93.3721 30.5755 93.2041 30.3802 93.0791 30.1719L93.8135 29.6563C93.8968 29.7656 94.0023 29.8906 94.1299 30.0312C94.2575 30.1745 94.432 30.2982 94.6533 30.4023C94.8773 30.5091 95.1702 30.5625 95.5322 30.5625C96.0166 30.5625 96.4163 30.4453 96.7314 30.2109C97.0465 29.9766 97.2041 29.6094 97.2041 29.1094V27.8906H97.126C97.0583 28 96.9619 28.1354 96.8369 28.2969C96.7145 28.4557 96.5374 28.5977 96.3057 28.7227C96.0765 28.8451 95.7666 28.9062 95.376 28.9062C94.8916 28.9062 94.4567 28.7917 94.0713 28.5625C93.6885 28.3333 93.3851 28 93.1611 27.5625C92.9398 27.125 92.8291 26.5937 92.8291 25.9687C92.8291 25.3542 92.9372 24.819 93.1533 24.3633C93.3695 23.9049 93.6702 23.5508 94.0557 23.3008C94.4411 23.0482 94.8864 22.9219 95.3916 22.9219C95.7822 22.9219 96.0921 22.987 96.3213 23.1172C96.5531 23.2448 96.7301 23.3906 96.8525 23.5547C96.9775 23.7161 97.0739 23.849 97.1416 23.9531H97.2354V23H98.126V29.1719C98.126 29.6875 98.0088 30.1068 97.7744 30.4297C97.5426 30.7552 97.2301 30.9935 96.8369 31.1445C96.4463 31.2982 96.0114 31.375 95.5322 31.375ZM95.501 28.0781C95.8708 28.0781 96.1833 27.9935 96.4385 27.8242C96.6937 27.6549 96.8877 27.4115 97.0205 27.0938C97.1533 26.776 97.2197 26.3958 97.2197 25.9531C97.2197 25.5208 97.1546 25.1393 97.0244 24.8086C96.8942 24.4779 96.7015 24.2187 96.4463 24.0312C96.1911 23.8437 95.876 23.75 95.501 23.75C95.1104 23.75 94.7848 23.849 94.5244 24.0469C94.2666 24.2448 94.0726 24.5104 93.9424 24.8438C93.8148 25.1771 93.751 25.5469 93.751 25.9531C93.751 26.3698 93.8161 26.7383 93.9463 27.0586C94.0791 27.3763 94.2744 27.6263 94.5322 27.8086C94.7926 27.9883 95.1156 28.0781 95.501 28.0781Z" fill="#747686"/>
<g filter="url(#filter1_bddd_2379_5454)">
<rect x="220" y="10" width="78" height="29" rx="6" fill="#13141A"/>
<rect x="220.25" y="10.25" width="77.5" height="28.5" rx="5.75" stroke="url(#paint2_linear_2379_5454)" stroke-opacity="0.8" stroke-width="0.5"/>
<path d="M247.207 23.0923H246.099C246.056 22.8556 245.977 22.6473 245.861 22.4673C245.745 22.2874 245.603 22.1347 245.435 22.0092C245.267 21.8838 245.078 21.7891 244.87 21.7251C244.664 21.6612 244.445 21.6293 244.213 21.6293C243.794 21.6293 243.419 21.7346 243.087 21.9453C242.758 22.156 242.498 22.465 242.306 22.8722C242.117 23.2794 242.022 23.7765 242.022 24.3636C242.022 24.9555 242.117 25.455 242.306 25.8622C242.498 26.2694 242.759 26.5772 243.091 26.7855C243.422 26.9938 243.795 27.098 244.21 27.098C244.439 27.098 244.657 27.0672 244.863 27.0057C245.071 26.9418 245.259 26.8482 245.428 26.7251C245.596 26.602 245.738 26.4517 245.854 26.2741C245.972 26.0942 246.054 25.8883 246.099 25.6562L247.207 25.6598C247.147 26.0173 247.033 26.3464 246.862 26.647C246.694 26.9453 246.478 27.2034 246.212 27.4212C245.95 27.6366 245.649 27.8035 245.31 27.9219C244.972 28.0402 244.603 28.0994 244.202 28.0994C243.573 28.0994 243.012 27.9503 242.519 27.652C242.027 27.3513 241.638 26.9216 241.354 26.3629C241.073 25.8042 240.932 25.1378 240.932 24.3636C240.932 23.5871 241.074 22.9207 241.358 22.3643C241.642 21.8056 242.03 21.3771 242.523 21.0788C243.015 20.7782 243.575 20.6278 244.202 20.6278C244.588 20.6278 244.948 20.6835 245.282 20.7947C245.618 20.9036 245.92 21.0646 246.188 21.2777C246.455 21.4884 246.676 21.7464 246.852 22.0518C247.027 22.3549 247.145 22.7017 247.207 23.0923ZM250.732 28.1101C250.221 28.1101 249.774 27.9929 249.393 27.7585C249.012 27.5241 248.716 27.1963 248.506 26.7749C248.295 26.3535 248.189 25.861 248.189 25.2976C248.189 24.7318 248.295 24.237 248.506 23.8132C248.716 23.3894 249.012 23.0604 249.393 22.826C249.774 22.5916 250.221 22.4744 250.732 22.4744C251.243 22.4744 251.69 22.5916 252.071 22.826C252.452 23.0604 252.748 23.3894 252.959 23.8132C253.169 24.237 253.275 24.7318 253.275 25.2976C253.275 25.861 253.169 26.3535 252.959 26.7749C252.748 27.1963 252.452 27.5241 252.071 27.7585C251.69 27.9929 251.243 28.1101 250.732 28.1101ZM250.736 27.2188C251.067 27.2188 251.342 27.1312 251.559 26.956C251.777 26.7808 251.938 26.5476 252.042 26.2564C252.149 25.9652 252.202 25.6444 252.202 25.294C252.202 24.946 252.149 24.6264 252.042 24.3352C251.938 24.0417 251.777 23.8061 251.559 23.6286C251.342 23.451 251.067 23.3622 250.736 23.3622C250.402 23.3622 250.125 23.451 249.905 23.6286C249.687 23.8061 249.525 24.0417 249.418 24.3352C249.314 24.6264 249.262 24.946 249.262 25.294C249.262 25.6444 249.314 25.9652 249.418 26.2564C249.525 26.5476 249.687 26.7808 249.905 26.956C250.125 27.1312 250.402 27.2188 250.736 27.2188ZM254.46 28V22.5455H255.479V23.4332H255.547C255.66 23.1326 255.846 22.8982 256.104 22.7301C256.362 22.5597 256.671 22.4744 257.031 22.4744C257.395 22.4744 257.701 22.5597 257.947 22.7301C258.196 22.9006 258.379 23.1349 258.498 23.4332H258.554C258.685 23.142 258.892 22.91 259.176 22.7372C259.46 22.562 259.798 22.4744 260.191 22.4744C260.686 22.4744 261.09 22.6295 261.402 22.9396C261.717 23.2498 261.875 23.7173 261.875 24.3423V28H260.813V24.4418C260.813 24.0724 260.712 23.8049 260.511 23.6392C260.31 23.4735 260.069 23.3906 259.79 23.3906C259.444 23.3906 259.176 23.4972 258.984 23.7102C258.792 23.9209 258.696 24.192 258.696 24.5234V28H257.638V24.3743C257.638 24.0784 257.546 23.8404 257.361 23.6605C257.176 23.4806 256.936 23.3906 256.64 23.3906C256.439 23.3906 256.253 23.4439 256.083 23.5504C255.915 23.6546 255.779 23.8002 255.674 23.9872C255.573 24.1742 255.522 24.3909 255.522 24.6371V28H254.46ZM263.298 28V22.5455H264.317V23.4332H264.384C264.498 23.1326 264.684 22.8982 264.942 22.7301C265.2 22.5597 265.509 22.4744 265.869 22.4744C266.233 22.4744 266.539 22.5597 266.785 22.7301C267.034 22.9006 267.217 23.1349 267.335 23.4332H267.392C267.522 23.142 267.73 22.91 268.014 22.7372C268.298 22.562 268.636 22.4744 269.029 22.4744C269.524 22.4744 269.928 22.6295 270.24 22.9396C270.555 23.2498 270.713 23.7173 270.713 24.3423V28H269.651V24.4418C269.651 24.0724 269.55 23.8049 269.349 23.6392C269.148 23.4735 268.907 23.3906 268.628 23.3906C268.282 23.3906 268.014 23.4972 267.822 23.7102C267.63 23.9209 267.534 24.192 267.534 24.5234V28H266.476V24.3743C266.476 24.0784 266.384 23.8404 266.199 23.6605C266.014 23.4806 265.774 23.3906 265.478 23.3906C265.277 23.3906 265.091 23.4439 264.921 23.5504C264.753 23.6546 264.616 23.8002 264.512 23.9872C264.41 24.1742 264.36 24.3909 264.36 24.6371V28H263.298ZM272.136 28V22.5455H273.197V28H272.136ZM272.672 21.7038C272.487 21.7038 272.329 21.6423 272.196 21.5192C272.066 21.3937 272.001 21.2446 272.001 21.0717C272.001 20.8965 272.066 20.7474 272.196 20.6243C272.329 20.4988 272.487 20.4361 272.672 20.4361C272.857 20.4361 273.014 20.4988 273.144 20.6243C273.277 20.7474 273.343 20.8965 273.343 21.0717C273.343 21.2446 273.277 21.3937 273.144 21.5192C273.014 21.6423 272.857 21.7038 272.672 21.7038ZM277.172 22.5455V23.3977H274.193V22.5455H277.172ZM274.992 21.2386H276.053V26.3984C276.053 26.6044 276.084 26.7595 276.146 26.8636C276.207 26.9654 276.287 27.0353 276.384 27.0732C276.483 27.1087 276.591 27.1264 276.707 27.1264C276.792 27.1264 276.867 27.1205 276.931 27.1087C276.994 27.0968 277.044 27.0874 277.08 27.0803L277.271 27.9574C277.21 27.9811 277.122 28.0047 277.009 28.0284C276.895 28.0545 276.753 28.0687 276.583 28.071C276.303 28.0758 276.043 28.026 275.801 27.9219C275.56 27.8177 275.365 27.6567 275.215 27.4389C275.066 27.2211 274.992 26.9477 274.992 26.6186V21.2386Z" fill="#CAECF1" fill-opacity="0.8"/>
</g>
</g>
</g>
<defs>
<filter id="filter0_d_2379_5454" x="0" y="0" width="312" height="50" filterUnits="userSpaceOnUse" color-interpolation-filters="sRGB">
<feFlood flood-opacity="0" result="BackgroundImageFix"/>
<feColorMatrix in="SourceAlpha" type="matrix" values="0 0 0 0 0 0 0 0 0 0 0 0 0 0 0 0 0 0 127 0" result="hardAlpha"/>
<feMorphology radius="4" operator="dilate" in="SourceAlpha" result="effect1_dropShadow_2379_5454"/>
<feOffset/>
<feComposite in2="hardAlpha" operator="out"/>
<feColorMatrix type="matrix" values="0 0 0 0 0.0745098 0 0 0 0 0.0745098 0 0 0 0 0.0862745 0 0 0 0.5 0"/>
<feBlend mode="normal" in2="BackgroundImageFix" result="effect1_dropShadow_2379_5454"/>
<feBlend mode="normal" in="SourceGraphic" in2="effect1_dropShadow_2379_5454" result="shape"/>
</filter>
<filter id="filter1_bddd_2379_5454" x="196" y="5" width="126" height="82" filterUnits="userSpaceOnUse" color-interpolation-filters="sRGB">
<feFlood flood-opacity="0" result="BackgroundImageFix"/>
<feGaussianBlur in="BackgroundImageFix" stdDeviation="2.5"/>
<feComposite in2="SourceAlpha" operator="in" result="effect1_backgroundBlur_2379_5454"/>
<feColorMatrix in="SourceAlpha" type="matrix" values="0 0 0 0 0 0 0 0 0 0 0 0 0 0 0 0 0 0 127 0" result="hardAlpha"/>
<feMorphology radius="16" operator="erode" in="SourceAlpha" result="effect2_dropShadow_2379_5454"/>
<feOffset dy="24"/>
<feGaussianBlur stdDeviation="20"/>
<feComposite in2="hardAlpha" operator="out"/>
<feColorMatrix type="matrix" values="0 0 0 0 0.407843 0 0 0 0 0.294118 0 0 0 0 0.145098 0 0 0 0.08 0"/>
<feBlend mode="normal" in2="effect1_backgroundBlur_2379_5454" result="effect2_dropShadow_2379_5454"/>
<feColorMatrix in="SourceAlpha" type="matrix" values="0 0 0 0 0 0 0 0 0 0 0 0 0 0 0 0 0 0 127 0" result="hardAlpha"/>
<feOffset dy="4"/>
<feGaussianBlur stdDeviation="3"/>
<feComposite in2="hardAlpha" operator="out"/>
<feColorMatrix type="matrix" values="0 0 0 0 0.372549 0 0 0 0 0.290196 0 0 0 0 0.180392 0 0 0 0.04 0"/>
<feBlend mode="normal" in2="effect2_dropShadow_2379_5454" result="effect3_dropShadow_2379_5454"/>
<feColorMatrix in="SourceAlpha" type="matrix" values="0 0 0 0 0 0 0 0 0 0 0 0 0 0 0 0 0 0 127 0" result="hardAlpha"/>
<feOffset dy="1"/>
<feGaussianBlur stdDeviation="1"/>
<feComposite in2="hardAlpha" operator="out"/>
<feColorMatrix type="matrix" values="0 0 0 0 0.372549 0 0 0 0 0.290196 0 0 0 0 0.180392 0 0 0 0.08 0"/>
<feBlend mode="normal" in2="effect3_dropShadow_2379_5454" result="effect4_dropShadow_2379_5454"/>
<feBlend mode="normal" in="SourceGraphic" in2="effect4_dropShadow_2379_5454" result="shape"/>
</filter>
<linearGradient id="paint0_linear_2379_5454" x1="150.306" y1="-16.2133" x2="161.694" y2="66.2133" gradientUnits="userSpaceOnUse">
<stop stop-color="white" stop-opacity="0.05"/>
<stop offset="0.65" stop-color="white" stop-opacity="0"/>
</linearGradient>
<radialGradient id="paint1_radial_2379_5454" cx="0" cy="0" r="1" gradientUnits="userSpaceOnUse" gradientTransform="translate(26.4999 19.9993) rotate(102.529) scale(11.5244)">
<stop stop-color="white"/>
<stop offset="1" stop-color="white" stop-opacity="0.2"/>
</radialGradient>
<linearGradient id="paint2_linear_2379_5454" x1="259" y1="10" x2="259" y2="39" gradientUnits="userSpaceOnUse">
<stop stop-color="#CAECF1"/>
<stop offset="1" stop-color="#CAECF1" stop-opacity="0"/>
</linearGradient>
<clipPath id="clip0_2379_5454">
<rect x="4" y="4" width="304" height="42" rx="6" fill="white"/>
</clipPath>
</defs>
</svg>
