<svg  viewBox="0 0 400 158" fill="none" xmlns="http://www.w3.org/2000/svg">
<rect x="135" y="27" width="129" height="104" rx="8" fill="#11121B" fill-opacity="0.24"/>
<rect x="135" y="27" width="129" height="104" rx="8" fill="url(#paint0_linear_2338_4242)" fill-opacity="0.2"/>
<rect x="135.5" y="27.5" width="128" height="103" rx="7.5" stroke="white" stroke-opacity="0.05"/>
<g filter="url(#filter0_ddi_2338_4242)">
<g clip-path="url(#clip0_2338_4242)">
<g filter="url(#filter1_d_2338_4242)">
<path d="M181.524 104H180.956L180.689 103.165H179.096L178.826 104H178.284L179.556 100.171H180.271L181.524 104ZM180.54 102.699L179.893 100.651L179.245 102.699H180.54ZM184.387 104H183.93L183.912 103.525C183.824 103.627 183.74 103.712 183.66 103.78C183.582 103.847 183.504 103.9 183.426 103.941C183.348 103.982 183.269 104.011 183.188 104.026C183.11 104.044 183.027 104.053 182.939 104.053C182.637 104.053 182.408 103.964 182.254 103.786C182.1 103.608 182.022 103.34 182.022 102.98V101.059H182.532V102.939C182.532 103.391 182.702 103.616 183.042 103.616C183.104 103.616 183.165 103.607 183.224 103.59C183.284 103.57 183.347 103.538 183.411 103.493C183.478 103.446 183.548 103.384 183.622 103.306C183.698 103.228 183.783 103.129 183.877 103.01V101.059H184.387V104ZM185.172 102.591C185.172 102.341 185.206 102.119 185.274 101.926C185.343 101.73 185.439 101.566 185.564 101.434C185.691 101.299 185.843 101.197 186.019 101.129C186.196 101.059 186.394 101.023 186.61 101.023C186.704 101.023 186.796 101.029 186.886 101.041C186.978 101.053 187.067 101.071 187.155 101.097V99.8604H187.668V104H187.211L187.193 103.443C187.051 103.65 186.896 103.804 186.73 103.903C186.564 104.003 186.385 104.053 186.191 104.053C186.023 104.053 185.875 104.018 185.746 103.947C185.619 103.877 185.513 103.778 185.427 103.651C185.343 103.522 185.279 103.368 185.236 103.188C185.193 103.009 185.172 102.81 185.172 102.591ZM185.693 102.559C185.693 102.914 185.745 103.18 185.849 103.355C185.954 103.529 186.103 103.616 186.294 103.616C186.423 103.616 186.559 103.559 186.701 103.443C186.846 103.328 186.997 103.157 187.155 102.931V101.565C187.071 101.526 186.979 101.497 186.877 101.478C186.775 101.456 186.675 101.445 186.575 101.445C186.298 101.445 186.081 101.535 185.925 101.715C185.771 101.895 185.693 102.176 185.693 102.559ZM189.622 101.48H188.752V101.059H190.138V103.575H191.014V104H188.655V103.575H189.622V101.48ZM189.801 99.8252C189.857 99.8252 189.91 99.8359 189.959 99.8574C190.008 99.877 190.05 99.9053 190.085 99.9424C190.122 99.9795 190.15 100.022 190.17 100.071C190.191 100.118 190.202 100.17 190.202 100.227C190.202 100.281 190.191 100.333 190.17 100.382C190.15 100.431 190.122 100.474 190.085 100.511C190.05 100.548 190.008 100.577 189.959 100.599C189.91 100.618 189.857 100.628 189.801 100.628C189.744 100.628 189.691 100.618 189.643 100.599C189.594 100.577 189.551 100.548 189.514 100.511C189.479 100.474 189.45 100.431 189.429 100.382C189.409 100.333 189.399 100.281 189.399 100.227C189.399 100.17 189.409 100.118 189.429 100.071C189.45 100.022 189.479 99.9795 189.514 99.9424C189.551 99.9053 189.594 99.877 189.643 99.8574C189.691 99.8359 189.744 99.8252 189.801 99.8252ZM194.289 103.959C194.174 103.988 194.055 104.009 193.932 104.021C193.809 104.034 193.684 104.041 193.557 104.041C193.188 104.041 192.912 103.958 192.73 103.792C192.549 103.624 192.458 103.367 192.458 103.021V101.486H191.635V101.059H192.458V100.25L192.968 100.118V101.059H194.289V101.486H192.968V102.98C192.968 103.191 193.023 103.35 193.135 103.455C193.248 103.559 193.414 103.61 193.633 103.61C193.727 103.61 193.829 103.604 193.94 103.59C194.052 103.574 194.168 103.551 194.289 103.52V103.959ZM196.22 101.48H195.35V101.059H196.735V103.575H197.611V104H195.253V103.575H196.22V101.48ZM196.398 99.8252C196.455 99.8252 196.508 99.8359 196.557 99.8574C196.605 99.877 196.647 99.9053 196.683 99.9424C196.72 99.9795 196.748 100.022 196.768 100.071C196.789 100.118 196.8 100.17 196.8 100.227C196.8 100.281 196.789 100.333 196.768 100.382C196.748 100.431 196.72 100.474 196.683 100.511C196.647 100.548 196.605 100.577 196.557 100.599C196.508 100.618 196.455 100.628 196.398 100.628C196.342 100.628 196.289 100.618 196.24 100.599C196.191 100.577 196.148 100.548 196.111 100.511C196.076 100.474 196.048 100.431 196.026 100.382C196.007 100.333 195.997 100.281 195.997 100.227C195.997 100.17 196.007 100.118 196.026 100.071C196.048 100.022 196.076 99.9795 196.111 99.9424C196.148 99.9053 196.191 99.877 196.24 99.8574C196.289 99.8359 196.342 99.8252 196.398 99.8252ZM198.517 101.059H198.971L198.991 101.533C199.077 101.432 199.16 101.348 199.24 101.281C199.32 101.213 199.398 101.158 199.475 101.117C199.553 101.076 199.632 101.048 199.712 101.032C199.792 101.015 199.875 101.006 199.961 101.006C200.264 101.006 200.492 101.096 200.646 101.275C200.803 101.453 200.881 101.722 200.881 102.081V104H200.371V102.122C200.371 101.892 200.328 101.722 200.242 101.612C200.156 101.501 200.028 101.445 199.858 101.445C199.796 101.445 199.734 101.455 199.674 101.475C199.615 101.492 199.554 101.524 199.489 101.571C199.425 101.616 199.354 101.678 199.278 101.756C199.204 101.834 199.12 101.932 199.026 102.049V104H198.517V101.059ZM203.934 101.475C203.988 101.543 204.03 101.623 204.06 101.715C204.091 101.805 204.106 101.902 204.106 102.008C204.106 102.16 204.078 102.3 204.021 102.427C203.967 102.552 203.889 102.659 203.787 102.749C203.686 102.839 203.563 102.909 203.421 102.96C203.28 103.009 203.125 103.033 202.955 103.033C202.832 103.033 202.717 103.021 202.609 102.995C202.502 102.968 202.417 102.935 202.354 102.896C202.317 102.95 202.286 103.002 202.261 103.051C202.235 103.1 202.223 103.154 202.223 103.215C202.223 103.289 202.258 103.351 202.328 103.399C202.4 103.448 202.495 103.475 202.612 103.479L203.386 103.508C203.532 103.512 203.667 103.53 203.79 103.563C203.915 103.597 204.021 103.645 204.109 103.707C204.199 103.77 204.269 103.847 204.317 103.938C204.368 104.03 204.394 104.137 204.394 104.258C204.394 104.389 204.365 104.513 204.309 104.63C204.252 104.747 204.164 104.85 204.045 104.938C203.928 105.027 203.778 105.099 203.597 105.151C203.415 105.204 203.199 105.23 202.949 105.23C202.711 105.23 202.508 105.211 202.34 105.172C202.174 105.135 202.037 105.082 201.93 105.014C201.822 104.947 201.744 104.867 201.695 104.773C201.646 104.682 201.622 104.58 201.622 104.469C201.622 104.326 201.655 104.201 201.722 104.094C201.788 103.986 201.891 103.883 202.029 103.783C201.979 103.76 201.935 103.73 201.897 103.695C201.86 103.66 201.83 103.622 201.807 103.581C201.783 103.538 201.766 103.493 201.754 103.446C201.742 103.399 201.736 103.354 201.736 103.309C201.736 103.182 201.766 103.065 201.824 102.96C201.885 102.854 201.956 102.755 202.038 102.661C202.001 102.616 201.968 102.572 201.938 102.529C201.911 102.486 201.887 102.44 201.865 102.392C201.846 102.341 201.83 102.287 201.818 102.23C201.809 102.172 201.804 102.105 201.804 102.031C201.804 101.879 201.831 101.74 201.886 101.615C201.942 101.488 202.021 101.38 202.12 101.29C202.222 101.2 202.343 101.131 202.483 101.082C202.626 101.031 202.783 101.006 202.955 101.006C203.027 101.006 203.097 101.011 203.163 101.021C203.229 101.03 203.288 101.043 203.339 101.059H204.405V101.475H203.934ZM202.164 104.425C202.164 104.563 202.236 104.664 202.381 104.727C202.525 104.791 202.727 104.823 202.984 104.823C203.146 104.823 203.282 104.809 203.392 104.779C203.503 104.75 203.592 104.711 203.658 104.662C203.727 104.615 203.775 104.561 203.805 104.498C203.834 104.438 203.849 104.375 203.849 104.311C203.849 104.191 203.8 104.104 203.702 104.047C203.604 103.99 203.455 103.957 203.254 103.947L202.486 103.921C202.422 103.964 202.368 104.006 202.325 104.047C202.284 104.088 202.252 104.129 202.229 104.17C202.205 104.213 202.188 104.255 202.179 104.296C202.169 104.339 202.164 104.382 202.164 104.425ZM202.319 102.02C202.319 102.113 202.335 102.199 202.366 102.277C202.397 102.355 202.441 102.422 202.498 102.477C202.555 102.531 202.621 102.574 202.697 102.605C202.775 102.635 202.861 102.649 202.955 102.649C203.057 102.649 203.146 102.633 203.225 102.6C203.305 102.564 203.371 102.518 203.424 102.459C203.479 102.4 203.52 102.333 203.547 102.257C203.576 102.181 203.591 102.102 203.591 102.02C203.591 101.926 203.575 101.84 203.544 101.762C203.513 101.684 203.469 101.617 203.412 101.562C203.355 101.508 203.288 101.466 203.21 101.437C203.134 101.405 203.049 101.39 202.955 101.39C202.854 101.39 202.763 101.407 202.683 101.442C202.604 101.478 202.538 101.524 202.483 101.583C202.431 101.64 202.39 101.706 202.36 101.782C202.333 101.858 202.319 101.938 202.319 102.02ZM206.271 103.077C206.338 103.077 206.4 103.09 206.459 103.115C206.52 103.141 206.571 103.176 206.614 103.221C206.659 103.266 206.694 103.318 206.72 103.379C206.745 103.438 206.758 103.501 206.758 103.569C206.758 103.636 206.745 103.698 206.72 103.757C206.694 103.815 206.659 103.867 206.614 103.912C206.571 103.955 206.52 103.989 206.459 104.015C206.4 104.04 206.338 104.053 206.271 104.053C206.203 104.053 206.14 104.04 206.081 104.015C206.022 103.989 205.971 103.955 205.926 103.912C205.883 103.867 205.849 103.815 205.823 103.757C205.798 103.698 205.785 103.636 205.785 103.569C205.785 103.501 205.798 103.438 205.823 103.379C205.849 103.318 205.883 103.266 205.926 103.221C205.971 103.176 206.022 103.141 206.081 103.115C206.14 103.09 206.203 103.077 206.271 103.077ZM209.57 103.077C209.637 103.077 209.699 103.09 209.758 103.115C209.818 103.141 209.87 103.176 209.913 103.221C209.958 103.266 209.993 103.318 210.019 103.379C210.044 103.438 210.057 103.501 210.057 103.569C210.057 103.636 210.044 103.698 210.019 103.757C209.993 103.815 209.958 103.867 209.913 103.912C209.87 103.955 209.818 103.989 209.758 104.015C209.699 104.04 209.637 104.053 209.57 104.053C209.502 104.053 209.438 104.04 209.38 104.015C209.321 103.989 209.27 103.955 209.225 103.912C209.182 103.867 209.147 103.815 209.122 103.757C209.097 103.698 209.084 103.636 209.084 103.569C209.084 103.501 209.097 103.438 209.122 103.379C209.147 103.318 209.182 103.266 209.225 103.221C209.27 103.176 209.321 103.141 209.38 103.115C209.438 103.09 209.502 103.077 209.57 103.077ZM212.869 103.077C212.936 103.077 212.998 103.09 213.057 103.115C213.117 103.141 213.169 103.176 213.212 103.221C213.257 103.266 213.292 103.318 213.317 103.379C213.343 103.438 213.355 103.501 213.355 103.569C213.355 103.636 213.343 103.698 213.317 103.757C213.292 103.815 213.257 103.867 213.212 103.912C213.169 103.955 213.117 103.989 213.057 104.015C212.998 104.04 212.936 104.053 212.869 104.053C212.801 104.053 212.737 104.04 212.679 104.015C212.62 103.989 212.568 103.955 212.523 103.912C212.48 103.867 212.446 103.815 212.421 103.757C212.396 103.698 212.383 103.636 212.383 103.569C212.383 103.501 212.396 103.438 212.421 103.379C212.446 103.318 212.48 103.266 212.523 103.221C212.568 103.176 212.62 103.141 212.679 103.115C212.737 103.09 212.801 103.077 212.869 103.077Z" fill="#EBEAEE"/>
</g>
<rect x="144.5" y="36.5" width="105" height="82" rx="7.5" stroke="url(#paint1_radial_2338_4242)"/>
<rect x="144.5" y="36.5" width="105" height="82" rx="7.5" stroke="url(#paint2_radial_2338_4242)"/>
<rect x="144.5" y="36.5" width="105" height="82" rx="7.5" stroke="url(#paint3_radial_2338_4242)"/>
<rect x="144.5" y="36.5" width="105" height="82" rx="7.5" stroke="url(#paint4_radial_2338_4242)"/>
<g filter="url(#filter2_d_2338_4242)">
<path fill-rule="evenodd" clip-rule="evenodd" d="M193.217 53C192.311 53 191.565 53.7584 191.565 54.6793V61.7925C191.565 61.9786 191.475 62.1516 191.323 62.256C191.171 62.3605 190.98 62.3817 190.81 62.3128L185.234 59.9645C185.025 59.8763 184.806 59.8366 184.592 59.8388C183.948 59.8455 183.335 60.2361 183.075 60.8741L180.124 68.114C179.778 68.9646 180.181 69.9574 181.018 70.3083L187.781 73.1421C187.937 73.2074 188.053 73.34 188.1 73.504C188.147 73.6679 188.117 73.8424 188.02 73.9818L183.593 79.6767C183.041 80.4072 183.179 81.4713 183.897 82.0316L190.015 86.8029C190.733 87.3634 191.78 87.2229 192.332 86.4923L196.637 80.9536C196.741 80.8152 196.902 80.735 197.073 80.735C197.245 80.735 197.405 80.8152 197.51 80.9536L201.815 86.4923C202.366 87.2228 203.413 87.3634 204.132 86.8029L210.249 82.0316C210.968 81.4711 211.105 80.4074 210.553 79.6767L206.126 73.9818C206.029 73.8426 206 73.6679 206.046 73.504C206.093 73.34 206.21 73.2074 206.365 73.1421L213.128 70.3083C213.966 69.9574 214.369 68.9649 214.022 68.114L211.071 60.8741C210.811 60.2362 210.198 59.8456 209.555 59.8388C209.34 59.8366 209.122 59.8766 208.912 59.9645L203.336 62.3128C203.166 62.3818 202.975 62.3605 202.823 62.256C202.671 62.1516 202.58 61.9786 202.58 61.7925V54.6793C202.58 53.7584 201.834 53 200.928 53H193.217Z" fill="#CAECF1"/>
<mask id="mask0_2338_4242" style="mask-type:luminance" maskUnits="userSpaceOnUse" x="180" y="53" width="35" height="35">
<path fill-rule="evenodd" clip-rule="evenodd" d="M193.217 53C192.311 53 191.565 53.7584 191.565 54.6793V61.7925C191.565 61.9786 191.475 62.1516 191.323 62.256C191.171 62.3605 190.98 62.3817 190.81 62.3128L185.234 59.9645C185.025 59.8763 184.806 59.8366 184.592 59.8388C183.948 59.8455 183.335 60.2361 183.075 60.8741L180.124 68.114C179.778 68.9646 180.181 69.9574 181.018 70.3083L187.781 73.1421C187.937 73.2074 188.053 73.34 188.1 73.504C188.147 73.6679 188.117 73.8424 188.02 73.9818L183.593 79.6767C183.041 80.4072 183.179 81.4713 183.897 82.0316L190.015 86.8029C190.733 87.3634 191.78 87.2229 192.332 86.4923L196.637 80.9536C196.741 80.8152 196.902 80.735 197.073 80.735C197.245 80.735 197.405 80.8152 197.51 80.9536L201.815 86.4923C202.366 87.2228 203.413 87.3634 204.132 86.8029L210.249 82.0316C210.968 81.4711 211.105 80.4074 210.553 79.6767L206.126 73.9818C206.029 73.8426 206 73.6679 206.046 73.504C206.093 73.34 206.21 73.2074 206.365 73.1421L213.128 70.3083C213.966 69.9574 214.369 68.9649 214.022 68.114L211.071 60.8741C210.811 60.2362 210.198 59.8456 209.555 59.8388C209.34 59.8366 209.122 59.8766 208.912 59.9645L203.336 62.3128C203.166 62.3818 202.975 62.3605 202.823 62.256C202.671 62.1516 202.58 61.9786 202.58 61.7925V54.6793C202.58 53.7584 201.834 53 200.928 53H193.217Z" fill="url(#paint5_linear_2338_4242)"/>
</mask>
<g mask="url(#mask0_2338_4242)">
<path d="M191.324 62.2561L191.842 63.0094L191.843 63.009L191.324 62.2561ZM190.81 62.3129L190.455 63.1558L190.461 63.1583L190.467 63.1607L190.81 62.3129ZM187.782 73.1422L188.137 72.2992L188.135 72.2986L187.782 73.1422ZM188.021 73.9819L188.743 74.5432L188.758 74.524L188.772 74.5039L188.021 73.9819ZM183.593 79.6768L182.871 79.1154L182.867 79.1206L182.863 79.1257L183.593 79.6768ZM192.332 86.4924L191.61 85.9311L191.606 85.9362L191.602 85.9414L192.332 86.4924ZM196.637 80.9537L197.359 81.515L197.363 81.5098L197.367 81.5047L196.637 80.9537ZM197.51 80.9537L196.78 81.5047L196.784 81.5098L196.788 81.515L197.51 80.9537ZM201.815 86.4924L202.545 85.9413L202.541 85.9361L202.537 85.9311L201.815 86.4924ZM210.554 79.6768L211.284 79.1257L211.28 79.1206L211.276 79.1154L210.554 79.6768ZM206.127 73.9819L205.376 74.5046L205.39 74.5243L205.405 74.5432L206.127 73.9819ZM206.047 73.5041L205.167 73.2535L205.167 73.2547L206.047 73.5041ZM206.365 73.1422L206.012 72.2986L206.01 72.2992L206.365 73.1422ZM203.337 62.3129L203.68 63.1604L203.686 63.1582L203.692 63.1558L203.337 62.3129ZM202.823 62.2561L203.342 61.5029L203.341 61.502L202.823 62.2561ZM193.218 52.0854C191.793 52.0854 190.651 53.2674 190.651 54.6794H192.48C192.48 54.2496 192.831 53.9147 193.218 53.9147V52.0854ZM190.651 54.6794V61.7926H192.48V54.6794H190.651ZM190.651 61.7926C190.651 61.681 190.706 61.5712 190.804 61.5032L191.843 63.009C192.244 62.7321 192.48 62.2764 192.48 61.7926H190.651ZM190.804 61.5032C190.905 61.434 191.038 61.4181 191.154 61.4651L190.467 63.1607C190.924 63.3454 191.439 63.2874 191.842 63.0094L190.804 61.5032ZM191.165 61.4699L185.589 59.1216L184.879 60.8074L190.455 63.1558L191.165 61.4699ZM185.589 59.1216C185.26 58.9827 184.917 58.9208 184.582 58.9243L184.602 60.7535C184.696 60.7525 184.79 60.7699 184.879 60.8074L185.589 59.1216ZM184.582 58.9243C183.581 58.9348 182.631 59.5403 182.228 60.5289L183.922 61.2196C184.039 60.9321 184.316 60.7565 184.602 60.7535L184.582 58.9243ZM182.228 60.5289L179.278 67.7689L180.972 68.4592L183.922 61.2196L182.228 60.5289ZM179.278 67.7689C178.746 69.0728 179.354 70.6027 180.665 71.1521L181.372 69.4649C181.009 69.3125 180.81 68.8567 180.972 68.4592L179.278 67.7689ZM180.665 71.1521L187.428 73.9858L188.135 72.2986L181.372 69.4649L180.665 71.1521ZM187.427 73.9852C187.322 73.941 187.249 73.8528 187.221 73.7547L188.98 73.2536C188.859 72.8274 188.552 72.474 188.137 72.2992L187.427 73.9852ZM187.221 73.7547C187.192 73.6535 187.211 73.5447 187.27 73.4599L188.772 74.5039C189.024 74.1403 189.102 73.6826 188.98 73.2536L187.221 73.7547ZM187.299 73.4205L182.871 79.1154L184.315 80.2382L188.743 74.5432L187.299 73.4205ZM182.863 79.1257C182.013 80.2515 182.219 81.8828 183.335 82.753L184.46 81.3106C184.139 81.06 184.07 80.5631 184.323 80.2279L182.863 79.1257ZM183.335 82.753L189.453 87.5242L190.578 86.0818L184.46 81.3106L183.335 82.753ZM189.453 87.5242C190.577 88.4014 192.205 88.1785 193.062 87.0433L191.602 85.9414C191.356 86.2675 190.89 86.3256 190.578 86.0818L189.453 87.5242ZM193.054 87.0536L197.359 81.515L195.915 80.3924L191.61 85.9311L193.054 87.0536ZM197.367 81.5047C197.3 81.5933 197.191 81.6497 197.074 81.6497V79.8204C196.613 79.8204 196.183 80.0373 195.907 80.4028L197.367 81.5047ZM197.074 81.6497C196.956 81.6497 196.847 81.5933 196.78 81.5047L198.24 80.4028C197.965 80.0374 197.535 79.8204 197.074 79.8204V81.6497ZM196.788 81.515L201.093 87.0536L202.537 85.9311L198.232 80.3924L196.788 81.515ZM201.085 87.0435C201.942 88.1782 203.57 88.4015 204.695 87.5243L203.57 86.0817C203.257 86.3255 202.791 86.2675 202.545 85.9413L201.085 87.0435ZM204.695 87.5243L210.812 82.753L209.687 81.3105L203.57 86.0817L204.695 87.5243ZM210.812 82.753C211.928 81.8826 212.134 80.2517 211.284 79.1257L209.824 80.2278C210.077 80.5632 210.009 81.0598 209.687 81.3105L210.812 82.753ZM211.276 79.1154L206.849 73.4205L205.405 74.5432L209.832 80.2381L211.276 79.1154ZM206.877 73.4591C206.937 73.5456 206.955 73.6544 206.927 73.7535L205.167 73.2547C205.046 73.6816 205.122 74.1397 205.376 74.5046L206.877 73.4591ZM206.927 73.7548C206.899 73.8529 206.825 73.941 206.72 73.9852L206.01 72.2992C205.595 72.474 205.289 72.8274 205.167 73.2535L206.927 73.7548ZM206.719 73.9858L213.482 71.152L212.775 69.4648L206.012 72.2986L206.719 73.9858ZM213.482 71.152C214.794 70.6026 215.401 69.0731 214.869 67.769L213.175 68.4591C213.337 68.857 213.139 69.3125 212.775 69.4648L213.482 71.152ZM214.869 67.769L211.919 60.529L210.225 61.2194L213.175 68.4591L214.869 67.769ZM211.919 60.529C211.516 59.5405 210.566 58.9349 209.565 58.9243L209.545 60.7535C209.831 60.7565 210.108 60.9321 210.225 61.2194L211.919 60.529ZM209.565 58.9243C209.229 58.9208 208.887 58.9833 208.558 59.1214L209.267 60.8077C209.357 60.7699 209.451 60.7525 209.545 60.7535L209.565 58.9243ZM208.558 59.1214L202.982 61.4699L203.692 63.1558L209.267 60.8077L208.558 59.1214ZM202.993 61.4653C203.11 61.4179 203.242 61.434 203.342 61.5029L202.305 63.0094C202.708 63.2872 203.223 63.3459 203.68 63.1604L202.993 61.4653ZM203.341 61.502C203.44 61.5699 203.495 61.6806 203.495 61.7926H201.666C201.666 62.2768 201.902 62.7334 202.306 63.0103L203.341 61.502ZM203.495 61.7926V54.6794H201.666V61.7926H203.495ZM203.495 54.6794C203.495 53.2675 202.354 52.0854 200.929 52.0854V53.9147C201.315 53.9147 201.666 54.2495 201.666 54.6794H203.495ZM200.929 52.0854H193.218V53.9147H200.929V52.0854Z" fill="url(#paint6_linear_2338_4242)"/>
</g>
</g>
</g>
</g>
<defs>
<filter id="filter0_ddi_2338_4242" x="132" y="26" width="130" height="107" filterUnits="userSpaceOnUse" color-interpolation-filters="sRGB">
<feFlood flood-opacity="0" result="BackgroundImageFix"/>
<feColorMatrix in="SourceAlpha" type="matrix" values="0 0 0 0 0 0 0 0 0 0 0 0 0 0 0 0 0 0 127 0" result="hardAlpha"/>
<feOffset dy="1"/>
<feGaussianBlur stdDeviation="1"/>
<feComposite in2="hardAlpha" operator="out"/>
<feColorMatrix type="matrix" values="0 0 0 0 0 0 0 0 0 0 0 0 0 0 0 0 0 0 0.5 0"/>
<feBlend mode="normal" in2="BackgroundImageFix" result="effect1_dropShadow_2338_4242"/>
<feColorMatrix in="SourceAlpha" type="matrix" values="0 0 0 0 0 0 0 0 0 0 0 0 0 0 0 0 0 0 127 0" result="hardAlpha"/>
<feMorphology radius="2" operator="dilate" in="SourceAlpha" result="effect2_dropShadow_2338_4242"/>
<feOffset dy="2"/>
<feGaussianBlur stdDeviation="5"/>
<feComposite in2="hardAlpha" operator="out"/>
<feColorMatrix type="matrix" values="0 0 0 0 0 0 0 0 0 0 0 0 0 0 0 0 0 0 0.2 0"/>
<feBlend mode="normal" in2="effect1_dropShadow_2338_4242" result="effect2_dropShadow_2338_4242"/>
<feBlend mode="normal" in="SourceGraphic" in2="effect2_dropShadow_2338_4242" result="shape"/>
<feColorMatrix in="SourceAlpha" type="matrix" values="0 0 0 0 0 0 0 0 0 0 0 0 0 0 0 0 0 0 127 0" result="hardAlpha"/>
<feOffset dy="1"/>
<feGaussianBlur stdDeviation="0.5"/>
<feComposite in2="hardAlpha" operator="arithmetic" k2="-1" k3="1"/>
<feColorMatrix type="matrix" values="0 0 0 0 1 0 0 0 0 1 0 0 0 0 1 0 0 0 0.11 0"/>
<feBlend mode="normal" in2="shape" result="effect3_innerShadow_2338_4242"/>
</filter>
<filter id="filter1_d_2338_4242" x="177.281" y="97.8252" width="37.0781" height="7.40527" filterUnits="userSpaceOnUse" color-interpolation-filters="sRGB">
<feFlood flood-opacity="0" result="BackgroundImageFix"/>
<feColorMatrix in="SourceAlpha" type="matrix" values="0 0 0 0 0 0 0 0 0 0 0 0 0 0 0 0 0 0 127 0" result="hardAlpha"/>
<feOffset dy="-1"/>
<feGaussianBlur stdDeviation="0.5"/>
<feComposite in2="hardAlpha" operator="out"/>
<feColorMatrix type="matrix" values="0 0 0 0 0 0 0 0 0 0 0 0 0 0 0 0 0 0 0.2 0"/>
<feBlend mode="normal" in2="BackgroundImageFix" result="effect1_dropShadow_2338_4242"/>
<feBlend mode="normal" in="SourceGraphic" in2="effect1_dropShadow_2338_4242" result="shape"/>
</filter>
<filter id="filter2_d_2338_4242" x="176" y="53" width="42.1484" height="42.1465" filterUnits="userSpaceOnUse" color-interpolation-filters="sRGB">
<feFlood flood-opacity="0" result="BackgroundImageFix"/>
<feColorMatrix in="SourceAlpha" type="matrix" values="0 0 0 0 0 0 0 0 0 0 0 0 0 0 0 0 0 0 127 0" result="hardAlpha"/>
<feOffset dy="4"/>
<feGaussianBlur stdDeviation="2"/>
<feComposite in2="hardAlpha" operator="out"/>
<feColorMatrix type="matrix" values="0 0 0 0 0 0 0 0 0 0 0 0 0 0 0 0 0 0 0.13 0"/>
<feBlend mode="normal" in2="BackgroundImageFix" result="effect1_dropShadow_2338_4242"/>
<feBlend mode="normal" in="SourceGraphic" in2="effect1_dropShadow_2338_4242" result="shape"/>
</filter>
<linearGradient id="paint0_linear_2338_4242" x1="199.5" y1="27" x2="199.5" y2="131" gradientUnits="userSpaceOnUse">
<stop stop-color="#343434"/>
<stop offset="1" stop-opacity="0"/>
</linearGradient>
<radialGradient id="paint1_radial_2338_4242" cx="0" cy="0" r="1" gradientUnits="userSpaceOnUse" gradientTransform="translate(146.5 121.5) rotate(-41.6335) scale(30.104 38.4461)">
<stop stop-color="#8EE8FF"/>
<stop offset="1" stop-color="#00CBFF" stop-opacity="0"/>
</radialGradient>
<radialGradient id="paint2_radial_2338_4242" cx="0" cy="0" r="1" gradientUnits="userSpaceOnUse" gradientTransform="translate(147 39) rotate(49.2891) scale(28.3637 36.2235)">
<stop stop-color="#8EE8FF"/>
<stop offset="1" stop-color="#98EAFF" stop-opacity="0"/>
</radialGradient>
<radialGradient id="paint3_radial_2338_4242" cx="0" cy="0" r="1" gradientUnits="userSpaceOnUse" gradientTransform="translate(246 38.5) rotate(139.086) scale(29.7741 38.0248)">
<stop stop-color="#8EE8FF"/>
<stop offset="1" stop-color="#9BEBFF" stop-opacity="0"/>
</radialGradient>
<radialGradient id="paint4_radial_2338_4242" cx="0" cy="0" r="1" gradientUnits="userSpaceOnUse" gradientTransform="translate(247.5 117) rotate(-113.782) scale(32.2374 41.1706)">
<stop stop-color="#8EE8FF"/>
<stop offset="1" stop-color="#9BEBFF" stop-opacity="0"/>
</radialGradient>
<linearGradient id="paint5_linear_2338_4242" x1="197.073" y1="53" x2="197.073" y2="87.1465" gradientUnits="userSpaceOnUse">
<stop stop-color="white"/>
<stop offset="1" stop-color="white" stop-opacity="0"/>
</linearGradient>
<linearGradient id="paint6_linear_2338_4242" x1="204.339" y1="51.1838" x2="187.992" y2="89.6894" gradientUnits="userSpaceOnUse">
<stop stop-color="white"/>
<stop offset="1" stop-color="white"/>
</linearGradient>
<clipPath id="clip0_2338_4242">
<rect x="144" y="36" width="106" height="83" rx="2" fill="white"/>
</clipPath>
</defs>
</svg>
