<svg  viewBox="0 0 400 138" fill="none" xmlns="http://www.w3.org/2000/svg">
<g clip-path="url(#clip0_731_4795)">
<g filter="url(#filter0_di_731_4795)">
<rect x="29" y="24" width="343" height="219" rx="44" fill="#1F1F2D" shape-rendering="crispEdges"/>
<rect x="29" y="24" width="343" height="219" rx="44" fill="url(#paint0_linear_731_4795)" shape-rendering="crispEdges"/>
<g filter="url(#filter1_i_731_4795)">
<rect x="34.8828" y="29.8799" width="330.96" height="196" rx="38" fill="#131316" fill-opacity="0.5"/>
<path d="M52.8399 61.877V53.1071H53.4018V61.877H52.8399ZM54.5973 55.8271C54.5608 55.5028 54.4101 55.2516 54.1451 55.0735C53.8802 54.8931 53.5468 54.8028 53.1448 54.8028C52.8571 54.8028 52.6081 54.8485 52.398 54.9399C52.1879 55.0289 52.0246 55.1523 51.9081 55.3099C51.7939 55.4652 51.7368 55.6421 51.7368 55.8408C51.7368 56.0076 51.7757 56.1514 51.8533 56.2725C51.9333 56.3935 52.0372 56.4952 52.1651 56.5774C52.2952 56.6573 52.4346 56.7247 52.583 56.7795C52.7315 56.832 52.8742 56.8754 53.0112 56.9097L53.6964 57.0878C53.9202 57.1426 54.1497 57.2168 54.3849 57.3105C54.6202 57.4041 54.8383 57.5274 55.0393 57.6805C55.2402 57.8335 55.4024 58.023 55.5257 58.2491C55.6513 58.4752 55.7141 58.7459 55.7141 59.061C55.7141 59.4584 55.6114 59.8113 55.4058 60.1196C55.2026 60.4279 54.9068 60.6711 54.5185 60.8493C54.1326 61.0274 53.6655 61.1165 53.1174 61.1165C52.5921 61.1165 52.1377 61.0331 51.754 60.8664C51.3703 60.6997 51.07 60.4633 50.853 60.1573C50.636 59.849 50.5161 59.4835 50.4933 59.061H51.5553C51.5758 59.3145 51.6581 59.5258 51.8019 59.6948C51.9481 59.8615 52.1342 59.986 52.3603 60.0682C52.5887 60.1481 52.8388 60.1881 53.1106 60.1881C53.4098 60.1881 53.6758 60.1413 53.9088 60.0476C54.144 59.9517 54.329 59.8193 54.4637 59.6503C54.5985 59.479 54.6659 59.2791 54.6659 59.0508C54.6659 58.8429 54.6065 58.6728 54.4877 58.5403C54.3712 58.4079 54.2125 58.2982 54.0115 58.2115C53.8128 58.1247 53.5879 58.0482 53.3367 57.9819L52.5076 57.7558C51.9458 57.6028 51.5005 57.3779 51.1716 57.081C50.845 56.7841 50.6817 56.3912 50.6817 55.9025C50.6817 55.4983 50.7913 55.1454 51.0106 54.844C51.2298 54.5425 51.5267 54.3084 51.9013 54.1417C52.2758 53.9727 52.6983 53.8882 53.1688 53.8882C53.6438 53.8882 54.0629 53.9715 54.4261 54.1382C54.7915 54.305 55.0792 54.5345 55.2893 54.8268C55.4995 55.1169 55.6091 55.4503 55.6182 55.8271H54.5973ZM56.9825 58.2663C56.9734 57.8712 57.0316 57.5469 57.1572 57.2934C57.2851 57.0398 57.4564 56.8526 57.6711 56.7315C57.8858 56.6082 58.1221 56.5465 58.3802 56.5465C58.6086 56.5465 58.8198 56.5956 59.014 56.6938C59.2081 56.7898 59.4296 56.9474 59.6786 57.1666C59.8339 57.3013 59.9606 57.3996 60.0588 57.4612C60.157 57.5206 60.2666 57.5503 60.3877 57.5503C60.5727 57.5503 60.72 57.4818 60.8296 57.3447C60.9415 57.2054 60.9952 56.9999 60.9906 56.7281H61.8573C61.8665 57.1255 61.8071 57.4509 61.6792 57.7044C61.5536 57.9579 61.3823 58.1452 61.1653 58.2663C60.9507 58.3873 60.7154 58.4478 60.4596 58.4478C60.229 58.4478 60.0166 58.3987 59.8224 58.3005C59.6283 58.2 59.4079 58.0424 59.1613 57.8278C59.0014 57.6885 58.8735 57.5902 58.7776 57.5332C58.6817 57.4738 58.5732 57.4441 58.4521 57.4441C58.2763 57.4441 58.1301 57.508 58.0137 57.6359C57.8995 57.7615 57.8447 57.9716 57.8492 58.2663H56.9825ZM66.8169 59.2152L66.8101 57.9648H66.9882L69.0848 55.7381H70.3112L67.92 58.2731H67.759L66.8169 59.2152ZM65.8749 61V53.9841H66.8992V61H65.8749ZM69.1978 61L67.3137 58.4992L68.0194 57.7832L70.4551 61H69.1978ZM73.2959 61.1062C72.7774 61.1062 72.331 60.9954 71.9564 60.7739C71.5841 60.5501 71.2964 60.2361 71.0931 59.8318C70.8921 59.4253 70.7917 58.9491 70.7917 58.4033C70.7917 57.8643 70.8921 57.3893 71.0931 56.9782C71.2964 56.5671 71.5796 56.2462 71.9427 56.0156C72.3081 55.7849 72.7352 55.6696 73.2239 55.6696C73.5208 55.6696 73.8086 55.7187 74.0872 55.8169C74.3658 55.9151 74.6159 56.0692 74.8374 56.2793C75.059 56.4894 75.2337 56.7624 75.3616 57.0981C75.4895 57.4315 75.5534 57.8369 75.5534 58.3142V58.6774H71.3706V57.91H74.5497C74.5497 57.6405 74.4949 57.4018 74.3853 57.194C74.2756 56.9839 74.1215 56.8183 73.9228 56.6973C73.7264 56.5762 73.4957 56.5157 73.2308 56.5157C72.943 56.5157 72.6918 56.5865 72.4771 56.7281C72.2647 56.8674 72.1003 57.0501 71.9838 57.2762C71.8696 57.5 71.8125 57.7433 71.8125 58.0059V58.6054C71.8125 58.9571 71.8742 59.2563 71.9975 59.503C72.1231 59.7496 72.2978 59.938 72.5217 60.0682C72.7455 60.1961 73.007 60.26 73.3061 60.26C73.5003 60.26 73.6773 60.2326 73.8371 60.1778C73.997 60.1207 74.1352 60.0362 74.2516 59.9243C74.3681 59.8124 74.4572 59.6742 74.5189 59.5098L75.4883 59.6845C75.4107 59.97 75.2714 60.2201 75.0704 60.4348C74.8717 60.6471 74.6216 60.8127 74.3202 60.9315C74.021 61.048 73.6796 61.1062 73.2959 61.1062ZM77.1866 62.9732C77.0336 62.9732 76.8943 62.9607 76.7687 62.9355C76.6431 62.9127 76.5495 62.8876 76.4878 62.8602L76.7345 62.0209C76.9217 62.0711 77.0884 62.0928 77.2346 62.086C77.3808 62.0791 77.5098 62.0243 77.6217 61.9215C77.7359 61.8188 77.8364 61.6509 77.9232 61.4179L78.0499 61.0685L76.1247 55.7381H77.2209L78.5535 59.8215H78.6083L79.9409 55.7381H81.0406L78.8721 61.7023C78.7716 61.9763 78.6437 62.2081 78.4884 62.3977C78.3331 62.5895 78.1481 62.7334 77.9335 62.8293C77.7188 62.9253 77.4698 62.9732 77.1866 62.9732ZM85.9463 57.0227L85.0179 57.1872C84.9791 57.0684 84.9174 56.9553 84.8329 56.848C84.7507 56.7407 84.6388 56.6527 84.4972 56.5842C84.3556 56.5157 84.1786 56.4815 83.9662 56.4815C83.6761 56.4815 83.4341 56.5465 83.2399 56.6767C83.0458 56.8046 82.9487 56.9702 82.9487 57.1735C82.9487 57.3493 83.0138 57.4909 83.144 57.5982C83.2742 57.7056 83.4843 57.7935 83.7743 57.862L84.6102 58.0539C85.0944 58.1658 85.4552 58.3382 85.6928 58.5712C85.9303 58.8041 86.049 59.1067 86.049 59.479C86.049 59.7941 85.9577 60.0751 85.775 60.3217C85.5945 60.5661 85.3422 60.7579 85.0179 60.8972C84.6959 61.0365 84.3225 61.1062 83.8977 61.1062C83.3084 61.1062 82.8277 60.9806 82.4554 60.7294C82.0832 60.4759 81.8548 60.1162 81.7703 59.6503L82.7603 59.4995C82.822 59.7576 82.9487 59.9529 83.1406 60.0853C83.3324 60.2155 83.5825 60.2806 83.8908 60.2806C84.2265 60.2806 84.4949 60.2109 84.6959 60.0716C84.8968 59.93 84.9973 59.7576 84.9973 59.5543C84.9973 59.3899 84.9357 59.2517 84.8123 59.1398C84.6913 59.0279 84.5052 58.9434 84.2539 58.8863L83.3633 58.6911C82.8722 58.5791 82.5091 58.401 82.2739 58.1566C82.0409 57.9123 81.9244 57.6028 81.9244 57.2283C81.9244 56.9177 82.0112 56.6459 82.1848 56.4129C82.3584 56.18 82.5982 55.9984 82.9042 55.8682C83.2102 55.7358 83.5608 55.6696 83.9559 55.6696C84.5246 55.6696 84.9722 55.7929 85.2988 56.0395C85.6254 56.2839 85.8412 56.6116 85.9463 57.0227ZM88.1995 57.8757V61H87.1752V53.9841H88.1858V56.5945H88.2509C88.3742 56.3113 88.5627 56.0864 88.8162 55.9196C89.0697 55.7529 89.4008 55.6696 89.8096 55.6696C90.1705 55.6696 90.4856 55.7438 90.7551 55.8922C91.0269 56.0407 91.237 56.2622 91.3855 56.5568C91.5362 56.8491 91.6116 57.2146 91.6116 57.6531V61H90.5873V57.7764C90.5873 57.3904 90.4879 57.0912 90.2892 56.8788C90.0905 56.6642 89.8142 56.5568 89.4602 56.5568C89.2181 56.5568 89.0012 56.6082 88.8093 56.711C88.6198 56.8137 88.4702 56.9645 88.3605 57.1632C88.2532 57.3596 88.1995 57.5971 88.1995 57.8757ZM94.5097 61.1165C94.1763 61.1165 93.8748 61.0548 93.6054 60.9315C93.3359 60.8059 93.1223 60.6243 92.9647 60.3868C92.8094 60.1493 92.7318 59.8581 92.7318 59.5132C92.7318 59.2163 92.7889 58.972 92.9031 58.7801C93.0173 58.5883 93.1714 58.4364 93.3655 58.3245C93.5597 58.2126 93.7766 58.1281 94.0164 58.071C94.2562 58.0139 94.5006 57.9705 94.7495 57.9408C95.0647 57.9043 95.3205 57.8746 95.5169 57.8517C95.7133 57.8266 95.8561 57.7867 95.9451 57.7318C96.0342 57.677 96.0787 57.588 96.0787 57.4646V57.4407C96.0787 57.1415 95.9942 56.9097 95.8252 56.7452C95.6585 56.5808 95.4096 56.4986 95.0784 56.4986C94.7336 56.4986 94.4618 56.5751 94.2631 56.7281C94.0667 56.8788 93.9308 57.0467 93.8554 57.2317L92.8928 57.0124C93.007 56.6927 93.1737 56.4346 93.393 56.2382C93.6145 56.0395 93.8691 55.8957 94.1569 55.8066C94.4447 55.7152 94.7473 55.6696 95.0647 55.6696C95.2748 55.6696 95.4975 55.6947 95.7327 55.7449C95.9703 55.7929 96.1918 55.8819 96.3973 56.0121C96.6052 56.1423 96.7753 56.3284 96.9078 56.5705C97.0402 56.8103 97.1065 57.1221 97.1065 57.5057V61H96.1061V60.2806H96.065C95.9988 60.4131 95.8995 60.5432 95.767 60.6711C95.6345 60.799 95.4644 60.9052 95.2566 60.9897C95.0487 61.0742 94.7998 61.1165 94.5097 61.1165ZM94.7324 60.2943C95.0156 60.2943 95.2577 60.2383 95.4587 60.1264C95.6619 60.0145 95.8161 59.8684 95.9211 59.6879C96.0285 59.5052 96.0822 59.31 96.0822 59.1021V58.4238C96.0456 58.4604 95.9748 58.4946 95.8698 58.5266C95.767 58.5563 95.6494 58.5826 95.5169 58.6054C95.3844 58.626 95.2554 58.6454 95.1298 58.6636C95.0042 58.6796 94.8991 58.6933 94.8146 58.7048C94.6159 58.7299 94.4344 58.7721 94.2699 58.8315C94.1078 58.8909 93.9776 58.9765 93.8794 59.0884C93.7835 59.1981 93.7355 59.3442 93.7355 59.5269C93.7355 59.7804 93.8292 59.9723 94.0164 60.1025C94.2037 60.2304 94.4424 60.2943 94.7324 60.2943ZM100.441 61.1028C100.016 61.1028 99.6366 60.9943 99.3032 60.7773C98.9721 60.5581 98.7117 60.2463 98.5221 59.8421C98.3349 59.4356 98.2412 58.948 98.2412 58.3793C98.2412 57.8106 98.336 57.3242 98.5256 56.9199C98.7174 56.5157 98.98 56.2063 99.3135 55.9916C99.6469 55.7769 100.025 55.6696 100.447 55.6696C100.774 55.6696 101.037 55.7244 101.235 55.834C101.436 55.9413 101.592 56.0669 101.701 56.2108C101.813 56.3547 101.9 56.4815 101.962 56.5911H102.023V53.9841H103.048V61H102.047V60.1812H101.962C101.9 60.2932 101.811 60.4211 101.694 60.5649C101.58 60.7088 101.423 60.8344 101.222 60.9418C101.021 61.0491 100.76 61.1028 100.441 61.1028ZM100.667 60.2292C100.961 60.2292 101.21 60.1516 101.413 59.9963C101.619 59.8387 101.774 59.6206 101.879 59.3419C101.987 59.0633 102.04 58.739 102.04 58.369C102.04 58.0036 101.988 57.6839 101.883 57.4098C101.778 57.1358 101.624 56.9222 101.42 56.7692C101.217 56.6162 100.966 56.5397 100.667 56.5397C100.358 56.5397 100.101 56.6196 99.8959 56.7795C99.6903 56.9394 99.535 57.1575 99.43 57.4338C99.3272 57.7102 99.2758 58.0219 99.2758 58.369C99.2758 58.7207 99.3283 59.0371 99.4334 59.318C99.5384 59.5989 99.6937 59.8215 99.8993 59.986C100.107 60.1481 100.363 60.2292 100.667 60.2292ZM106.777 61.1062C106.259 61.1062 105.812 60.9954 105.438 60.7739C105.066 60.5501 104.778 60.2361 104.575 59.8318C104.374 59.4253 104.273 58.9491 104.273 58.4033C104.273 57.8643 104.374 57.3893 104.575 56.9782C104.778 56.5671 105.061 56.2462 105.424 56.0156C105.79 55.7849 106.217 55.6696 106.705 55.6696C107.002 55.6696 107.29 55.7187 107.569 55.8169C107.847 55.9151 108.097 56.0692 108.319 56.2793C108.54 56.4894 108.715 56.7624 108.843 57.0981C108.971 57.4315 109.035 57.8369 109.035 58.3142V58.6774H104.852V57.91H108.031C108.031 57.6405 107.976 57.4018 107.867 57.194C107.757 56.9839 107.603 56.8183 107.404 56.6973C107.208 56.5762 106.977 56.5157 106.712 56.5157C106.424 56.5157 106.173 56.5865 105.959 56.7281C105.746 56.8674 105.582 57.0501 105.465 57.2762C105.351 57.5 105.294 57.7433 105.294 58.0059V58.6054C105.294 58.9571 105.356 59.2563 105.479 59.503C105.605 59.7496 105.779 59.938 106.003 60.0682C106.227 60.1961 106.488 60.26 106.788 60.26C106.982 60.26 107.159 60.2326 107.319 60.1778C107.478 60.1207 107.617 60.0362 107.733 59.9243C107.85 59.8124 107.939 59.6742 108 59.5098L108.97 59.6845C108.892 59.97 108.753 60.2201 108.552 60.4348C108.353 60.6471 108.103 60.8127 107.802 60.9315C107.502 61.048 107.161 61.1062 106.777 61.1062ZM116.667 57.0227L115.739 57.1872C115.7 57.0684 115.639 56.9553 115.554 56.848C115.472 56.7407 115.36 56.6527 115.218 56.5842C115.077 56.5157 114.9 56.4815 114.687 56.4815C114.397 56.4815 114.155 56.5465 113.961 56.6767C113.767 56.8046 113.67 56.9702 113.67 57.1735C113.67 57.3493 113.735 57.4909 113.865 57.5982C113.995 57.7056 114.205 57.7935 114.495 57.862L115.331 58.0539C115.816 58.1658 116.176 58.3382 116.414 58.5712C116.651 58.8041 116.77 59.1067 116.77 59.479C116.77 59.7941 116.679 60.0751 116.496 60.3217C116.316 60.5661 116.063 60.7579 115.739 60.8972C115.417 61.0365 115.044 61.1062 114.619 61.1062C114.03 61.1062 113.549 60.9806 113.177 60.7294C112.804 60.4759 112.576 60.1162 112.491 59.6503L113.481 59.4995C113.543 59.7576 113.67 59.9529 113.862 60.0853C114.054 60.2155 114.304 60.2806 114.612 60.2806C114.948 60.2806 115.216 60.2109 115.417 60.0716C115.618 59.93 115.718 59.7576 115.718 59.5543C115.718 59.3899 115.657 59.2517 115.533 59.1398C115.412 59.0279 115.226 58.9434 114.975 58.8863L114.084 58.6911C113.593 58.5791 113.23 58.401 112.995 58.1566C112.762 57.9123 112.646 57.6028 112.646 57.2283C112.646 56.9177 112.732 56.6459 112.906 56.4129C113.08 56.18 113.319 55.9984 113.625 55.8682C113.931 55.7358 114.282 55.6696 114.677 55.6696C115.246 55.6696 115.693 55.7929 116.02 56.0395C116.347 56.2839 116.562 56.6116 116.667 57.0227ZM120.164 61.1062C119.646 61.1062 119.199 60.9954 118.825 60.7739C118.453 60.5501 118.165 60.2361 117.961 59.8318C117.761 59.4253 117.66 58.9491 117.66 58.4033C117.66 57.8643 117.761 57.3893 117.961 56.9782C118.165 56.5671 118.448 56.2462 118.811 56.0156C119.176 55.7849 119.604 55.6696 120.092 55.6696C120.389 55.6696 120.677 55.7187 120.956 55.8169C121.234 55.9151 121.484 56.0692 121.706 56.2793C121.927 56.4894 122.102 56.7624 122.23 57.0981C122.358 57.4315 122.422 57.8369 122.422 58.3142V58.6774H118.239V57.91H121.418C121.418 57.6405 121.363 57.4018 121.254 57.194C121.144 56.9839 120.99 56.8183 120.791 56.6973C120.595 56.5762 120.364 56.5157 120.099 56.5157C119.811 56.5157 119.56 56.5865 119.345 56.7281C119.133 56.8674 118.969 57.0501 118.852 57.2762C118.738 57.5 118.681 57.7433 118.681 58.0059V58.6054C118.681 58.9571 118.743 59.2563 118.866 59.503C118.991 59.7496 119.166 59.938 119.39 60.0682C119.614 60.1961 119.875 60.26 120.175 60.26C120.369 60.26 120.546 60.2326 120.706 60.1778C120.865 60.1207 121.004 60.0362 121.12 59.9243C121.236 59.8124 121.326 59.6742 121.387 59.5098L122.357 59.6845C122.279 59.97 122.14 60.2201 121.939 60.4348C121.74 60.6471 121.49 60.8127 121.189 60.9315C120.889 61.048 120.548 61.1062 120.164 61.1062ZM125.775 61.1062C125.265 61.1062 124.827 60.9909 124.459 60.7602C124.094 60.5272 123.813 60.2064 123.617 59.7976C123.42 59.3888 123.322 58.9206 123.322 58.393C123.322 57.8586 123.422 57.387 123.623 56.9782C123.824 56.5671 124.108 56.2462 124.473 56.0156C124.838 55.7849 125.269 55.6696 125.764 55.6696C126.164 55.6696 126.52 55.7438 126.833 55.8922C127.146 56.0384 127.399 56.2439 127.59 56.5089C127.784 56.7738 127.9 57.0832 127.936 57.4372H126.939C126.885 57.1906 126.759 56.9782 126.563 56.8C126.369 56.6219 126.108 56.5328 125.782 56.5328C125.496 56.5328 125.246 56.6082 125.031 56.7589C124.819 56.9074 124.653 57.1198 124.535 57.3961C124.416 57.6702 124.356 57.9945 124.356 58.369C124.356 58.7527 124.415 59.0839 124.531 59.3625C124.648 59.6411 124.812 59.8569 125.024 60.01C125.239 60.163 125.492 60.2395 125.782 60.2395C125.976 60.2395 126.152 60.2041 126.309 60.1333C126.469 60.0602 126.603 59.9563 126.71 59.8215C126.82 59.6868 126.896 59.5246 126.939 59.3351H127.936C127.9 59.6754 127.789 59.9791 127.604 60.2463C127.419 60.5135 127.171 60.7237 126.861 60.8767C126.552 61.0297 126.19 61.1062 125.775 61.1062ZM129.032 61V55.7381H130.022V56.5739H130.077C130.173 56.2908 130.342 56.0681 130.584 55.9059C130.828 55.7415 131.104 55.6593 131.413 55.6593C131.477 55.6593 131.552 55.6616 131.639 55.6661C131.728 55.6707 131.797 55.6764 131.848 55.6833V56.663C131.807 56.6516 131.734 56.639 131.628 56.6253C131.523 56.6093 131.418 56.6014 131.313 56.6014C131.071 56.6014 130.855 56.6527 130.666 56.7555C130.479 56.856 130.33 56.9965 130.22 57.1769C130.111 57.355 130.056 57.5583 130.056 57.7867V61H129.032ZM134.814 61.1062C134.295 61.1062 133.849 60.9954 133.474 60.7739C133.102 60.5501 132.814 60.2361 132.611 59.8318C132.41 59.4253 132.309 58.9491 132.309 58.4033C132.309 57.8643 132.41 57.3893 132.611 56.9782C132.814 56.5671 133.097 56.2462 133.46 56.0156C133.826 55.7849 134.253 55.6696 134.742 55.6696C135.038 55.6696 135.326 55.7187 135.605 55.8169C135.884 55.9151 136.134 56.0692 136.355 56.2793C136.577 56.4894 136.751 56.7624 136.879 57.0981C137.007 57.4315 137.071 57.8369 137.071 58.3142V58.6774H132.888V57.91H136.067C136.067 57.6405 136.013 57.4018 135.903 57.194C135.793 56.9839 135.639 56.8183 135.44 56.6973C135.244 56.5762 135.013 56.5157 134.748 56.5157C134.461 56.5157 134.209 56.5865 133.995 56.7281C133.782 56.8674 133.618 57.0501 133.501 57.2762C133.387 57.5 133.33 57.7433 133.33 58.0059V58.6054C133.33 58.9571 133.392 59.2563 133.515 59.503C133.641 59.7496 133.816 59.938 134.039 60.0682C134.263 60.1961 134.525 60.26 134.824 60.26C135.018 60.26 135.195 60.2326 135.355 60.1778C135.515 60.1207 135.653 60.0362 135.769 59.9243C135.886 59.8124 135.975 59.6742 136.037 59.5098L137.006 59.6845C136.928 59.97 136.789 60.2201 136.588 60.4348C136.389 60.6471 136.139 60.8127 135.838 60.9315C135.539 61.048 135.197 61.1062 134.814 61.1062ZM140.664 55.7381V56.5602H137.79V55.7381H140.664ZM138.56 54.4774H139.585V59.455C139.585 59.6537 139.614 59.8033 139.674 59.9038C139.733 60.002 139.81 60.0693 139.903 60.1059C139.999 60.1401 140.103 60.1573 140.215 60.1573C140.297 60.1573 140.369 60.1516 140.431 60.1401C140.493 60.1287 140.541 60.1196 140.575 60.1127L140.76 60.9589C140.7 60.9817 140.616 61.0046 140.506 61.0274C140.397 61.0525 140.26 61.0662 140.095 61.0685C139.826 61.0731 139.574 61.0251 139.342 60.9246C139.109 60.8241 138.92 60.6688 138.776 60.4587C138.632 60.2486 138.56 59.9848 138.56 59.6674V54.4774ZM145.655 57.0227L144.727 57.1872C144.688 57.0684 144.626 56.9553 144.542 56.848C144.46 56.7407 144.348 56.6527 144.206 56.5842C144.064 56.5157 143.887 56.4815 143.675 56.4815C143.385 56.4815 143.143 56.5465 142.949 56.6767C142.755 56.8046 142.658 56.9702 142.658 57.1735C142.658 57.3493 142.723 57.4909 142.853 57.5982C142.983 57.7056 143.193 57.7935 143.483 57.862L144.319 58.0539C144.803 58.1658 145.164 58.3382 145.402 58.5712C145.639 58.8041 145.758 59.1067 145.758 59.479C145.758 59.7941 145.667 60.0751 145.484 60.3217C145.303 60.5661 145.051 60.7579 144.727 60.8972C144.405 61.0365 144.031 61.1062 143.607 61.1062C143.017 61.1062 142.537 60.9806 142.164 60.7294C141.792 60.4759 141.564 60.1162 141.479 59.6503L142.469 59.4995C142.531 59.7576 142.658 59.9529 142.849 60.0853C143.041 60.2155 143.291 60.2806 143.6 60.2806C143.935 60.2806 144.204 60.2109 144.405 60.0716C144.606 59.93 144.706 59.7576 144.706 59.5543C144.706 59.3899 144.645 59.2517 144.521 59.1398C144.4 59.0279 144.214 58.9434 143.963 58.8863L143.072 58.6911C142.581 58.5791 142.218 58.401 141.983 58.1566C141.75 57.9123 141.633 57.6028 141.633 57.2283C141.633 56.9177 141.72 56.6459 141.894 56.4129C142.067 56.18 142.307 55.9984 142.613 55.8682C142.919 55.7358 143.27 55.6696 143.665 55.6696C144.233 55.6696 144.681 55.7929 145.008 56.0395C145.334 56.2839 145.55 56.6116 145.655 57.0227ZM152.537 57.5914V58.4787H149.427V57.5914H152.537ZM157.003 57.5914V58.4787H153.892V57.5914H157.003ZM161.701 58.8178V55.7381H162.729V61H161.722V60.0888H161.667C161.546 60.3697 161.352 60.6038 161.085 60.791C160.82 60.976 160.49 61.0685 160.095 61.0685C159.757 61.0685 159.457 60.9943 159.197 60.8458C158.939 60.6951 158.736 60.4724 158.587 60.1778C158.441 59.8832 158.368 59.5189 158.368 59.085V55.7381H159.392V58.9617C159.392 59.3202 159.492 59.6057 159.69 59.8181C159.889 60.0305 160.147 60.1367 160.465 60.1367C160.656 60.1367 160.847 60.0888 161.037 59.9928C161.229 59.8969 161.387 59.7519 161.513 59.5578C161.641 59.3636 161.704 59.117 161.701 58.8178ZM164.105 62.9732V55.7381H165.106V56.5911H165.191C165.251 56.4815 165.336 56.3547 165.448 56.2108C165.56 56.0669 165.715 55.9413 165.914 55.834C166.113 55.7244 166.375 55.6696 166.702 55.6696C167.127 55.6696 167.506 55.7769 167.839 55.9916C168.173 56.2063 168.434 56.5157 168.624 56.9199C168.816 57.3242 168.912 57.8106 168.912 58.3793C168.912 58.948 168.817 59.4356 168.627 59.8421C168.438 60.2463 168.177 60.5581 167.846 60.7773C167.515 60.9943 167.137 61.1028 166.712 61.1028C166.393 61.1028 166.131 61.0491 165.928 60.9418C165.727 60.8344 165.569 60.7088 165.455 60.5649C165.341 60.4211 165.253 60.2932 165.191 60.1812H165.13V62.9732H164.105ZM165.109 58.369C165.109 58.739 165.163 59.0633 165.27 59.3419C165.377 59.6206 165.533 59.8387 165.736 59.9963C165.939 60.1516 166.188 60.2292 166.483 60.2292C166.789 60.2292 167.045 60.1481 167.25 59.986C167.456 59.8215 167.611 59.5989 167.716 59.318C167.823 59.0371 167.877 58.7207 167.877 58.369C167.877 58.0219 167.825 57.7102 167.719 57.4338C167.617 57.1575 167.461 56.9394 167.254 56.7795C167.048 56.6196 166.791 56.5397 166.483 56.5397C166.186 56.5397 165.935 56.6162 165.729 56.7692C165.526 56.9222 165.372 57.1358 165.267 57.4098C165.162 57.6839 165.109 58.0036 165.109 58.369ZM171.084 53.9841V61H170.059V53.9841H171.084ZM174.678 61.1062C174.185 61.1062 173.754 60.9931 173.386 60.767C173.019 60.541 172.733 60.2246 172.53 59.8181C172.327 59.4116 172.225 58.9366 172.225 58.393C172.225 57.8472 172.327 57.3699 172.53 56.9611C172.733 56.5523 173.019 56.2348 173.386 56.0087C173.754 55.7826 174.185 55.6696 174.678 55.6696C175.171 55.6696 175.602 55.7826 175.969 56.0087C176.337 56.2348 176.623 56.5523 176.826 56.9611C177.029 57.3699 177.131 57.8472 177.131 58.393C177.131 58.9366 177.029 59.4116 176.826 59.8181C176.623 60.2246 176.337 60.541 175.969 60.767C175.602 60.9931 175.171 61.1062 174.678 61.1062ZM174.681 60.2463C175.001 60.2463 175.266 60.1618 175.476 59.9928C175.686 59.8238 175.842 59.5989 175.942 59.318C176.045 59.0371 176.096 58.7276 176.096 58.3896C176.096 58.0539 176.045 57.7455 175.942 57.4646C175.842 57.1814 175.686 56.9542 175.476 56.7829C175.266 56.6116 175.001 56.526 174.681 56.526C174.359 56.526 174.092 56.6116 173.88 56.7829C173.67 56.9542 173.513 57.1814 173.41 57.4646C173.31 57.7455 173.26 58.0539 173.26 58.3896C173.26 58.7276 173.31 59.0371 173.41 59.318C173.513 59.5989 173.67 59.8238 173.88 59.9928C174.092 60.1618 174.359 60.2463 174.681 60.2463ZM179.805 61.1165C179.472 61.1165 179.171 61.0548 178.901 60.9315C178.632 60.8059 178.418 60.6243 178.26 60.3868C178.105 60.1493 178.027 59.8581 178.027 59.5132C178.027 59.2163 178.085 58.972 178.199 58.7801C178.313 58.5883 178.467 58.4364 178.661 58.3245C178.855 58.2126 179.072 58.1281 179.312 58.071C179.552 58.0139 179.796 57.9705 180.045 57.9408C180.36 57.9043 180.616 57.8746 180.813 57.8517C181.009 57.8266 181.152 57.7867 181.241 57.7318C181.33 57.677 181.374 57.588 181.374 57.4646V57.4407C181.374 57.1415 181.29 56.9097 181.121 56.7452C180.954 56.5808 180.705 56.4986 180.374 56.4986C180.029 56.4986 179.757 56.5751 179.559 56.7281C179.362 56.8788 179.227 57.0467 179.151 57.2317L178.189 57.0124C178.303 56.6927 178.469 56.4346 178.689 56.2382C178.91 56.0395 179.165 55.8957 179.453 55.8066C179.74 55.7152 180.043 55.6696 180.36 55.6696C180.571 55.6696 180.793 55.6947 181.028 55.7449C181.266 55.7929 181.487 55.8819 181.693 56.0121C181.901 56.1423 182.071 56.3284 182.203 56.5705C182.336 56.8103 182.402 57.1221 182.402 57.5057V61H181.402V60.2806H181.361C181.295 60.4131 181.195 60.5432 181.063 60.6711C180.93 60.799 180.76 60.9052 180.552 60.9897C180.344 61.0742 180.096 61.1165 179.805 61.1165ZM180.028 60.2943C180.311 60.2943 180.553 60.2383 180.754 60.1264C180.958 60.0145 181.112 59.8684 181.217 59.6879C181.324 59.5052 181.378 59.31 181.378 59.1021V58.4238C181.341 58.4604 181.271 58.4946 181.165 58.5266C181.063 58.5563 180.945 58.5826 180.813 58.6054C180.68 58.626 180.551 58.6454 180.426 58.6636C180.3 58.6796 180.195 58.6933 180.11 58.7048C179.912 58.7299 179.73 58.7721 179.566 58.8315C179.404 58.8909 179.273 58.9765 179.175 59.0884C179.079 59.1981 179.031 59.3442 179.031 59.5269C179.031 59.7804 179.125 59.9723 179.312 60.1025C179.499 60.2304 179.738 60.2943 180.028 60.2943ZM185.736 61.1028C185.311 61.1028 184.932 60.9943 184.599 60.7773C184.268 60.5581 184.007 60.2463 183.818 59.8421C183.631 59.4356 183.537 58.948 183.537 58.3793C183.537 57.8106 183.632 57.3242 183.821 56.9199C184.013 56.5157 184.276 56.2063 184.609 55.9916C184.943 55.7769 185.321 55.6696 185.743 55.6696C186.07 55.6696 186.332 55.7244 186.531 55.834C186.732 55.9413 186.887 56.0669 186.997 56.2108C187.109 56.3547 187.196 56.4815 187.257 56.5911H187.319V53.9841H188.343V61H187.343V60.1812H187.257C187.196 60.2932 187.107 60.4211 186.99 60.5649C186.876 60.7088 186.718 60.8344 186.517 60.9418C186.316 61.0491 186.056 61.1028 185.736 61.1028ZM185.962 60.2292C186.257 60.2292 186.506 60.1516 186.709 59.9963C186.915 59.8387 187.07 59.6206 187.175 59.3419C187.282 59.0633 187.336 58.739 187.336 58.369C187.336 58.0036 187.284 57.6839 187.179 57.4098C187.073 57.1358 186.919 56.9222 186.716 56.7692C186.513 56.6162 186.262 56.5397 185.962 56.5397C185.654 56.5397 185.397 56.6196 185.192 56.7795C184.986 56.9394 184.831 57.1575 184.726 57.4338C184.623 57.7102 184.572 58.0219 184.572 58.369C184.572 58.7207 184.624 59.0371 184.729 59.318C184.834 59.5989 184.989 59.8215 185.195 59.986C185.403 60.1481 185.659 60.2292 185.962 60.2292ZM193.033 61.0651C192.846 61.0651 192.685 60.9989 192.55 60.8664C192.415 60.7317 192.348 60.5695 192.348 60.3799C192.348 60.1927 192.415 60.0328 192.55 59.9003C192.685 59.7656 192.846 59.6982 193.033 59.6982C193.22 59.6982 193.381 59.7656 193.516 59.9003C193.651 60.0328 193.718 60.1927 193.718 60.3799C193.718 60.5056 193.686 60.6209 193.622 60.7259C193.561 60.8287 193.478 60.9109 193.376 60.9726C193.273 61.0343 193.159 61.0651 193.033 61.0651ZM197.358 61.1062C196.84 61.1062 196.393 60.9954 196.019 60.7739C195.646 60.5501 195.359 60.2361 195.155 59.8318C194.954 59.4253 194.854 58.9491 194.854 58.4033C194.854 57.8643 194.954 57.3893 195.155 56.9782C195.359 56.5671 195.642 56.2462 196.005 56.0156C196.37 55.7849 196.797 55.6696 197.286 55.6696C197.583 55.6696 197.871 55.7187 198.149 55.8169C198.428 55.9151 198.678 56.0692 198.9 56.2793C199.121 56.4894 199.296 56.7624 199.424 57.0981C199.552 57.4315 199.616 57.8369 199.616 58.3142V58.6774H195.433V57.91H198.612C198.612 57.6405 198.557 57.4018 198.447 57.194C198.338 56.9839 198.184 56.8183 197.985 56.6973C197.789 56.5762 197.558 56.5157 197.293 56.5157C197.005 56.5157 196.754 56.5865 196.539 56.7281C196.327 56.8674 196.163 57.0501 196.046 57.2762C195.932 57.5 195.875 57.7433 195.875 58.0059V58.6054C195.875 58.9571 195.936 59.2563 196.06 59.503C196.185 59.7496 196.36 59.938 196.584 60.0682C196.808 60.1961 197.069 60.26 197.368 60.26C197.562 60.26 197.739 60.2326 197.899 60.1778C198.059 60.1207 198.197 60.0362 198.314 59.9243C198.43 59.8124 198.519 59.6742 198.581 59.5098L199.551 59.6845C199.473 59.97 199.334 60.2201 199.133 60.4348C198.934 60.6471 198.684 60.8127 198.382 60.9315C198.083 61.048 197.742 61.1062 197.358 61.1062ZM201.776 57.8757V61H200.752V55.7381H201.735V56.5945H201.8C201.921 56.3159 202.111 56.0921 202.369 55.9231C202.629 55.7541 202.957 55.6696 203.352 55.6696C203.711 55.6696 204.025 55.7449 204.294 55.8957C204.564 56.0441 204.773 56.2656 204.921 56.5602C205.07 56.8549 205.144 57.2191 205.144 57.6531V61H204.12V57.7764C204.12 57.395 204.02 57.0969 203.822 56.8823C203.623 56.6653 203.35 56.5568 203.003 56.5568C202.765 56.5568 202.554 56.6082 202.369 56.711C202.186 56.8137 202.041 56.9645 201.934 57.1632C201.829 57.3596 201.776 57.5971 201.776 57.8757ZM210.831 55.7381L208.923 61H207.826L205.915 55.7381H207.014L208.347 59.7873H208.402L209.731 55.7381H210.831ZM51.8293 69.9841V77H50.7708V69.9841H51.8293ZM54.313 73.8757V77H53.2887V71.7381H54.2719V72.5945H54.337C54.458 72.3159 54.6476 72.0921 54.9057 71.9231C55.166 71.7541 55.4937 71.6696 55.8888 71.6696C56.2474 71.6696 56.5614 71.7449 56.8309 71.8957C57.1004 72.0441 57.3094 72.2656 57.4578 72.5602C57.6063 72.8549 57.6805 73.2191 57.6805 73.6531V77H56.6562V73.7764C56.6562 73.395 56.5569 73.0969 56.3582 72.8823C56.1595 72.6653 55.8866 72.5568 55.5394 72.5568C55.3019 72.5568 55.0906 72.6082 54.9057 72.711C54.7229 72.8137 54.5779 72.9645 54.4706 73.1632C54.3655 73.3596 54.313 73.5971 54.313 73.8757ZM59.0542 71.7381H60.0785V77.3426C60.0785 77.6943 60.0146 77.9912 59.8867 78.2333C59.7611 78.4754 59.5738 78.6592 59.3249 78.7848C59.0782 78.9104 58.7733 78.9732 58.4102 78.9732C58.3736 78.9732 58.3394 78.9732 58.3074 78.9732C58.2732 78.9732 58.2378 78.9721 58.2012 78.9698V78.0894C58.2332 78.0894 58.2617 78.0894 58.2869 78.0894C58.3097 78.0894 58.336 78.0894 58.3657 78.0894C58.6077 78.0894 58.7824 78.0243 58.8898 77.8941C58.9994 77.7662 59.0542 77.5801 59.0542 77.3357V71.7381ZM59.5612 70.9262C59.3831 70.9262 59.2301 70.8668 59.1022 70.748C58.9766 70.627 58.9138 70.4831 58.9138 70.3164C58.9138 70.1474 58.9766 70.0035 59.1022 69.8847C59.2301 69.7637 59.3831 69.7032 59.5612 69.7032C59.7394 69.7032 59.8912 69.7637 60.0169 69.8847C60.1447 70.0035 60.2087 70.1474 60.2087 70.3164C60.2087 70.4831 60.1447 70.627 60.0169 70.748C59.8912 70.8668 59.7394 70.9262 59.5612 70.9262ZM63.7244 77.1062C63.2059 77.1062 62.7594 76.9954 62.3849 76.7739C62.0126 76.5501 61.7249 76.2361 61.5216 75.8318C61.3206 75.4253 61.2201 74.9491 61.2201 74.4033C61.2201 73.8643 61.3206 73.3893 61.5216 72.9782C61.7249 72.5671 62.0081 72.2462 62.3712 72.0156C62.7366 71.7849 63.1637 71.6696 63.6524 71.6696C63.9493 71.6696 64.2371 71.7187 64.5157 71.8169C64.7943 71.9151 65.0444 72.0692 65.2659 72.2793C65.4875 72.4894 65.6622 72.7624 65.7901 73.0981C65.918 73.4315 65.9819 73.8369 65.9819 74.3142V74.6774H61.7991V73.91H64.9782C64.9782 73.6405 64.9234 73.4018 64.8137 73.194C64.7041 72.9839 64.55 72.8183 64.3513 72.6973C64.1549 72.5762 63.9242 72.5157 63.6593 72.5157C63.3715 72.5157 63.1203 72.5865 62.9056 72.7281C62.6932 72.8674 62.5288 73.0501 62.4123 73.2762C62.2981 73.5 62.241 73.7433 62.241 74.0059V74.6054C62.241 74.9571 62.3027 75.2563 62.426 75.503C62.5516 75.7496 62.7263 75.938 62.9501 76.0682C63.174 76.1961 63.4355 76.26 63.7346 76.26C63.9288 76.26 64.1058 76.2326 64.2656 76.1778C64.4255 76.1207 64.5637 76.0362 64.6801 75.9243C64.7966 75.8124 64.8857 75.6742 64.9473 75.5098L65.9168 75.6845C65.8392 75.97 65.6999 76.2201 65.4989 76.4348C65.3002 76.6471 65.0501 76.8127 64.7487 76.9315C64.4495 77.048 64.108 77.1062 63.7244 77.1062ZM69.3349 77.1062C68.8256 77.1062 68.3871 76.9909 68.0194 76.7602C67.654 76.5272 67.3731 76.2064 67.1766 75.7976C66.9802 75.3888 66.882 74.9206 66.882 74.393C66.882 73.8586 66.9825 73.387 67.1835 72.9782C67.3845 72.5671 67.6677 72.2462 68.0331 72.0156C68.3985 71.7849 68.829 71.6696 69.3246 71.6696C69.7243 71.6696 70.0805 71.7438 70.3934 71.8922C70.7063 72.0384 70.9587 72.2439 71.1505 72.5089C71.3446 72.7738 71.46 73.0832 71.4965 73.4372H70.4996C70.4448 73.1906 70.3192 72.9782 70.1228 72.8C69.9287 72.6219 69.6683 72.5328 69.3417 72.5328C69.0562 72.5328 68.8062 72.6082 68.5915 72.7589C68.3791 72.9074 68.2135 73.1198 68.0947 73.3961C67.976 73.6702 67.9166 73.9945 67.9166 74.369C67.9166 74.7527 67.9748 75.0839 68.0913 75.3625C68.2078 75.6411 68.3722 75.8569 68.5846 76.01C68.7993 76.163 69.0517 76.2395 69.3417 76.2395C69.5358 76.2395 69.7117 76.2041 69.8693 76.1333C70.0291 76.0602 70.1627 75.9563 70.2701 75.8215C70.3797 75.6868 70.4562 75.5246 70.4996 75.3351H71.4965C71.46 75.6754 71.3492 75.9791 71.1642 76.2463C70.9792 76.5135 70.7314 76.7237 70.4208 76.8767C70.1125 77.0297 69.7505 77.1062 69.3349 77.1062ZM75.0481 71.7381V72.5602H72.1739V71.7381H75.0481ZM72.9447 70.4774H73.969V75.455C73.969 75.6537 73.9987 75.8033 74.0581 75.9038C74.1175 76.002 74.194 76.0693 74.2876 76.1059C74.3835 76.1401 74.4875 76.1573 74.5994 76.1573C74.6816 76.1573 74.7535 76.1516 74.8152 76.1401C74.8768 76.1287 74.9248 76.1196 74.9591 76.1127L75.1441 76.9589C75.0847 76.9817 75.0002 77.0046 74.8905 77.0274C74.7809 77.0525 74.6439 77.0662 74.4795 77.0685C74.21 77.0731 73.9587 77.0251 73.7258 76.9246C73.4928 76.8241 73.3044 76.6688 73.1606 76.4587C73.0167 76.2486 72.9447 75.9848 72.9447 75.6674V70.4774ZM76.1812 77V71.7381H77.2055V77H76.1812ZM76.6985 70.9262C76.5203 70.9262 76.3673 70.8668 76.2394 70.748C76.1138 70.627 76.051 70.4831 76.051 70.3164C76.051 70.1474 76.1138 70.0035 76.2394 69.8847C76.3673 69.7637 76.5203 69.7032 76.6985 69.7032C76.8766 69.7032 77.0285 69.7637 77.1541 69.8847C77.282 70.0035 77.3459 70.1474 77.3459 70.3164C77.3459 70.4831 77.282 70.627 77.1541 70.748C77.0285 70.8668 76.8766 70.9262 76.6985 70.9262ZM79.6078 73.8757V77H78.5835V71.7381H79.5667V72.5945H79.6318C79.7528 72.3159 79.9424 72.0921 80.2004 71.9231C80.4608 71.7541 80.7885 71.6696 81.1836 71.6696C81.5422 71.6696 81.8562 71.7449 82.1257 71.8957C82.3952 72.0441 82.6042 72.2656 82.7526 72.5602C82.9011 72.8549 82.9753 73.2191 82.9753 73.6531V77H81.951V73.7764C81.951 73.395 81.8516 73.0969 81.653 72.8823C81.4543 72.6653 81.1813 72.5568 80.8342 72.5568C80.5967 72.5568 80.3854 72.6082 80.2004 72.711C80.0177 72.8137 79.8727 72.9645 79.7654 73.1632C79.6603 73.3596 79.6078 73.5971 79.6078 73.8757ZM86.5552 79.0828C86.1372 79.0828 85.7775 79.028 85.4761 78.9184C85.1769 78.8088 84.9325 78.6638 84.743 78.4833C84.5534 78.3029 84.4118 78.1054 84.3182 77.8907L85.1986 77.5276C85.2603 77.6281 85.3425 77.7342 85.4452 77.8462C85.5503 77.9603 85.6919 78.0574 85.87 78.1373C86.0505 78.2173 86.2823 78.2572 86.5655 78.2572C86.9537 78.2572 87.2746 78.1625 87.5281 77.9729C87.7816 77.7856 87.9083 77.4865 87.9083 77.0754V76.0408H87.8433C87.7816 76.1527 87.6925 76.2772 87.5761 76.4142C87.4619 76.5512 87.3043 76.67 87.1033 76.7705C86.9023 76.871 86.6408 76.9212 86.3188 76.9212C85.9032 76.9212 85.5286 76.8241 85.1952 76.63C84.864 76.4336 84.6014 76.1447 84.4072 75.7633C84.2154 75.3796 84.1195 74.908 84.1195 74.3485C84.1195 73.7889 84.2143 73.3093 84.4038 72.9097C84.5957 72.51 84.8583 72.204 85.1917 71.9916C85.5252 71.7769 85.9032 71.6696 86.3257 71.6696C86.6522 71.6696 86.916 71.7244 87.117 71.834C87.318 71.9413 87.4744 72.0669 87.5863 72.2108C87.7005 72.3547 87.7884 72.4815 87.8501 72.5911H87.9255V71.7381H88.9292V77.1165C88.9292 77.5687 88.8242 77.9398 88.6141 78.2298C88.4039 78.5199 88.1196 78.7346 87.761 78.8739C87.4048 79.0132 87.0028 79.0828 86.5552 79.0828ZM86.5449 76.0716C86.8395 76.0716 87.0885 76.0031 87.2917 75.8661C87.4973 75.7268 87.6526 75.5281 87.7576 75.27C87.865 75.0096 87.9186 74.6979 87.9186 74.3348C87.9186 73.9808 87.8661 73.669 87.761 73.3996C87.656 73.1301 87.5018 72.9199 87.2986 72.7692C87.0953 72.6162 86.8441 72.5397 86.5449 72.5397C86.2366 72.5397 85.9797 72.6196 85.7741 72.7795C85.5686 72.9371 85.4133 73.1518 85.3082 73.4235C85.2054 73.6953 85.1541 73.9991 85.1541 74.3348C85.1541 74.6796 85.2066 74.9822 85.3116 75.2426C85.4167 75.503 85.572 75.7062 85.7775 75.8524C85.9854 75.9985 86.2412 76.0716 86.5449 76.0716ZM95.5041 69.9841V77H94.4421V71.0461H94.401L92.7224 72.1423V71.1283L94.4729 69.9841H95.5041ZM97.2546 75.6297V74.7733L100.286 69.9841H100.961V71.2448H100.533L98.3646 74.6774V74.7322H102.52V75.6297H97.2546ZM100.581 77V75.3693L100.588 74.9788V69.9841H101.592V77H100.581ZM110.224 73.0227L109.295 73.1872C109.256 73.0684 109.195 72.9553 109.11 72.848C109.028 72.7407 108.916 72.6527 108.775 72.5842C108.633 72.5157 108.456 72.4815 108.244 72.4815C107.953 72.4815 107.711 72.5465 107.517 72.6767C107.323 72.8046 107.226 72.9702 107.226 73.1735C107.226 73.3493 107.291 73.4909 107.421 73.5982C107.552 73.7056 107.762 73.7935 108.052 73.862L108.888 74.0539C109.372 74.1658 109.733 74.3382 109.97 74.5712C110.208 74.8041 110.326 75.1067 110.326 75.479C110.326 75.7941 110.235 76.0751 110.052 76.3217C109.872 76.5661 109.62 76.7579 109.295 76.8972C108.973 77.0365 108.6 77.1062 108.175 77.1062C107.586 77.1062 107.105 76.9806 106.733 76.7294C106.361 76.4759 106.132 76.1162 106.048 75.6503L107.038 75.4995C107.099 75.7576 107.226 75.9529 107.418 76.0853C107.61 76.2155 107.86 76.2806 108.168 76.2806C108.504 76.2806 108.772 76.2109 108.973 76.0716C109.174 75.93 109.275 75.7576 109.275 75.5543C109.275 75.3899 109.213 75.2517 109.09 75.1398C108.969 75.0279 108.783 74.9434 108.531 74.8863L107.641 74.6911C107.15 74.5791 106.786 74.401 106.551 74.1566C106.318 73.9123 106.202 73.6028 106.202 73.2283C106.202 72.9177 106.289 72.6459 106.462 72.4129C106.636 72.18 106.876 71.9984 107.182 71.8682C107.488 71.7358 107.838 71.6696 108.233 71.6696C108.802 71.6696 109.25 71.7929 109.576 72.0395C109.903 72.2839 110.119 72.6116 110.224 73.0227ZM113.72 77.1062C113.202 77.1062 112.756 76.9954 112.381 76.7739C112.009 76.5501 111.721 76.2361 111.518 75.8318C111.317 75.4253 111.216 74.9491 111.216 74.4033C111.216 73.8643 111.317 73.3893 111.518 72.9782C111.721 72.5671 112.004 72.2462 112.367 72.0156C112.733 71.7849 113.16 71.6696 113.648 71.6696C113.945 71.6696 114.233 71.7187 114.512 71.8169C114.79 71.9151 115.04 72.0692 115.262 72.2793C115.484 72.4894 115.658 72.7624 115.786 73.0981C115.914 73.4315 115.978 73.8369 115.978 74.3142V74.6774H111.795V73.91H114.974C114.974 73.6405 114.919 73.4018 114.81 73.194C114.7 72.9839 114.546 72.8183 114.347 72.6973C114.151 72.5762 113.92 72.5157 113.655 72.5157C113.368 72.5157 113.116 72.5865 112.902 72.7281C112.689 72.8674 112.525 73.0501 112.408 73.2762C112.294 73.5 112.237 73.7433 112.237 74.0059V74.6054C112.237 74.9571 112.299 75.2563 112.422 75.503C112.548 75.7496 112.722 75.938 112.946 76.0682C113.17 76.1961 113.432 76.26 113.731 76.26C113.925 76.26 114.102 76.2326 114.262 76.1778C114.422 76.1207 114.56 76.0362 114.676 75.9243C114.793 75.8124 114.882 75.6742 114.943 75.5098L115.913 75.6845C115.835 75.97 115.696 76.2201 115.495 76.4348C115.296 76.6471 115.046 76.8127 114.745 76.9315C114.446 77.048 114.104 77.1062 113.72 77.1062ZM119.331 77.1062C118.822 77.1062 118.383 76.9909 118.015 76.7602C117.65 76.5272 117.369 76.2064 117.173 75.7976C116.976 75.3888 116.878 74.9206 116.878 74.393C116.878 73.8586 116.979 73.387 117.18 72.9782C117.381 72.5671 117.664 72.2462 118.029 72.0156C118.395 71.7849 118.825 71.6696 119.321 71.6696C119.72 71.6696 120.077 71.7438 120.389 71.8922C120.702 72.0384 120.955 72.2439 121.147 72.5089C121.341 72.7738 121.456 73.0832 121.493 73.4372H120.496C120.441 73.1906 120.315 72.9782 120.119 72.8C119.925 72.6219 119.664 72.5328 119.338 72.5328C119.052 72.5328 118.802 72.6082 118.588 72.7589C118.375 72.9074 118.21 73.1198 118.091 73.3961C117.972 73.6702 117.913 73.9945 117.913 74.369C117.913 74.7527 117.971 75.0839 118.087 75.3625C118.204 75.6411 118.368 75.8569 118.581 76.01C118.795 76.163 119.048 76.2395 119.338 76.2395C119.532 76.2395 119.708 76.2041 119.865 76.1333C120.025 76.0602 120.159 75.9563 120.266 75.8215C120.376 75.6868 120.452 75.5246 120.496 75.3351H121.493C121.456 75.6754 121.345 75.9791 121.16 76.2463C120.975 76.5135 120.727 76.7237 120.417 76.8767C120.109 77.0297 119.747 77.1062 119.331 77.1062ZM122.588 77V71.7381H123.578V72.5739H123.633C123.729 72.2908 123.898 72.0681 124.14 71.9059C124.384 71.7415 124.661 71.6593 124.969 71.6593C125.033 71.6593 125.108 71.6616 125.195 71.6661C125.284 71.6707 125.354 71.6764 125.404 71.6833V72.663C125.363 72.6516 125.29 72.639 125.185 72.6253C125.08 72.6093 124.975 72.6014 124.869 72.6014C124.627 72.6014 124.412 72.6527 124.222 72.7555C124.035 72.856 123.886 72.9965 123.777 73.1769C123.667 73.355 123.612 73.5583 123.612 73.7867V77H122.588ZM128.37 77.1062C127.851 77.1062 127.405 76.9954 127.03 76.7739C126.658 76.5501 126.37 76.2361 126.167 75.8318C125.966 75.4253 125.866 74.9491 125.866 74.4033C125.866 73.8643 125.966 73.3893 126.167 72.9782C126.37 72.5671 126.653 72.2462 127.017 72.0156C127.382 71.7849 127.809 71.6696 128.298 71.6696C128.595 71.6696 128.882 71.7187 129.161 71.8169C129.44 71.9151 129.69 72.0692 129.911 72.2793C130.133 72.4894 130.308 72.7624 130.435 73.0981C130.563 73.4315 130.627 73.8369 130.627 74.3142V74.6774H126.444V73.91H129.624C129.624 73.6405 129.569 73.4018 129.459 73.194C129.349 72.9839 129.195 72.8183 128.997 72.6973C128.8 72.5762 128.57 72.5157 128.305 72.5157C128.017 72.5157 127.766 72.5865 127.551 72.7281C127.339 72.8674 127.174 73.0501 127.058 73.2762C126.943 73.5 126.886 73.7433 126.886 74.0059V74.6054C126.886 74.9571 126.948 75.2563 127.071 75.503C127.197 75.7496 127.372 75.938 127.596 76.0682C127.819 76.1961 128.081 76.26 128.38 76.26C128.574 76.26 128.751 76.2326 128.911 76.1778C129.071 76.1207 129.209 76.0362 129.326 75.9243C129.442 75.8124 129.531 75.6742 129.593 75.5098L130.562 75.6845C130.485 75.97 130.345 76.2201 130.144 76.4348C129.946 76.6471 129.695 76.8127 129.394 76.9315C129.095 77.048 128.753 77.1062 128.37 77.1062ZM134.22 71.7381V72.5602H131.346V71.7381H134.22ZM132.117 70.4774H133.141V75.455C133.141 75.6537 133.171 75.8033 133.23 75.9038C133.289 76.002 133.366 76.0693 133.46 76.1059C133.555 76.1401 133.659 76.1573 133.771 76.1573C133.853 76.1573 133.925 76.1516 133.987 76.1401C134.049 76.1287 134.097 76.1196 134.131 76.1127L134.316 76.9589C134.257 76.9817 134.172 77.0046 134.062 77.0274C133.953 77.0525 133.816 77.0662 133.651 77.0685C133.382 77.0731 133.131 77.0251 132.898 76.9246C132.665 76.8241 132.476 76.6688 132.332 76.4587C132.189 76.2486 132.117 75.9848 132.117 75.6674V70.4774ZM139.211 73.0227L138.283 73.1872C138.244 73.0684 138.182 72.9553 138.098 72.848C138.016 72.7407 137.904 72.6527 137.762 72.5842C137.621 72.5157 137.444 72.4815 137.231 72.4815C136.941 72.4815 136.699 72.5465 136.505 72.6767C136.311 72.8046 136.214 72.9702 136.214 73.1735C136.214 73.3493 136.279 73.4909 136.409 73.5982C136.539 73.7056 136.749 73.7935 137.039 73.862L137.875 74.0539C138.359 74.1658 138.72 74.3382 138.958 74.5712C139.195 74.8041 139.314 75.1067 139.314 75.479C139.314 75.7941 139.223 76.0751 139.04 76.3217C138.86 76.5661 138.607 76.7579 138.283 76.8972C137.961 77.0365 137.588 77.1062 137.163 77.1062C136.574 77.1062 136.093 76.9806 135.721 76.7294C135.348 76.4759 135.12 76.1162 135.035 75.6503L136.025 75.4995C136.087 75.7576 136.214 75.9529 136.406 76.0853C136.597 76.2155 136.848 76.2806 137.156 76.2806C137.492 76.2806 137.76 76.2109 137.961 76.0716C138.162 75.93 138.262 75.7576 138.262 75.5543C138.262 75.3899 138.201 75.2517 138.077 75.1398C137.956 75.0279 137.77 74.9434 137.519 74.8863L136.628 74.6911C136.137 74.5791 135.774 74.401 135.539 74.1566C135.306 73.9123 135.19 73.6028 135.19 73.2283C135.19 72.9177 135.276 72.6459 135.45 72.4129C135.623 72.18 135.863 71.9984 136.169 71.8682C136.475 71.7358 136.826 71.6696 137.221 71.6696C137.79 71.6696 138.237 71.7929 138.564 72.0395C138.89 72.2839 139.106 72.6116 139.211 73.0227ZM145.45 71.7381V72.5602H142.575V71.7381H145.45ZM143.346 70.4774H144.37V75.455C144.37 75.6537 144.4 75.8033 144.46 75.9038C144.519 76.002 144.595 76.0693 144.689 76.1059C144.785 76.1401 144.889 76.1573 145.001 76.1573C145.083 76.1573 145.155 76.1516 145.217 76.1401C145.278 76.1287 145.326 76.1196 145.361 76.1127L145.546 76.9589C145.486 76.9817 145.402 77.0046 145.292 77.0274C145.182 77.0525 145.045 77.0662 144.881 77.0685C144.611 77.0731 144.36 77.0251 144.127 76.9246C143.894 76.8241 143.706 76.6688 143.562 76.4587C143.418 76.2486 143.346 75.9848 143.346 75.6674V70.4774ZM148.743 77.1062C148.249 77.1062 147.819 76.9931 147.451 76.767C147.083 76.541 146.798 76.2246 146.595 75.8181C146.391 75.4116 146.29 74.9366 146.29 74.393C146.29 73.8472 146.391 73.3699 146.595 72.9611C146.798 72.5523 147.083 72.2348 147.451 72.0087C147.819 71.7826 148.249 71.6696 148.743 71.6696C149.236 71.6696 149.666 71.7826 150.034 72.0087C150.402 72.2348 150.687 72.5523 150.891 72.9611C151.094 73.3699 151.195 73.8472 151.195 74.393C151.195 74.9366 151.094 75.4116 150.891 75.8181C150.687 76.2246 150.402 76.541 150.034 76.767C149.666 76.9931 149.236 77.1062 148.743 77.1062ZM148.746 76.2463C149.066 76.2463 149.331 76.1618 149.541 75.9928C149.751 75.8238 149.906 75.5989 150.007 75.318C150.109 75.0371 150.161 74.7276 150.161 74.3896C150.161 74.0539 150.109 73.7455 150.007 73.4646C149.906 73.1814 149.751 72.9542 149.541 72.7829C149.331 72.6116 149.066 72.526 148.746 72.526C148.424 72.526 148.157 72.6116 147.944 72.7829C147.734 72.9542 147.578 73.1814 147.475 73.4646C147.375 73.7455 147.324 74.0539 147.324 74.3896C147.324 74.7276 147.375 75.0371 147.475 75.318C147.578 75.5989 147.734 75.8238 147.944 75.9928C148.157 76.1618 148.424 76.2463 148.746 76.2463ZM155.834 75.2152L155.827 73.9648H156.005L158.102 71.7381H159.328L156.937 74.2731H156.776L155.834 75.2152ZM154.892 77V69.9841H155.916V77H154.892ZM158.215 77L156.331 74.4992L157.036 73.7832L159.472 77H158.215ZM162.313 77.1062C161.794 77.1062 161.348 76.9954 160.973 76.7739C160.601 76.5501 160.313 76.2361 160.11 75.8318C159.909 75.4253 159.809 74.9491 159.809 74.4033C159.809 73.8643 159.909 73.3893 160.11 72.9782C160.313 72.5671 160.596 72.2462 160.96 72.0156C161.325 71.7849 161.752 71.6696 162.241 71.6696C162.538 71.6696 162.826 71.7187 163.104 71.8169C163.383 71.9151 163.633 72.0692 163.854 72.2793C164.076 72.4894 164.251 72.7624 164.379 73.0981C164.506 73.4315 164.57 73.8369 164.57 74.3142V74.6774H160.388V73.91H163.567C163.567 73.6405 163.512 73.4018 163.402 73.194C163.293 72.9839 163.138 72.8183 162.94 72.6973C162.743 72.5762 162.513 72.5157 162.248 72.5157C161.96 72.5157 161.709 72.5865 161.494 72.7281C161.282 72.8674 161.117 73.0501 161.001 73.2762C160.887 73.5 160.829 73.7433 160.829 74.0059V74.6054C160.829 74.9571 160.891 75.2563 161.014 75.503C161.14 75.7496 161.315 75.938 161.539 76.0682C161.762 76.1961 162.024 76.26 162.323 76.26C162.517 76.26 162.694 76.2326 162.854 76.1778C163.014 76.1207 163.152 76.0362 163.269 75.9243C163.385 75.8124 163.474 75.6742 163.536 75.5098L164.505 75.6845C164.428 75.97 164.288 76.2201 164.087 76.4348C163.889 76.6471 163.639 76.8127 163.337 76.9315C163.038 77.048 162.696 77.1062 162.313 77.1062ZM166.204 78.9732C166.051 78.9732 165.911 78.9607 165.786 78.9355C165.66 78.9127 165.566 78.8876 165.505 78.8602L165.751 78.0209C165.939 78.0711 166.105 78.0928 166.252 78.086C166.398 78.0791 166.527 78.0243 166.639 77.9215C166.753 77.8188 166.853 77.6509 166.94 77.4179L167.067 77.0685L165.142 71.7381H166.238L167.57 75.8215H167.625L168.958 71.7381H170.058L167.889 77.7023C167.789 77.9763 167.661 78.2081 167.505 78.3977C167.35 78.5895 167.165 78.7334 166.95 78.8293C166.736 78.9253 166.487 78.9732 166.204 78.9732ZM174.963 73.0227L174.035 73.1872C173.996 73.0684 173.934 72.9553 173.85 72.848C173.768 72.7407 173.656 72.6527 173.514 72.5842C173.372 72.5157 173.195 72.4815 172.983 72.4815C172.693 72.4815 172.451 72.5465 172.257 72.6767C172.063 72.8046 171.966 72.9702 171.966 73.1735C171.966 73.3493 172.031 73.4909 172.161 73.5982C172.291 73.7056 172.501 73.7935 172.791 73.862L173.627 74.0539C174.111 74.1658 174.472 74.3382 174.71 74.5712C174.947 74.8041 175.066 75.1067 175.066 75.479C175.066 75.7941 174.975 76.0751 174.792 76.3217C174.611 76.5661 174.359 76.7579 174.035 76.8972C173.713 77.0365 173.339 77.1062 172.915 77.1062C172.325 77.1062 171.845 76.9806 171.472 76.7294C171.1 76.4759 170.872 76.1162 170.787 75.6503L171.777 75.4995C171.839 75.7576 171.966 75.9529 172.157 76.0853C172.349 76.2155 172.599 76.2806 172.908 76.2806C173.243 76.2806 173.512 76.2109 173.713 76.0716C173.914 75.93 174.014 75.7576 174.014 75.5543C174.014 75.3899 173.953 75.2517 173.829 75.1398C173.708 75.0279 173.522 74.9434 173.271 74.8863L172.38 74.6911C171.889 74.5791 171.526 74.401 171.291 74.1566C171.058 73.9123 170.941 73.6028 170.941 73.2283C170.941 72.9177 171.028 72.6459 171.202 72.4129C171.375 72.18 171.615 71.9984 171.921 71.8682C172.227 71.7358 172.578 71.6696 172.973 71.6696C173.541 71.6696 173.989 71.7929 174.316 72.0395C174.642 72.2839 174.858 72.6116 174.963 73.0227ZM177.216 73.8757V77H176.192V69.9841H177.203V72.5945H177.268C177.391 72.3113 177.58 72.0864 177.833 71.9196C178.087 71.7529 178.418 71.6696 178.827 71.6696C179.187 71.6696 179.503 71.7438 179.772 71.8922C180.044 72.0407 180.254 72.2622 180.402 72.5568C180.553 72.8491 180.628 73.2146 180.628 73.6531V77H179.604V73.7764C179.604 73.3904 179.505 73.0912 179.306 72.8788C179.107 72.6642 178.831 72.5568 178.477 72.5568C178.235 72.5568 178.018 72.6082 177.826 72.711C177.637 72.8137 177.487 72.9645 177.377 73.1632C177.27 73.3596 177.216 73.5971 177.216 73.8757ZM183.527 77.1165C183.193 77.1165 182.892 77.0548 182.622 76.9315C182.353 76.8059 182.139 76.6243 181.982 76.3868C181.826 76.1493 181.749 75.8581 181.749 75.5132C181.749 75.2163 181.806 74.972 181.92 74.7801C182.034 74.5883 182.188 74.4364 182.382 74.3245C182.577 74.2126 182.794 74.1281 183.033 74.071C183.273 74.0139 183.518 73.9705 183.766 73.9408C184.082 73.9043 184.337 73.8746 184.534 73.8517C184.73 73.8266 184.873 73.7867 184.962 73.7318C185.051 73.677 185.096 73.588 185.096 73.4646V73.4407C185.096 73.1415 185.011 72.9097 184.842 72.7452C184.675 72.5808 184.426 72.4986 184.095 72.4986C183.75 72.4986 183.479 72.5751 183.28 72.7281C183.084 72.8788 182.948 73.0467 182.872 73.2317L181.91 73.0124C182.024 72.6927 182.191 72.4346 182.41 72.2382C182.631 72.0395 182.886 71.8957 183.174 71.8066C183.462 71.7152 183.764 71.6696 184.082 71.6696C184.292 71.6696 184.514 71.6947 184.75 71.7449C184.987 71.7929 185.209 71.8819 185.414 72.0121C185.622 72.1423 185.792 72.3284 185.925 72.5705C186.057 72.8103 186.123 73.1221 186.123 73.5057V77H185.123V76.2806H185.082C185.016 76.4131 184.916 76.5432 184.784 76.6711C184.651 76.799 184.481 76.9052 184.273 76.9897C184.066 77.0742 183.817 77.1165 183.527 77.1165ZM183.749 76.2943C184.033 76.2943 184.275 76.2383 184.476 76.1264C184.679 76.0145 184.833 75.8684 184.938 75.6879C185.045 75.5052 185.099 75.31 185.099 75.1021V74.4238C185.063 74.4604 184.992 74.4946 184.887 74.5266C184.784 74.5563 184.666 74.5826 184.534 74.6054C184.401 74.626 184.272 74.6454 184.147 74.6636C184.021 74.6796 183.916 74.6933 183.832 74.7048C183.633 74.7299 183.451 74.7721 183.287 74.8315C183.125 74.8909 182.995 74.9765 182.896 75.0884C182.8 75.1981 182.752 75.3442 182.752 75.5269C182.752 75.7804 182.846 75.9723 183.033 76.1025C183.221 76.2304 183.459 76.2943 183.749 76.2943ZM189.457 77.1028C189.033 77.1028 188.654 76.9943 188.32 76.7773C187.989 76.5581 187.729 76.2463 187.539 75.8421C187.352 75.4356 187.258 74.948 187.258 74.3793C187.258 73.8106 187.353 73.3242 187.542 72.9199C187.734 72.5157 187.997 72.2063 188.33 71.9916C188.664 71.7769 189.042 71.6696 189.464 71.6696C189.791 71.6696 190.054 71.7244 190.252 71.834C190.453 71.9413 190.609 72.0669 190.718 72.2108C190.83 72.3547 190.917 72.4815 190.979 72.5911H191.04V69.9841H192.064V77H191.064V76.1812H190.979C190.917 76.2932 190.828 76.4211 190.711 76.5649C190.597 76.7088 190.44 76.8344 190.239 76.9418C190.038 77.0491 189.777 77.1028 189.457 77.1028ZM189.684 76.2292C189.978 76.2292 190.227 76.1516 190.43 75.9963C190.636 75.8387 190.791 75.6206 190.896 75.3419C191.004 75.0633 191.057 74.739 191.057 74.369C191.057 74.0036 191.005 73.6839 190.9 73.4098C190.795 73.1358 190.64 72.9222 190.437 72.7692C190.234 72.6162 189.983 72.5397 189.684 72.5397C189.375 72.5397 189.118 72.6196 188.913 72.7795C188.707 72.9394 188.552 73.1575 188.447 73.4338C188.344 73.7102 188.293 74.0219 188.293 74.369C188.293 74.7207 188.345 75.0371 188.45 75.318C188.555 75.5989 188.711 75.8215 188.916 75.986C189.124 76.1481 189.38 76.2292 189.684 76.2292ZM195.794 77.1062C195.276 77.1062 194.829 76.9954 194.455 76.7739C194.082 76.5501 193.795 76.2361 193.591 75.8318C193.39 75.4253 193.29 74.9491 193.29 74.4033C193.29 73.8643 193.39 73.3893 193.591 72.9782C193.795 72.5671 194.078 72.2462 194.441 72.0156C194.806 71.7849 195.234 71.6696 195.722 71.6696C196.019 71.6696 196.307 71.7187 196.586 71.8169C196.864 71.9151 197.114 72.0692 197.336 72.2793C197.557 72.4894 197.732 72.7624 197.86 73.0981C197.988 73.4315 198.052 73.8369 198.052 74.3142V74.6774H193.869V73.91H197.048C197.048 73.6405 196.993 73.4018 196.884 73.194C196.774 72.9839 196.62 72.8183 196.421 72.6973C196.225 72.5762 195.994 72.5157 195.729 72.5157C195.441 72.5157 195.19 72.5865 194.975 72.7281C194.763 72.8674 194.599 73.0501 194.482 73.2762C194.368 73.5 194.311 73.7433 194.311 74.0059V74.6054C194.311 74.9571 194.373 75.2563 194.496 75.503C194.621 75.7496 194.796 75.938 195.02 76.0682C195.244 76.1961 195.505 76.26 195.805 76.26C195.999 76.26 196.176 76.2326 196.335 76.1778C196.495 76.1207 196.634 76.0362 196.75 75.9243C196.866 75.8124 196.956 75.6742 197.017 75.5098L197.987 75.6845C197.909 75.97 197.77 76.2201 197.569 76.4348C197.37 76.6471 197.12 76.8127 196.819 76.9315C196.519 77.048 196.178 77.1062 195.794 77.1062ZM237.7 77V69.9841H244.715V77H237.7ZM246.527 77V69.9841H253.543V77H246.527ZM255.354 77V69.9841H262.37V77H255.354ZM256.231 76.123H261.493V70.8611H256.231V76.123ZM264.181 77V69.9841H271.197V77H264.181ZM265.058 76.123H270.32V70.8611H265.058V76.123ZM273.009 77V69.9841H280.025V77H273.009ZM273.886 76.123H279.148V70.8611H273.886V76.123ZM281.836 77V69.9841H288.852V77H281.836ZM282.713 76.123H287.975V70.8611H282.713V76.123ZM290.663 77V69.9841H297.679V77H290.663ZM291.54 76.123H296.802V70.8611H291.54V76.123ZM299.49 77V69.9841H306.506V77H299.49ZM300.367 76.123H305.629V70.8611H300.367V76.123ZM308.318 77V69.9841H315.334V77H308.318ZM309.195 76.123H314.457V70.8611H309.195V76.123ZM317.145 77V69.9841H324.161V77H317.145ZM318.022 76.123H323.284V70.8611H318.022V76.123ZM328.296 77V76.2326L330.67 73.773C330.923 73.5057 331.132 73.2717 331.297 73.0707C331.463 72.8674 331.588 72.6744 331.67 72.4917C331.752 72.309 331.793 72.1149 331.793 71.9094C331.793 71.6764 331.739 71.4754 331.629 71.3064C331.519 71.1351 331.37 71.0038 331.18 70.9125C330.991 70.8188 330.777 70.772 330.54 70.772C330.288 70.772 330.069 70.8234 329.882 70.9262C329.695 71.0289 329.551 71.174 329.45 71.3612C329.35 71.5485 329.299 71.7678 329.299 72.019H328.289C328.289 71.5919 328.387 71.2185 328.584 70.8988C328.78 70.579 329.049 70.3312 329.392 70.1554C329.735 69.9772 330.124 69.8882 330.56 69.8882C331.001 69.8882 331.389 69.9761 331.725 70.152C332.063 70.3255 332.327 70.563 332.516 70.8645C332.706 71.1637 332.801 71.5017 332.801 71.8785C332.801 72.1389 332.751 72.3935 332.653 72.6425C332.557 72.8914 332.39 73.1689 332.15 73.4749C331.91 73.7787 331.576 74.1475 331.149 74.5814L329.755 76.0408V76.0922H332.914V77H328.296ZM336.655 77.1165C336.113 77.1142 335.651 76.9715 335.267 76.6883C334.883 76.4051 334.59 75.9928 334.387 75.4516C334.183 74.9103 334.082 74.2583 334.082 73.4955C334.082 72.735 334.183 72.0852 334.387 71.5462C334.592 71.0072 334.887 70.5962 335.271 70.313C335.656 70.0298 336.118 69.8882 336.655 69.8882C337.191 69.8882 337.651 70.0309 338.035 70.3164C338.419 70.5996 338.712 71.0107 338.916 71.5497C339.121 72.0864 339.224 72.735 339.224 73.4955C339.224 74.2606 339.122 74.9137 338.919 75.455C338.716 75.994 338.422 76.4062 338.039 76.6917C337.655 76.9749 337.194 77.1165 336.655 77.1165ZM336.655 76.2018C337.13 76.2018 337.501 75.97 337.768 75.5064C338.037 75.0428 338.172 74.3725 338.172 73.4955C338.172 72.9131 338.11 72.4209 337.987 72.019C337.866 71.6147 337.691 71.3087 337.463 71.1009C337.237 70.8908 336.967 70.7857 336.655 70.7857C336.182 70.7857 335.811 71.0187 335.541 71.4846C335.272 71.9505 335.136 72.6208 335.134 73.4955C335.134 74.0801 335.194 74.5746 335.315 74.9788C335.438 75.3808 335.613 75.6857 335.839 75.8935C336.065 76.099 336.337 76.2018 336.655 76.2018ZM344.101 75.6845V75.3145C344.101 75.0496 344.156 74.8075 344.266 74.5883C344.378 74.3668 344.54 74.1898 344.752 74.0573C344.967 73.9225 345.226 73.8552 345.53 73.8552C345.84 73.8552 346.101 73.9214 346.311 74.0539C346.521 74.1863 346.68 74.3633 346.787 74.5849C346.897 74.8064 346.951 75.0496 346.951 75.3145V75.6845C346.951 75.9494 346.897 76.1927 346.787 76.4142C346.677 76.6334 346.516 76.8104 346.304 76.9452C346.094 77.0777 345.836 77.1439 345.53 77.1439C345.221 77.1439 344.961 77.0777 344.749 76.9452C344.536 76.8104 344.375 76.6334 344.266 76.4142C344.156 76.1927 344.101 75.9494 344.101 75.6845ZM344.899 75.3145V75.6845C344.899 75.8809 344.946 76.0591 345.04 76.2189C345.134 76.3788 345.297 76.4587 345.53 76.4587C345.76 76.4587 345.921 76.3788 346.013 76.2189C346.104 76.0591 346.15 75.8809 346.15 75.6845V75.3145C346.15 75.1181 346.105 74.94 346.016 74.7801C345.929 74.6203 345.767 74.5403 345.53 74.5403C345.301 74.5403 345.139 74.6203 345.043 74.7801C344.947 74.94 344.899 75.1181 344.899 75.3145ZM340.573 71.6696V71.2996C340.573 71.0346 340.628 70.7914 340.737 70.5699C340.849 70.3484 341.011 70.1714 341.224 70.0389C341.438 69.9064 341.698 69.8402 342.001 69.8402C342.312 69.8402 342.572 69.9064 342.782 70.0389C342.992 70.1714 343.151 70.3484 343.259 70.5699C343.366 70.7914 343.42 71.0346 343.42 71.2996V71.6696C343.42 71.9345 343.365 72.1777 343.255 72.3992C343.148 72.6185 342.988 72.7955 342.775 72.9302C342.565 73.0627 342.307 73.1289 342.001 73.1289C341.691 73.1289 341.429 73.0627 341.217 72.9302C341.007 72.7955 340.847 72.6185 340.737 72.3992C340.628 72.1777 340.573 71.9345 340.573 71.6696ZM341.374 71.2996V71.6696C341.374 71.866 341.42 72.0441 341.511 72.204C341.605 72.3638 341.768 72.4438 342.001 72.4438C342.23 72.4438 342.39 72.3638 342.481 72.204C342.574 72.0441 342.621 71.866 342.621 71.6696V71.2996C342.621 71.1032 342.577 70.925 342.488 70.7652C342.399 70.6053 342.236 70.5254 342.001 70.5254C341.773 70.5254 341.611 70.6053 341.515 70.7652C341.421 70.925 341.374 71.1032 341.374 71.2996ZM340.898 77L345.722 69.9841H346.54L341.717 77H340.898Z" fill="#B7B8C2"/>
<path d="M54.5973 119.827C54.5608 119.503 54.4101 119.252 54.1451 119.073C53.8802 118.893 53.5468 118.803 53.1448 118.803C52.8571 118.803 52.6081 118.849 52.398 118.94C52.1879 119.029 52.0246 119.152 51.9081 119.31C51.7939 119.465 51.7368 119.642 51.7368 119.841C51.7368 120.008 51.7757 120.151 51.8533 120.272C51.9333 120.394 52.0372 120.495 52.1651 120.577C52.2952 120.657 52.4346 120.725 52.583 120.779C52.7315 120.832 52.8742 120.875 53.0112 120.91L53.6964 121.088C53.9202 121.143 54.1497 121.217 54.3849 121.31C54.6202 121.404 54.8383 121.527 55.0393 121.68C55.2402 121.833 55.4024 122.023 55.5257 122.249C55.6513 122.475 55.7141 122.746 55.7141 123.061C55.7141 123.458 55.6114 123.811 55.4058 124.12C55.2026 124.428 54.9068 124.671 54.5185 124.849C54.1326 125.027 53.6655 125.116 53.1174 125.116C52.5921 125.116 52.1377 125.033 51.754 124.866C51.3703 124.7 51.07 124.463 50.853 124.157C50.636 123.849 50.5161 123.484 50.4933 123.061H51.5553C51.5758 123.315 51.6581 123.526 51.8019 123.695C51.9481 123.862 52.1342 123.986 52.3603 124.068C52.5887 124.148 52.8388 124.188 53.1106 124.188C53.4098 124.188 53.6758 124.141 53.9088 124.048C54.144 123.952 54.329 123.819 54.4637 123.65C54.5985 123.479 54.6659 123.279 54.6659 123.051C54.6659 122.843 54.6065 122.673 54.4877 122.54C54.3712 122.408 54.2125 122.298 54.0115 122.211C53.8128 122.125 53.5879 122.048 53.3367 121.982L52.5076 121.756C51.9458 121.603 51.5005 121.378 51.1716 121.081C50.845 120.784 50.6817 120.391 50.6817 119.903C50.6817 119.498 50.7913 119.145 51.0106 118.844C51.2298 118.542 51.5267 118.308 51.9013 118.142C52.2758 117.973 52.6983 117.888 53.1688 117.888C53.6438 117.888 54.0629 117.972 54.4261 118.138C54.7915 118.305 55.0792 118.534 55.2893 118.827C55.4995 119.117 55.6091 119.45 55.6182 119.827H54.5973ZM59.1647 125.106C58.6463 125.106 58.1998 124.995 57.8252 124.774C57.453 124.55 57.1652 124.236 56.962 123.832C56.761 123.425 56.6605 122.949 56.6605 122.403C56.6605 121.864 56.761 121.389 56.962 120.978C57.1652 120.567 57.4484 120.246 57.8115 120.016C58.1769 119.785 58.604 119.67 59.0928 119.67C59.3897 119.67 59.6774 119.719 59.956 119.817C60.2347 119.915 60.4848 120.069 60.7063 120.279C60.9278 120.489 61.1025 120.762 61.2304 121.098C61.3583 121.432 61.4223 121.837 61.4223 122.314V122.677H57.2394V121.91H60.4185C60.4185 121.64 60.3637 121.402 60.2541 121.194C60.1445 120.984 59.9903 120.818 59.7916 120.697C59.5952 120.576 59.3645 120.516 59.0996 120.516C58.8119 120.516 58.5606 120.587 58.346 120.728C58.1336 120.867 57.9691 121.05 57.8526 121.276C57.7385 121.5 57.6814 121.743 57.6814 122.006V122.605C57.6814 122.957 57.743 123.256 57.8663 123.503C57.992 123.75 58.1667 123.938 58.3905 124.068C58.6143 124.196 58.8758 124.26 59.175 124.26C59.3691 124.26 59.5461 124.233 59.706 124.178C59.8658 124.121 60.004 124.036 60.1205 123.924C60.237 123.812 60.326 123.674 60.3877 123.51L61.3572 123.685C61.2795 123.97 61.1402 124.22 60.9392 124.435C60.7405 124.647 60.4905 124.813 60.189 124.931C59.8898 125.048 59.5484 125.106 59.1647 125.106ZM64.7752 125.106C64.2659 125.106 63.8274 124.991 63.4597 124.76C63.0943 124.527 62.8134 124.206 62.617 123.798C62.4206 123.389 62.3224 122.921 62.3224 122.393C62.3224 121.859 62.4229 121.387 62.6238 120.978C62.8248 120.567 63.108 120.246 63.4734 120.016C63.8388 119.785 64.2693 119.67 64.7649 119.67C65.1646 119.67 65.5209 119.744 65.8338 119.892C66.1466 120.038 66.399 120.244 66.5908 120.509C66.785 120.774 66.9003 121.083 66.9368 121.437H65.94C65.8851 121.191 65.7595 120.978 65.5631 120.8C65.369 120.622 65.1086 120.533 64.7821 120.533C64.4966 120.533 64.2465 120.608 64.0318 120.759C63.8194 120.907 63.6538 121.12 63.5351 121.396C63.4163 121.67 63.3569 121.994 63.3569 122.369C63.3569 122.753 63.4152 123.084 63.5317 123.362C63.6481 123.641 63.8126 123.857 64.025 124.01C64.2396 124.163 64.492 124.239 64.7821 124.239C64.9762 124.239 65.152 124.204 65.3096 124.133C65.4695 124.06 65.6031 123.956 65.7104 123.822C65.8201 123.687 65.8966 123.525 65.94 123.335H66.9368C66.9003 123.675 66.7895 123.979 66.6045 124.246C66.4196 124.514 66.1718 124.724 65.8612 124.877C65.5528 125.03 65.1909 125.106 64.7752 125.106ZM68.0322 125V119.738H69.0223V120.574H69.0771C69.173 120.291 69.342 120.068 69.5841 119.906C69.8285 119.741 70.1048 119.659 70.4131 119.659C70.4771 119.659 70.5524 119.662 70.6392 119.666C70.7283 119.671 70.7979 119.676 70.8482 119.683V120.663C70.8071 120.652 70.734 120.639 70.6289 120.625C70.5239 120.609 70.4188 120.601 70.3138 120.601C70.0717 120.601 69.8559 120.653 69.6663 120.756C69.479 120.856 69.3306 120.996 69.221 121.177C69.1113 121.355 69.0565 121.558 69.0565 121.787V125H68.0322ZM73.814 125.106C73.2956 125.106 72.8491 124.995 72.4745 124.774C72.1023 124.55 71.8145 124.236 71.6113 123.832C71.4103 123.425 71.3098 122.949 71.3098 122.403C71.3098 121.864 71.4103 121.389 71.6113 120.978C71.8145 120.567 72.0977 120.246 72.4608 120.016C72.8263 119.785 73.2533 119.67 73.7421 119.67C74.039 119.67 74.3267 119.719 74.6054 119.817C74.884 119.915 75.1341 120.069 75.3556 120.279C75.5771 120.489 75.7518 120.762 75.8797 121.098C76.0076 121.432 76.0716 121.837 76.0716 122.314V122.677H71.8887V121.91H75.0678C75.0678 121.64 75.013 121.402 74.9034 121.194C74.7938 120.984 74.6396 120.818 74.4409 120.697C74.2445 120.576 74.0138 120.516 73.7489 120.516C73.4612 120.516 73.2099 120.587 72.9953 120.728C72.7829 120.867 72.6184 121.05 72.502 121.276C72.3878 121.5 72.3307 121.743 72.3307 122.006V122.605C72.3307 122.957 72.3923 123.256 72.5157 123.503C72.6413 123.75 72.816 123.938 73.0398 124.068C73.2636 124.196 73.5251 124.26 73.8243 124.26C74.0184 124.26 74.1954 124.233 74.3553 124.178C74.5151 124.121 74.6533 124.036 74.7698 123.924C74.8863 123.812 74.9753 123.674 75.037 123.51L76.0065 123.685C75.9288 123.97 75.7895 124.22 75.5885 124.435C75.3898 124.647 75.1398 124.813 74.8383 124.931C74.5391 125.048 74.1977 125.106 73.814 125.106ZM79.6643 119.738V120.56H76.7901V119.738H79.6643ZM77.5609 118.477H78.5852V123.455C78.5852 123.654 78.6149 123.803 78.6743 123.904C78.7337 124.002 78.8102 124.069 78.9038 124.106C78.9997 124.14 79.1036 124.157 79.2155 124.157C79.2978 124.157 79.3697 124.152 79.4314 124.14C79.493 124.129 79.541 124.12 79.5752 124.113L79.7602 124.959C79.7009 124.982 79.6164 125.005 79.5067 125.027C79.3971 125.053 79.2601 125.066 79.0956 125.069C78.8261 125.073 78.5749 125.025 78.342 124.925C78.109 124.824 77.9206 124.669 77.7767 124.459C77.6329 124.249 77.5609 123.985 77.5609 123.667V118.477ZM84.6556 121.023L83.7272 121.187C83.6884 121.068 83.6267 120.955 83.5422 120.848C83.46 120.741 83.3481 120.653 83.2065 120.584C83.0649 120.516 82.8879 120.481 82.6755 120.481C82.3855 120.481 82.1434 120.547 81.9493 120.677C81.7552 120.805 81.6581 120.97 81.6581 121.173C81.6581 121.349 81.7232 121.491 81.8534 121.598C81.9835 121.706 82.1936 121.794 82.4837 121.862L83.3196 122.054C83.8037 122.166 84.1646 122.338 84.4021 122.571C84.6396 122.804 84.7584 123.107 84.7584 123.479C84.7584 123.794 84.667 124.075 84.4843 124.322C84.3039 124.566 84.0515 124.758 83.7272 124.897C83.4052 125.037 83.0318 125.106 82.607 125.106C82.0178 125.106 81.537 124.981 81.1648 124.729C80.7925 124.476 80.5641 124.116 80.4796 123.65L81.4697 123.5C81.5313 123.758 81.6581 123.953 81.8499 124.085C82.0418 124.216 82.2919 124.281 82.6002 124.281C82.9359 124.281 83.2042 124.211 83.4052 124.072C83.6062 123.93 83.7067 123.758 83.7067 123.554C83.7067 123.39 83.645 123.252 83.5217 123.14C83.4007 123.028 83.2145 122.943 82.9633 122.886L82.0726 122.691C81.5816 122.579 81.2185 122.401 80.9832 122.157C80.7503 121.912 80.6338 121.603 80.6338 121.228C80.6338 120.918 80.7206 120.646 80.8942 120.413C81.0677 120.18 81.3075 119.998 81.6136 119.868C81.9196 119.736 82.2702 119.67 82.6653 119.67C83.2339 119.67 83.6816 119.793 84.0081 120.04C84.3347 120.284 84.5506 120.612 84.6556 121.023ZM89.9689 125.116C89.6355 125.116 89.334 125.055 89.0645 124.931C88.795 124.806 88.5815 124.624 88.4239 124.387C88.2686 124.149 88.191 123.858 88.191 123.513C88.191 123.216 88.2481 122.972 88.3623 122.78C88.4765 122.588 88.6306 122.436 88.8247 122.324C89.0189 122.213 89.2358 122.128 89.4756 122.071C89.7154 122.014 89.9598 121.971 90.2087 121.941C90.5239 121.904 90.7797 121.875 90.9761 121.852C91.1725 121.827 91.3152 121.787 91.4043 121.732C91.4934 121.677 91.5379 121.588 91.5379 121.465V121.441C91.5379 121.141 91.4534 120.91 91.2844 120.745C91.1177 120.581 90.8688 120.499 90.5376 120.499C90.1927 120.499 89.921 120.575 89.7223 120.728C89.5259 120.879 89.39 121.047 89.3146 121.232L88.352 121.012C88.4662 120.693 88.6329 120.435 88.8521 120.238C89.0737 120.04 89.3283 119.896 89.6161 119.807C89.9038 119.715 90.2064 119.67 90.5239 119.67C90.734 119.67 90.9567 119.695 91.1919 119.745C91.4294 119.793 91.651 119.882 91.8565 120.012C92.0643 120.142 92.2345 120.328 92.3669 120.571C92.4994 120.81 92.5656 121.122 92.5656 121.506V125H91.5653V124.281H91.5242C91.458 124.413 91.3586 124.543 91.2262 124.671C91.0937 124.799 90.9236 124.905 90.7157 124.99C90.5079 125.074 90.259 125.116 89.9689 125.116ZM90.1916 124.294C90.4748 124.294 90.7169 124.238 90.9179 124.126C91.1211 124.015 91.2753 123.868 91.3803 123.688C91.4877 123.505 91.5413 123.31 91.5413 123.102V122.424C91.5048 122.46 91.434 122.495 91.3289 122.527C91.2262 122.556 91.1086 122.583 90.9761 122.605C90.8436 122.626 90.7146 122.645 90.589 122.664C90.4634 122.68 90.3583 122.693 90.2738 122.705C90.0751 122.73 89.8936 122.772 89.7291 122.832C89.567 122.891 89.4368 122.977 89.3386 123.088C89.2427 123.198 89.1947 123.344 89.1947 123.527C89.1947 123.78 89.2884 123.972 89.4756 124.102C89.6629 124.23 89.9016 124.294 90.1916 124.294ZM95.8997 125.103C95.4749 125.103 95.0958 124.994 94.7624 124.777C94.4312 124.558 94.1709 124.246 93.9813 123.842C93.794 123.436 93.7004 122.948 93.7004 122.379C93.7004 121.811 93.7952 121.324 93.9847 120.92C94.1766 120.516 94.4392 120.206 94.7727 119.992C95.1061 119.777 95.4841 119.67 95.9066 119.67C96.2332 119.67 96.4958 119.724 96.6945 119.834C96.8955 119.941 97.0508 120.067 97.1604 120.211C97.2723 120.355 97.3591 120.481 97.4208 120.591H97.4824V117.984H98.5067V125H97.5064V124.181H97.4208C97.3591 124.293 97.27 124.421 97.1536 124.565C97.0394 124.709 96.8818 124.834 96.6808 124.942C96.4798 125.049 96.2195 125.103 95.8997 125.103ZM96.1258 124.229C96.4204 124.229 96.6694 124.152 96.8726 123.996C97.0782 123.839 97.2335 123.621 97.3385 123.342C97.4459 123.063 97.4996 122.739 97.4996 122.369C97.4996 122.004 97.447 121.684 97.342 121.41C97.2369 121.136 97.0828 120.922 96.8795 120.769C96.6762 120.616 96.425 120.54 96.1258 120.54C95.8175 120.54 95.5606 120.62 95.355 120.779C95.1495 120.939 94.9942 121.157 94.8891 121.434C94.7864 121.71 94.735 122.022 94.735 122.369C94.735 122.721 94.7875 123.037 94.8926 123.318C94.9976 123.599 95.1529 123.822 95.3585 123.986C95.5663 124.148 95.8221 124.229 96.1258 124.229ZM101.938 125.103C101.514 125.103 101.135 124.994 100.801 124.777C100.47 124.558 100.21 124.246 100.02 123.842C99.8328 123.436 99.7391 122.948 99.7391 122.379C99.7391 121.811 99.8339 121.324 100.023 120.92C100.215 120.516 100.478 120.206 100.811 119.992C101.145 119.777 101.523 119.67 101.945 119.67C102.272 119.67 102.535 119.724 102.733 119.834C102.934 119.941 103.09 120.067 103.199 120.211C103.311 120.355 103.398 120.481 103.459 120.591H103.521V117.984H104.545V125H103.545V124.181H103.459C103.398 124.293 103.309 124.421 103.192 124.565C103.078 124.709 102.92 124.834 102.72 124.942C102.519 125.049 102.258 125.103 101.938 125.103ZM102.165 124.229C102.459 124.229 102.708 124.152 102.911 123.996C103.117 123.839 103.272 123.621 103.377 123.342C103.485 123.063 103.538 122.739 103.538 122.369C103.538 122.004 103.486 121.684 103.381 121.41C103.276 121.136 103.121 120.922 102.918 120.769C102.715 120.616 102.464 120.54 102.165 120.54C101.856 120.54 101.599 120.62 101.394 120.779C101.188 120.939 101.033 121.157 100.928 121.434C100.825 121.71 100.774 122.022 100.774 122.369C100.774 122.721 100.826 123.037 100.931 123.318C101.036 123.599 101.192 123.822 101.397 123.986C101.605 124.148 101.861 124.229 102.165 124.229ZM108.275 125.106C107.757 125.106 107.31 124.995 106.936 124.774C106.563 124.55 106.276 124.236 106.072 123.832C105.871 123.425 105.771 122.949 105.771 122.403C105.771 121.864 105.871 121.389 106.072 120.978C106.276 120.567 106.559 120.246 106.922 120.016C107.287 119.785 107.715 119.67 108.203 119.67C108.5 119.67 108.788 119.719 109.067 119.817C109.345 119.915 109.595 120.069 109.817 120.279C110.038 120.489 110.213 120.762 110.341 121.098C110.469 121.432 110.533 121.837 110.533 122.314V122.677H106.35V121.91H109.529C109.529 121.64 109.474 121.402 109.365 121.194C109.255 120.984 109.101 120.818 108.902 120.697C108.706 120.576 108.475 120.516 108.21 120.516C107.922 120.516 107.671 120.587 107.456 120.728C107.244 120.867 107.08 121.05 106.963 121.276C106.849 121.5 106.792 121.743 106.792 122.006V122.605C106.792 122.957 106.854 123.256 106.977 123.503C107.102 123.75 107.277 123.938 107.501 124.068C107.725 124.196 107.986 124.26 108.285 124.26C108.48 124.26 108.657 124.233 108.816 124.178C108.976 124.121 109.115 124.036 109.231 123.924C109.347 123.812 109.437 123.674 109.498 123.51L110.468 123.685C110.39 123.97 110.251 124.22 110.05 124.435C109.851 124.647 109.601 124.813 109.3 124.931C109 125.048 108.659 125.106 108.275 125.106ZM113.639 125.103C113.214 125.103 112.835 124.994 112.502 124.777C112.171 124.558 111.91 124.246 111.721 123.842C111.533 123.436 111.44 122.948 111.44 122.379C111.44 121.811 111.535 121.324 111.724 120.92C111.916 120.516 112.179 120.206 112.512 119.992C112.845 119.777 113.223 119.67 113.646 119.67C113.972 119.67 114.235 119.724 114.434 119.834C114.635 119.941 114.79 120.067 114.9 120.211C115.012 120.355 115.098 120.481 115.16 120.591H115.222V117.984H116.246V125H115.246V124.181H115.16C115.098 124.293 115.009 124.421 114.893 124.565C114.779 124.709 114.621 124.834 114.42 124.942C114.219 125.049 113.959 125.103 113.639 125.103ZM113.865 124.229C114.16 124.229 114.409 124.152 114.612 123.996C114.818 123.839 114.973 123.621 115.078 123.342C115.185 123.063 115.239 122.739 115.239 122.369C115.239 122.004 115.186 121.684 115.081 121.41C114.976 121.136 114.822 120.922 114.619 120.769C114.416 120.616 114.164 120.54 113.865 120.54C113.557 120.54 113.3 120.62 113.094 120.779C112.889 120.939 112.734 121.157 112.628 121.434C112.526 121.71 112.474 122.022 112.474 122.369C112.474 122.721 112.527 123.037 112.632 123.318C112.737 123.599 112.892 123.822 113.098 123.986C113.306 124.148 113.561 124.229 113.865 124.229ZM124.204 121.023L123.276 121.187C123.237 121.068 123.175 120.955 123.091 120.848C123.008 120.741 122.897 120.653 122.755 120.584C122.613 120.516 122.436 120.481 122.224 120.481C121.934 120.481 121.692 120.547 121.498 120.677C121.304 120.805 121.207 120.97 121.207 121.173C121.207 121.349 121.272 121.491 121.402 121.598C121.532 121.706 121.742 121.794 122.032 121.862L122.868 122.054C123.352 122.166 123.713 122.338 123.951 122.571C124.188 122.804 124.307 123.107 124.307 123.479C124.307 123.794 124.215 124.075 124.033 124.322C123.852 124.566 123.6 124.758 123.276 124.897C122.954 125.037 122.58 125.106 122.155 125.106C121.566 125.106 121.085 124.981 120.713 124.729C120.341 124.476 120.113 124.116 120.028 123.65L121.018 123.5C121.08 123.758 121.207 123.953 121.398 124.085C121.59 124.216 121.84 124.281 122.149 124.281C122.484 124.281 122.753 124.211 122.954 124.072C123.155 123.93 123.255 123.758 123.255 123.554C123.255 123.39 123.193 123.252 123.07 123.14C122.949 123.028 122.763 122.943 122.512 122.886L121.621 122.691C121.13 122.579 120.767 122.401 120.532 122.157C120.299 121.912 120.182 121.603 120.182 121.228C120.182 120.918 120.269 120.646 120.443 120.413C120.616 120.18 120.856 119.998 121.162 119.868C121.468 119.736 121.819 119.67 122.214 119.67C122.782 119.67 123.23 119.793 123.557 120.04C123.883 120.284 124.099 120.612 124.204 121.023ZM128.766 122.818V119.738H129.794V125H128.787V124.089H128.732C128.611 124.37 128.417 124.604 128.15 124.791C127.885 124.976 127.555 125.069 127.16 125.069C126.822 125.069 126.522 124.994 126.262 124.846C126.004 124.695 125.801 124.472 125.652 124.178C125.506 123.883 125.433 123.519 125.433 123.085V119.738H126.457V122.962C126.457 123.32 126.557 123.606 126.755 123.818C126.954 124.031 127.212 124.137 127.53 124.137C127.721 124.137 127.912 124.089 128.102 123.993C128.294 123.897 128.452 123.752 128.578 123.558C128.706 123.364 128.769 123.117 128.766 122.818ZM133.387 125.106C132.877 125.106 132.439 124.991 132.071 124.76C131.706 124.527 131.425 124.206 131.229 123.798C131.032 123.389 130.934 122.921 130.934 122.393C130.934 121.859 131.034 121.387 131.235 120.978C131.436 120.567 131.72 120.246 132.085 120.016C132.45 119.785 132.881 119.67 133.376 119.67C133.776 119.67 134.132 119.744 134.445 119.892C134.758 120.038 135.011 120.244 135.202 120.509C135.396 120.774 135.512 121.083 135.548 121.437H134.551C134.497 121.191 134.371 120.978 134.175 120.8C133.981 120.622 133.72 120.533 133.394 120.533C133.108 120.533 132.858 120.608 132.643 120.759C132.431 120.907 132.265 121.12 132.147 121.396C132.028 121.67 131.968 121.994 131.968 122.369C131.968 122.753 132.027 123.084 132.143 123.362C132.26 123.641 132.424 123.857 132.636 124.01C132.851 124.163 133.104 124.239 133.394 124.239C133.588 124.239 133.764 124.204 133.921 124.133C134.081 124.06 134.215 123.956 134.322 123.822C134.432 123.687 134.508 123.525 134.551 123.335H135.548C135.512 123.675 135.401 123.979 135.216 124.246C135.031 124.514 134.783 124.724 134.473 124.877C134.164 125.03 133.802 125.106 133.387 125.106ZM138.86 125.106C138.351 125.106 137.912 124.991 137.545 124.76C137.179 124.527 136.898 124.206 136.702 123.798C136.506 123.389 136.407 122.921 136.407 122.393C136.407 121.859 136.508 121.387 136.709 120.978C136.91 120.567 137.193 120.246 137.558 120.016C137.924 119.785 138.354 119.67 138.85 119.67C139.25 119.67 139.606 119.744 139.919 119.892C140.232 120.038 140.484 120.244 140.676 120.509C140.87 120.774 140.985 121.083 141.022 121.437H140.025C139.97 121.191 139.845 120.978 139.648 120.8C139.454 120.622 139.194 120.533 138.867 120.533C138.582 120.533 138.331 120.608 138.117 120.759C137.904 120.907 137.739 121.12 137.62 121.396C137.501 121.67 137.442 121.994 137.442 122.369C137.442 122.753 137.5 123.084 137.617 123.362C137.733 123.641 137.898 123.857 138.11 124.01C138.325 124.163 138.577 124.239 138.867 124.239C139.061 124.239 139.237 124.204 139.395 124.133C139.554 124.06 139.688 123.956 139.795 123.822C139.905 123.687 139.982 123.525 140.025 123.335H141.022C140.985 123.675 140.875 123.979 140.69 124.246C140.505 124.514 140.257 124.724 139.946 124.877C139.638 125.03 139.276 125.106 138.86 125.106ZM144.385 125.106C143.867 125.106 143.42 124.995 143.046 124.774C142.673 124.55 142.386 124.236 142.182 123.832C141.981 123.425 141.881 122.949 141.881 122.403C141.881 121.864 141.981 121.389 142.182 120.978C142.386 120.567 142.669 120.246 143.032 120.016C143.397 119.785 143.824 119.67 144.313 119.67C144.61 119.67 144.898 119.719 145.176 119.817C145.455 119.915 145.705 120.069 145.927 120.279C146.148 120.489 146.323 120.762 146.451 121.098C146.579 121.432 146.643 121.837 146.643 122.314V122.677H142.46V121.91H145.639C145.639 121.64 145.584 121.402 145.474 121.194C145.365 120.984 145.211 120.818 145.012 120.697C144.816 120.576 144.585 120.516 144.32 120.516C144.032 120.516 143.781 120.587 143.566 120.728C143.354 120.867 143.189 121.05 143.073 121.276C142.959 121.5 142.902 121.743 142.902 122.006V122.605C142.902 122.957 142.963 123.256 143.087 123.503C143.212 123.75 143.387 123.938 143.611 124.068C143.835 124.196 144.096 124.26 144.395 124.26C144.589 124.26 144.766 124.233 144.926 124.178C145.086 124.121 145.224 124.036 145.341 123.924C145.457 123.812 145.546 123.674 145.608 123.51L146.578 123.685C146.5 123.97 146.361 124.22 146.16 124.435C145.961 124.647 145.711 124.813 145.409 124.931C145.11 125.048 144.769 125.106 144.385 125.106ZM151.722 121.023L150.794 121.187C150.755 121.068 150.693 120.955 150.609 120.848C150.527 120.741 150.415 120.653 150.273 120.584C150.131 120.516 149.954 120.481 149.742 120.481C149.452 120.481 149.21 120.547 149.016 120.677C148.822 120.805 148.725 120.97 148.725 121.173C148.725 121.349 148.79 121.491 148.92 121.598C149.05 121.706 149.26 121.794 149.55 121.862L150.386 122.054C150.87 122.166 151.231 122.338 151.469 122.571C151.706 122.804 151.825 123.107 151.825 123.479C151.825 123.794 151.734 124.075 151.551 124.322C151.37 124.566 151.118 124.758 150.794 124.897C150.472 125.037 150.098 125.106 149.674 125.106C149.084 125.106 148.604 124.981 148.231 124.729C147.859 124.476 147.631 124.116 147.546 123.65L148.536 123.5C148.598 123.758 148.725 123.953 148.916 124.085C149.108 124.216 149.358 124.281 149.667 124.281C150.002 124.281 150.271 124.211 150.472 124.072C150.673 123.93 150.773 123.758 150.773 123.554C150.773 123.39 150.712 123.252 150.588 123.14C150.467 123.028 150.281 122.943 150.03 122.886L149.139 122.691C148.648 122.579 148.285 122.401 148.05 122.157C147.817 121.912 147.7 121.603 147.7 121.228C147.7 120.918 147.787 120.646 147.961 120.413C148.134 120.18 148.374 119.998 148.68 119.868C148.986 119.736 149.337 119.67 149.732 119.67C150.3 119.67 150.748 119.793 151.075 120.04C151.401 120.284 151.617 120.612 151.722 121.023ZM156.894 121.023L155.966 121.187C155.927 121.068 155.865 120.955 155.781 120.848C155.699 120.741 155.587 120.653 155.445 120.584C155.303 120.516 155.126 120.481 154.914 120.481C154.624 120.481 154.382 120.547 154.188 120.677C153.994 120.805 153.897 120.97 153.897 121.173C153.897 121.349 153.962 121.491 154.092 121.598C154.222 121.706 154.432 121.794 154.722 121.862L155.558 122.054C156.042 122.166 156.403 122.338 156.641 122.571C156.878 122.804 156.997 123.107 156.997 123.479C156.997 123.794 156.906 124.075 156.723 124.322C156.542 124.566 156.29 124.758 155.966 124.897C155.644 125.037 155.27 125.106 154.846 125.106C154.256 125.106 153.776 124.981 153.403 124.729C153.031 124.476 152.803 124.116 152.718 123.65L153.708 123.5C153.77 123.758 153.897 123.953 154.088 124.085C154.28 124.216 154.53 124.281 154.839 124.281C155.174 124.281 155.443 124.211 155.644 124.072C155.845 123.93 155.945 123.758 155.945 123.554C155.945 123.39 155.884 123.252 155.76 123.14C155.639 123.028 155.453 122.943 155.202 122.886L154.311 122.691C153.82 122.579 153.457 122.401 153.222 122.157C152.989 121.912 152.872 121.603 152.872 121.228C152.872 120.918 152.959 120.646 153.133 120.413C153.306 120.18 153.546 119.998 153.852 119.868C154.158 119.736 154.509 119.67 154.904 119.67C155.472 119.67 155.92 119.793 156.247 120.04C156.573 120.284 156.789 120.612 156.894 121.023ZM160.627 119.738V120.56H157.654V119.738H160.627ZM158.469 125V119.128C158.469 118.799 158.541 118.526 158.685 118.31C158.829 118.09 159.02 117.927 159.257 117.82C159.495 117.71 159.753 117.655 160.031 117.655C160.237 117.655 160.413 117.672 160.559 117.707C160.705 117.739 160.813 117.768 160.884 117.796L160.644 118.625C160.596 118.611 160.535 118.595 160.459 118.577C160.384 118.556 160.293 118.546 160.185 118.546C159.936 118.546 159.758 118.608 159.651 118.731C159.546 118.854 159.493 119.032 159.493 119.265V125H158.469ZM165.017 122.818V119.738H166.045V125H165.038V124.089H164.983C164.862 124.37 164.668 124.604 164.401 124.791C164.136 124.976 163.806 125.069 163.411 125.069C163.073 125.069 162.774 124.994 162.513 124.846C162.255 124.695 162.052 124.472 161.903 124.178C161.757 123.883 161.684 123.519 161.684 123.085V119.738H162.708V122.962C162.708 123.32 162.808 123.606 163.006 123.818C163.205 124.031 163.463 124.137 163.781 124.137C163.973 124.137 164.163 124.089 164.353 123.993C164.545 123.897 164.703 123.752 164.829 123.558C164.957 123.364 165.02 123.117 165.017 122.818ZM168.446 117.984V125H167.421V117.984H168.446ZM170.848 117.984V125H169.824V117.984H170.848ZM172.873 126.973C172.72 126.973 172.581 126.961 172.456 126.936C172.33 126.913 172.236 126.888 172.175 126.86L172.421 126.021C172.609 126.071 172.775 126.093 172.921 126.086C173.068 126.079 173.197 126.024 173.309 125.922C173.423 125.819 173.523 125.651 173.61 125.418L173.737 125.069L171.811 119.738H172.908L174.24 123.822H174.295L175.628 119.738H176.727L174.559 125.702C174.458 125.976 174.331 126.208 174.175 126.398C174.02 126.59 173.835 126.733 173.62 126.829C173.406 126.925 173.157 126.973 172.873 126.973ZM179.555 125.675H189.201V116.028H179.555V125.675Z" fill="#6EB674"/>
</g>
</g>
</g>
<defs>
<filter id="filter0_di_731_4795" x="24" y="21" width="353" height="229" filterUnits="userSpaceOnUse" color-interpolation-filters="sRGB">
<feFlood flood-opacity="0" result="BackgroundImageFix"/>
<feColorMatrix in="SourceAlpha" type="matrix" values="0 0 0 0 0 0 0 0 0 0 0 0 0 0 0 0 0 0 127 0" result="hardAlpha"/>
<feOffset dy="2"/>
<feGaussianBlur stdDeviation="2.5"/>
<feComposite in2="hardAlpha" operator="out"/>
<feColorMatrix type="matrix" values="0 0 0 0 0 0 0 0 0 0 0 0 0 0 0 0 0 0 0.4 0"/>
<feBlend mode="normal" in2="BackgroundImageFix" result="effect1_dropShadow_731_4795"/>
<feBlend mode="normal" in="SourceGraphic" in2="effect1_dropShadow_731_4795" result="shape"/>
<feColorMatrix in="SourceAlpha" type="matrix" values="0 0 0 0 0 0 0 0 0 0 0 0 0 0 0 0 0 0 127 0" result="hardAlpha"/>
<feOffset dy="1"/>
<feComposite in2="hardAlpha" operator="arithmetic" k2="-1" k3="1"/>
<feColorMatrix type="matrix" values="0 0 0 0 1 0 0 0 0 1 0 0 0 0 1 0 0 0 0.05 0"/>
<feBlend mode="normal" in2="shape" result="effect2_innerShadow_731_4795"/>
</filter>
<filter id="filter1_i_731_4795" x="34.8828" y="29.8799" width="330.961" height="196" filterUnits="userSpaceOnUse" color-interpolation-filters="sRGB">
<feFlood flood-opacity="0" result="BackgroundImageFix"/>
<feBlend mode="normal" in="SourceGraphic" in2="BackgroundImageFix" result="shape"/>
<feColorMatrix in="SourceAlpha" type="matrix" values="0 0 0 0 0 0 0 0 0 0 0 0 0 0 0 0 0 0 127 0" result="hardAlpha"/>
<feMorphology radius="1" operator="erode" in="SourceAlpha" result="effect1_innerShadow_731_4795"/>
<feOffset/>
<feComposite in2="hardAlpha" operator="arithmetic" k2="-1" k3="1"/>
<feColorMatrix type="matrix" values="0 0 0 0 0 0 0 0 0 0 0 0 0 0 0 0 0 0 0.05 0"/>
<feBlend mode="normal" in2="shape" result="effect1_innerShadow_731_4795"/>
</filter>
<linearGradient id="paint0_linear_731_4795" x1="200.5" y1="24" x2="200.5" y2="243" gradientUnits="userSpaceOnUse">
<stop stop-color="white" stop-opacity="0.05"/>
<stop offset="0.6719" stop-color="white" stop-opacity="0"/>
</linearGradient>
<clipPath id="clip0_731_4795">
<rect width="395" height="201.88" fill="white" transform="translate(4 0.0595703)"/>
</clipPath>
</defs>
</svg>
