<svg viewBox="0 0 315 136" fill="none" xmlns="http://www.w3.org/2000/svg">
<g filter="url(#filter0_d_2526_5201)">
<path d="M206.754 80.0002L203.623 64.0411L218 71.9184L210.918 73.973L206.754 80.0002Z" fill="#625B71"/>
<path d="M206.754 80.0002L203.623 64.0411L218 71.9184L210.918 73.973L206.754 80.0002Z" stroke="white"/>
</g>
<g filter="url(#filter1_d_2526_5201)">
<path d="M216 82C216 80.8954 216.895 80 218 80H281C292.046 80 301 88.9543 301 100C301 111.046 292.046 120 281 120H240C226.745 120 216 109.255 216 96V82Z" fill="#7CD4FD" shape-rendering="crispEdges"/>
<path d="M217 82C217 81.4477 217.448 81 218 81H281C291.493 81 300 89.5066 300 100C300 110.493 291.493 119 281 119H240C227.297 119 217 108.703 217 96V82Z" stroke="#36BFFA" stroke-width="2" shape-rendering="crispEdges"/>
<path opacity="0.8" d="M233.278 106V94.3636H235.034V99.9205H235.176L240.057 94.3636H242.267L237.574 99.6023L242.284 106H240.17L236.409 100.801L235.034 102.381V106H233.278ZM246.307 106.193C245.754 106.193 245.254 106.091 244.807 105.886C244.36 105.678 244.006 105.377 243.744 104.983C243.487 104.589 243.358 104.106 243.358 103.534C243.358 103.042 243.453 102.636 243.642 102.318C243.831 102 244.087 101.748 244.409 101.562C244.731 101.377 245.091 101.237 245.489 101.142C245.886 101.047 246.292 100.975 246.705 100.926C247.227 100.866 247.652 100.816 247.977 100.778C248.303 100.737 248.54 100.67 248.688 100.58C248.835 100.489 248.909 100.341 248.909 100.136V100.097C248.909 99.6004 248.769 99.2159 248.489 98.9432C248.212 98.6705 247.799 98.5341 247.25 98.5341C246.678 98.5341 246.227 98.661 245.898 98.9148C245.572 99.1648 245.347 99.4432 245.222 99.75L243.625 99.3864C243.814 98.8561 244.091 98.428 244.455 98.1023C244.822 97.7727 245.244 97.5341 245.722 97.3864C246.199 97.2348 246.701 97.1591 247.227 97.1591C247.576 97.1591 247.945 97.2008 248.335 97.2841C248.729 97.3636 249.097 97.5114 249.438 97.7273C249.782 97.9432 250.064 98.2519 250.284 98.6534C250.504 99.0511 250.614 99.5682 250.614 100.205V106H248.955V104.807H248.886C248.777 105.027 248.612 105.242 248.392 105.455C248.172 105.667 247.89 105.843 247.545 105.983C247.201 106.123 246.788 106.193 246.307 106.193ZM246.676 104.83C247.146 104.83 247.547 104.737 247.881 104.551C248.218 104.366 248.473 104.123 248.648 103.824C248.826 103.521 248.915 103.197 248.915 102.852V101.727C248.854 101.788 248.737 101.845 248.562 101.898C248.392 101.947 248.197 101.991 247.977 102.028C247.758 102.062 247.544 102.095 247.335 102.125C247.127 102.152 246.953 102.174 246.812 102.193C246.483 102.235 246.182 102.305 245.909 102.403C245.64 102.502 245.424 102.644 245.261 102.83C245.102 103.011 245.023 103.254 245.023 103.557C245.023 103.977 245.178 104.295 245.489 104.511C245.799 104.723 246.195 104.83 246.676 104.83ZM252.876 106V97.2727H254.575V106H252.876ZM253.734 95.9261C253.439 95.9261 253.185 95.8277 252.973 95.6307C252.765 95.4299 252.661 95.1913 252.661 94.9148C252.661 94.6345 252.765 94.3958 252.973 94.1989C253.185 93.9981 253.439 93.8977 253.734 93.8977C254.03 93.8977 254.282 93.9981 254.49 94.1989C254.702 94.3958 254.808 94.6345 254.808 94.9148C254.808 95.1913 254.702 95.4299 254.49 95.6307C254.282 95.8277 254.03 95.9261 253.734 95.9261ZM256.861 106V97.2727H258.503V98.6591H258.594C258.753 98.1894 259.033 97.8201 259.435 97.5511C259.84 97.2784 260.298 97.142 260.81 97.142C260.916 97.142 261.041 97.1458 261.185 97.1534C261.332 97.161 261.448 97.1705 261.531 97.1818V98.8068C261.463 98.7879 261.342 98.767 261.168 98.7443C260.993 98.7178 260.819 98.7045 260.645 98.7045C260.243 98.7045 259.885 98.7898 259.571 98.9602C259.26 99.1269 259.014 99.3598 258.832 99.6591C258.651 99.9545 258.56 100.292 258.56 100.67V106H256.861ZM266.45 106.176C265.59 106.176 264.85 105.992 264.229 105.625C263.611 105.254 263.134 104.733 262.797 104.062C262.464 103.388 262.297 102.598 262.297 101.693C262.297 100.799 262.464 100.011 262.797 99.3295C263.134 98.6477 263.604 98.1155 264.206 97.733C264.812 97.3504 265.52 97.1591 266.331 97.1591C266.823 97.1591 267.301 97.2405 267.763 97.4034C268.225 97.5663 268.64 97.822 269.007 98.1705C269.375 98.5189 269.664 98.9716 269.876 99.5284C270.089 100.081 270.195 100.754 270.195 101.545V102.148H263.257V100.875H268.53C268.53 100.428 268.439 100.032 268.257 99.6875C268.075 99.339 267.82 99.0644 267.49 98.8636C267.164 98.6629 266.782 98.5625 266.342 98.5625C265.865 98.5625 265.448 98.6799 265.092 98.9148C264.74 99.1458 264.467 99.4489 264.274 99.8239C264.085 100.195 263.99 100.598 263.99 101.034V102.028C263.99 102.612 264.092 103.108 264.297 103.517C264.505 103.926 264.795 104.239 265.166 104.455C265.537 104.667 265.971 104.773 266.467 104.773C266.789 104.773 267.083 104.727 267.348 104.636C267.613 104.542 267.842 104.402 268.036 104.216C268.229 104.03 268.376 103.801 268.479 103.528L270.087 103.818C269.958 104.292 269.727 104.706 269.393 105.062C269.064 105.415 268.649 105.689 268.149 105.886C267.653 106.08 267.087 106.176 266.45 106.176ZM273.778 100.818V106H272.08V97.2727H273.71V98.6932H273.818C274.019 98.2311 274.333 97.8598 274.761 97.5795C275.193 97.2992 275.737 97.1591 276.392 97.1591C276.987 97.1591 277.508 97.2841 277.955 97.5341C278.402 97.7803 278.748 98.1477 278.994 98.6364C279.241 99.125 279.364 99.7292 279.364 100.449V106H277.665V100.653C277.665 100.021 277.5 99.5265 277.17 99.1705C276.841 98.8106 276.388 98.6307 275.812 98.6307C275.419 98.6307 275.068 98.7159 274.761 98.8864C274.458 99.0568 274.218 99.3068 274.04 99.6364C273.866 99.9621 273.778 100.356 273.778 100.818Z" fill="black"/>
</g>
<g filter="url(#filter2_d_2526_5201)">
<path d="M137.578 82.0002L140.948 66.0411L125.473 73.9184L133.096 75.973L137.578 82.0002Z" fill="#CAECF1" fill-opacity="0.8" shape-rendering="crispEdges"/>
<path d="M137.578 82.0002L140.948 66.0411L125.473 73.9184L133.096 75.973L137.578 82.0002Z" stroke="white" shape-rendering="crispEdges"/>
</g>
<g filter="url(#filter3_d_2526_5201)">
<path d="M127.625 84C127.625 82.8954 126.73 82 125.625 82H25.999C14.9533 82 5.99905 90.9543 5.99905 102C5.99905 113.046 14.9534 122 25.999 122H103.625C116.88 122 127.625 111.255 127.625 98V84Z" fill="#6663F6" shape-rendering="crispEdges"/>
<path d="M126.625 84C126.625 83.4477 126.177 83 125.625 83H25.999C15.5056 83 6.99905 91.5066 6.99905 102C6.99905 112.493 15.5056 121 25.999 121H103.625C116.328 121 126.625 110.703 126.625 98V84Z" stroke="#403F9A" stroke-width="2" shape-rendering="crispEdges"/>
<path opacity="0.8" d="M35.3295 105.04L35.3182 102.966H35.6136L39.0909 99.2727H41.125L37.1591 103.477H36.892L35.3295 105.04ZM33.767 108V96.3636H35.4659V108H33.767ZM39.2784 108L36.1534 103.852L37.3239 102.665L41.3636 108H39.2784ZM42.6733 108V99.2727H44.3153V100.659H44.4062C44.5653 100.189 44.8456 99.8201 45.2472 99.5511C45.6525 99.2784 46.1108 99.142 46.6222 99.142C46.7282 99.142 46.8532 99.1458 46.9972 99.1534C47.1449 99.161 47.2604 99.1705 47.3438 99.1818V100.807C47.2756 100.788 47.1544 100.767 46.9801 100.744C46.8059 100.718 46.6316 100.705 46.4574 100.705C46.0559 100.705 45.6979 100.79 45.3835 100.96C45.0729 101.127 44.8267 101.36 44.6449 101.659C44.4631 101.955 44.3722 102.292 44.3722 102.67V108H42.6733ZM48.8139 108V99.2727H50.5128V108H48.8139ZM49.6719 97.9261C49.3764 97.9261 49.1226 97.8277 48.9105 97.6307C48.7022 97.4299 48.598 97.1913 48.598 96.9148C48.598 96.6345 48.7022 96.3958 48.9105 96.1989C49.1226 95.9981 49.3764 95.8977 49.6719 95.8977C49.9673 95.8977 50.2192 95.9981 50.4276 96.1989C50.6397 96.3958 50.7457 96.6345 50.7457 96.9148C50.7457 97.1913 50.6397 97.4299 50.4276 97.6307C50.2192 97.8277 49.9673 97.9261 49.6719 97.9261ZM52.7983 111.273V99.2727H54.4574V100.688H54.5994C54.6979 100.506 54.84 100.295 55.0256 100.057C55.2112 99.8182 55.4688 99.6098 55.7983 99.4318C56.1278 99.25 56.5634 99.1591 57.1051 99.1591C57.8097 99.1591 58.4384 99.3371 58.9915 99.6932C59.5445 100.049 59.9782 100.562 60.2926 101.233C60.6108 101.903 60.7699 102.71 60.7699 103.653C60.7699 104.597 60.6127 105.405 60.2983 106.08C59.9839 106.75 59.5521 107.267 59.0028 107.631C58.4536 107.991 57.8267 108.17 57.1222 108.17C56.5919 108.17 56.1581 108.081 55.821 107.903C55.4877 107.725 55.2263 107.517 55.0369 107.278C54.8475 107.04 54.7017 106.828 54.5994 106.642H54.4972V111.273H52.7983ZM54.4631 103.636C54.4631 104.25 54.5521 104.788 54.7301 105.25C54.9081 105.712 55.1657 106.074 55.5028 106.335C55.84 106.593 56.2528 106.722 56.7415 106.722C57.2491 106.722 57.6733 106.587 58.0142 106.318C58.3551 106.045 58.6127 105.676 58.7869 105.21C58.965 104.744 59.054 104.22 59.054 103.636C59.054 103.061 58.9669 102.544 58.7926 102.085C58.6222 101.627 58.3646 101.265 58.0199 101C57.679 100.735 57.2528 100.602 56.7415 100.602C56.2491 100.602 55.8324 100.729 55.4915 100.983C55.1544 101.237 54.8987 101.591 54.7244 102.045C54.5502 102.5 54.4631 103.03 54.4631 103.636ZM66.7472 99.2727V100.636H61.9801V99.2727H66.7472ZM63.2585 97.1818H64.9574V105.438C64.9574 105.767 65.0066 106.015 65.1051 106.182C65.2036 106.345 65.3305 106.456 65.4858 106.517C65.6449 106.574 65.8172 106.602 66.0028 106.602C66.1392 106.602 66.2585 106.593 66.3608 106.574C66.4631 106.555 66.5426 106.54 66.5994 106.528L66.9062 107.932C66.8078 107.97 66.6676 108.008 66.4858 108.045C66.304 108.087 66.0767 108.11 65.804 108.114C65.357 108.121 64.9403 108.042 64.554 107.875C64.1676 107.708 63.8551 107.451 63.6165 107.102C63.3778 106.754 63.2585 106.316 63.2585 105.79V97.1818ZM72.2088 108.176C71.3906 108.176 70.6766 107.989 70.0668 107.614C69.4569 107.239 68.9834 106.714 68.6463 106.04C68.3092 105.366 68.1406 104.578 68.1406 103.676C68.1406 102.771 68.3092 101.979 68.6463 101.301C68.9834 100.623 69.4569 100.097 70.0668 99.7216C70.6766 99.3466 71.3906 99.1591 72.2088 99.1591C73.027 99.1591 73.741 99.3466 74.3509 99.7216C74.9607 100.097 75.4342 100.623 75.7713 101.301C76.1084 101.979 76.277 102.771 76.277 103.676C76.277 104.578 76.1084 105.366 75.7713 106.04C75.4342 106.714 74.9607 107.239 74.3509 107.614C73.741 107.989 73.027 108.176 72.2088 108.176ZM72.2145 106.75C72.7448 106.75 73.1842 106.61 73.5327 106.33C73.8812 106.049 74.1387 105.676 74.3054 105.21C74.4759 104.744 74.5611 104.231 74.5611 103.67C74.5611 103.114 74.4759 102.602 74.3054 102.136C74.1387 101.667 73.8812 101.29 73.5327 101.006C73.1842 100.722 72.7448 100.58 72.2145 100.58C71.6804 100.58 71.2372 100.722 70.8849 101.006C70.5365 101.29 70.277 101.667 70.1065 102.136C69.9399 102.602 69.8565 103.114 69.8565 103.67C69.8565 104.231 69.9399 104.744 70.1065 105.21C70.277 105.676 70.5365 106.049 70.8849 106.33C71.2372 106.61 71.6804 106.75 72.2145 106.75ZM79.8722 102.818V108H78.1733V99.2727H79.804V100.693H79.9119C80.1127 100.231 80.4271 99.8598 80.8551 99.5795C81.2869 99.2992 81.8305 99.1591 82.4858 99.1591C83.0805 99.1591 83.6013 99.2841 84.0483 99.5341C84.4953 99.7803 84.8419 100.148 85.0881 100.636C85.3343 101.125 85.4574 101.729 85.4574 102.449V108H83.7585V102.653C83.7585 102.021 83.5938 101.527 83.2642 101.17C82.9347 100.811 82.482 100.631 81.9062 100.631C81.5123 100.631 81.1619 100.716 80.8551 100.886C80.5521 101.057 80.3116 101.307 80.1335 101.636C79.9593 101.962 79.8722 102.356 79.8722 102.818ZM87.7358 108V99.2727H89.4347V108H87.7358ZM88.5938 97.9261C88.2983 97.9261 88.0445 97.8277 87.8324 97.6307C87.6241 97.4299 87.5199 97.1913 87.5199 96.9148C87.5199 96.6345 87.6241 96.3958 87.8324 96.1989C88.0445 95.9981 88.2983 95.8977 88.5938 95.8977C88.8892 95.8977 89.1411 95.9981 89.3494 96.1989C89.5616 96.3958 89.6676 96.6345 89.6676 96.9148C89.6676 97.1913 89.5616 97.4299 89.3494 97.6307C89.1411 97.8277 88.8892 97.9261 88.5938 97.9261ZM94.2599 108.193C93.7069 108.193 93.2069 108.091 92.7599 107.886C92.313 107.678 91.9588 107.377 91.6974 106.983C91.4399 106.589 91.3111 106.106 91.3111 105.534C91.3111 105.042 91.4058 104.636 91.5952 104.318C91.7846 104 92.0402 103.748 92.3622 103.562C92.6842 103.377 93.044 103.237 93.4418 103.142C93.8395 103.047 94.2448 102.975 94.6577 102.926C95.1804 102.866 95.6046 102.816 95.9304 102.778C96.2562 102.737 96.4929 102.67 96.6406 102.58C96.7884 102.489 96.8622 102.341 96.8622 102.136V102.097C96.8622 101.6 96.7221 101.216 96.4418 100.943C96.1652 100.67 95.7524 100.534 95.2031 100.534C94.6312 100.534 94.1804 100.661 93.8509 100.915C93.5251 101.165 93.2997 101.443 93.1747 101.75L91.5781 101.386C91.7675 100.856 92.044 100.428 92.4077 100.102C92.7751 99.7727 93.1974 99.5341 93.6747 99.3864C94.152 99.2348 94.6539 99.1591 95.1804 99.1591C95.5289 99.1591 95.8982 99.2008 96.2884 99.2841C96.6823 99.3636 97.0497 99.5114 97.3906 99.7273C97.7353 99.9432 98.0175 100.252 98.2372 100.653C98.4569 101.051 98.5668 101.568 98.5668 102.205V108H96.9077V106.807H96.8395C96.7296 107.027 96.5649 107.242 96.3452 107.455C96.1255 107.667 95.8433 107.843 95.4986 107.983C95.1539 108.123 94.741 108.193 94.2599 108.193ZM94.6293 106.83C95.099 106.83 95.5005 106.737 95.8338 106.551C96.1709 106.366 96.4266 106.123 96.6009 105.824C96.7789 105.521 96.8679 105.197 96.8679 104.852V103.727C96.8073 103.788 96.6899 103.845 96.5156 103.898C96.3452 103.947 96.1501 103.991 95.9304 104.028C95.7107 104.062 95.4967 104.095 95.2884 104.125C95.08 104.152 94.9058 104.174 94.7656 104.193C94.4361 104.235 94.1349 104.305 93.8622 104.403C93.5933 104.502 93.3774 104.644 93.2145 104.83C93.0554 105.011 92.9759 105.254 92.9759 105.557C92.9759 105.977 93.1312 106.295 93.4418 106.511C93.7524 106.723 94.1482 106.83 94.6293 106.83ZM102.528 102.818V108H100.83V99.2727H102.46V100.693H102.568C102.769 100.231 103.083 99.8598 103.511 99.5795C103.943 99.2992 104.487 99.1591 105.142 99.1591C105.737 99.1591 106.258 99.2841 106.705 99.5341C107.152 99.7803 107.498 100.148 107.744 100.636C107.991 101.125 108.114 101.729 108.114 102.449V108H106.415V102.653C106.415 102.021 106.25 101.527 105.92 101.17C105.591 100.811 105.138 100.631 104.562 100.631C104.169 100.631 103.818 100.716 103.511 100.886C103.208 101.057 102.968 101.307 102.79 101.636C102.616 101.962 102.528 102.356 102.528 102.818Z" fill="black"/>
</g>
<g filter="url(#filter4_bddd_2526_5201)">
<rect x="33" y="2" width="228.72" height="44" rx="12" fill="#13141A"/>
<rect x="33.25" y="2.25" width="228.22" height="43.5" rx="11.75" stroke="url(#paint0_linear_2526_5201)" stroke-opacity="0.8" stroke-width="0.5"/>
<path d="M53.3366 18.8182V29H51.9247L46.7493 21.5327H46.6548V29H45.1186V18.8182H46.5405L51.7209 26.2955H51.8153V18.8182H53.3366ZM58.7495 29.1541C57.9971 29.1541 57.3491 28.9934 56.8056 28.6719C56.2653 28.3471 55.8477 27.8913 55.5527 27.3047C55.2611 26.7147 55.1152 26.0237 55.1152 25.2315C55.1152 24.4493 55.2611 23.7599 55.5527 23.1634C55.8477 22.5668 56.2587 22.1011 56.7857 21.7663C57.316 21.4316 57.9358 21.2642 58.6451 21.2642C59.0759 21.2642 59.4935 21.3355 59.8979 21.478C60.3023 21.6205 60.6652 21.8442 60.9867 22.1491C61.3082 22.4541 61.5617 22.8501 61.7473 23.3374C61.9329 23.8213 62.0257 24.4096 62.0257 25.1023V25.6293H55.9554V24.5156H60.5691C60.5691 24.1245 60.4895 23.7782 60.3304 23.4766C60.1713 23.1716 59.9476 22.9313 59.6593 22.7557C59.3742 22.58 59.0395 22.4922 58.655 22.4922C58.2374 22.4922 57.8728 22.5949 57.5613 22.8004C57.253 23.0026 57.0144 23.2678 56.8453 23.5959C56.6796 23.9207 56.5968 24.2737 56.5968 24.6548V25.5249C56.5968 26.0353 56.6863 26.4695 56.8652 26.8274C57.0475 27.1854 57.3011 27.4588 57.6259 27.6477C57.9507 27.8333 58.3302 27.9261 58.7644 27.9261C59.0461 27.9261 59.303 27.8864 59.535 27.8068C59.767 27.724 59.9675 27.6013 60.1365 27.4389C60.3056 27.2765 60.4348 27.076 60.5243 26.8374L61.9313 27.0909C61.8186 27.5052 61.6164 27.8681 61.3248 28.1797C61.0364 28.4879 60.6735 28.7282 60.236 28.9006C59.8018 29.0696 59.3063 29.1541 58.7495 29.1541ZM65.3169 29L63.0698 21.3636H64.606L66.1025 26.9716H66.177L67.6784 21.3636H69.2147L70.7061 26.9467H70.7807L72.2672 21.3636H73.8034L71.5613 29H70.0449L68.4938 23.4865H68.3794L66.8283 29H65.3169ZM84.5918 21.4929C84.5388 21.0223 84.32 20.6577 83.9355 20.3991C83.5511 20.1373 83.0672 20.0064 82.4838 20.0064C82.0662 20.0064 81.705 20.0727 81.4 20.2053C81.0951 20.3345 80.8581 20.5135 80.6891 20.7422C80.5234 20.9676 80.4405 21.2244 80.4405 21.5128C80.4405 21.7547 80.4969 21.9635 80.6096 22.1392C80.7256 22.3149 80.8764 22.4624 81.062 22.5817C81.2509 22.6977 81.4531 22.7955 81.6685 22.875C81.8839 22.9512 82.0911 23.0142 82.29 23.0639L83.2843 23.3224C83.6091 23.402 83.9422 23.5097 84.2836 23.6456C84.6249 23.7815 84.9415 23.9605 85.2331 24.1825C85.5248 24.4046 85.7601 24.6797 85.9391 25.0078C86.1214 25.3359 86.2125 25.7287 86.2125 26.1861C86.2125 26.7628 86.0634 27.2749 85.7651 27.7223C85.4701 28.1697 85.0409 28.5227 84.4775 28.7812C83.9173 29.0398 83.2395 29.169 82.4441 29.169C81.6818 29.169 81.0222 29.0481 80.4654 28.8061C79.9086 28.5642 79.4727 28.2211 79.1578 27.777C78.843 27.3295 78.669 26.7992 78.6358 26.1861H80.177C80.2069 26.554 80.3262 26.8606 80.535 27.1058C80.7471 27.3478 81.0172 27.5284 81.3453 27.6477C81.6768 27.7637 82.0397 27.8217 82.4341 27.8217C82.8683 27.8217 83.2544 27.7538 83.5925 27.6179C83.9339 27.4787 84.2024 27.2865 84.3979 27.0412C84.5935 26.7926 84.6912 26.5026 84.6912 26.1712C84.6912 25.8696 84.6051 25.6226 84.4327 25.4304C84.2637 25.2382 84.0333 25.0791 83.7417 24.9531C83.4533 24.8272 83.1268 24.7161 82.7623 24.62L81.5591 24.2919C80.7438 24.0698 80.0975 23.7434 79.6202 23.3125C79.1462 22.8816 78.9093 22.3116 78.9093 21.6023C78.9093 21.0156 79.0684 20.5036 79.3865 20.0661C79.7047 19.6286 80.1356 19.2888 80.6792 19.0469C81.2227 18.8016 81.8359 18.679 82.5186 18.679C83.208 18.679 83.8162 18.8 84.3432 19.0419C84.8735 19.2839 85.2911 19.617 85.5961 20.0412C85.901 20.4621 86.0601 20.946 86.0733 21.4929H84.5918ZM91.2202 29.1541C90.4678 29.1541 89.8198 28.9934 89.2763 28.6719C88.736 28.3471 88.3184 27.8913 88.0234 27.3047C87.7318 26.7147 87.5859 26.0237 87.5859 25.2315C87.5859 24.4493 87.7318 23.7599 88.0234 23.1634C88.3184 22.5668 88.7294 22.1011 89.2564 21.7663C89.7867 21.4316 90.4065 21.2642 91.1158 21.2642C91.5466 21.2642 91.9643 21.3355 92.3686 21.478C92.773 21.6205 93.1359 21.8442 93.4574 22.1491C93.7789 22.4541 94.0324 22.8501 94.218 23.3374C94.4036 23.8213 94.4964 24.4096 94.4964 25.1023V25.6293H88.4261V24.5156H93.0398C93.0398 24.1245 92.9602 23.7782 92.8011 23.4766C92.642 23.1716 92.4183 22.9313 92.13 22.7557C91.8449 22.58 91.5102 22.4922 91.1257 22.4922C90.7081 22.4922 90.3435 22.5949 90.032 22.8004C89.7237 23.0026 89.4851 23.2678 89.3161 23.5959C89.1503 23.9207 89.0675 24.2737 89.0675 24.6548V25.5249C89.0675 26.0353 89.157 26.4695 89.3359 26.8274C89.5182 27.1854 89.7718 27.4588 90.0966 27.6477C90.4214 27.8333 90.8009 27.9261 91.2351 27.9261C91.5168 27.9261 91.7737 27.8864 92.0057 27.8068C92.2377 27.724 92.4382 27.6013 92.6072 27.4389C92.7763 27.2765 92.9055 27.076 92.995 26.8374L94.402 27.0909C94.2893 27.5052 94.0871 27.8681 93.7955 28.1797C93.5071 28.4879 93.1442 28.7282 92.7067 28.9006C92.2725 29.0696 91.777 29.1541 91.2202 29.1541ZM99.3624 29.1541C98.6233 29.1541 97.9869 28.9867 97.4533 28.652C96.923 28.3139 96.5153 27.8482 96.2303 27.255C95.9453 26.6617 95.8027 25.9822 95.8027 25.2166C95.8027 24.4411 95.9486 23.7566 96.2402 23.1634C96.5319 22.5668 96.9429 22.1011 97.4732 21.7663C98.0035 21.4316 98.6283 21.2642 99.3475 21.2642C99.9275 21.2642 100.445 21.3719 100.899 21.5874C101.353 21.7995 101.719 22.0978 101.997 22.4822C102.279 22.8667 102.446 23.3158 102.499 23.8295H101.053C100.973 23.4716 100.791 23.1634 100.506 22.9048C100.224 22.6463 99.8463 22.517 99.3723 22.517C98.958 22.517 98.5951 22.6264 98.2836 22.8452C97.9753 23.0606 97.735 23.3688 97.5627 23.7699C97.3903 24.1676 97.3042 24.6383 97.3042 25.1818C97.3042 25.7386 97.3887 26.2192 97.5577 26.6236C97.7267 27.0279 97.9654 27.3411 98.2736 27.5632C98.5852 27.7853 98.9514 27.8963 99.3723 27.8963C99.6541 27.8963 99.9093 27.8449 100.138 27.7422C100.37 27.6361 100.564 27.4853 100.72 27.2898C100.879 27.0942 100.99 26.8589 101.053 26.5838H102.499C102.446 27.0777 102.286 27.5185 102.017 27.9062C101.749 28.294 101.389 28.599 100.938 28.821C100.491 29.0431 99.9656 29.1541 99.3624 29.1541ZM104.089 29V21.3636H105.526V22.5767H105.605C105.745 22.1657 105.99 21.8426 106.341 21.6072C106.696 21.3686 107.097 21.2493 107.544 21.2493C107.637 21.2493 107.747 21.2526 107.873 21.2592C108.002 21.2659 108.103 21.2741 108.176 21.2841V22.706C108.116 22.6894 108.01 22.6712 107.858 22.6513C107.705 22.6281 107.553 22.6165 107.4 22.6165C107.049 22.6165 106.736 22.6911 106.461 22.8402C106.189 22.986 105.973 23.1899 105.814 23.4517C105.655 23.7102 105.576 24.0052 105.576 24.3366V29H104.089ZM112.48 29.1541C111.728 29.1541 111.08 28.9934 110.536 28.6719C109.996 28.3471 109.578 27.8913 109.283 27.3047C108.992 26.7147 108.846 26.0237 108.846 25.2315C108.846 24.4493 108.992 23.7599 109.283 23.1634C109.578 22.5668 109.989 22.1011 110.516 21.7663C111.046 21.4316 111.666 21.2642 112.376 21.2642C112.806 21.2642 113.224 21.3355 113.628 21.478C114.033 21.6205 114.396 21.8442 114.717 22.1491C115.039 22.4541 115.292 22.8501 115.478 23.3374C115.663 23.8213 115.756 24.4096 115.756 25.1023V25.6293H109.686V24.5156H114.3C114.3 24.1245 114.22 23.7782 114.061 23.4766C113.902 23.1716 113.678 22.9313 113.39 22.7557C113.105 22.58 112.77 22.4922 112.385 22.4922C111.968 22.4922 111.603 22.5949 111.292 22.8004C110.983 23.0026 110.745 23.2678 110.576 23.5959C110.41 23.9207 110.327 24.2737 110.327 24.6548V25.5249C110.327 26.0353 110.417 26.4695 110.596 26.8274C110.778 27.1854 111.032 27.4588 111.356 27.6477C111.681 27.8333 112.061 27.9261 112.495 27.9261C112.777 27.9261 113.033 27.8864 113.265 27.8068C113.497 27.724 113.698 27.6013 113.867 27.4389C114.036 27.2765 114.165 27.076 114.255 26.8374L115.662 27.0909C115.549 27.5052 115.347 27.8681 115.055 28.1797C114.767 28.4879 114.404 28.7282 113.966 28.9006C113.532 29.0696 113.037 29.1541 112.48 29.1541ZM120.97 21.3636V22.5568H116.799V21.3636H120.97ZM117.918 19.5341H119.404V26.7578C119.404 27.0462 119.447 27.2633 119.533 27.4091C119.62 27.5516 119.731 27.6494 119.866 27.7024C120.006 27.7521 120.156 27.777 120.319 27.777C120.438 27.777 120.543 27.7687 120.632 27.7521C120.722 27.7356 120.791 27.7223 120.841 27.7124L121.109 28.9403C121.023 28.9735 120.901 29.0066 120.741 29.0398C120.582 29.0762 120.384 29.0961 120.145 29.0994C119.754 29.1061 119.389 29.0365 119.051 28.8906C118.713 28.7448 118.44 28.5194 118.231 28.2145C118.022 27.9096 117.918 27.5268 117.918 27.0661V19.5341Z" fill="#CAECF1" fill-opacity="0.8"/>
<rect x="147" y="12" width="101" height="24" rx="4" fill="#212127"/>
<path d="M156.112 26.5455L156.207 24.4474L154.437 25.5859L153.895 24.6413L155.774 23.6818L153.895 22.7223L154.437 21.7777L156.207 22.9162L156.112 20.8182H157.191L157.097 22.9162L158.866 21.7777L159.408 22.7223L157.529 23.6818L159.408 24.6413L158.866 25.5859L157.097 24.4474L157.191 26.5455H156.112ZM163.413 26.5455L163.507 24.4474L161.738 25.5859L161.196 24.6413L163.075 23.6818L161.196 22.7223L161.738 21.7777L163.507 22.9162L163.413 20.8182H164.492L164.397 22.9162L166.167 21.7777L166.709 22.7223L164.83 23.6818L166.709 24.6413L166.167 25.5859L164.397 24.4474L164.492 26.5455H163.413ZM170.714 26.5455L170.808 24.4474L169.038 25.5859L168.496 24.6413L170.376 23.6818L168.496 22.7223L169.038 21.7777L170.808 22.9162L170.714 20.8182H171.793L171.698 22.9162L173.468 21.7777L174.01 22.7223L172.131 23.6818L174.01 24.6413L173.468 25.5859L171.698 24.4474L171.793 26.5455H170.714ZM178.015 26.5455L178.109 24.4474L176.339 25.5859L175.797 24.6413L177.676 23.6818L175.797 22.7223L176.339 21.7777L178.109 22.9162L178.015 20.8182H179.093L178.999 22.9162L180.769 21.7777L181.311 22.7223L179.431 23.6818L181.311 24.6413L180.769 25.5859L178.999 24.4474L179.093 26.5455H178.015ZM185.315 26.5455L185.41 24.4474L183.64 25.5859L183.098 24.6413L184.977 23.6818L183.098 22.7223L183.64 21.7777L185.41 22.9162L185.315 20.8182H186.394L186.3 22.9162L188.07 21.7777L188.612 22.7223L186.732 23.6818L188.612 24.6413L188.07 25.5859L186.3 24.4474L186.394 26.5455H185.315ZM192.616 26.5455L192.711 24.4474L190.941 25.5859L190.399 24.6413L192.278 23.6818L190.399 22.7223L190.941 21.7777L192.711 22.9162L192.616 20.8182H193.695L193.6 22.9162L195.37 21.7777L195.912 22.7223L194.033 23.6818L195.912 24.6413L195.37 25.5859L193.6 24.4474L193.695 26.5455H192.616ZM199.917 26.5455L200.011 24.4474L198.241 25.5859L197.7 24.6413L199.579 23.6818L197.7 22.7223L198.241 21.7777L200.011 22.9162L199.917 20.8182H200.996L200.901 22.9162L202.671 21.7777L203.213 22.7223L201.334 23.6818L203.213 24.6413L202.671 25.5859L200.901 24.4474L200.996 26.5455H199.917ZM207.218 26.5455L207.312 24.4474L205.542 25.5859L205 24.6413L206.88 23.6818L205 22.7223L205.542 21.7777L207.312 22.9162L207.218 20.8182H208.297L208.202 22.9162L209.972 21.7777L210.514 22.7223L208.635 23.6818L210.514 24.6413L209.972 25.5859L208.202 24.4474L208.297 26.5455H207.218ZM214.518 26.5455L214.613 24.4474L212.843 25.5859L212.301 24.6413L214.18 23.6818L212.301 22.7223L212.843 21.7777L214.613 22.9162L214.518 20.8182H215.597L215.503 22.9162L217.273 21.7777L217.815 22.7223L215.935 23.6818L217.815 24.6413L217.273 25.5859L215.503 24.4474L215.597 26.5455H214.518ZM221.819 26.5455L221.914 24.4474L220.144 25.5859L219.602 24.6413L221.481 23.6818L219.602 22.7223L220.144 21.7777L221.914 22.9162L221.819 20.8182H222.898L222.804 22.9162L224.574 21.7777L225.115 22.7223L223.236 23.6818L225.115 24.6413L224.574 25.5859L222.804 24.4474L222.898 26.5455H221.819ZM229.12 26.5455L229.214 24.4474L227.445 25.5859L226.903 24.6413L228.782 23.6818L226.903 22.7223L227.445 21.7777L229.214 22.9162L229.12 20.8182H230.199L230.104 22.9162L231.874 21.7777L232.416 22.7223L230.537 23.6818L232.416 24.6413L231.874 25.5859L230.104 24.4474L230.199 26.5455H229.12ZM236.421 26.5455L236.515 24.4474L234.745 25.5859L234.203 24.6413L236.083 23.6818L234.203 22.7223L234.745 21.7777L236.515 22.9162L236.421 20.8182H237.5L237.405 22.9162L239.175 21.7777L239.717 22.7223L237.838 23.6818L239.717 24.6413L239.175 25.5859L237.405 24.4474L237.5 26.5455H236.421Z" fill="white"/>
</g>
<defs>
<filter id="filter0_d_2526_5201" x="200.922" y="62.0908" width="20.375" height="22.1738" filterUnits="userSpaceOnUse" color-interpolation-filters="sRGB">
<feFlood flood-opacity="0" result="BackgroundImageFix"/>
<feColorMatrix in="SourceAlpha" type="matrix" values="0 0 0 0 0 0 0 0 0 0 0 0 0 0 0 0 0 0 127 0" result="hardAlpha"/>
<feOffset dy="1"/>
<feGaussianBlur stdDeviation="1"/>
<feComposite in2="hardAlpha" operator="out"/>
<feColorMatrix type="matrix" values="0 0 0 0 0 0 0 0 0 0 0 0 0 0 0 0 0 0 0.25 0"/>
<feBlend mode="normal" in2="BackgroundImageFix" result="effect1_dropShadow_2526_5201"/>
<feBlend mode="normal" in="SourceGraphic" in2="effect1_dropShadow_2526_5201" result="shape"/>
</filter>
<filter id="filter1_d_2526_5201" x="210" y="74" width="105" height="60" filterUnits="userSpaceOnUse" color-interpolation-filters="sRGB">
<feFlood flood-opacity="0" result="BackgroundImageFix"/>
<feColorMatrix in="SourceAlpha" type="matrix" values="0 0 0 0 0 0 0 0 0 0 0 0 0 0 0 0 0 0 127 0" result="hardAlpha"/>
<feOffset dx="4" dy="4"/>
<feGaussianBlur stdDeviation="5"/>
<feComposite in2="hardAlpha" operator="out"/>
<feColorMatrix type="matrix" values="0 0 0 0 0.486275 0 0 0 0 0.831373 0 0 0 0 0.992157 0 0 0 0.16 0"/>
<feBlend mode="normal" in2="BackgroundImageFix" result="effect1_dropShadow_2526_5201"/>
<feBlend mode="normal" in="SourceGraphic" in2="effect1_dropShadow_2526_5201" result="shape"/>
</filter>
<filter id="filter2_d_2526_5201" x="122.133" y="64.1328" width="21.5312" height="22.0859" filterUnits="userSpaceOnUse" color-interpolation-filters="sRGB">
<feFlood flood-opacity="0" result="BackgroundImageFix"/>
<feColorMatrix in="SourceAlpha" type="matrix" values="0 0 0 0 0 0 0 0 0 0 0 0 0 0 0 0 0 0 127 0" result="hardAlpha"/>
<feOffset dy="1"/>
<feGaussianBlur stdDeviation="1"/>
<feComposite in2="hardAlpha" operator="out"/>
<feColorMatrix type="matrix" values="0 0 0 0 0 0 0 0 0 0 0 0 0 0 0 0 0 0 0.25 0"/>
<feBlend mode="normal" in2="BackgroundImageFix" result="effect1_dropShadow_2526_5201"/>
<feBlend mode="normal" in="SourceGraphic" in2="effect1_dropShadow_2526_5201" result="shape"/>
</filter>
<filter id="filter3_d_2526_5201" x="0" y="76" width="141.625" height="60" filterUnits="userSpaceOnUse" color-interpolation-filters="sRGB">
<feFlood flood-opacity="0" result="BackgroundImageFix"/>
<feColorMatrix in="SourceAlpha" type="matrix" values="0 0 0 0 0 0 0 0 0 0 0 0 0 0 0 0 0 0 127 0" result="hardAlpha"/>
<feOffset dx="4" dy="4"/>
<feGaussianBlur stdDeviation="5"/>
<feComposite in2="hardAlpha" operator="out"/>
<feColorMatrix type="matrix" values="0 0 0 0 0.486275 0 0 0 0 0.831373 0 0 0 0 0.992157 0 0 0 0.16 0"/>
<feBlend mode="normal" in2="BackgroundImageFix" result="effect1_dropShadow_2526_5201"/>
<feBlend mode="normal" in="SourceGraphic" in2="effect1_dropShadow_2526_5201" result="shape"/>
</filter>
<filter id="filter4_bddd_2526_5201" x="9" y="-3" width="276.719" height="97" filterUnits="userSpaceOnUse" color-interpolation-filters="sRGB">
<feFlood flood-opacity="0" result="BackgroundImageFix"/>
<feGaussianBlur in="BackgroundImageFix" stdDeviation="2.5"/>
<feComposite in2="SourceAlpha" operator="in" result="effect1_backgroundBlur_2526_5201"/>
<feColorMatrix in="SourceAlpha" type="matrix" values="0 0 0 0 0 0 0 0 0 0 0 0 0 0 0 0 0 0 127 0" result="hardAlpha"/>
<feMorphology radius="16" operator="erode" in="SourceAlpha" result="effect2_dropShadow_2526_5201"/>
<feOffset dy="24"/>
<feGaussianBlur stdDeviation="20"/>
<feComposite in2="hardAlpha" operator="out"/>
<feColorMatrix type="matrix" values="0 0 0 0 0.407843 0 0 0 0 0.294118 0 0 0 0 0.145098 0 0 0 0.08 0"/>
<feBlend mode="normal" in2="effect1_backgroundBlur_2526_5201" result="effect2_dropShadow_2526_5201"/>
<feColorMatrix in="SourceAlpha" type="matrix" values="0 0 0 0 0 0 0 0 0 0 0 0 0 0 0 0 0 0 127 0" result="hardAlpha"/>
<feOffset dy="4"/>
<feGaussianBlur stdDeviation="3"/>
<feComposite in2="hardAlpha" operator="out"/>
<feColorMatrix type="matrix" values="0 0 0 0 0.372549 0 0 0 0 0.290196 0 0 0 0 0.180392 0 0 0 0.04 0"/>
<feBlend mode="normal" in2="effect2_dropShadow_2526_5201" result="effect3_dropShadow_2526_5201"/>
<feColorMatrix in="SourceAlpha" type="matrix" values="0 0 0 0 0 0 0 0 0 0 0 0 0 0 0 0 0 0 127 0" result="hardAlpha"/>
<feOffset dy="1"/>
<feGaussianBlur stdDeviation="1"/>
<feComposite in2="hardAlpha" operator="out"/>
<feColorMatrix type="matrix" values="0 0 0 0 0.372549 0 0 0 0 0.290196 0 0 0 0 0.180392 0 0 0 0.08 0"/>
<feBlend mode="normal" in2="effect3_dropShadow_2526_5201" result="effect4_dropShadow_2526_5201"/>
<feBlend mode="normal" in="SourceGraphic" in2="effect4_dropShadow_2526_5201" result="shape"/>
</filter>
<linearGradient id="paint0_linear_2526_5201" x1="147.36" y1="2" x2="147.36" y2="46" gradientUnits="userSpaceOnUse">
<stop stop-color="#CAECF1"/>
<stop offset="1" stop-color="#CAECF1" stop-opacity="0"/>
</linearGradient>
</defs>
</svg>
