<svg width="400" height="144" viewBox="0 0 400 144" fill="none" xmlns="http://www.w3.org/2000/svg">
<g filter="url(#filter0_bii_2335_4223)">
<path fill-rule="evenodd" clip-rule="evenodd" d="M199.855 18C182.219 18 167.922 32.297 167.922 49.9333V73.8832C167.922 91.5195 182.219 105.816 199.855 105.816C217.491 105.816 231.788 91.5194 231.788 73.8832V49.9333C231.788 32.297 217.491 18 199.855 18ZM199.971 26.4984C188.921 26.4984 179.964 35.4556 179.964 46.505V74.4787C179.964 85.5281 188.921 94.4853 199.971 94.4853C211.02 94.4853 219.977 85.5281 219.977 74.4787V46.505C219.977 35.4556 211.02 26.4984 199.971 26.4984Z" fill="#D6D6D6" fill-opacity="0.12"/>
</g>
<g filter="url(#filter1_bii_2335_4223)">
<path d="M218.057 41.6411H180.253C176.934 41.6411 173.764 43.0152 171.495 45.4368L161.243 56.3805C159.159 58.6043 158 61.5375 158 64.5848V102.663C158 105.943 159.343 109.08 161.716 111.345L173.597 122.682C175.829 124.812 178.796 126 181.881 126H217.824C220.973 126 223.996 124.762 226.24 122.553L237.651 111.325C239.943 109.07 241.234 105.988 241.234 102.772V64.8137C241.234 61.6303 239.969 58.5774 237.718 56.3268L226.541 45.1543C224.291 42.9048 221.239 41.6411 218.057 41.6411Z" fill="#2A2B30" fill-opacity="0.56"/>
<path d="M218.057 41.6411H180.253C176.934 41.6411 173.764 43.0152 171.495 45.4368L161.243 56.3805C159.159 58.6043 158 61.5375 158 64.5848V102.663C158 105.943 159.343 109.08 161.716 111.345L173.597 122.682C175.829 124.812 178.796 126 181.881 126H217.824C220.973 126 223.996 124.762 226.24 122.553L237.651 111.325C239.943 109.07 241.234 105.988 241.234 102.772V64.8137C241.234 61.6303 239.969 58.5774 237.718 56.3268L226.541 45.1543C224.291 42.9048 221.239 41.6411 218.057 41.6411Z" fill="#131319"/>
<path d="M218.057 41.6411H180.253C176.934 41.6411 173.764 43.0152 171.495 45.4368L161.243 56.3805C159.159 58.6043 158 61.5375 158 64.5848V102.663C158 105.943 159.343 109.08 161.716 111.345L173.597 122.682C175.829 124.812 178.796 126 181.881 126H217.824C220.973 126 223.996 124.762 226.24 122.553L237.651 111.325C239.943 109.07 241.234 105.988 241.234 102.772V64.8137C241.234 61.6303 239.969 58.5774 237.718 56.3268L226.541 45.1543C224.291 42.9048 221.239 41.6411 218.057 41.6411Z" stroke="url(#paint0_linear_2335_4223)"/>
</g>
<g filter="url(#filter2_bii_2335_4223)">
<path d="M187.074 56.4233L186.582 56.3915C182.383 56.1207 178.603 58.9261 177.647 63.024C177.114 65.3086 175.655 67.286 173.637 68.4818C169.946 70.6685 168.356 75.2302 169.929 79.2215L170.472 80.6008C171.335 82.7907 171.227 85.2441 170.174 87.3493C168.28 91.1371 169.544 95.7436 173.107 98.0334L173.984 98.5972C175.806 99.7683 177.136 101.566 177.723 103.651L178.155 105.19C179.196 108.891 182.965 111.117 186.708 110.244C189.181 109.667 191.774 110.437 193.531 112.27L193.781 112.531C196.647 115.521 201.347 115.759 204.5 113.074L205.708 112.045C207.484 110.532 209.817 109.84 212.131 110.138C216.337 110.681 220.272 107.956 221.243 103.828L221.571 102.436C222.082 100.266 223.578 98.4596 225.615 97.5543C229.16 95.9794 230.794 91.8597 229.294 88.283L228.794 87.0901C227.883 84.9195 227.92 82.4676 228.894 80.3249L229.439 79.1269C231.249 75.144 229.519 70.4457 225.557 68.5891L224.811 68.2395C222.652 67.2274 221.208 65.1266 221.038 62.7478C220.792 59.303 217.926 56.634 214.472 56.634H211.152C208.991 56.634 206.912 55.8026 205.347 54.312C202.423 51.5278 197.934 51.2114 194.648 53.5578L193.005 54.7314C191.282 55.9619 189.187 56.5596 187.074 56.4233Z" fill="#D6D6D6" fill-opacity="0.06"/>
</g>
<path d="M182.027 87.2308C181.557 87.2308 181.149 87.1534 180.803 86.9988C180.456 86.8441 180.176 86.6334 179.963 86.3668L180.659 85.5988C180.861 85.8228 181.083 85.9881 181.323 86.0948C181.568 86.2014 181.816 86.2548 182.067 86.2548C182.355 86.2548 182.573 86.1908 182.723 86.0628C182.872 85.9348 182.947 85.7508 182.947 85.5108C182.947 85.3134 182.888 85.1641 182.771 85.0628C182.659 84.9614 182.467 84.8894 182.195 84.8468L181.611 84.7508C181.109 84.6654 180.747 84.4814 180.523 84.1988C180.299 83.9108 180.187 83.5614 180.187 83.1508C180.187 82.6121 180.363 82.1961 180.715 81.9028C181.067 81.6041 181.56 81.4548 182.195 81.4548C182.627 81.4548 183.003 81.5214 183.323 81.6548C183.643 81.7881 183.901 81.9694 184.099 82.1988L183.419 82.9588C183.269 82.7934 183.093 82.6654 182.891 82.5748C182.688 82.4788 182.459 82.4308 182.203 82.4308C181.664 82.4308 181.395 82.6521 181.395 83.0948C181.395 83.2868 181.453 83.4308 181.571 83.5268C181.693 83.6228 181.891 83.6948 182.163 83.7428L182.747 83.8468C183.2 83.9268 183.549 84.0974 183.795 84.3588C184.04 84.6201 184.163 84.9721 184.163 85.4148C184.163 85.6761 184.117 85.9188 184.027 86.1428C183.936 86.3614 183.8 86.5534 183.619 86.7188C183.437 86.8788 183.213 87.0041 182.947 87.0948C182.685 87.1854 182.379 87.2308 182.027 87.2308ZM187.023 87.2308C186.33 87.2308 185.805 87.0388 185.447 86.6548C185.09 86.2708 184.911 85.7481 184.911 85.0868C184.911 84.7508 184.957 84.4494 185.047 84.1828C185.143 83.9108 185.277 83.6814 185.447 83.4948C185.623 83.3028 185.834 83.1588 186.079 83.0628C186.33 82.9614 186.61 82.9108 186.919 82.9108C187.229 82.9108 187.506 82.9614 187.751 83.0628C187.997 83.1588 188.205 83.2974 188.375 83.4788C188.546 83.6601 188.677 83.8814 188.767 84.1428C188.863 84.3988 188.911 84.6868 188.911 85.0068V85.3588H186.087V85.4308C186.087 85.6974 186.17 85.9134 186.335 86.0788C186.501 86.2388 186.743 86.3188 187.063 86.3188C187.309 86.3188 187.519 86.2734 187.695 86.1828C187.871 86.0868 188.023 85.9614 188.151 85.8068L188.791 86.5028C188.631 86.7001 188.407 86.8708 188.119 87.0148C187.831 87.1588 187.466 87.2308 187.023 87.2308ZM186.927 83.7588C186.671 83.7588 186.466 83.8388 186.311 83.9988C186.162 84.1534 186.087 84.3641 186.087 84.6308V84.6948H187.751V84.6308C187.751 84.3588 187.677 84.1454 187.527 83.9908C187.383 83.8361 187.183 83.7588 186.927 83.7588ZM191.876 87.2308C191.551 87.2308 191.258 87.1828 190.996 87.0868C190.74 86.9854 190.522 86.8414 190.34 86.6548C190.164 86.4681 190.028 86.2414 189.932 85.9748C189.836 85.7081 189.788 85.4068 189.788 85.0708C189.788 84.7348 189.836 84.4334 189.932 84.1668C190.028 83.9001 190.164 83.6734 190.34 83.4868C190.522 83.3001 190.74 83.1588 190.996 83.0628C191.258 82.9614 191.548 82.9108 191.868 82.9108C192.322 82.9108 192.684 83.0041 192.956 83.1908C193.234 83.3721 193.444 83.6148 193.588 83.9188L192.676 84.4148C192.602 84.2548 192.503 84.1214 192.38 84.0148C192.263 83.9081 192.092 83.8548 191.868 83.8548C191.596 83.8548 191.386 83.9348 191.236 84.0948C191.092 84.2494 191.02 84.4628 191.02 84.7348V85.4068C191.02 85.6788 191.092 85.8948 191.236 86.0548C191.386 86.2094 191.602 86.2868 191.884 86.2868C192.114 86.2868 192.292 86.2334 192.42 86.1268C192.554 86.0201 192.666 85.8814 192.756 85.7108L193.652 86.2228C193.503 86.5268 193.284 86.7721 192.996 86.9588C192.714 87.1401 192.34 87.2308 191.876 87.2308ZM197.201 86.3828H197.153C197.063 86.6174 196.919 86.8174 196.721 86.9828C196.529 87.1481 196.268 87.2308 195.937 87.2308C195.74 87.2308 195.559 87.1988 195.393 87.1348C195.228 87.0654 195.087 86.9641 194.969 86.8308C194.852 86.6974 194.759 86.5348 194.689 86.3428C194.625 86.1508 194.593 85.9294 194.593 85.6788V83.0068H195.777V85.5188C195.777 86.0521 196.009 86.3188 196.473 86.3188C196.564 86.3188 196.652 86.3081 196.737 86.2868C196.828 86.2601 196.905 86.2228 196.969 86.1748C197.039 86.1214 197.095 86.0574 197.137 85.9828C197.18 85.9081 197.201 85.8201 197.201 85.7188V83.0068H198.385V87.1348H197.201V86.3828ZM199.494 86.2148H200.446V83.9268H199.494V83.0068H201.63V84.1748H201.686C201.723 84.0254 201.774 83.8814 201.838 83.7428C201.907 83.5988 201.993 83.4734 202.094 83.3668C202.201 83.2548 202.329 83.1668 202.478 83.1028C202.627 83.0388 202.803 83.0068 203.006 83.0068H203.398V84.0948H202.518C202.225 84.0948 202.003 84.1828 201.854 84.3588C201.705 84.5294 201.63 84.7401 201.63 84.9908V86.2148H202.99V87.1348H199.494V86.2148ZM206.355 82.4788C206.088 82.4788 205.902 82.4254 205.795 82.3188C205.694 82.2068 205.643 82.0734 205.643 81.9188V81.6868C205.643 81.5268 205.694 81.3934 205.795 81.2868C205.902 81.1801 206.088 81.1268 206.355 81.1268C206.622 81.1268 206.806 81.1801 206.907 81.2868C207.014 81.3934 207.067 81.5268 207.067 81.6868V81.9188C207.067 82.0734 207.014 82.2068 206.907 82.3188C206.806 82.4254 206.622 82.4788 206.355 82.4788ZM204.451 86.2148H205.763V83.9268H204.451V83.0068H206.947V86.2148H208.163V87.1348H204.451V86.2148ZM211.216 87.1348C210.789 87.1348 210.472 87.0228 210.264 86.7988C210.056 86.5748 209.952 86.2894 209.952 85.9428V83.9268H208.832V83.0068H209.56C209.736 83.0068 209.861 82.9721 209.936 82.9028C210.01 82.8334 210.048 82.7054 210.048 82.5188V81.5508H211.136V83.0068H212.744V83.9268H211.136V86.2148H212.744V87.1348H211.216ZM216.733 83.0068H217.941L215.997 87.7988C215.874 88.1028 215.711 88.3348 215.509 88.4948C215.306 88.6548 215.029 88.7348 214.677 88.7348H213.861V87.8148H214.853L215.109 87.1108L213.445 83.0068H214.717L215.317 84.7428L215.693 85.9428H215.757L216.117 84.7428L216.733 83.0068Z" fill="#D6D6D6" fill-opacity="0.48"/>
<defs>
<filter id="filter0_bii_2335_4223" x="81.9219" y="-68" width="235.867" height="259.816" filterUnits="userSpaceOnUse" color-interpolation-filters="sRGB">
<feFlood flood-opacity="0" result="BackgroundImageFix"/>
<feGaussianBlur in="BackgroundImageFix" stdDeviation="43"/>
<feComposite in2="SourceAlpha" operator="in" result="effect1_backgroundBlur_2335_4223"/>
<feBlend mode="normal" in="SourceGraphic" in2="effect1_backgroundBlur_2335_4223" result="shape"/>
<feColorMatrix in="SourceAlpha" type="matrix" values="0 0 0 0 0 0 0 0 0 0 0 0 0 0 0 0 0 0 127 0" result="hardAlpha"/>
<feOffset dy="4"/>
<feGaussianBlur stdDeviation="2"/>
<feComposite in2="hardAlpha" operator="arithmetic" k2="-1" k3="1"/>
<feColorMatrix type="matrix" values="0 0 0 0 1 0 0 0 0 1 0 0 0 0 1 0 0 0 0.15 0"/>
<feBlend mode="normal" in2="shape" result="effect2_innerShadow_2335_4223"/>
<feColorMatrix in="SourceAlpha" type="matrix" values="0 0 0 0 0 0 0 0 0 0 0 0 0 0 0 0 0 0 127 0" result="hardAlpha"/>
<feOffset/>
<feGaussianBlur stdDeviation="34"/>
<feComposite in2="hardAlpha" operator="arithmetic" k2="-1" k3="1"/>
<feColorMatrix type="matrix" values="0 0 0 0 1 0 0 0 0 1 0 0 0 0 1 0 0 0 0.05 0"/>
<feBlend mode="normal" in2="effect2_innerShadow_2335_4223" result="effect3_innerShadow_2335_4223"/>
</filter>
<filter id="filter1_bii_2335_4223" x="71.5" y="-44.8589" width="256.234" height="257.359" filterUnits="userSpaceOnUse" color-interpolation-filters="sRGB">
<feFlood flood-opacity="0" result="BackgroundImageFix"/>
<feGaussianBlur in="BackgroundImageFix" stdDeviation="43"/>
<feComposite in2="SourceAlpha" operator="in" result="effect1_backgroundBlur_2335_4223"/>
<feBlend mode="normal" in="SourceGraphic" in2="effect1_backgroundBlur_2335_4223" result="shape"/>
<feColorMatrix in="SourceAlpha" type="matrix" values="0 0 0 0 0 0 0 0 0 0 0 0 0 0 0 0 0 0 127 0" result="hardAlpha"/>
<feOffset dy="4"/>
<feGaussianBlur stdDeviation="2"/>
<feComposite in2="hardAlpha" operator="arithmetic" k2="-1" k3="1"/>
<feColorMatrix type="matrix" values="0 0 0 0 1 0 0 0 0 1 0 0 0 0 1 0 0 0 0.15 0"/>
<feBlend mode="normal" in2="shape" result="effect2_innerShadow_2335_4223"/>
<feColorMatrix in="SourceAlpha" type="matrix" values="0 0 0 0 0 0 0 0 0 0 0 0 0 0 0 0 0 0 127 0" result="hardAlpha"/>
<feOffset/>
<feGaussianBlur stdDeviation="34"/>
<feComposite in2="hardAlpha" operator="arithmetic" k2="-1" k3="1"/>
<feColorMatrix type="matrix" values="0 0 0 0 1 0 0 0 0 1 0 0 0 0 1 0 0 0 0.05 0"/>
<feBlend mode="normal" in2="effect2_innerShadow_2335_4223" result="effect3_innerShadow_2335_4223"/>
</filter>
<filter id="filter2_bii_2335_4223" x="83.2969" y="-34.0098" width="232.859" height="234.951" filterUnits="userSpaceOnUse" color-interpolation-filters="sRGB">
<feFlood flood-opacity="0" result="BackgroundImageFix"/>
<feGaussianBlur in="BackgroundImageFix" stdDeviation="43"/>
<feComposite in2="SourceAlpha" operator="in" result="effect1_backgroundBlur_2335_4223"/>
<feBlend mode="normal" in="SourceGraphic" in2="effect1_backgroundBlur_2335_4223" result="shape"/>
<feColorMatrix in="SourceAlpha" type="matrix" values="0 0 0 0 0 0 0 0 0 0 0 0 0 0 0 0 0 0 127 0" result="hardAlpha"/>
<feOffset dy="4"/>
<feGaussianBlur stdDeviation="2"/>
<feComposite in2="hardAlpha" operator="arithmetic" k2="-1" k3="1"/>
<feColorMatrix type="matrix" values="0 0 0 0 1 0 0 0 0 1 0 0 0 0 1 0 0 0 0.15 0"/>
<feBlend mode="normal" in2="shape" result="effect2_innerShadow_2335_4223"/>
<feColorMatrix in="SourceAlpha" type="matrix" values="0 0 0 0 0 0 0 0 0 0 0 0 0 0 0 0 0 0 127 0" result="hardAlpha"/>
<feOffset/>
<feGaussianBlur stdDeviation="34"/>
<feComposite in2="hardAlpha" operator="arithmetic" k2="-1" k3="1"/>
<feColorMatrix type="matrix" values="0 0 0 0 1 0 0 0 0 1 0 0 0 0 1 0 0 0 0.05 0"/>
<feBlend mode="normal" in2="effect2_innerShadow_2335_4223" result="effect3_innerShadow_2335_4223"/>
</filter>
<linearGradient id="paint0_linear_2335_4223" x1="202.429" y1="126" x2="203.835" y2="42.7659" gradientUnits="userSpaceOnUse">
<stop stop-color="#727378" stop-opacity="0.3"/>
<stop offset="1" stop-color="#727378" stop-opacity="0"/>
</linearGradient>
</defs>
</svg>
