<svg  viewBox="0 0 400 131" fill="none" xmlns="http://www.w3.org/2000/svg">
<g clip-path="url(#clip0_2335_4196)" filter="url(#filter0_d_2335_4196)">
<g filter="url(#filter1_bii_2335_4196)">
<rect x="27.5" y="36.5" width="343" height="81" rx="15.5" stroke="#D6D6D6" stroke-opacity="0.12"/>
<g filter="url(#filter2_bii_2335_4196)">
<rect x="32.5" y="40" width="333" height="74" rx="12" fill="#11121B" fill-opacity="0.24"/>
<rect x="32.5" y="40" width="333" height="74" rx="12" fill="url(#paint0_linear_2335_4196)" fill-opacity="0.2"/>
<rect x="33" y="40.5" width="332" height="73" rx="11.5" stroke="#CAECF1" stroke-opacity="0.8"/>
<rect x="35.5" y="46" width="327" height="62" rx="8" fill="url(#paint1_linear_2335_4196)" fill-opacity="0.4"/>
<path d="M117.733 76.7273C117.733 78.2803 117.449 79.6155 116.881 80.733C116.313 81.8456 115.534 82.7027 114.544 83.304C113.559 83.9006 112.439 84.1989 111.185 84.1989C109.925 84.1989 108.801 83.9006 107.811 83.304C106.826 82.7027 106.05 81.8433 105.482 80.7259C104.913 79.6084 104.629 78.2756 104.629 76.7273C104.629 75.1742 104.913 73.8414 105.482 72.7287C106.05 71.6113 106.826 70.7543 107.811 70.1577C108.801 69.5563 109.925 69.2557 111.185 69.2557C112.439 69.2557 113.559 69.5563 114.544 70.1577C115.534 70.7543 116.313 71.6113 116.881 72.7287C117.449 73.8414 117.733 75.1742 117.733 76.7273ZM115.56 76.7273C115.56 75.5436 115.368 74.5469 114.984 73.7372C114.606 72.9228 114.085 72.3073 113.422 71.8906C112.764 71.4692 112.018 71.2585 111.185 71.2585C110.347 71.2585 109.598 71.4692 108.94 71.8906C108.282 72.3073 107.761 72.9228 107.378 73.7372C106.999 74.5469 106.81 75.5436 106.81 76.7273C106.81 77.911 106.999 78.91 107.378 79.7244C107.761 80.5341 108.282 81.1496 108.94 81.571C109.598 81.9877 110.347 82.196 111.185 82.196C112.018 82.196 112.764 81.9877 113.422 81.571C114.085 81.1496 114.606 80.5341 114.984 79.7244C115.368 78.91 115.56 77.911 115.56 76.7273ZM122.664 84L119.453 73.0909H121.648L123.786 81.1023H123.892L126.037 73.0909H128.232L130.363 81.0668H130.469L132.593 73.0909H134.787L131.584 84H129.418L127.202 76.1236H127.039L124.823 84H122.664ZM138.926 77.5227V84H136.803V73.0909H138.841V74.8665H138.976C139.227 74.2888 139.62 73.8248 140.155 73.4744C140.695 73.1241 141.374 72.9489 142.193 72.9489C142.937 72.9489 143.588 73.1051 144.146 73.4176C144.705 73.7254 145.138 74.1847 145.446 74.7955C145.754 75.4062 145.908 76.1615 145.908 77.0611V84H143.784V77.3168C143.784 76.526 143.578 75.9081 143.166 75.4631C142.754 75.0133 142.188 74.7884 141.469 74.7884C140.976 74.7884 140.538 74.8949 140.155 75.108C139.776 75.321 139.475 75.6335 139.253 76.0455C139.035 76.4527 138.926 76.9451 138.926 77.5227ZM153.457 84.2202C152.383 84.2202 151.457 83.9905 150.68 83.5312C149.909 83.0672 149.312 82.4162 148.891 81.5781C148.474 80.7353 148.266 79.7481 148.266 78.6165C148.266 77.4991 148.474 76.5142 148.891 75.6619C149.312 74.8097 149.899 74.1444 150.652 73.6662C151.41 73.188 152.295 72.9489 153.308 72.9489C153.924 72.9489 154.52 73.0507 155.098 73.2543C155.676 73.4579 156.194 73.7775 156.653 74.2131C157.113 74.6487 157.475 75.2145 157.74 75.9105C158.005 76.6018 158.138 77.4422 158.138 78.4318V79.1847H149.466V77.5938H156.057C156.057 77.035 155.943 76.5402 155.716 76.1094C155.489 75.6738 155.169 75.3305 154.757 75.0795C154.35 74.8286 153.872 74.7031 153.322 74.7031C152.726 74.7031 152.205 74.8499 151.76 75.1435C151.32 75.4323 150.979 75.8111 150.737 76.2798C150.5 76.7438 150.382 77.2481 150.382 77.7926V79.0355C150.382 79.7647 150.51 80.3849 150.766 80.8963C151.026 81.4077 151.388 81.7983 151.852 82.0682C152.316 82.3333 152.858 82.4659 153.479 82.4659C153.881 82.4659 154.248 82.4091 154.58 82.2955C154.911 82.1771 155.197 82.0019 155.439 81.7699C155.68 81.5379 155.865 81.2514 155.993 80.9105L158.003 81.2727C157.842 81.8646 157.553 82.383 157.136 82.8281C156.724 83.2685 156.206 83.6117 155.581 83.858C154.961 84.0994 154.253 84.2202 153.457 84.2202ZM160.494 84V73.0909H162.547V74.8239H162.66C162.859 74.2367 163.209 73.7751 163.711 73.4389C164.218 73.098 164.791 72.9276 165.43 72.9276C165.563 72.9276 165.719 72.9323 165.899 72.9418C166.083 72.9512 166.228 72.9631 166.332 72.9773V75.0085C166.247 74.9848 166.095 74.9588 165.877 74.9304C165.66 74.8973 165.442 74.8807 165.224 74.8807C164.722 74.8807 164.275 74.9872 163.882 75.2003C163.493 75.4086 163.186 75.6998 162.958 76.0739C162.731 76.4432 162.618 76.8646 162.618 77.3381V84H160.494Z" fill="#EBEAEE"/>
<g clip-path="url(#clip1_2335_4196)">
<path d="M83.0824 73.1052C82.9019 72.9512 82.6788 72.8533 82.4412 72.8236C82.2037 72.794 81.9625 72.8341 81.7484 72.9389L76.7272 75.3845L72.5351 68.5729C72.4273 68.3981 72.2752 68.2535 72.0935 68.1531C71.9118 68.0527 71.7067 68 71.498 68C71.2894 68 71.0843 68.0527 70.9026 68.1531C70.7209 68.2535 70.5688 68.3981 70.461 68.5729L66.2689 75.3875L61.2497 72.9418C61.036 72.838 60.7958 72.7982 60.5591 72.8275C60.3224 72.8568 60.0999 72.9538 59.9193 73.1064C59.7388 73.2589 59.6084 73.4603 59.5444 73.6851C59.4804 73.9099 59.4857 74.1482 59.5597 74.3701L63.2598 85.4598C63.297 85.5712 63.3593 85.673 63.4421 85.7577C63.5249 85.8424 63.6261 85.9078 63.7382 85.9491C63.8503 85.9904 63.9705 86.0066 64.0899 85.9964C64.2092 85.9862 64.3247 85.9499 64.4278 85.8902C64.4528 85.8755 67.0099 84.4345 71.498 84.4345C75.9862 84.4345 78.5433 85.8755 78.5663 85.8892C78.6694 85.9495 78.7851 85.9863 78.9047 85.9968C79.0244 86.0074 79.145 85.9915 79.2574 85.9502C79.3699 85.9089 79.4715 85.8434 79.5546 85.7585C79.6376 85.6736 79.7001 85.5715 79.7373 85.4598L83.4374 74.373C83.5135 74.1511 83.5204 73.912 83.4572 73.6862C83.3939 73.4605 83.2635 73.2582 83.0824 73.1052ZM76.2822 80.991C76.2495 81.1721 76.1528 81.3361 76.0089 81.4543C75.865 81.5726 75.6831 81.6375 75.4952 81.6377C75.4482 81.6376 75.4014 81.6337 75.3552 81.6259C72.7998 81.1968 70.1883 81.1968 67.6329 81.6259C67.5294 81.6438 67.4234 81.6415 67.3208 81.6193C67.2182 81.597 67.1211 81.5552 67.035 81.4963C66.8611 81.3772 66.7428 81.1955 66.7059 80.991C66.669 80.7866 66.7167 80.5762 66.8384 80.4061C66.9601 80.236 67.1459 80.1202 67.3549 80.0842C70.0943 79.6237 72.8938 79.6237 75.6332 80.0842C75.737 80.1015 75.8363 80.1388 75.9254 80.1939C76.0145 80.2489 76.0916 80.3206 76.1523 80.4049C76.213 80.4891 76.256 80.5843 76.279 80.6849C76.302 80.7855 76.3044 80.8895 76.2862 80.991H76.2822Z" fill="#0DB2D4"/>
</g>
<rect x="225" y="68" width="119" height="21" rx="4" fill="#6EE5FE"/>
<path d="M234.004 84V73.8182H240.527V75.3643H235.849V78.1286H240.08V79.6747H235.849V84H234.004ZM246.517 80.7884V76.3636H248.316V84H246.571V82.6428H246.492C246.319 83.0703 246.036 83.42 245.642 83.6918C245.25 83.9635 244.768 84.0994 244.195 84.0994C243.694 84.0994 243.252 83.9884 242.867 83.7663C242.486 83.541 242.188 83.2145 241.972 82.7869C241.757 82.3561 241.649 81.8357 241.649 81.2259V76.3636H243.449V80.9474C243.449 81.4313 243.582 81.8158 243.847 82.1009C244.112 82.3859 244.46 82.5284 244.891 82.5284C245.156 82.5284 245.413 82.4638 245.661 82.3345C245.91 82.2053 246.114 82.013 246.273 81.7578C246.435 81.4993 246.517 81.1761 246.517 80.7884ZM251.967 73.8182V84H250.167V73.8182H251.967ZM255.617 73.8182V84H253.817V73.8182H255.617ZM261.02 84V73.8182H264.838C265.62 73.8182 266.277 73.964 266.807 74.2557C267.34 74.5473 267.743 74.9484 268.015 75.4588C268.29 75.9659 268.428 76.5426 268.428 77.1889C268.428 77.8419 268.29 78.4219 268.015 78.929C267.74 79.4361 267.334 79.8355 266.797 80.1271C266.26 80.4155 265.599 80.5597 264.813 80.5597H262.283V79.0433H264.565C265.022 79.0433 265.397 78.9638 265.688 78.8047C265.98 78.6456 266.195 78.4268 266.335 78.1484C266.477 77.87 266.548 77.5502 266.548 77.1889C266.548 76.8277 266.477 76.5095 266.335 76.2344C266.195 75.9593 265.978 75.7455 265.683 75.593C265.392 75.4373 265.015 75.3594 264.555 75.3594H262.864V84H261.02ZM273.221 84.1491C272.456 84.1491 271.795 83.9901 271.238 83.6719C270.684 83.3504 270.258 82.8963 269.96 82.3097C269.662 81.7197 269.513 81.0253 269.513 80.2266C269.513 79.4411 269.662 78.7517 269.96 78.1584C270.262 77.5618 270.683 77.0978 271.223 76.7663C271.763 76.4316 272.398 76.2642 273.127 76.2642C273.598 76.2642 274.042 76.3404 274.459 76.4929C274.88 76.642 275.251 76.8741 275.573 77.1889C275.898 77.5038 276.153 77.9048 276.339 78.392C276.524 78.8759 276.617 79.4527 276.617 80.1222V80.674H270.358V79.4609H274.892C274.889 79.1162 274.814 78.8097 274.668 78.5412C274.522 78.2694 274.318 78.0556 274.057 77.8999C273.798 77.7441 273.497 77.6662 273.152 77.6662C272.784 77.6662 272.461 77.7557 272.182 77.9347C271.904 78.1103 271.687 78.3423 271.531 78.6307C271.379 78.9157 271.301 79.2289 271.297 79.5703V80.6293C271.297 81.0734 271.379 81.4545 271.541 81.7727C271.703 82.0876 271.93 82.3295 272.222 82.4986C272.514 82.6643 272.855 82.7472 273.246 82.7472C273.508 82.7472 273.745 82.7107 273.957 82.6378C274.169 82.5616 274.353 82.4505 274.509 82.3047C274.665 82.1589 274.782 81.9782 274.862 81.7628L276.542 81.9517C276.436 82.3958 276.234 82.7836 275.936 83.1151C275.641 83.4432 275.263 83.6984 274.802 83.8807C274.342 84.0597 273.815 84.1491 273.221 84.1491ZM278.14 84V76.3636H279.885V77.6364H279.964C280.103 77.1955 280.342 76.8558 280.68 76.6172C281.021 76.3752 281.411 76.2543 281.848 76.2543C281.948 76.2543 282.059 76.2592 282.181 76.2692C282.307 76.2758 282.412 76.2874 282.495 76.304V77.9595C282.418 77.933 282.297 77.9098 282.132 77.8899C281.969 77.8667 281.812 77.8551 281.659 77.8551C281.331 77.8551 281.036 77.9264 280.775 78.0689C280.516 78.2081 280.312 78.402 280.163 78.6506C280.014 78.8991 279.939 79.1858 279.939 79.5107V84H278.14ZM283.69 84V76.3636H285.411V77.6612H285.5C285.659 77.2237 285.923 76.8823 286.29 76.6371C286.658 76.3885 287.098 76.2642 287.608 76.2642C288.125 76.2642 288.561 76.3902 288.915 76.642C289.273 76.8906 289.525 77.2304 289.671 77.6612H289.751C289.92 77.237 290.205 76.8989 290.606 76.647C291.01 76.3918 291.489 76.2642 292.043 76.2642C292.745 76.2642 293.319 76.4863 293.763 76.9304C294.207 77.3745 294.429 78.0225 294.429 78.8743V84H292.624V79.1527C292.624 78.6787 292.498 78.3324 292.246 78.1136C291.995 77.8916 291.686 77.7805 291.322 77.7805C290.888 77.7805 290.548 77.9164 290.303 78.1882C290.061 78.4567 289.94 78.8063 289.94 79.2372V84H288.175V79.0781C288.175 78.6837 288.055 78.3688 287.817 78.1335C287.581 77.8982 287.273 77.7805 286.892 77.7805C286.634 77.7805 286.398 77.8468 286.186 77.9794C285.974 78.1087 285.805 78.2926 285.679 78.5312C285.553 78.7666 285.49 79.0417 285.49 79.3565V84H283.69ZM296.255 84V76.3636H298.055V84H296.255ZM297.16 75.2798C296.875 75.2798 296.629 75.1854 296.424 74.9964C296.218 74.8042 296.116 74.5739 296.116 74.3054C296.116 74.0336 296.218 73.8033 296.424 73.6143C296.629 73.4221 296.875 73.326 297.16 73.326C297.448 73.326 297.693 73.4221 297.895 73.6143C298.101 73.8033 298.204 74.0336 298.204 74.3054C298.204 74.5739 298.101 74.8042 297.895 74.9964C297.693 75.1854 297.448 75.2798 297.16 75.2798ZM305.941 78.3821L304.3 78.5611C304.254 78.3954 304.172 78.2396 304.056 78.0938C303.944 77.9479 303.791 77.8303 303.599 77.7408C303.407 77.6513 303.172 77.6065 302.893 77.6065C302.519 77.6065 302.204 77.6877 301.949 77.8501C301.697 78.0125 301.572 78.223 301.576 78.4815C301.572 78.7036 301.654 78.8842 301.819 79.0234C301.988 79.1626 302.267 79.277 302.654 79.3665L303.957 79.6449C304.68 79.8007 305.217 80.0476 305.568 80.3857C305.922 80.7237 306.101 81.1662 306.105 81.7131C306.101 82.1937 305.961 82.6179 305.682 82.9858C305.407 83.3504 305.024 83.6354 304.534 83.8409C304.043 84.0464 303.48 84.1491 302.843 84.1491C301.909 84.1491 301.156 83.9536 300.586 83.5625C300.016 83.1681 299.676 82.6196 299.567 81.9169L301.322 81.7479C301.402 82.0926 301.571 82.3527 301.829 82.5284C302.088 82.7041 302.424 82.7919 302.838 82.7919C303.266 82.7919 303.609 82.7041 303.868 82.5284C304.129 82.3527 304.26 82.1357 304.26 81.8771C304.26 81.6584 304.176 81.4777 304.007 81.3352C303.841 81.1927 303.583 81.0833 303.231 81.0071L301.929 80.7337C301.196 80.5812 300.654 80.3243 300.303 79.9631C299.952 79.5985 299.778 79.1378 299.781 78.581C299.778 78.1103 299.905 77.7027 300.164 77.358C300.426 77.0099 300.788 76.7415 301.252 76.5526C301.72 76.3603 302.258 76.2642 302.868 76.2642C303.763 76.2642 304.467 76.4548 304.981 76.8359C305.498 77.2171 305.818 77.7325 305.941 78.3821ZM313.624 78.3821L311.984 78.5611C311.937 78.3954 311.856 78.2396 311.74 78.0938C311.627 77.9479 311.475 77.8303 311.283 77.7408C311.09 77.6513 310.855 77.6065 310.577 77.6065C310.202 77.6065 309.887 77.6877 309.632 77.8501C309.38 78.0125 309.256 78.223 309.259 78.4815C309.256 78.7036 309.337 78.8842 309.503 79.0234C309.672 79.1626 309.95 79.277 310.338 79.3665L311.641 79.6449C312.363 79.8007 312.9 80.0476 313.251 80.3857C313.606 80.7237 313.785 81.1662 313.788 81.7131C313.785 82.1937 313.644 82.6179 313.366 82.9858C313.091 83.3504 312.708 83.6354 312.217 83.8409C311.727 84.0464 311.163 84.1491 310.527 84.1491C309.592 84.1491 308.84 83.9536 308.27 83.5625C307.7 83.1681 307.36 82.6196 307.251 81.9169L309.006 81.7479C309.085 82.0926 309.254 82.3527 309.513 82.5284C309.771 82.7041 310.108 82.7919 310.522 82.7919C310.95 82.7919 311.293 82.7041 311.551 82.5284C311.813 82.3527 311.944 82.1357 311.944 81.8771C311.944 81.6584 311.859 81.4777 311.69 81.3352C311.525 81.1927 311.266 81.0833 310.915 81.0071L309.612 80.7337C308.88 80.5812 308.338 80.3243 307.987 79.9631C307.635 79.5985 307.461 79.1378 307.464 78.581C307.461 78.1103 307.589 77.7027 307.847 77.358C308.109 77.0099 308.472 76.7415 308.936 76.5526C309.403 76.3603 309.942 76.2642 310.552 76.2642C311.447 76.2642 312.151 76.4548 312.665 76.8359C313.182 77.2171 313.502 77.7325 313.624 78.3821ZM315.272 84V76.3636H317.072V84H315.272ZM316.177 75.2798C315.892 75.2798 315.647 75.1854 315.441 74.9964C315.236 74.8042 315.133 74.5739 315.133 74.3054C315.133 74.0336 315.236 73.8033 315.441 73.6143C315.647 73.4221 315.892 73.326 316.177 73.326C316.466 73.326 316.711 73.4221 316.913 73.6143C317.118 73.8033 317.221 74.0336 317.221 74.3054C317.221 74.5739 317.118 74.8042 316.913 74.9964C316.711 75.1854 316.466 75.2798 316.177 75.2798ZM322.254 84.1491C321.508 84.1491 320.862 83.9851 320.315 83.657C319.768 83.3288 319.344 82.8698 319.042 82.2798C318.744 81.6899 318.595 81.0005 318.595 80.2116C318.595 79.4228 318.744 78.7318 319.042 78.1385C319.344 77.5452 319.768 77.0845 320.315 76.7564C320.862 76.4283 321.508 76.2642 322.254 76.2642C322.999 76.2642 323.646 76.4283 324.193 76.7564C324.74 77.0845 325.162 77.5452 325.46 78.1385C325.762 78.7318 325.913 79.4228 325.913 80.2116C325.913 81.0005 325.762 81.6899 325.46 82.2798C325.162 82.8698 324.74 83.3288 324.193 83.657C323.646 83.9851 322.999 84.1491 322.254 84.1491ZM322.264 82.7074C322.668 82.7074 323.006 82.5964 323.278 82.3743C323.55 82.1489 323.752 81.8473 323.884 81.4695C324.02 81.0916 324.088 80.6707 324.088 80.2067C324.088 79.7393 324.02 79.3168 323.884 78.9389C323.752 78.5578 323.55 78.2545 323.278 78.0291C323.006 77.8037 322.668 77.6911 322.264 77.6911C321.849 77.6911 321.505 77.8037 321.23 78.0291C320.958 78.2545 320.754 78.5578 320.618 78.9389C320.485 79.3168 320.419 79.7393 320.419 80.2067C320.419 80.6707 320.485 81.0916 320.618 81.4695C320.754 81.8473 320.958 82.1489 321.23 82.3743C321.505 82.5964 321.849 82.7074 322.264 82.7074ZM329.24 79.5256V84H327.44V76.3636H329.161V77.6612H329.25C329.426 77.2337 329.706 76.8939 330.09 76.642C330.478 76.3902 330.957 76.2642 331.527 76.2642C332.054 76.2642 332.513 76.3769 332.904 76.6023C333.299 76.8277 333.603 77.1541 333.819 77.5817C334.038 78.0092 334.145 78.5279 334.142 79.1378V84H332.342V79.4162C332.342 78.9058 332.21 78.5064 331.945 78.218C331.683 77.9297 331.32 77.7855 330.856 77.7855C330.541 77.7855 330.261 77.8551 330.016 77.9943C329.774 78.1302 329.583 78.3274 329.444 78.5859C329.308 78.8445 329.24 79.1577 329.24 79.5256Z" fill="#10121A"/>
</g>
</g>
<g filter="url(#filter3_bii_2335_4196)">
<rect x="387.5" y="36.5" width="343" height="81" rx="15.5" stroke="#D6D6D6" stroke-opacity="0.12"/>
<g filter="url(#filter4_bii_2335_4196)">
<rect x="392.5" y="40" width="333" height="74" rx="12" fill="#11121B" fill-opacity="0.24"/>
<rect x="392.5" y="40" width="333" height="74" rx="12" fill="url(#paint2_linear_2335_4196)" fill-opacity="0.2"/>
<rect x="393" y="40.5" width="332" height="73" rx="11.5" stroke="#CAECF1" stroke-opacity="0.8"/>
<rect x="395.5" y="46" width="327" height="62" rx="8" fill="#11121B" fill-opacity="0.48"/>
<rect x="395.5" y="46" width="327" height="62" rx="8" fill="url(#paint3_linear_2335_4196)" fill-opacity="0.4"/>
</g>
</g>
</g>
<defs>
<filter id="filter0_d_2335_4196" x="-4" y="0" width="408" height="139" filterUnits="userSpaceOnUse" color-interpolation-filters="sRGB">
<feFlood flood-opacity="0" result="BackgroundImageFix"/>
<feColorMatrix in="SourceAlpha" type="matrix" values="0 0 0 0 0 0 0 0 0 0 0 0 0 0 0 0 0 0 127 0" result="hardAlpha"/>
<feOffset dy="4"/>
<feGaussianBlur stdDeviation="2"/>
<feComposite in2="hardAlpha" operator="out"/>
<feColorMatrix type="matrix" values="0 0 0 0 0 0 0 0 0 0 0 0 0 0 0 0 0 0 0.25 0"/>
<feBlend mode="normal" in2="BackgroundImageFix" result="effect1_dropShadow_2335_4196"/>
<feBlend mode="normal" in="SourceGraphic" in2="effect1_dropShadow_2335_4196" result="shape"/>
</filter>
<filter id="filter1_bii_2335_4196" x="-59" y="-50" width="516" height="254" filterUnits="userSpaceOnUse" color-interpolation-filters="sRGB">
<feFlood flood-opacity="0" result="BackgroundImageFix"/>
<feGaussianBlur in="BackgroundImageFix" stdDeviation="43"/>
<feComposite in2="SourceAlpha" operator="in" result="effect1_backgroundBlur_2335_4196"/>
<feBlend mode="normal" in="SourceGraphic" in2="effect1_backgroundBlur_2335_4196" result="shape"/>
<feColorMatrix in="SourceAlpha" type="matrix" values="0 0 0 0 0 0 0 0 0 0 0 0 0 0 0 0 0 0 127 0" result="hardAlpha"/>
<feOffset dy="4"/>
<feGaussianBlur stdDeviation="2"/>
<feComposite in2="hardAlpha" operator="arithmetic" k2="-1" k3="1"/>
<feColorMatrix type="matrix" values="0 0 0 0 1 0 0 0 0 1 0 0 0 0 1 0 0 0 0.15 0"/>
<feBlend mode="normal" in2="shape" result="effect2_innerShadow_2335_4196"/>
<feColorMatrix in="SourceAlpha" type="matrix" values="0 0 0 0 0 0 0 0 0 0 0 0 0 0 0 0 0 0 127 0" result="hardAlpha"/>
<feOffset/>
<feGaussianBlur stdDeviation="34"/>
<feComposite in2="hardAlpha" operator="arithmetic" k2="-1" k3="1"/>
<feColorMatrix type="matrix" values="0 0 0 0 1 0 0 0 0 1 0 0 0 0 1 0 0 0 0.05 0"/>
<feBlend mode="normal" in2="effect2_innerShadow_2335_4196" result="effect3_innerShadow_2335_4196"/>
</filter>
<filter id="filter2_bii_2335_4196" x="-53.5" y="-46" width="505" height="246" filterUnits="userSpaceOnUse" color-interpolation-filters="sRGB">
<feFlood flood-opacity="0" result="BackgroundImageFix"/>
<feGaussianBlur in="BackgroundImageFix" stdDeviation="43"/>
<feComposite in2="SourceAlpha" operator="in" result="effect1_backgroundBlur_2335_4196"/>
<feBlend mode="normal" in="SourceGraphic" in2="effect1_backgroundBlur_2335_4196" result="shape"/>
<feColorMatrix in="SourceAlpha" type="matrix" values="0 0 0 0 0 0 0 0 0 0 0 0 0 0 0 0 0 0 127 0" result="hardAlpha"/>
<feOffset dy="4"/>
<feGaussianBlur stdDeviation="2"/>
<feComposite in2="hardAlpha" operator="arithmetic" k2="-1" k3="1"/>
<feColorMatrix type="matrix" values="0 0 0 0 1 0 0 0 0 1 0 0 0 0 1 0 0 0 0.15 0"/>
<feBlend mode="normal" in2="shape" result="effect2_innerShadow_2335_4196"/>
<feColorMatrix in="SourceAlpha" type="matrix" values="0 0 0 0 0 0 0 0 0 0 0 0 0 0 0 0 0 0 127 0" result="hardAlpha"/>
<feOffset/>
<feGaussianBlur stdDeviation="34"/>
<feComposite in2="hardAlpha" operator="arithmetic" k2="-1" k3="1"/>
<feColorMatrix type="matrix" values="0 0 0 0 1 0 0 0 0 1 0 0 0 0 1 0 0 0 0.05 0"/>
<feBlend mode="normal" in2="effect2_innerShadow_2335_4196" result="effect3_innerShadow_2335_4196"/>
</filter>
<filter id="filter3_bii_2335_4196" x="301" y="-50" width="516" height="254" filterUnits="userSpaceOnUse" color-interpolation-filters="sRGB">
<feFlood flood-opacity="0" result="BackgroundImageFix"/>
<feGaussianBlur in="BackgroundImageFix" stdDeviation="43"/>
<feComposite in2="SourceAlpha" operator="in" result="effect1_backgroundBlur_2335_4196"/>
<feBlend mode="normal" in="SourceGraphic" in2="effect1_backgroundBlur_2335_4196" result="shape"/>
<feColorMatrix in="SourceAlpha" type="matrix" values="0 0 0 0 0 0 0 0 0 0 0 0 0 0 0 0 0 0 127 0" result="hardAlpha"/>
<feOffset dy="4"/>
<feGaussianBlur stdDeviation="2"/>
<feComposite in2="hardAlpha" operator="arithmetic" k2="-1" k3="1"/>
<feColorMatrix type="matrix" values="0 0 0 0 1 0 0 0 0 1 0 0 0 0 1 0 0 0 0.15 0"/>
<feBlend mode="normal" in2="shape" result="effect2_innerShadow_2335_4196"/>
<feColorMatrix in="SourceAlpha" type="matrix" values="0 0 0 0 0 0 0 0 0 0 0 0 0 0 0 0 0 0 127 0" result="hardAlpha"/>
<feOffset/>
<feGaussianBlur stdDeviation="34"/>
<feComposite in2="hardAlpha" operator="arithmetic" k2="-1" k3="1"/>
<feColorMatrix type="matrix" values="0 0 0 0 1 0 0 0 0 1 0 0 0 0 1 0 0 0 0.05 0"/>
<feBlend mode="normal" in2="effect2_innerShadow_2335_4196" result="effect3_innerShadow_2335_4196"/>
</filter>
<filter id="filter4_bii_2335_4196" x="306.5" y="-46" width="505" height="246" filterUnits="userSpaceOnUse" color-interpolation-filters="sRGB">
<feFlood flood-opacity="0" result="BackgroundImageFix"/>
<feGaussianBlur in="BackgroundImageFix" stdDeviation="43"/>
<feComposite in2="SourceAlpha" operator="in" result="effect1_backgroundBlur_2335_4196"/>
<feBlend mode="normal" in="SourceGraphic" in2="effect1_backgroundBlur_2335_4196" result="shape"/>
<feColorMatrix in="SourceAlpha" type="matrix" values="0 0 0 0 0 0 0 0 0 0 0 0 0 0 0 0 0 0 127 0" result="hardAlpha"/>
<feOffset dy="4"/>
<feGaussianBlur stdDeviation="2"/>
<feComposite in2="hardAlpha" operator="arithmetic" k2="-1" k3="1"/>
<feColorMatrix type="matrix" values="0 0 0 0 1 0 0 0 0 1 0 0 0 0 1 0 0 0 0.15 0"/>
<feBlend mode="normal" in2="shape" result="effect2_innerShadow_2335_4196"/>
<feColorMatrix in="SourceAlpha" type="matrix" values="0 0 0 0 0 0 0 0 0 0 0 0 0 0 0 0 0 0 127 0" result="hardAlpha"/>
<feOffset/>
<feGaussianBlur stdDeviation="34"/>
<feComposite in2="hardAlpha" operator="arithmetic" k2="-1" k3="1"/>
<feColorMatrix type="matrix" values="0 0 0 0 1 0 0 0 0 1 0 0 0 0 1 0 0 0 0.05 0"/>
<feBlend mode="normal" in2="effect2_innerShadow_2335_4196" result="effect3_innerShadow_2335_4196"/>
</filter>
<linearGradient id="paint0_linear_2335_4196" x1="199" y1="40" x2="199" y2="114" gradientUnits="userSpaceOnUse">
<stop stop-color="#343434"/>
<stop offset="1" stop-opacity="0"/>
</linearGradient>
<linearGradient id="paint1_linear_2335_4196" x1="199" y1="46" x2="199" y2="108" gradientUnits="userSpaceOnUse">
<stop stop-color="#343434"/>
<stop offset="1" stop-opacity="0"/>
</linearGradient>
<linearGradient id="paint2_linear_2335_4196" x1="559" y1="40" x2="559" y2="114" gradientUnits="userSpaceOnUse">
<stop stop-color="#343434"/>
<stop offset="1" stop-opacity="0"/>
</linearGradient>
<linearGradient id="paint3_linear_2335_4196" x1="559" y1="46" x2="559" y2="108" gradientUnits="userSpaceOnUse">
<stop stop-color="#343434"/>
<stop offset="1" stop-opacity="0"/>
</linearGradient>
<clipPath id="clip0_2335_4196">
<rect width="400" height="131" fill="white"/>
</clipPath>
<clipPath id="clip1_2335_4196">
<rect width="24" height="24" fill="white" transform="translate(59.5 65)"/>
</clipPath>
</defs>
</svg>
