<svg width="400" height="141" viewBox="0 0 400 141" fill="none" xmlns="http://www.w3.org/2000/svg">
<g clip-path="url(#clip0_2333_4194)">
<rect x="-167.5" y="46.5" width="228" height="83" rx="15.5" stroke="#D6D6D6" stroke-opacity="0.12"/>
<g filter="url(#filter0_bii_2333_4194)">
<rect x="-164" y="50" width="221" height="76" rx="12" fill="#11121B" fill-opacity="0.24"/>
<rect x="-164" y="50" width="221" height="76" rx="12" fill="url(#paint0_linear_2333_4194)" fill-opacity="0.2"/>
<rect x="-163.5" y="50.5" width="220" height="75" rx="11.5" stroke="#CAECF1" stroke-opacity="0.8"/>
<g opacity="0.8">
<rect x="-157.5" y="56.5" width="208" height="63" rx="7.5" stroke="#F6F6F6" stroke-opacity="0.24"/>
<path d="M-121.392 91.784H-122.304L-122.704 83.576H-120.992L-121.392 91.784ZM-122.848 94.136C-122.848 93.7413 -122.752 93.464 -122.56 93.304C-122.368 93.144 -122.133 93.064 -121.856 93.064C-121.589 93.064 -121.36 93.144 -121.168 93.304C-120.965 93.464 -120.864 93.7413 -120.864 94.136C-120.864 94.52 -120.965 94.7973 -121.168 94.968C-121.36 95.1387 -121.589 95.224 -121.856 95.224C-122.133 95.224 -122.368 95.1387 -122.56 94.968C-122.752 94.7973 -122.848 94.52 -122.848 94.136ZM-113.202 84.8947C-112.966 84.8947 -112.764 85.0968 -112.764 85.3495V86.4611C-112.764 86.6968 -112.562 86.8989 -112.309 86.8989H-111.198C-110.962 86.8989 -110.76 87.1011 -110.76 87.3537V88.5495C-110.76 88.7853 -110.962 88.9874 -111.198 88.9874H-112.309C-112.562 88.9874 -112.764 89.1895 -112.764 89.4421V90.5537C-112.764 90.7895 -112.966 90.9916 -113.202 90.9916H-116.318C-116.57 90.9916 -116.773 91.1937 -116.773 91.4463V92.4737C-116.773 92.7095 -116.57 92.9116 -116.318 92.9116H-111.198C-110.962 92.9116 -110.76 93.1137 -110.76 93.3663V94.5621C-110.76 94.7979 -110.962 95 -111.198 95H-116.402C-116.655 95 -116.857 94.7979 -116.857 94.5621V93.4337C-116.857 93.1979 -117.042 92.9958 -117.295 92.9958H-118.406C-118.659 92.9958 -118.861 92.7937 -118.861 92.5579V91.3621C-118.861 91.1095 -118.659 90.9074 -118.406 90.9074H-117.295C-117.042 90.9074 -116.857 90.7053 -116.857 90.4695V89.3579C-116.857 89.1053 -116.655 88.9032 -116.402 88.9032H-113.286C-113.05 88.9032 -112.848 88.7011 -112.848 88.4653V87.4379C-112.848 87.1853 -113.05 86.9832 -113.286 86.9832H-118.406C-118.659 86.9832 -118.861 86.7811 -118.861 86.5453V85.3495C-118.861 85.0968 -118.659 84.8947 -118.406 84.8947H-113.202ZM-103.421 84.8947C-103.185 84.8947 -102.983 85.0968 -102.983 85.3495V86.4611C-102.983 86.6968 -102.781 86.8989 -102.528 86.8989H-101.417C-101.181 86.8989 -100.979 87.1011 -100.979 87.3537V88.5495C-100.979 88.7853 -101.181 88.9874 -101.417 88.9874H-102.528C-102.781 88.9874 -102.983 89.1895 -102.983 89.4421V90.4695C-102.983 90.7053 -102.781 90.9074 -102.528 90.9074H-101.417C-101.181 90.9074 -100.979 91.1095 -100.979 91.3621V92.5579C-100.979 92.7937 -101.181 92.9958 -101.417 92.9958H-102.528C-102.781 92.9958 -102.983 93.1979 -102.983 93.4337V94.5621C-102.983 94.7979 -103.185 95 -103.421 95H-108.625C-108.878 95 -109.08 94.7979 -109.08 94.5621V93.3663C-109.08 93.1137 -108.878 92.9116 -108.625 92.9116H-103.505C-103.269 92.9116 -103.067 92.7095 -103.067 92.4737V91.4463C-103.067 91.1937 -103.269 90.9916 -103.505 90.9916H-106.621C-106.873 90.9916 -107.076 90.7895 -107.076 90.5537V89.3579C-107.076 89.1053 -106.873 88.9032 -106.621 88.9032H-103.505C-103.269 88.9032 -103.067 88.7011 -103.067 88.4653V87.4379C-103.067 87.1853 -103.269 86.9832 -103.505 86.9832H-108.625C-108.878 86.9832 -109.08 86.7811 -109.08 86.5453V85.3495C-109.08 85.0968 -108.878 84.8947 -108.625 84.8947H-103.421ZM-93.7238 89.9137C-93.488 89.9137 -93.2859 89.7116 -93.2859 89.4589V87.3537C-93.2859 87.1011 -93.0838 86.8989 -92.8312 86.8989H-91.6354C-91.3996 86.8989 -91.1975 87.1011 -91.1975 87.3537V94.5621C-91.1975 94.7979 -91.3996 95 -91.6354 95H-92.8312C-93.0838 95 -93.2859 94.7979 -93.2859 94.5621V92.44C-93.2859 92.1874 -93.488 92.0021 -93.7238 92.0021H-96.8396C-97.0922 92.0021 -97.2943 91.8 -97.2943 91.5474V90.4358C-97.2943 90.1832 -97.4796 89.9979 -97.7322 89.9979H-98.8438C-99.0964 89.9979 -99.2985 89.7958 -99.2985 89.5432V85.3495C-99.2985 85.0968 -99.0964 84.8947 -98.8438 84.8947H-97.648C-97.4122 84.8947 -97.2101 85.0968 -97.2101 85.3495V89.4589C-97.2101 89.7116 -97.008 89.9137 -96.7554 89.9137H-93.7238ZM-83.4204 90.5537C-83.4204 90.7895 -83.6225 90.9916 -83.8583 90.9916H-86.9741C-87.2267 90.9916 -87.4288 91.1937 -87.4288 91.4463V92.4737C-87.4288 92.7095 -87.2267 92.9116 -86.9741 92.9116H-81.8541C-81.6183 92.9116 -81.4162 93.1137 -81.4162 93.3663V94.5621C-81.4162 94.7979 -81.6183 95 -81.8541 95H-89.0625C-89.3152 95 -89.5173 94.7979 -89.5173 94.5621V91.3621C-89.5173 91.1095 -89.3152 90.9074 -89.0625 90.9074H-87.951C-87.6983 90.9074 -87.5131 90.7053 -87.5131 90.4695V89.3579C-87.5131 89.1053 -87.311 88.9032 -87.0583 88.9032H-83.9425C-83.7067 88.9032 -83.5046 88.7011 -83.5046 88.4653V87.4379C-83.5046 87.1853 -83.7067 86.9832 -83.9425 86.9832H-89.0625C-89.3152 86.9832 -89.5173 86.7811 -89.5173 86.5453V85.3495C-89.5173 85.0968 -89.3152 84.8947 -89.0625 84.8947H-81.8541C-81.6183 84.8947 -81.4162 85.0968 -81.4162 85.3495V88.5495C-81.4162 88.7853 -81.6183 88.9874 -81.8541 88.9874H-82.9657C-83.2183 88.9874 -83.4204 89.1895 -83.4204 89.4421V90.5537ZM-71.635 86.5453C-71.635 86.7811 -71.8371 86.9832 -72.0729 86.9832H-77.1929C-77.4455 86.9832 -77.6476 87.1853 -77.6476 87.4379V88.4653C-77.6476 88.7011 -77.4455 88.9032 -77.1929 88.9032H-74.0771C-73.8413 88.9032 -73.6392 89.1053 -73.6392 89.3579V90.4695C-73.6392 90.7053 -73.4371 90.9074 -73.1844 90.9074H-72.0729C-71.8371 90.9074 -71.635 91.1095 -71.635 91.3621V92.5579C-71.635 92.7937 -71.8371 92.9958 -72.0729 92.9958H-73.1844C-73.4371 92.9958 -73.6392 93.1979 -73.6392 93.4337V94.5621C-73.6392 94.7979 -73.8413 95 -74.0771 95H-79.2813C-79.5339 95 -79.736 94.7979 -79.736 94.5621V93.3663C-79.736 93.1137 -79.5339 92.9116 -79.2813 92.9116H-74.1613C-73.9255 92.9116 -73.7234 92.7095 -73.7234 92.4737V91.4463C-73.7234 91.1937 -73.9255 90.9916 -74.1613 90.9916H-77.2771C-77.5297 90.9916 -77.7318 90.7895 -77.7318 90.5537V89.4421C-77.7318 89.1895 -77.9171 88.9874 -78.1697 88.9874H-79.2813C-79.5339 88.9874 -79.736 88.7853 -79.736 88.5495V87.3537C-79.736 87.1011 -79.5339 86.8989 -79.2813 86.8989H-78.1697C-77.9171 86.8989 -77.7318 86.6968 -77.7318 86.4611V85.3495C-77.7318 85.0968 -77.5297 84.8947 -77.2771 84.8947H-72.0729C-71.8371 84.8947 -71.635 85.0968 -71.635 85.3495V86.5453ZM-61.8537 86.5453C-61.8537 86.7811 -62.0558 86.9832 -62.2916 86.9832H-67.4116C-67.6642 86.9832 -67.8663 87.1853 -67.8663 87.4379V88.4653C-67.8663 88.7011 -67.6642 88.9032 -67.4116 88.9032H-64.2958C-64.06 88.9032 -63.8579 89.1053 -63.8579 89.3579V90.4695C-63.8579 90.7053 -63.6558 90.9074 -63.4032 90.9074H-62.2916C-62.0558 90.9074 -61.8537 91.1095 -61.8537 91.3621V92.5579C-61.8537 92.7937 -62.0558 92.9958 -62.2916 92.9958H-63.4032C-63.6558 92.9958 -63.8579 93.1979 -63.8579 93.4337V94.5621C-63.8579 94.7979 -64.06 95 -64.2958 95H-69.5C-69.7527 95 -69.9548 94.7979 -69.9548 94.5621V93.3663C-69.9548 93.1137 -69.7527 92.9116 -69.5 92.9116H-64.38C-64.1442 92.9116 -63.9421 92.7095 -63.9421 92.4737V91.4463C-63.9421 91.1937 -64.1442 90.9916 -64.38 90.9916H-67.4958C-67.7485 90.9916 -67.9506 90.7895 -67.9506 90.5537V89.4421C-67.9506 89.1895 -68.1358 88.9874 -68.3885 88.9874H-69.5C-69.7527 88.9874 -69.9548 88.7853 -69.9548 88.5495V87.3537C-69.9548 87.1011 -69.7527 86.8989 -69.5 86.8989H-68.3885C-68.1358 86.8989 -67.9506 86.6968 -67.9506 86.4611V85.3495C-67.9506 85.0968 -67.7485 84.8947 -67.4958 84.8947H-62.2916C-62.0558 84.8947 -61.8537 85.0968 -61.8537 85.3495V86.5453ZM-54.0767 94.5621C-54.0767 94.7979 -54.2788 95 -54.5146 95H-57.7146C-57.9672 95 -58.1693 94.7979 -58.1693 94.5621V93.4337C-58.1693 93.1979 -58.3546 92.9958 -58.6072 92.9958H-59.7188C-59.9714 92.9958 -60.1735 92.7937 -60.1735 92.5579V87.3537C-60.1735 87.1011 -59.9714 86.8989 -59.7188 86.8989H-58.6072C-58.3546 86.8989 -58.1693 86.6968 -58.1693 86.4611V85.3495C-58.1693 85.0968 -57.9672 84.8947 -57.7146 84.8947H-54.5146C-54.2788 84.8947 -54.0767 85.0968 -54.0767 85.3495V86.4611C-54.0767 86.6968 -53.8746 86.8989 -53.6219 86.8989H-52.5104C-52.2746 86.8989 -52.0725 87.1011 -52.0725 87.3537V92.5579C-52.0725 92.7937 -52.2746 92.9958 -52.5104 92.9958H-53.6219C-53.8746 92.9958 -54.0767 93.1979 -54.0767 93.4337V94.5621ZM-57.1588 91.3621C-57.1588 91.1095 -56.9567 90.9074 -56.7209 90.9074H-55.5251C-55.2725 90.9074 -55.0704 91.1095 -55.0704 91.3621V92.4737C-55.0704 92.7095 -54.8683 92.9116 -54.6325 92.9116H-54.5988C-54.363 92.9116 -54.1609 92.7095 -54.1609 92.4737V87.4379C-54.1609 87.1853 -54.363 86.9832 -54.5988 86.9832H-57.6304C-57.883 86.9832 -58.0851 87.1853 -58.0851 87.4379V92.4737C-58.0851 92.7095 -57.883 92.9116 -57.6304 92.9116H-57.6135C-57.3609 92.9116 -57.1588 92.7095 -57.1588 92.4737V91.3621ZM-48.6264 91.784H-49.5384L-49.9384 83.576H-48.2264L-48.6264 91.784ZM-50.0824 94.136C-50.0824 93.7413 -49.9864 93.464 -49.7944 93.304C-49.6024 93.144 -49.3677 93.064 -49.0904 93.064C-48.8237 93.064 -48.5944 93.144 -48.4024 93.304C-48.1997 93.464 -48.0984 93.7413 -48.0984 94.136C-48.0984 94.52 -48.1997 94.7973 -48.4024 94.968C-48.5944 95.1387 -48.8237 95.224 -49.0904 95.224C-49.3677 95.224 -49.6024 95.1387 -49.7944 94.968C-49.9864 94.7973 -50.0824 94.52 -50.0824 94.136ZM-40.4364 84.8947C-40.2007 84.8947 -39.9986 85.0968 -39.9986 85.3495V86.4611C-39.9986 86.6968 -39.7964 86.8989 -39.5438 86.8989H-38.4322C-38.1964 86.8989 -37.9943 87.1011 -37.9943 87.3537V88.5495C-37.9943 88.7853 -38.1964 88.9874 -38.4322 88.9874H-39.5438C-39.7964 88.9874 -39.9986 89.1895 -39.9986 89.4421V90.5537C-39.9986 90.7895 -40.2007 90.9916 -40.4364 90.9916H-43.5522C-43.8049 90.9916 -44.007 91.1937 -44.007 91.4463V92.4737C-44.007 92.7095 -43.8049 92.9116 -43.5522 92.9116H-38.4322C-38.1964 92.9116 -37.9943 93.1137 -37.9943 93.3663V94.5621C-37.9943 94.7979 -38.1964 95 -38.4322 95H-43.6364C-43.8891 95 -44.0912 94.7979 -44.0912 94.5621V93.4337C-44.0912 93.1979 -44.2764 92.9958 -44.5291 92.9958H-45.6407C-45.8933 92.9958 -46.0954 92.7937 -46.0954 92.5579V91.3621C-46.0954 91.1095 -45.8933 90.9074 -45.6407 90.9074H-44.5291C-44.2764 90.9074 -44.0912 90.7053 -44.0912 90.4695V89.3579C-44.0912 89.1053 -43.8891 88.9032 -43.6364 88.9032H-40.5207C-40.2849 88.9032 -40.0828 88.7011 -40.0828 88.4653V87.4379C-40.0828 87.1853 -40.2849 86.9832 -40.5207 86.9832H-45.6407C-45.8933 86.9832 -46.0954 86.7811 -46.0954 86.5453V85.3495C-46.0954 85.0968 -45.8933 84.8947 -45.6407 84.8947H-40.4364ZM-30.6552 84.8947C-30.4194 84.8947 -30.2173 85.0968 -30.2173 85.3495V86.4611C-30.2173 86.6968 -30.0152 86.8989 -29.7626 86.8989H-28.651C-28.4152 86.8989 -28.2131 87.1011 -28.2131 87.3537V88.5495C-28.2131 88.7853 -28.4152 88.9874 -28.651 88.9874H-29.7626C-30.0152 88.9874 -30.2173 89.1895 -30.2173 89.4421V90.5537C-30.2173 90.7895 -30.4194 90.9916 -30.6552 90.9916H-33.771C-34.0236 90.9916 -34.2257 91.1937 -34.2257 91.4463V92.4737C-34.2257 92.7095 -34.0236 92.9116 -33.771 92.9116H-28.651C-28.4152 92.9116 -28.2131 93.1137 -28.2131 93.3663V94.5621C-28.2131 94.7979 -28.4152 95 -28.651 95H-33.8552C-34.1078 95 -34.3099 94.7979 -34.3099 94.5621V93.4337C-34.3099 93.1979 -34.4952 92.9958 -34.7478 92.9958H-35.8594C-36.112 92.9958 -36.3141 92.7937 -36.3141 92.5579V91.3621C-36.3141 91.1095 -36.112 90.9074 -35.8594 90.9074H-34.7478C-34.4952 90.9074 -34.3099 90.7053 -34.3099 90.4695V89.3579C-34.3099 89.1053 -34.1078 88.9032 -33.8552 88.9032H-30.7394C-30.5036 88.9032 -30.3015 88.7011 -30.3015 88.4653V87.4379C-30.3015 87.1853 -30.5036 86.9832 -30.7394 86.9832H-35.8594C-36.112 86.9832 -36.3141 86.7811 -36.3141 86.5453V85.3495C-36.3141 85.0968 -36.112 84.8947 -35.8594 84.8947H-30.6552ZM-20.9582 86.8989C-20.7224 86.8989 -20.5203 86.6968 -20.5203 86.4611V85.3495C-20.5203 85.0968 -20.3182 84.8947 -20.0655 84.8947H-18.8697C-18.6339 84.8947 -18.4318 85.0968 -18.4318 85.3495V86.5453C-18.4318 86.7811 -18.6339 86.9832 -18.8697 86.9832H-19.9813C-20.2339 86.9832 -20.4361 87.1853 -20.4361 87.4379V88.5495C-20.4361 88.7853 -20.6382 88.9874 -20.8739 88.9874H-21.9855C-22.2382 88.9874 -22.4403 89.1895 -22.4403 89.4421V90.4695C-22.4403 90.7053 -22.2382 90.9074 -21.9855 90.9074H-20.8739C-20.6382 90.9074 -20.4361 91.1095 -20.4361 91.3621V92.4737C-20.4361 92.7095 -20.2339 92.9116 -19.9813 92.9116H-18.8697C-18.6339 92.9116 -18.4318 93.1137 -18.4318 93.3663V94.5621C-18.4318 94.7979 -18.6339 95 -18.8697 95H-20.0655C-20.3182 95 -20.5203 94.7979 -20.5203 94.5621V93.4337C-20.5203 93.1979 -20.7224 92.9958 -20.9582 92.9958H-22.0697C-22.3224 92.9958 -22.5245 92.7937 -22.5245 92.5579V91.4463C-22.5245 91.1937 -22.7266 90.9916 -22.9624 90.9916H-23.9897C-24.2424 90.9916 -24.4445 91.1937 -24.4445 91.4463V94.5621C-24.4445 94.7979 -24.6466 95 -24.8824 95H-26.0782C-26.3308 95 -26.5329 94.7979 -26.5329 94.5621V85.3495C-26.5329 85.0968 -26.3308 84.8947 -26.0782 84.8947H-24.8824C-24.6466 84.8947 -24.4445 85.0968 -24.4445 85.3495V88.4653C-24.4445 88.7011 -24.2424 88.9032 -23.9897 88.9032H-22.9624C-22.7266 88.9032 -22.5245 88.7011 -22.5245 88.4653V87.3537C-22.5245 87.1011 -22.3224 86.8989 -22.0697 86.8989H-20.9582ZM-14.2927 95C-14.5453 95 -14.7474 94.7979 -14.7474 94.5621V93.4337C-14.7474 93.1979 -14.9327 92.9958 -15.1853 92.9958H-16.2969C-16.5495 92.9958 -16.7516 92.7937 -16.7516 92.5579V91.3621C-16.7516 91.1095 -16.5495 90.9074 -16.2969 90.9074H-15.1011C-14.8653 90.9074 -14.6632 91.1095 -14.6632 91.3621V92.4737C-14.6632 92.7095 -14.4611 92.9116 -14.2085 92.9116H-11.1769C-10.9411 92.9116 -10.739 92.7095 -10.739 92.4737V85.3495C-10.739 85.0968 -10.5369 84.8947 -10.2843 84.8947H-9.08849C-8.8527 84.8947 -8.65059 85.0968 -8.65059 85.3495V92.5579C-8.65059 92.7937 -8.8527 92.9958 -9.08849 92.9958H-10.2001C-10.4527 92.9958 -10.6548 93.1979 -10.6548 93.4337V94.5621C-10.6548 94.7979 -10.8569 95 -11.0927 95H-14.2927ZM5.6435 89.288C5.6435 89.7787 5.58483 90.2587 5.4675 90.728C5.36083 91.1973 5.19017 91.624 4.9555 92.008C4.72083 92.3813 4.43283 92.6853 4.0915 92.92C3.75017 93.144 3.34483 93.256 2.8755 93.256C2.38483 93.256 1.9955 93.1173 1.7075 92.84C1.43017 92.552 1.2595 92.2267 1.1955 91.864H1.1155C0.9235 92.2587 0.640834 92.5893 0.2675 92.856C-0.105833 93.1227 -0.575166 93.256 -1.1405 93.256C-1.95117 93.256 -2.5805 92.984 -3.0285 92.44C-3.46583 91.896 -3.6845 91.176 -3.6845 90.28C-3.6845 89.576 -3.54583 88.9573 -3.2685 88.424C-2.99117 87.88 -2.60183 87.4533 -2.1005 87.144C-1.5885 86.8347 -0.985833 86.68 -0.2925 86.68C0.176833 86.68 0.6355 86.7227 1.0835 86.808C1.54217 86.8827 1.8995 86.968 2.1555 87.064L1.9955 90.312C1.98483 90.504 1.9795 90.6427 1.9795 90.728C1.9795 90.8027 1.9795 90.856 1.9795 90.888C1.9795 91.4427 2.0755 91.8107 2.2675 91.992C2.47017 92.1733 2.70483 92.264 2.9715 92.264C3.30217 92.264 3.5795 92.1307 3.8035 91.864C4.03817 91.5867 4.21417 91.224 4.3315 90.776C4.4595 90.3173 4.5235 89.816 4.5235 89.272C4.5235 88.28 4.32083 87.4427 3.9155 86.76C3.52083 86.0667 2.9715 85.5387 2.2675 85.176C1.57417 84.8133 0.784833 84.632 -0.1005 84.632C-1.00717 84.632 -1.8125 84.776 -2.5165 85.064C-3.2205 85.352 -3.8125 85.7573 -4.2925 86.28C-4.76183 86.8027 -5.11917 87.4213 -5.3645 88.136C-5.60983 88.84 -5.7325 89.6187 -5.7325 90.472C-5.7325 91.5173 -5.54583 92.408 -5.1725 93.144C-4.79917 93.8693 -4.25517 94.424 -3.5405 94.808C-2.81517 95.1813 -1.92983 95.368 -0.8845 95.368C-0.233833 95.368 0.384834 95.2933 0.9715 95.144C1.56883 95.0053 2.09683 94.8507 2.5555 94.68V95.768C2.09683 95.96 1.5795 96.1147 1.0035 96.232C0.438167 96.36 -0.191166 96.424 -0.8845 96.424C-2.14317 96.424 -3.2205 96.1893 -4.1165 95.72C-5.0125 95.2507 -5.7005 94.5787 -6.1805 93.704C-6.64983 92.8187 -6.8845 91.7573 -6.8845 90.52C-6.8845 89.528 -6.72983 88.6107 -6.4205 87.768C-6.11117 86.9147 -5.66317 86.1787 -5.0765 85.56C-4.48983 84.9307 -3.7805 84.4453 -2.9485 84.104C-2.10583 83.752 -1.1565 83.576 -0.1005 83.576C0.7315 83.576 1.49417 83.7093 2.1875 83.976C2.8915 84.232 3.4995 84.6107 4.0115 85.112C4.53417 85.6027 4.93417 86.2 5.2115 86.904C5.4995 87.608 5.6435 88.4027 5.6435 89.288ZM-2.4365 90.312C-2.4365 90.9947 -2.30317 91.4907 -2.0365 91.8C-1.75917 92.1093 -1.39117 92.264 -0.9325 92.264C-0.335166 92.264 0.0915006 92.04 0.347501 91.592C0.614167 91.144 0.768834 90.5627 0.811501 89.848L0.9075 87.848C0.768833 87.8053 0.592834 87.768 0.3795 87.736C0.166167 87.704 -0.0524998 87.688 -0.2765 87.688C-0.799166 87.688 -1.2205 87.816 -1.5405 88.072C-1.8605 88.328 -2.08983 88.6587 -2.2285 89.064C-2.36717 89.4587 -2.4365 89.8747 -2.4365 90.312ZM9.94655 92.9958C9.71076 92.9958 9.50865 93.1979 9.50865 93.4505V94.5621C9.50865 94.8147 9.30655 95 9.07076 95H7.87497C7.62234 95 7.42023 94.8147 7.42023 94.5621V87.3537C7.42023 87.1179 7.62234 86.9158 7.87497 86.9158H8.98655C9.22234 86.9158 9.42444 86.7137 9.42444 86.4611V85.3495C9.42444 85.1137 9.62655 84.9116 9.87918 84.9116H13.0623C13.315 84.9116 13.5171 85.1137 13.5171 85.3495V86.4611C13.5171 86.7137 13.7192 86.9158 13.955 86.9158H15.0665C15.3192 86.9158 15.5213 87.1179 15.5213 87.3537V94.5621C15.5213 94.8147 15.3192 95 15.0665 95H13.8708C13.635 95 13.4329 94.8147 13.4329 94.5621V93.4505C13.4329 93.1979 13.2308 92.9958 12.995 92.9958H9.94655ZM9.94655 87C9.71076 87 9.50865 87.2021 9.50865 87.4379V90.4695C9.50865 90.7221 9.71076 90.9242 9.94655 90.9242H12.995C13.2308 90.9242 13.4329 90.7221 13.4329 90.4695V87.4379C13.4329 87.2021 13.2308 87 12.995 87H9.94655Z" fill="#CAECF1" fill-opacity="0.8"/>
</g>
</g>
<rect x="84.5" y="46.5" width="228" height="83" rx="15.5" stroke="#D6D6D6" stroke-opacity="0.12"/>
<g filter="url(#filter1_bii_2333_4194)">
<rect x="88" y="50" width="221" height="76" rx="12" fill="#11121B" fill-opacity="0.24"/>
<rect x="88" y="50" width="221" height="76" rx="12" fill="url(#paint1_linear_2333_4194)" fill-opacity="0.2"/>
<rect x="88.5" y="50.5" width="220" height="75" rx="11.5" stroke="#CAECF1" stroke-opacity="0.8"/>
<g opacity="0.8">
<rect x="94.5" y="56.5" width="208" height="63" rx="7.5" stroke="#F6F6F6" stroke-opacity="0.24"/>
<path d="M144.943 86.5453C144.943 86.7811 144.741 86.9832 144.505 86.9832H139.385C139.133 86.9832 138.931 87.1853 138.931 87.4379V88.4653C138.931 88.7011 139.133 88.9032 139.385 88.9032H142.501C142.737 88.9032 142.939 89.1053 142.939 89.3579V90.4695C142.939 90.7053 143.141 90.9074 143.394 90.9074H144.505C144.741 90.9074 144.943 91.1095 144.943 91.3621V92.5579C144.943 92.7937 144.741 92.9958 144.505 92.9958H143.394C143.141 92.9958 142.939 93.1979 142.939 93.4337V94.5621C142.939 94.7979 142.737 95 142.501 95H137.297C137.044 95 136.842 94.7979 136.842 94.5621V93.3663C136.842 93.1137 137.044 92.9116 137.297 92.9116H142.417C142.653 92.9116 142.855 92.7095 142.855 92.4737V91.4463C142.855 91.1937 142.653 90.9916 142.417 90.9916H139.301C139.048 90.9916 138.846 90.7895 138.846 90.5537V89.4421C138.846 89.1895 138.661 88.9874 138.408 88.9874H137.297C137.044 88.9874 136.842 88.7853 136.842 88.5495V87.3537C136.842 87.1011 137.044 86.8989 137.297 86.8989H138.408C138.661 86.8989 138.846 86.6968 138.846 86.4611V85.3495C138.846 85.0968 139.048 84.8947 139.301 84.8947H144.505C144.741 84.8947 144.943 85.0968 144.943 85.3495V86.5453ZM152.198 90.9074C152.434 90.9074 152.636 90.7053 152.636 90.4695V85.3495C152.636 85.0968 152.838 84.8947 153.091 84.8947H154.287C154.522 84.8947 154.724 85.0968 154.724 85.3495V90.5537C154.724 90.7895 154.522 90.9916 154.287 90.9916H153.175C152.922 90.9916 152.72 91.1937 152.72 91.4463V92.5579C152.72 92.7937 152.518 92.9958 152.282 92.9958H151.171C150.918 92.9958 150.716 93.1979 150.716 93.4337V94.5621C150.716 94.7979 150.514 95 150.278 95H149.082C148.83 95 148.628 94.7979 148.628 94.5621V93.4337C148.628 93.1979 148.442 92.9958 148.19 92.9958H147.078C146.825 92.9958 146.623 92.7937 146.623 92.5579V85.3495C146.623 85.0968 146.825 84.8947 147.078 84.8947H148.274C148.51 84.8947 148.712 85.0968 148.712 85.3495V92.4737C148.712 92.7095 148.914 92.9116 149.167 92.9116H150.194C150.43 92.9116 150.632 92.7095 150.632 92.4737V91.3621C150.632 91.1095 150.834 90.9074 151.087 90.9074H152.198ZM160.043 84.8947C160.295 84.8947 160.497 85.0968 160.497 85.3495V92.4737C160.497 92.7095 160.699 92.9116 160.935 92.9116H162.047C162.299 92.9116 162.501 93.1137 162.501 93.3663V94.5621C162.501 94.7979 162.299 95 162.047 95H156.842C156.607 95 156.405 94.7979 156.405 94.5621V93.3663C156.405 93.1137 156.607 92.9116 156.842 92.9116H157.954C158.207 92.9116 158.409 92.7095 158.409 92.4737V89.4421C158.409 89.1895 158.207 88.9874 157.954 88.9874H156.842C156.607 88.9874 156.405 88.7853 156.405 88.5495V87.3537C156.405 87.1011 156.607 86.8989 156.842 86.8989H157.954C158.207 86.8989 158.409 86.6968 158.409 86.4611V85.3495C158.409 85.0968 158.611 84.8947 158.847 84.8947H160.043ZM165.952 91.784H165.04L164.64 83.576H166.352L165.952 91.784ZM164.496 94.136C164.496 93.7413 164.592 93.464 164.784 93.304C164.976 93.144 165.21 93.064 165.488 93.064C165.754 93.064 165.984 93.144 166.176 93.304C166.378 93.464 166.48 93.7413 166.48 94.136C166.48 94.52 166.378 94.7973 166.176 94.968C165.984 95.1387 165.754 95.224 165.488 95.224C165.21 95.224 164.976 95.1387 164.784 94.968C164.592 94.7973 164.496 94.52 164.496 94.136ZM170.571 92.4737C170.571 92.7095 170.773 92.9116 171.009 92.9116H174.125C174.377 92.9116 174.58 93.1137 174.58 93.3663V94.5621C174.58 94.7979 174.377 95 174.125 95H170.925C170.689 95 170.487 94.7979 170.487 94.5621V93.4337C170.487 93.1979 170.285 92.9958 170.032 92.9958H168.921C168.685 92.9958 168.483 92.7937 168.483 92.5579V85.3495C168.483 85.0968 168.685 84.8947 168.921 84.8947H170.116C170.369 84.8947 170.571 85.0968 170.571 85.3495V92.4737ZM182.361 94.5621C182.361 94.7979 182.159 95 181.923 95H178.723C178.47 95 178.268 94.7979 178.268 94.5621V93.4337C178.268 93.1979 178.083 92.9958 177.83 92.9958H176.719C176.466 92.9958 176.264 92.7937 176.264 92.5579V87.3537C176.264 87.1011 176.466 86.8989 176.719 86.8989H177.83C178.083 86.8989 178.268 86.6968 178.268 86.4611V85.3495C178.268 85.0968 178.47 84.8947 178.723 84.8947H181.923C182.159 84.8947 182.361 85.0968 182.361 85.3495V86.4611C182.361 86.6968 182.563 86.8989 182.816 86.8989H183.927C184.163 86.8989 184.365 87.1011 184.365 87.3537V92.5579C184.365 92.7937 184.163 92.9958 183.927 92.9958H182.816C182.563 92.9958 182.361 93.1979 182.361 93.4337V94.5621ZM179.279 91.3621C179.279 91.1095 179.481 90.9074 179.717 90.9074H180.912C181.165 90.9074 181.367 91.1095 181.367 91.3621V92.4737C181.367 92.7095 181.569 92.9116 181.805 92.9116H181.839C182.075 92.9116 182.277 92.7095 182.277 92.4737V87.4379C182.277 87.1853 182.075 86.9832 181.839 86.9832H178.807C178.555 86.9832 178.352 87.1853 178.352 87.4379V92.4737C178.352 92.7095 178.555 92.9116 178.807 92.9116H178.824C179.077 92.9116 179.279 92.7095 179.279 92.4737V91.3621ZM191.704 84.8947C191.94 84.8947 192.142 85.0968 192.142 85.3495V86.4611C192.142 86.6968 192.344 86.8989 192.597 86.8989H193.708C193.944 86.8989 194.146 87.1011 194.146 87.3537V92.5579C194.146 92.7937 193.944 92.9958 193.708 92.9958H192.597C192.344 92.9958 192.142 93.1979 192.142 93.4337V94.5621C192.142 94.7979 191.94 95 191.704 95H188.504C188.252 95 188.049 94.7979 188.049 94.5621V93.4337C188.049 93.1979 187.864 92.9958 187.612 92.9958H186.5C186.247 92.9958 186.045 92.7937 186.045 92.5579V87.3537C186.045 87.1011 186.247 86.8989 186.5 86.8989H187.612C187.864 86.8989 188.049 86.6968 188.049 86.4611V85.3495C188.049 85.0968 188.252 84.8947 188.504 84.8947H191.704ZM192.058 87.4379C192.058 87.1853 191.856 86.9832 191.62 86.9832H188.588C188.336 86.9832 188.134 87.1853 188.134 87.4379V92.4737C188.134 92.7095 188.336 92.9116 188.588 92.9116H191.62C191.856 92.9116 192.058 92.7095 192.058 92.4737V87.4379ZM201.485 84.8947C201.721 84.8947 201.923 85.0968 201.923 85.3495V86.4611C201.923 86.6968 202.125 86.8989 202.378 86.8989H203.49C203.725 86.8989 203.928 87.1011 203.928 87.3537V92.5579C203.928 92.7937 203.725 92.9958 203.49 92.9958H202.378C202.125 92.9958 201.923 93.1979 201.923 93.4337V94.5621C201.923 94.7979 201.721 95 201.485 95H198.285C198.033 95 197.831 94.7979 197.831 94.5621V93.3663C197.831 93.1137 198.033 92.9116 198.285 92.9116H201.401C201.637 92.9116 201.839 92.7095 201.839 92.4737V91.4463C201.839 91.1937 201.637 90.9916 201.401 90.9916H198.285C198.033 90.9916 197.831 90.7895 197.831 90.5537V89.4421C197.831 89.1895 197.645 88.9874 197.393 88.9874H196.281C196.029 88.9874 195.826 88.7853 195.826 88.5495V87.3537C195.826 87.1011 196.029 86.8989 196.281 86.8989H197.393C197.645 86.8989 197.831 86.6968 197.831 86.4611V85.3495C197.831 85.0968 198.033 84.8947 198.285 84.8947H201.485ZM201.401 88.9032C201.637 88.9032 201.839 88.7011 201.839 88.4653V87.4379C201.839 87.1853 201.637 86.9832 201.401 86.9832H198.37C198.117 86.9832 197.915 87.1853 197.915 87.4379V88.4653C197.915 88.7011 198.117 88.9032 198.37 88.9032H201.401ZM209.246 84.8947C209.498 84.8947 209.7 85.0968 209.7 85.3495V92.4737C209.7 92.7095 209.902 92.9116 210.138 92.9116H211.25C211.502 92.9116 211.705 93.1137 211.705 93.3663V94.5621C211.705 94.7979 211.502 95 211.25 95H206.046C205.81 95 205.608 94.7979 205.608 94.5621V93.3663C205.608 93.1137 205.81 92.9116 206.046 92.9116H207.157C207.41 92.9116 207.612 92.7095 207.612 92.4737V89.4421C207.612 89.1895 207.41 88.9874 207.157 88.9874H206.046C205.81 88.9874 205.608 88.7853 205.608 88.5495V87.3537C205.608 87.1011 205.81 86.8989 206.046 86.8989H207.157C207.41 86.8989 207.612 86.6968 207.612 86.4611V85.3495C207.612 85.0968 207.814 84.8947 208.05 84.8947H209.246ZM218.964 90.9074C219.2 90.9074 219.402 90.7053 219.402 90.4695V85.3495C219.402 85.0968 219.604 84.8947 219.856 84.8947H221.052C221.288 84.8947 221.49 85.0968 221.49 85.3495V90.5537C221.49 90.7895 221.288 90.9916 221.052 90.9916H219.941C219.688 90.9916 219.486 91.1937 219.486 91.4463V92.5579C219.486 92.7937 219.284 92.9958 219.048 92.9958H217.936C217.684 92.9958 217.482 93.1979 217.482 93.4337V94.5621C217.482 94.7979 217.28 95 217.044 95H215.848C215.595 95 215.393 94.7979 215.393 94.5621V93.4337C215.393 93.1979 215.208 92.9958 214.955 92.9958H213.844C213.591 92.9958 213.389 92.7937 213.389 92.5579V85.3495C213.389 85.0968 213.591 84.8947 213.844 84.8947H215.04C215.275 84.8947 215.477 85.0968 215.477 85.3495V92.4737C215.477 92.7095 215.68 92.9116 215.932 92.9116H216.96C217.195 92.9116 217.397 92.7095 217.397 92.4737V91.3621C217.397 91.1095 217.6 90.9074 217.852 90.9074H218.964ZM228.745 89.9137C228.981 89.9137 229.183 89.7116 229.183 89.4589V87.3537C229.183 87.1011 229.385 86.8989 229.638 86.8989H230.833C231.069 86.8989 231.271 87.1011 231.271 87.3537V94.5621C231.271 94.7979 231.069 95 230.833 95H229.638C229.385 95 229.183 94.7979 229.183 94.5621V92.44C229.183 92.1874 228.981 92.0021 228.745 92.0021H225.629C225.377 92.0021 225.174 91.8 225.174 91.5474V90.4358C225.174 90.1832 224.989 89.9979 224.737 89.9979H223.625C223.372 89.9979 223.17 89.7958 223.17 89.5432V85.3495C223.17 85.0968 223.372 84.8947 223.625 84.8947H224.821C225.057 84.8947 225.259 85.0968 225.259 85.3495V89.4589C225.259 89.7116 225.461 89.9137 225.713 89.9137H228.745ZM233.406 88.9874C233.154 88.9874 232.951 88.7853 232.951 88.5495V85.3495C232.951 85.0968 233.154 84.8947 233.406 84.8947H240.615C240.85 84.8947 241.053 85.0968 241.053 85.3495V86.5453C241.053 86.7811 240.85 86.9832 240.615 86.9832H235.495C235.242 86.9832 235.04 87.1853 235.04 87.4379V88.4653C235.04 88.7011 235.242 88.9032 235.495 88.9032H238.61C238.846 88.9032 239.048 89.1053 239.048 89.3579V90.4695C239.048 90.7053 239.25 90.9074 239.503 90.9074H240.615C240.85 90.9074 241.053 91.1095 241.053 91.3621V92.5579C241.053 92.7937 240.85 92.9958 240.615 92.9958H239.503C239.25 92.9958 239.048 93.1979 239.048 93.4337V94.5621C239.048 94.7979 238.846 95 238.61 95H233.406C233.154 95 232.951 94.7979 232.951 94.5621V93.3663C232.951 93.1137 233.154 92.9116 233.406 92.9116H238.526C238.762 92.9116 238.964 92.7095 238.964 92.4737V91.4463C238.964 91.1937 238.762 90.9916 238.526 90.9916H235.41C235.158 90.9916 234.956 90.7895 234.956 90.5537V89.4421C234.956 89.1895 234.77 88.9874 234.518 88.9874H233.406ZM245.276 92.9958C245.023 92.9958 244.821 93.1979 244.821 93.4337V94.5621C244.821 94.7979 244.619 95 244.383 95H243.187C242.935 95 242.733 94.7979 242.733 94.5621V85.3495C242.733 85.0968 242.935 84.8947 243.187 84.8947H248.392C248.627 84.8947 248.83 85.0968 248.83 85.3495V86.4611C248.83 86.6968 249.032 86.8989 249.284 86.8989H250.396C250.632 86.8989 250.834 87.1011 250.834 87.3537V90.5537C250.834 90.7895 250.632 90.9916 250.396 90.9916H249.284C249.032 90.9916 248.83 91.1937 248.83 91.4463V92.5579C248.83 92.7937 248.627 92.9958 248.392 92.9958H245.276ZM248.745 87.4379C248.745 87.1853 248.543 86.9832 248.307 86.9832H245.276C245.023 86.9832 244.821 87.1853 244.821 87.4379V90.4695C244.821 90.7053 245.023 90.9074 245.276 90.9074H248.307C248.543 90.9074 248.745 90.7053 248.745 90.4695V87.4379ZM256.808 88.792H259.992V89.928H256.808V93.224H255.656V89.928H252.472V88.792H255.656V85.48H256.808V88.792Z" fill="#CAECF1" fill-opacity="0.8"/>
</g>
</g>
<rect x="336.5" y="46.5" width="228" height="83" rx="15.5" stroke="#D6D6D6" stroke-opacity="0.12"/>
<g filter="url(#filter2_bii_2333_4194)">
<rect x="340" y="50" width="221" height="76" rx="12" fill="#11121B" fill-opacity="0.24"/>
<rect x="340" y="50" width="221" height="76" rx="12" fill="url(#paint2_linear_2333_4194)" fill-opacity="0.2"/>
<rect x="340.5" y="50.5" width="220" height="75" rx="11.5" stroke="#CAECF1" stroke-opacity="0.8"/>
<g opacity="0.8">
<rect x="346.5" y="56.5" width="208" height="63" rx="7.5" stroke="#F6F6F6" stroke-opacity="0.24"/>
<path d="M389.48 84.8947C389.733 84.8947 389.935 85.0968 389.935 85.3495V92.4737C389.935 92.7095 390.137 92.9116 390.373 92.9116H391.484C391.737 92.9116 391.939 93.1137 391.939 93.3663V94.5621C391.939 94.7979 391.737 95 391.484 95H386.28C386.044 95 385.842 94.7979 385.842 94.5621V93.3663C385.842 93.1137 386.044 92.9116 386.28 92.9116H387.392C387.644 92.9116 387.846 92.7095 387.846 92.4737V89.4421C387.846 89.1895 387.644 88.9874 387.392 88.9874H386.28C386.044 88.9874 385.842 88.7853 385.842 88.5495V87.3537C385.842 87.1011 386.044 86.8989 386.28 86.8989H387.392C387.644 86.8989 387.846 86.6968 387.846 86.4611V85.3495C387.846 85.0968 388.048 84.8947 388.284 84.8947H389.48ZM399.282 84.8947C399.518 84.8947 399.72 85.0968 399.72 85.3495V86.4611C399.72 86.6968 399.922 86.8989 400.175 86.8989H401.287C401.522 86.8989 401.724 87.1011 401.724 87.3537V88.5495C401.724 88.7853 401.522 88.9874 401.287 88.9874H400.175C399.922 88.9874 399.72 89.1895 399.72 89.4421V90.5537C399.72 90.7895 399.518 90.9916 399.282 90.9916H396.167C395.914 90.9916 395.712 91.1937 395.712 91.4463V92.4737C395.712 92.7095 395.914 92.9116 396.167 92.9116H401.287C401.522 92.9116 401.724 93.1137 401.724 93.3663V94.5621C401.724 94.7979 401.522 95 401.287 95H396.082C395.83 95 395.628 94.7979 395.628 94.5621V93.4337C395.628 93.1979 395.442 92.9958 395.19 92.9958H394.078C393.825 92.9958 393.623 92.7937 393.623 92.5579V91.3621C393.623 91.1095 393.825 90.9074 394.078 90.9074H395.19C395.442 90.9074 395.628 90.7053 395.628 90.4695V89.3579C395.628 89.1053 395.83 88.9032 396.082 88.9032H399.198C399.434 88.9032 399.636 88.7011 399.636 88.4653V87.4379C399.636 87.1853 399.434 86.9832 399.198 86.9832H394.078C393.825 86.9832 393.623 86.7811 393.623 86.5453V85.3495C393.623 85.0968 393.825 84.8947 394.078 84.8947H399.282ZM409.064 84.8947C409.299 84.8947 409.501 85.0968 409.501 85.3495V86.4611C409.501 86.6968 409.704 86.8989 409.956 86.8989H411.068C411.304 86.8989 411.506 87.1011 411.506 87.3537V92.5579C411.506 92.7937 411.304 92.9958 411.068 92.9958H409.956C409.704 92.9958 409.501 93.1979 409.501 93.4337V94.5621C409.501 94.7979 409.299 95 409.064 95H405.864C405.611 95 405.409 94.7979 405.409 94.5621V93.4337C405.409 93.1979 405.224 92.9958 404.971 92.9958H403.859C403.607 92.9958 403.405 92.7937 403.405 92.5579V87.3537C403.405 87.1011 403.607 86.8989 403.859 86.8989H404.971C405.224 86.8989 405.409 86.6968 405.409 86.4611V85.3495C405.409 85.0968 405.611 84.8947 405.864 84.8947H409.064ZM409.417 87.4379C409.417 87.1853 409.215 86.9832 408.979 86.9832H405.948C405.695 86.9832 405.493 87.1853 405.493 87.4379V92.4737C405.493 92.7095 405.695 92.9116 405.948 92.9116H408.979C409.215 92.9116 409.417 92.7095 409.417 92.4737V87.4379ZM416.824 84.8947C417.076 84.8947 417.278 85.0968 417.278 85.3495V92.4737C417.278 92.7095 417.481 92.9116 417.716 92.9116H418.828C419.081 92.9116 419.283 93.1137 419.283 93.3663V94.5621C419.283 94.7979 419.081 95 418.828 95H413.624C413.388 95 413.186 94.7979 413.186 94.5621V93.3663C413.186 93.1137 413.388 92.9116 413.624 92.9116H414.735C414.988 92.9116 415.19 92.7095 415.19 92.4737V89.4421C415.19 89.1895 414.988 88.9874 414.735 88.9874H413.624C413.388 88.9874 413.186 88.7853 413.186 88.5495V87.3537C413.186 87.1011 413.388 86.8989 413.624 86.8989H414.735C414.988 86.8989 415.19 86.6968 415.19 86.4611V85.3495C415.19 85.0968 415.392 84.8947 415.628 84.8947H416.824ZM429.068 86.5453C429.068 86.7811 428.866 86.9832 428.63 86.9832H423.51C423.258 86.9832 423.056 87.1853 423.056 87.4379V88.4653C423.056 88.7011 423.258 88.9032 423.51 88.9032H426.626C426.862 88.9032 427.064 89.1053 427.064 89.3579V90.4695C427.064 90.7053 427.266 90.9074 427.519 90.9074H428.63C428.866 90.9074 429.068 91.1095 429.068 91.3621V92.5579C429.068 92.7937 428.866 92.9958 428.63 92.9958H427.519C427.266 92.9958 427.064 93.1979 427.064 93.4337V94.5621C427.064 94.7979 426.862 95 426.626 95H421.422C421.169 95 420.967 94.7979 420.967 94.5621V93.3663C420.967 93.1137 421.169 92.9116 421.422 92.9116H426.542C426.778 92.9116 426.98 92.7095 426.98 92.4737V91.4463C426.98 91.1937 426.778 90.9916 426.542 90.9916H423.426C423.173 90.9916 422.971 90.7895 422.971 90.5537V89.4421C422.971 89.1895 422.786 88.9874 422.533 88.9874H421.422C421.169 88.9874 420.967 88.7853 420.967 88.5495V87.3537C420.967 87.1011 421.169 86.8989 421.422 86.8989H422.533C422.786 86.8989 422.971 86.6968 422.971 86.4611V85.3495C422.971 85.0968 423.173 84.8947 423.426 84.8947H428.63C428.866 84.8947 429.068 85.0968 429.068 85.3495V86.5453ZM438.849 86.5453C438.849 86.7811 438.647 86.9832 438.412 86.9832H433.292C433.039 86.9832 432.837 87.1853 432.837 87.4379V88.4653C432.837 88.7011 433.039 88.9032 433.292 88.9032H436.407C436.643 88.9032 436.845 89.1053 436.845 89.3579V90.4695C436.845 90.7053 437.047 90.9074 437.3 90.9074H438.412C438.647 90.9074 438.849 91.1095 438.849 91.3621V92.5579C438.849 92.7937 438.647 92.9958 438.412 92.9958H437.3C437.047 92.9958 436.845 93.1979 436.845 93.4337V94.5621C436.845 94.7979 436.643 95 436.407 95H431.203C430.95 95 430.748 94.7979 430.748 94.5621V93.3663C430.748 93.1137 430.95 92.9116 431.203 92.9116H436.323C436.559 92.9116 436.761 92.7095 436.761 92.4737V91.4463C436.761 91.1937 436.559 90.9916 436.323 90.9916H433.207C432.955 90.9916 432.753 90.7895 432.753 90.5537V89.4421C432.753 89.1895 432.567 88.9874 432.315 88.9874H431.203C430.95 88.9874 430.748 88.7853 430.748 88.5495V87.3537C430.748 87.1011 430.95 86.8989 431.203 86.8989H432.315C432.567 86.8989 432.753 86.6968 432.753 86.4611V85.3495C432.753 85.0968 432.955 84.8947 433.207 84.8947H438.412C438.647 84.8947 438.849 85.0968 438.849 85.3495V86.5453ZM446.104 86.8989C446.34 86.8989 446.542 86.6968 446.542 86.4611V85.3495C446.542 85.0968 446.744 84.8947 446.997 84.8947H448.193C448.429 84.8947 448.631 85.0968 448.631 85.3495V86.5453C448.631 86.7811 448.429 86.9832 448.193 86.9832H447.081C446.829 86.9832 446.626 87.1853 446.626 87.4379V88.5495C446.626 88.7853 446.424 88.9874 446.189 88.9874H445.077C444.824 88.9874 444.622 89.1895 444.622 89.4421V90.4695C444.622 90.7053 444.824 90.9074 445.077 90.9074H446.189C446.424 90.9074 446.626 91.1095 446.626 91.3621V92.4737C446.626 92.7095 446.829 92.9116 447.081 92.9116H448.193C448.429 92.9116 448.631 93.1137 448.631 93.3663V94.5621C448.631 94.7979 448.429 95 448.193 95H446.997C446.744 95 446.542 94.7979 446.542 94.5621V93.4337C446.542 93.1979 446.34 92.9958 446.104 92.9958H444.993C444.74 92.9958 444.538 92.7937 444.538 92.5579V91.4463C444.538 91.1937 444.336 90.9916 444.1 90.9916H443.073C442.82 90.9916 442.618 91.1937 442.618 91.4463V94.5621C442.618 94.7979 442.416 95 442.18 95H440.984C440.732 95 440.53 94.7979 440.53 94.5621V85.3495C440.53 85.0968 440.732 84.8947 440.984 84.8947H442.18C442.416 84.8947 442.618 85.0968 442.618 85.3495V88.4653C442.618 88.7011 442.82 88.9032 443.073 88.9032H444.1C444.336 88.9032 444.538 88.7011 444.538 88.4653V87.3537C444.538 87.1011 444.74 86.8989 444.993 86.8989H446.104ZM452.077 91.784H451.165L450.765 83.576H452.477L452.077 91.784ZM450.621 94.136C450.621 93.7413 450.717 93.464 450.909 93.304C451.101 93.144 451.335 93.064 451.613 93.064C451.879 93.064 452.109 93.144 452.301 93.304C452.503 93.464 452.605 93.7413 452.605 94.136C452.605 94.52 452.503 94.7973 452.301 94.968C452.109 95.1387 451.879 95.224 451.613 95.224C451.335 95.224 451.101 95.1387 450.909 94.968C450.717 94.7973 450.621 94.52 450.621 94.136ZM456.696 92.4737C456.696 92.7095 456.898 92.9116 457.134 92.9116H460.25C460.502 92.9116 460.705 93.1137 460.705 93.3663V94.5621C460.705 94.7979 460.502 95 460.25 95H457.05C456.814 95 456.612 94.7979 456.612 94.5621V93.4337C456.612 93.1979 456.41 92.9958 456.157 92.9958H455.046C454.81 92.9958 454.608 92.7937 454.608 92.5579V85.3495C454.608 85.0968 454.81 84.8947 455.046 84.8947H456.241C456.494 84.8947 456.696 85.0968 456.696 85.3495V92.4737ZM467.964 89.9137C468.2 89.9137 468.402 89.7116 468.402 89.4589V87.3537C468.402 87.1011 468.604 86.8989 468.856 86.8989H470.052C470.288 86.8989 470.49 87.1011 470.49 87.3537V94.5621C470.49 94.7979 470.288 95 470.052 95H468.856C468.604 95 468.402 94.7979 468.402 94.5621V92.44C468.402 92.1874 468.2 92.0021 467.964 92.0021H464.848C464.595 92.0021 464.393 91.8 464.393 91.5474V90.4358C464.393 90.1832 464.208 89.9979 463.955 89.9979H462.844C462.591 89.9979 462.389 89.7958 462.389 89.5432V85.3495C462.389 85.0968 462.591 84.8947 462.844 84.8947H464.04C464.275 84.8947 464.477 85.0968 464.477 85.3495V89.4589C464.477 89.7116 464.68 89.9137 464.932 89.9137H467.964ZM477.745 86.8989C477.981 86.8989 478.183 86.6968 478.183 86.4611V85.3495C478.183 85.0968 478.385 84.8947 478.638 84.8947H479.833C480.069 84.8947 480.271 85.0968 480.271 85.3495V86.5453C480.271 86.7811 480.069 86.9832 479.833 86.9832H478.722C478.469 86.9832 478.267 87.1853 478.267 87.4379V88.5495C478.267 88.7853 478.065 88.9874 477.829 88.9874H476.718C476.465 88.9874 476.263 89.1895 476.263 89.4421V90.4695C476.263 90.7053 476.465 90.9074 476.718 90.9074H477.829C478.065 90.9074 478.267 91.1095 478.267 91.3621V92.4737C478.267 92.7095 478.469 92.9116 478.722 92.9116H479.833C480.069 92.9116 480.271 93.1137 480.271 93.3663V94.5621C480.271 94.7979 480.069 95 479.833 95H478.638C478.385 95 478.183 94.7979 478.183 94.5621V93.4337C478.183 93.1979 477.981 92.9958 477.745 92.9958H476.633C476.381 92.9958 476.179 92.7937 476.179 92.5579V91.4463C476.179 91.1937 475.977 90.9916 475.741 90.9916H474.713C474.461 90.9916 474.259 91.1937 474.259 91.4463V94.5621C474.259 94.7979 474.057 95 473.821 95H472.625C472.372 95 472.17 94.7979 472.17 94.5621V85.3495C472.17 85.0968 472.372 84.8947 472.625 84.8947H473.821C474.057 84.8947 474.259 85.0968 474.259 85.3495V88.4653C474.259 88.7011 474.461 88.9032 474.713 88.9032H475.741C475.977 88.9032 476.179 88.7011 476.179 88.4653V87.3537C476.179 87.1011 476.381 86.8989 476.633 86.8989H477.745ZM482.406 88.9874C482.154 88.9874 481.951 88.7853 481.951 88.5495V85.3495C481.951 85.0968 482.154 84.8947 482.406 84.8947H489.615C489.85 84.8947 490.053 85.0968 490.053 85.3495V86.5453C490.053 86.7811 489.85 86.9832 489.615 86.9832H484.495C484.242 86.9832 484.04 87.1853 484.04 87.4379V88.4653C484.04 88.7011 484.242 88.9032 484.495 88.9032H487.61C487.846 88.9032 488.048 89.1053 488.048 89.3579V90.4695C488.048 90.7053 488.25 90.9074 488.503 90.9074H489.615C489.85 90.9074 490.053 91.1095 490.053 91.3621V92.5579C490.053 92.7937 489.85 92.9958 489.615 92.9958H488.503C488.25 92.9958 488.048 93.1979 488.048 93.4337V94.5621C488.048 94.7979 487.846 95 487.61 95H482.406C482.154 95 481.951 94.7979 481.951 94.5621V93.3663C481.951 93.1137 482.154 92.9116 482.406 92.9116H487.526C487.762 92.9116 487.964 92.7095 487.964 92.4737V91.4463C487.964 91.1937 487.762 90.9916 487.526 90.9916H484.41C484.158 90.9916 483.956 90.7895 483.956 90.5537V89.4421C483.956 89.1895 483.77 88.9874 483.518 88.9874H482.406ZM504.347 89.288C504.347 89.7787 504.288 90.2587 504.171 90.728C504.064 91.1973 503.893 91.624 503.659 92.008C503.424 92.3813 503.136 92.6853 502.795 92.92C502.453 93.144 502.048 93.256 501.579 93.256C501.088 93.256 500.699 93.1173 500.411 92.84C500.133 92.552 499.963 92.2267 499.899 91.864H499.819C499.627 92.2587 499.344 92.5893 498.971 92.856C498.597 93.1227 498.128 93.256 497.563 93.256C496.752 93.256 496.123 92.984 495.675 92.44C495.237 91.896 495.019 91.176 495.019 90.28C495.019 89.576 495.157 88.9573 495.435 88.424C495.712 87.88 496.101 87.4533 496.603 87.144C497.115 86.8347 497.717 86.68 498.411 86.68C498.88 86.68 499.339 86.7227 499.787 86.808C500.245 86.8827 500.603 86.968 500.859 87.064L500.699 90.312C500.688 90.504 500.683 90.6427 500.683 90.728C500.683 90.8027 500.683 90.856 500.683 90.888C500.683 91.4427 500.779 91.8107 500.971 91.992C501.173 92.1733 501.408 92.264 501.675 92.264C502.005 92.264 502.283 92.1307 502.507 91.864C502.741 91.5867 502.917 91.224 503.035 90.776C503.163 90.3173 503.227 89.816 503.227 89.272C503.227 88.28 503.024 87.4427 502.619 86.76C502.224 86.0667 501.675 85.5387 500.971 85.176C500.277 84.8133 499.488 84.632 498.603 84.632C497.696 84.632 496.891 84.776 496.187 85.064C495.483 85.352 494.891 85.7573 494.411 86.28C493.941 86.8027 493.584 87.4213 493.339 88.136C493.093 88.84 492.971 89.6187 492.971 90.472C492.971 91.5173 493.157 92.408 493.531 93.144C493.904 93.8693 494.448 94.424 495.163 94.808C495.888 95.1813 496.773 95.368 497.819 95.368C498.469 95.368 499.088 95.2933 499.675 95.144C500.272 95.0053 500.8 94.8507 501.259 94.68V95.768C500.8 95.96 500.283 96.1147 499.707 96.232C499.141 96.36 498.512 96.424 497.819 96.424C496.56 96.424 495.483 96.1893 494.587 95.72C493.691 95.2507 493.003 94.5787 492.523 93.704C492.053 92.8187 491.819 91.7573 491.819 90.52C491.819 89.528 491.973 88.6107 492.283 87.768C492.592 86.9147 493.04 86.1787 493.627 85.56C494.213 84.9307 494.923 84.4453 495.755 84.104C496.597 83.752 497.547 83.576 498.603 83.576C499.435 83.576 500.197 83.7093 500.891 83.976C501.595 84.232 502.203 84.6107 502.715 85.112C503.237 85.6027 503.637 86.2 503.915 86.904C504.203 87.608 504.347 88.4027 504.347 89.288ZM496.267 90.312C496.267 90.9947 496.4 91.4907 496.667 91.8C496.944 92.1093 497.312 92.264 497.771 92.264C498.368 92.264 498.795 92.04 499.051 91.592C499.317 91.144 499.472 90.5627 499.515 89.848L499.611 87.848C499.472 87.8053 499.296 87.768 499.083 87.736C498.869 87.704 498.651 87.688 498.427 87.688C497.904 87.688 497.483 87.816 497.163 88.072C496.843 88.328 496.613 88.6587 496.475 89.064C496.336 89.4587 496.267 89.8747 496.267 90.312ZM508.65 92.9958C508.414 92.9958 508.212 93.1979 508.212 93.4505V94.5621C508.212 94.8147 508.01 95 507.774 95H506.578C506.325 95 506.123 94.8147 506.123 94.5621V87.3537C506.123 87.1179 506.325 86.9158 506.578 86.9158H507.69C507.925 86.9158 508.128 86.7137 508.128 86.4611V85.3495C508.128 85.1137 508.33 84.9116 508.582 84.9116H511.765C512.018 84.9116 512.22 85.1137 512.22 85.3495V86.4611C512.22 86.7137 512.422 86.9158 512.658 86.9158H513.77C514.022 86.9158 514.224 87.1179 514.224 87.3537V94.5621C514.224 94.8147 514.022 95 513.77 95H512.574C512.338 95 512.136 94.8147 512.136 94.5621V93.4505C512.136 93.1979 511.934 92.9958 511.698 92.9958H508.65ZM508.65 87C508.414 87 508.212 87.2021 508.212 87.4379V90.4695C508.212 90.7221 508.414 90.9242 508.65 90.9242H511.698C511.934 90.9242 512.136 90.7221 512.136 90.4695V87.4379C512.136 87.2021 511.934 87 511.698 87H508.65Z" fill="#CAECF1" fill-opacity="0.8"/>
</g>
</g>
</g>
<defs>
<filter id="filter0_bii_2333_4194" x="-250" y="-36" width="393" height="248" filterUnits="userSpaceOnUse" color-interpolation-filters="sRGB">
<feFlood flood-opacity="0" result="BackgroundImageFix"/>
<feGaussianBlur in="BackgroundImageFix" stdDeviation="43"/>
<feComposite in2="SourceAlpha" operator="in" result="effect1_backgroundBlur_2333_4194"/>
<feBlend mode="normal" in="SourceGraphic" in2="effect1_backgroundBlur_2333_4194" result="shape"/>
<feColorMatrix in="SourceAlpha" type="matrix" values="0 0 0 0 0 0 0 0 0 0 0 0 0 0 0 0 0 0 127 0" result="hardAlpha"/>
<feOffset dy="4"/>
<feGaussianBlur stdDeviation="2"/>
<feComposite in2="hardAlpha" operator="arithmetic" k2="-1" k3="1"/>
<feColorMatrix type="matrix" values="0 0 0 0 1 0 0 0 0 1 0 0 0 0 1 0 0 0 0.15 0"/>
<feBlend mode="normal" in2="shape" result="effect2_innerShadow_2333_4194"/>
<feColorMatrix in="SourceAlpha" type="matrix" values="0 0 0 0 0 0 0 0 0 0 0 0 0 0 0 0 0 0 127 0" result="hardAlpha"/>
<feOffset/>
<feGaussianBlur stdDeviation="34"/>
<feComposite in2="hardAlpha" operator="arithmetic" k2="-1" k3="1"/>
<feColorMatrix type="matrix" values="0 0 0 0 1 0 0 0 0 1 0 0 0 0 1 0 0 0 0.05 0"/>
<feBlend mode="normal" in2="effect2_innerShadow_2333_4194" result="effect3_innerShadow_2333_4194"/>
</filter>
<filter id="filter1_bii_2333_4194" x="2" y="-36" width="393" height="248" filterUnits="userSpaceOnUse" color-interpolation-filters="sRGB">
<feFlood flood-opacity="0" result="BackgroundImageFix"/>
<feGaussianBlur in="BackgroundImageFix" stdDeviation="43"/>
<feComposite in2="SourceAlpha" operator="in" result="effect1_backgroundBlur_2333_4194"/>
<feBlend mode="normal" in="SourceGraphic" in2="effect1_backgroundBlur_2333_4194" result="shape"/>
<feColorMatrix in="SourceAlpha" type="matrix" values="0 0 0 0 0 0 0 0 0 0 0 0 0 0 0 0 0 0 127 0" result="hardAlpha"/>
<feOffset dy="4"/>
<feGaussianBlur stdDeviation="2"/>
<feComposite in2="hardAlpha" operator="arithmetic" k2="-1" k3="1"/>
<feColorMatrix type="matrix" values="0 0 0 0 1 0 0 0 0 1 0 0 0 0 1 0 0 0 0.15 0"/>
<feBlend mode="normal" in2="shape" result="effect2_innerShadow_2333_4194"/>
<feColorMatrix in="SourceAlpha" type="matrix" values="0 0 0 0 0 0 0 0 0 0 0 0 0 0 0 0 0 0 127 0" result="hardAlpha"/>
<feOffset/>
<feGaussianBlur stdDeviation="34"/>
<feComposite in2="hardAlpha" operator="arithmetic" k2="-1" k3="1"/>
<feColorMatrix type="matrix" values="0 0 0 0 1 0 0 0 0 1 0 0 0 0 1 0 0 0 0.05 0"/>
<feBlend mode="normal" in2="effect2_innerShadow_2333_4194" result="effect3_innerShadow_2333_4194"/>
</filter>
<filter id="filter2_bii_2333_4194" x="254" y="-36" width="393" height="248" filterUnits="userSpaceOnUse" color-interpolation-filters="sRGB">
<feFlood flood-opacity="0" result="BackgroundImageFix"/>
<feGaussianBlur in="BackgroundImageFix" stdDeviation="43"/>
<feComposite in2="SourceAlpha" operator="in" result="effect1_backgroundBlur_2333_4194"/>
<feBlend mode="normal" in="SourceGraphic" in2="effect1_backgroundBlur_2333_4194" result="shape"/>
<feColorMatrix in="SourceAlpha" type="matrix" values="0 0 0 0 0 0 0 0 0 0 0 0 0 0 0 0 0 0 127 0" result="hardAlpha"/>
<feOffset dy="4"/>
<feGaussianBlur stdDeviation="2"/>
<feComposite in2="hardAlpha" operator="arithmetic" k2="-1" k3="1"/>
<feColorMatrix type="matrix" values="0 0 0 0 1 0 0 0 0 1 0 0 0 0 1 0 0 0 0.15 0"/>
<feBlend mode="normal" in2="shape" result="effect2_innerShadow_2333_4194"/>
<feColorMatrix in="SourceAlpha" type="matrix" values="0 0 0 0 0 0 0 0 0 0 0 0 0 0 0 0 0 0 127 0" result="hardAlpha"/>
<feOffset/>
<feGaussianBlur stdDeviation="34"/>
<feComposite in2="hardAlpha" operator="arithmetic" k2="-1" k3="1"/>
<feColorMatrix type="matrix" values="0 0 0 0 1 0 0 0 0 1 0 0 0 0 1 0 0 0 0.05 0"/>
<feBlend mode="normal" in2="effect2_innerShadow_2333_4194" result="effect3_innerShadow_2333_4194"/>
</filter>
<linearGradient id="paint0_linear_2333_4194" x1="-53.5" y1="50" x2="-53.5" y2="126" gradientUnits="userSpaceOnUse">
<stop stop-color="#343434"/>
<stop offset="1" stop-opacity="0"/>
</linearGradient>
<linearGradient id="paint1_linear_2333_4194" x1="198.5" y1="50" x2="198.5" y2="126" gradientUnits="userSpaceOnUse">
<stop stop-color="#343434"/>
<stop offset="1" stop-opacity="0"/>
</linearGradient>
<linearGradient id="paint2_linear_2333_4194" x1="450.5" y1="50" x2="450.5" y2="126" gradientUnits="userSpaceOnUse">
<stop stop-color="#343434"/>
<stop offset="1" stop-opacity="0"/>
</linearGradient>
<clipPath id="clip0_2333_4194">
<rect width="400" height="141" fill="white"/>
</clipPath>
</defs>
</svg>
