<svg width="400" height="168" viewBox="0 0 400 168" fill="none" xmlns="http://www.w3.org/2000/svg">
<mask id="mask0_731_4840" style="mask-type:alpha" maskUnits="userSpaceOnUse" x="0" y="84" width="400" height="84">
<rect y="84" width="400" height="84" fill="url(#paint0_linear_731_4840)"/>
</mask>
<g mask="url(#mask0_731_4840)">
</g>
<g clip-path="url(#clip0_731_4840)">
<g clip-path="url(#clip1_731_4840)">
<path d="M63.1502 86.4278L43.8033 106.416C42.3274 107.941 41.5 109.997 41.5 112.138V302H358.5V112.138C358.5 109.997 357.673 107.941 356.197 106.416L336.85 86.4278C335.346 84.8745 333.294 84 331.153 84H68.8468C66.7055 84 64.6536 84.8745 63.1502 86.4278Z" fill="#11121B" fill-opacity="0.56"/>
<path d="M63.1502 86.4278L43.8033 106.416C42.3274 107.941 41.5 109.997 41.5 112.138V302H358.5V112.138C358.5 109.997 357.673 107.941 356.197 106.416L336.85 86.4278C335.346 84.8745 333.294 84 331.153 84H68.8468C66.7055 84 64.6536 84.8745 63.1502 86.4278Z" fill="url(#paint1_linear_731_4840)" fill-opacity="0.2"/>
<path d="M63.1502 86.4278L43.8033 106.416C42.3274 107.941 41.5 109.997 41.5 112.138V302H358.5V112.138C358.5 109.997 357.673 107.941 356.197 106.416L336.85 86.4278C335.346 84.8745 333.294 84 331.153 84H68.8468C66.7055 84 64.6536 84.8745 63.1502 86.4278Z" stroke="#8EE8FF" stroke-opacity="0.36"/>
<g filter="url(#filter0_d_731_4840)">
<path d="M169.85 142.417C170 143.247 170.59 143.797 171.56 143.797C172.31 143.797 172.82 143.497 172.82 142.917C172.81 142.327 172.31 141.987 171.1 141.687C169.68 141.347 168.68 140.737 168.68 139.597C168.68 138.337 169.72 137.547 171.24 137.547C172.81 137.547 173.87 138.517 174.02 139.907L172.71 139.967C172.61 139.177 172.05 138.667 171.22 138.667C170.5 138.667 169.99 139.037 170.01 139.617C170.02 140.297 170.84 140.507 171.65 140.717C173.13 141.067 174.15 141.737 174.15 142.847C174.15 144.187 172.96 144.927 171.5 144.927C169.83 144.927 168.65 143.977 168.53 142.497L169.85 142.417ZM175.214 139.507H176.374L176.414 140.387C176.694 139.667 177.294 139.387 178.004 139.387C179.184 139.387 179.824 140.207 179.824 141.397V144.807H178.534V141.807C178.534 140.917 178.304 140.427 177.614 140.427C176.914 140.427 176.494 140.917 176.494 141.807V144.807H175.214V139.507ZM180.902 141.127C181.112 140.017 181.962 139.387 183.272 139.387C184.802 139.387 185.602 140.177 185.602 141.667V143.487C185.602 143.787 185.732 143.877 185.932 143.877H186.142V144.807L185.842 144.817C185.432 144.827 184.592 144.837 184.492 143.997C184.242 144.527 183.642 144.927 182.722 144.927C181.652 144.927 180.812 144.357 180.812 143.417C180.812 142.397 181.582 142.047 182.832 141.807L184.312 141.517C184.312 140.697 183.962 140.307 183.272 140.307C182.702 140.307 182.332 140.617 182.212 141.197L180.902 141.127ZM182.142 143.377C182.142 143.737 182.452 144.027 183.072 144.027C183.792 144.027 184.342 143.497 184.342 142.457V142.387L183.332 142.567C182.662 142.687 182.142 142.777 182.142 143.377ZM187.079 146.307V139.507H188.299L188.329 140.287C188.619 139.707 189.179 139.387 189.919 139.387C191.439 139.387 192.199 140.627 192.199 142.157C192.199 143.687 191.439 144.927 189.919 144.927C189.209 144.927 188.669 144.627 188.359 144.057V146.307H187.079ZM188.269 142.157C188.269 143.067 188.679 143.897 189.569 143.897C190.469 143.897 190.859 143.087 190.859 142.157C190.859 141.237 190.459 140.417 189.569 140.417C188.669 140.417 188.269 141.257 188.269 142.157ZM196.439 141.207C196.339 140.667 195.869 140.347 195.359 140.347C194.859 140.347 194.469 140.607 194.479 141.037C194.489 141.467 195.019 141.647 195.549 141.747C196.999 141.997 197.799 142.377 197.799 143.387C197.799 144.437 196.779 144.927 195.539 144.927C194.089 144.927 193.109 144.247 193.019 143.127L194.329 143.057C194.429 143.617 194.849 143.957 195.509 143.957C195.949 143.957 196.479 143.797 196.469 143.357C196.469 142.847 195.879 142.767 195.339 142.647C194.029 142.387 193.149 142.047 193.149 141.057C193.149 140.017 194.009 139.387 195.429 139.387C196.669 139.387 197.559 140.057 197.739 141.147L196.439 141.207ZM198.749 137.707H200.029V140.217C200.339 139.617 200.919 139.387 201.569 139.387C202.669 139.387 203.359 140.187 203.359 141.397V144.807H202.079V141.857C202.079 140.947 201.809 140.467 201.149 140.467C200.449 140.467 200.029 140.957 200.029 141.857V144.807H198.749V137.707ZM206.968 144.927C205.378 144.927 204.338 143.837 204.338 142.157C204.338 140.477 205.378 139.387 206.968 139.387C208.548 139.387 209.588 140.477 209.588 142.157C209.588 143.837 208.548 144.927 206.968 144.927ZM205.668 142.157C205.668 143.247 206.138 143.887 206.968 143.887C207.788 143.887 208.268 143.247 208.268 142.157C208.268 141.067 207.788 140.427 206.968 140.427C206.138 140.427 205.668 141.067 205.668 142.157ZM211.019 138.307H212.299V139.507H213.699V140.497H212.299V143.177C212.299 143.587 212.509 143.817 212.899 143.817H213.699V144.807H212.689C211.599 144.807 211.019 144.257 211.019 143.177V140.497H210.179V139.507H211.019V138.307ZM217.039 139.927C217.179 138.547 218.209 137.547 219.729 137.547C221.149 137.547 222.179 138.437 222.179 139.657C222.179 140.737 221.329 141.387 220.329 141.987C219.879 142.227 218.599 143.047 218.549 143.677H222.219V144.807H216.969C216.969 142.707 218.249 141.817 219.619 141.017C220.359 140.567 220.839 140.137 220.839 139.647C220.839 139.087 220.379 138.677 219.729 138.677C219.009 138.677 218.529 139.147 218.379 140.007L217.039 139.927ZM223.205 143.457H224.635V144.807H223.205V143.457ZM228.286 144.967C226.436 144.967 225.326 143.507 225.326 141.267C225.326 139.017 226.436 137.547 228.286 137.547C230.136 137.547 231.236 139.017 231.236 141.267C231.236 143.507 230.136 144.967 228.286 144.967ZM226.676 141.267C226.676 142.927 227.246 143.837 228.286 143.837C229.326 143.837 229.896 142.927 229.896 141.267C229.896 139.597 229.326 138.677 228.286 138.677C227.246 138.677 226.676 139.597 226.676 141.267Z" fill="#CAECF1"/>
</g>
</g>
<g filter="url(#filter1_b_731_4840)">
<rect x="104" y="152" width="56" height="8" rx="4" fill="white" fill-opacity="0.05"/>
<rect x="104" y="152" width="56" height="8" rx="4" fill="url(#paint2_linear_731_4840)"/>
<rect x="104.5" y="152.5" width="55" height="7" rx="3.5" stroke="white" stroke-opacity="0.05"/>
</g>
<g filter="url(#filter2_b_731_4840)">
<rect x="172" y="152" width="56" height="8" rx="4" fill="#CAECF1" fill-opacity="0.8"/>
<rect x="172.5" y="152.5" width="55" height="7" rx="3.5" stroke="white" stroke-opacity="0.05"/>
</g>
<g filter="url(#filter3_b_731_4840)">
<rect x="240" y="152" width="56" height="8" rx="4" fill="white" fill-opacity="0.05"/>
<rect x="240" y="152" width="56" height="8" rx="4" fill="url(#paint3_linear_731_4840)"/>
<rect x="240.5" y="152.5" width="55" height="7" rx="3.5" stroke="white" stroke-opacity="0.05"/>
</g>
</g>
<g filter="url(#filter4_d_731_4840)">
<rect x="164" y="46" width="72" height="72" rx="36" fill="#11121B" fill-opacity="0.96" shape-rendering="crispEdges"/>
<rect x="164" y="46" width="72" height="72" rx="36" fill="url(#paint4_linear_731_4840)" fill-opacity="0.2" shape-rendering="crispEdges"/>
<g filter="url(#filter5_i_731_4840)">
<g clip-path="url(#clip2_731_4840)">
<rect x="168" y="50" width="64" height="64" rx="32" fill="url(#paint5_linear_731_4840)"/>
<g filter="url(#filter6_dddi_731_4840)">
<rect x="184" y="66" width="32" height="32" rx="16" fill="url(#paint6_linear_731_4840)" shape-rendering="crispEdges"/>
</g>
<rect opacity="0.1" x="183.008" y="-7.29004" width="40" height="76.8" rx="20" transform="rotate(45 183.008 -7.29004)" fill="url(#paint7_linear_731_4840)"/>
<path d="M198.907 77.9107L203.216 70.4493C205.016 70.9142 206.644 71.8236 208.099 73.1773C209.555 74.5311 210.612 76.1089 211.272 77.9107H198.907ZM195.851 81.0133L191.564 73.4747C192.696 72.3653 193.983 71.5089 195.427 70.9053C196.87 70.3018 198.395 70 200 70C200.34 70 200.729 70.0209 201.167 70.0627C201.604 70.1044 201.936 70.1476 202.161 70.192L195.851 81.0133ZM188.384 84.9733C188.251 84.4062 188.153 83.8836 188.092 83.4053C188.031 82.9262 188 82.4578 188 82C188 80.5929 188.239 79.2409 188.716 77.944C189.192 76.6462 189.889 75.4284 190.805 74.2907L196.923 84.9747L188.384 84.9733ZM196.921 93.6027C195.019 93.1031 193.322 92.168 191.829 90.7973C190.337 89.4267 189.295 87.832 188.704 86.0133H201.24L196.921 93.6027ZM200 94C199.667 94 199.307 93.9778 198.92 93.9333C198.532 93.8889 198.217 93.8444 197.973 93.8L204.253 83.1413L208.461 90.5C207.347 91.6093 206.059 92.4702 204.599 93.0827C203.138 93.6942 201.605 94 200 94ZM209.195 89.7107L203.077 78.9733H211.617C211.734 79.4889 211.827 80.0031 211.897 80.516C211.966 81.0298 212 81.5244 212 82C212 83.4356 211.762 84.7964 211.285 86.0827C210.81 87.368 210.113 88.5769 209.195 89.7093" fill="url(#paint8_linear_731_4840)"/>
</g>
</g>
</g>
<defs>
<filter id="filter0_d_731_4840" x="164.531" y="135.547" width="70.7031" height="16.7598" filterUnits="userSpaceOnUse" color-interpolation-filters="sRGB">
<feFlood flood-opacity="0" result="BackgroundImageFix"/>
<feColorMatrix in="SourceAlpha" type="matrix" values="0 0 0 0 0 0 0 0 0 0 0 0 0 0 0 0 0 0 127 0" result="hardAlpha"/>
<feOffset dy="2"/>
<feGaussianBlur stdDeviation="2"/>
<feComposite in2="hardAlpha" operator="out"/>
<feColorMatrix type="matrix" values="0 0 0 0 0.792157 0 0 0 0 0.92549 0 0 0 0 0.945098 0 0 0 0.25 0"/>
<feBlend mode="normal" in2="BackgroundImageFix" result="effect1_dropShadow_731_4840"/>
<feBlend mode="normal" in="SourceGraphic" in2="effect1_dropShadow_731_4840" result="shape"/>
</filter>
<filter id="filter1_b_731_4840" x="72" y="120" width="120" height="72" filterUnits="userSpaceOnUse" color-interpolation-filters="sRGB">
<feFlood flood-opacity="0" result="BackgroundImageFix"/>
<feGaussianBlur in="BackgroundImageFix" stdDeviation="16"/>
<feComposite in2="SourceAlpha" operator="in" result="effect1_backgroundBlur_731_4840"/>
<feBlend mode="normal" in="SourceGraphic" in2="effect1_backgroundBlur_731_4840" result="shape"/>
</filter>
<filter id="filter2_b_731_4840" x="140" y="120" width="120" height="72" filterUnits="userSpaceOnUse" color-interpolation-filters="sRGB">
<feFlood flood-opacity="0" result="BackgroundImageFix"/>
<feGaussianBlur in="BackgroundImageFix" stdDeviation="16"/>
<feComposite in2="SourceAlpha" operator="in" result="effect1_backgroundBlur_731_4840"/>
<feBlend mode="normal" in="SourceGraphic" in2="effect1_backgroundBlur_731_4840" result="shape"/>
</filter>
<filter id="filter3_b_731_4840" x="208" y="120" width="120" height="72" filterUnits="userSpaceOnUse" color-interpolation-filters="sRGB">
<feFlood flood-opacity="0" result="BackgroundImageFix"/>
<feGaussianBlur in="BackgroundImageFix" stdDeviation="16"/>
<feComposite in2="SourceAlpha" operator="in" result="effect1_backgroundBlur_731_4840"/>
<feBlend mode="normal" in="SourceGraphic" in2="effect1_backgroundBlur_731_4840" result="shape"/>
</filter>
<filter id="filter4_d_731_4840" x="164" y="46" width="72" height="73" filterUnits="userSpaceOnUse" color-interpolation-filters="sRGB">
<feFlood flood-opacity="0" result="BackgroundImageFix"/>
<feColorMatrix in="SourceAlpha" type="matrix" values="0 0 0 0 0 0 0 0 0 0 0 0 0 0 0 0 0 0 127 0" result="hardAlpha"/>
<feOffset dy="1"/>
<feComposite in2="hardAlpha" operator="out"/>
<feColorMatrix type="matrix" values="0 0 0 0 0.556863 0 0 0 0 0.909804 0 0 0 0 1 0 0 0 0.12 0"/>
<feBlend mode="normal" in2="BackgroundImageFix" result="effect1_dropShadow_731_4840"/>
<feBlend mode="normal" in="SourceGraphic" in2="effect1_dropShadow_731_4840" result="shape"/>
</filter>
<filter id="filter5_i_731_4840" x="168" y="50" width="64" height="64" filterUnits="userSpaceOnUse" color-interpolation-filters="sRGB">
<feFlood flood-opacity="0" result="BackgroundImageFix"/>
<feBlend mode="normal" in="SourceGraphic" in2="BackgroundImageFix" result="shape"/>
<feColorMatrix in="SourceAlpha" type="matrix" values="0 0 0 0 0 0 0 0 0 0 0 0 0 0 0 0 0 0 127 0" result="hardAlpha"/>
<feOffset dy="1"/>
<feComposite in2="hardAlpha" operator="arithmetic" k2="-1" k3="1"/>
<feColorMatrix type="matrix" values="0 0 0 0 1 0 0 0 0 1 0 0 0 0 1 0 0 0 0.08 0"/>
<feBlend mode="normal" in2="shape" result="effect1_innerShadow_731_4840"/>
</filter>
<filter id="filter6_dddi_731_4840" x="180" y="60" width="40" height="40" filterUnits="userSpaceOnUse" color-interpolation-filters="sRGB">
<feFlood flood-opacity="0" result="BackgroundImageFix"/>
<feColorMatrix in="SourceAlpha" type="matrix" values="0 0 0 0 0 0 0 0 0 0 0 0 0 0 0 0 0 0 127 0" result="hardAlpha"/>
<feOffset dy="-2"/>
<feGaussianBlur stdDeviation="2"/>
<feComposite in2="hardAlpha" operator="out"/>
<feColorMatrix type="matrix" values="0 0 0 0 1 0 0 0 0 1 0 0 0 0 1 0 0 0 0.02 0"/>
<feBlend mode="normal" in2="BackgroundImageFix" result="effect1_dropShadow_731_4840"/>
<feColorMatrix in="SourceAlpha" type="matrix" values="0 0 0 0 0 0 0 0 0 0 0 0 0 0 0 0 0 0 127 0" result="hardAlpha"/>
<feOffset dy="-1"/>
<feComposite in2="hardAlpha" operator="out"/>
<feColorMatrix type="matrix" values="0 0 0 0 1 0 0 0 0 1 0 0 0 0 1 0 0 0 0.06 0"/>
<feBlend mode="normal" in2="effect1_dropShadow_731_4840" result="effect2_dropShadow_731_4840"/>
<feColorMatrix in="SourceAlpha" type="matrix" values="0 0 0 0 0 0 0 0 0 0 0 0 0 0 0 0 0 0 127 0" result="hardAlpha"/>
<feOffset dy="1"/>
<feComposite in2="hardAlpha" operator="out"/>
<feColorMatrix type="matrix" values="0 0 0 0 1 0 0 0 0 1 0 0 0 0 1 0 0 0 0.02 0"/>
<feBlend mode="normal" in2="effect2_dropShadow_731_4840" result="effect3_dropShadow_731_4840"/>
<feBlend mode="normal" in="SourceGraphic" in2="effect3_dropShadow_731_4840" result="shape"/>
<feColorMatrix in="SourceAlpha" type="matrix" values="0 0 0 0 0 0 0 0 0 0 0 0 0 0 0 0 0 0 127 0" result="hardAlpha"/>
<feOffset dy="1"/>
<feGaussianBlur stdDeviation="0.5"/>
<feComposite in2="hardAlpha" operator="arithmetic" k2="-1" k3="1"/>
<feColorMatrix type="matrix" values="0 0 0 0 0 0 0 0 0 0 0 0 0 0 0 0 0 0 0.2 0"/>
<feBlend mode="normal" in2="shape" result="effect4_innerShadow_731_4840"/>
</filter>
<linearGradient id="paint0_linear_731_4840" x1="200" y1="84" x2="200" y2="168" gradientUnits="userSpaceOnUse">
<stop/>
<stop offset="1" stop-opacity="0"/>
</linearGradient>
<linearGradient id="paint1_linear_731_4840" x1="200" y1="84" x2="200" y2="302" gradientUnits="userSpaceOnUse">
<stop stop-color="#343434"/>
<stop offset="1" stop-opacity="0"/>
</linearGradient>
<linearGradient id="paint2_linear_731_4840" x1="132" y1="152" x2="132" y2="160" gradientUnits="userSpaceOnUse">
<stop stop-color="white" stop-opacity="0.03"/>
<stop offset="1" stop-color="white" stop-opacity="0"/>
</linearGradient>
<linearGradient id="paint3_linear_731_4840" x1="268" y1="152" x2="268" y2="160" gradientUnits="userSpaceOnUse">
<stop stop-color="white" stop-opacity="0.03"/>
<stop offset="1" stop-color="white" stop-opacity="0"/>
</linearGradient>
<linearGradient id="paint4_linear_731_4840" x1="200" y1="46" x2="200" y2="118" gradientUnits="userSpaceOnUse">
<stop stop-color="#343434"/>
<stop offset="1" stop-opacity="0"/>
</linearGradient>
<linearGradient id="paint5_linear_731_4840" x1="200" y1="50" x2="200" y2="114" gradientUnits="userSpaceOnUse">
<stop stop-color="#2F3037"/>
<stop offset="1" stop-color="#27272D"/>
</linearGradient>
<linearGradient id="paint6_linear_731_4840" x1="200" y1="66" x2="200" y2="98" gradientUnits="userSpaceOnUse">
<stop stop-color="#27272D"/>
<stop offset="1" stop-color="#2F3037" stop-opacity="0.5"/>
</linearGradient>
<linearGradient id="paint7_linear_731_4840" x1="183.008" y1="31.11" x2="223.008" y2="31.11" gradientUnits="userSpaceOnUse">
<stop stop-opacity="0"/>
<stop offset="0.3" stop-color="white" stop-opacity="0.5"/>
<stop offset="0.5" stop-color="white"/>
<stop offset="0.7" stop-color="white" stop-opacity="0.5"/>
<stop offset="1" stop-opacity="0"/>
</linearGradient>
<linearGradient id="paint8_linear_731_4840" x1="200" y1="70" x2="200" y2="94" gradientUnits="userSpaceOnUse">
<stop stop-color="white" stop-opacity="0.2"/>
<stop offset="1" stop-color="white" stop-opacity="0"/>
</linearGradient>
<clipPath id="clip0_731_4840">
<rect width="400" height="84" fill="white" transform="translate(0 84)"/>
</clipPath>
<clipPath id="clip1_731_4840">
<rect width="317" height="218" fill="white" transform="translate(41.5 84)"/>
</clipPath>
<clipPath id="clip2_731_4840">
<rect x="168" y="50" width="64" height="64" rx="32" fill="white"/>
</clipPath>
</defs>
</svg>
