<svg width="400" height="149" viewBox="0 0 400 149" fill="none" xmlns="http://www.w3.org/2000/svg">
<rect x="148" y="23" width="104" height="104" rx="8" fill="#11121B" fill-opacity="0.24"/>
<rect x="148" y="23" width="104" height="104" rx="8" fill="url(#paint0_linear_2339_4243)" fill-opacity="0.2"/>
<rect x="148.5" y="23.5" width="103" height="103" rx="7.5" stroke="white" stroke-opacity="0.05"/>
<g filter="url(#filter0_ddi_2339_4243)">
<rect x="157" y="32" width="86" height="86" rx="2" fill="url(#paint1_linear_2339_4243)"/>
<g filter="url(#filter1_d_2339_4243)">
<path d="M168.455 107.112C168.428 106.869 168.314 106.68 168.115 106.546C167.916 106.41 167.666 106.343 167.363 106.343C167.147 106.343 166.96 106.377 166.802 106.446C166.644 106.513 166.522 106.605 166.434 106.724C166.348 106.84 166.305 106.973 166.305 107.123C166.305 107.248 166.334 107.356 166.393 107.447C166.453 107.538 166.531 107.614 166.627 107.676C166.725 107.736 166.83 107.787 166.941 107.828C167.053 107.868 167.16 107.9 167.263 107.926L167.778 108.06C167.946 108.101 168.119 108.157 168.295 108.227C168.472 108.298 168.636 108.39 168.787 108.505C168.938 108.62 169.06 108.763 169.153 108.933C169.247 109.103 169.294 109.306 169.294 109.543C169.294 109.841 169.217 110.107 169.063 110.338C168.91 110.57 168.688 110.753 168.396 110.887C168.106 111.021 167.755 111.088 167.343 111.088C166.948 111.088 166.607 111.025 166.318 110.9C166.03 110.774 165.804 110.597 165.641 110.367C165.478 110.135 165.388 109.86 165.371 109.543H166.169C166.184 109.733 166.246 109.892 166.354 110.019C166.464 110.144 166.604 110.238 166.774 110.3C166.946 110.36 167.133 110.39 167.338 110.39C167.563 110.39 167.763 110.355 167.938 110.284C168.114 110.212 168.253 110.113 168.355 109.986C168.456 109.857 168.507 109.707 168.507 109.535C168.507 109.379 168.462 109.251 168.373 109.151C168.285 109.052 168.166 108.97 168.015 108.904C167.866 108.839 167.696 108.782 167.508 108.732L166.885 108.562C166.462 108.447 166.128 108.278 165.881 108.055C165.635 107.832 165.512 107.536 165.512 107.169C165.512 106.865 165.595 106.6 165.759 106.373C165.924 106.147 166.147 105.971 166.429 105.846C166.71 105.719 167.028 105.655 167.381 105.655C167.738 105.655 168.053 105.718 168.326 105.843C168.601 105.968 168.817 106.141 168.975 106.361C169.133 106.579 169.215 106.829 169.222 107.112H168.455ZM171.952 111H170.245V105.727H172.006C172.523 105.727 172.966 105.833 173.337 106.044C173.708 106.253 173.992 106.555 174.189 106.948C174.388 107.339 174.488 107.808 174.488 108.356C174.488 108.905 174.388 109.377 174.187 109.772C173.988 110.167 173.699 110.47 173.322 110.683C172.944 110.894 172.488 111 171.952 111ZM171.041 110.305H171.908C172.31 110.305 172.644 110.229 172.91 110.078C173.176 109.926 173.375 109.705 173.507 109.417C173.639 109.127 173.705 108.773 173.705 108.356C173.705 107.942 173.639 107.591 173.507 107.303C173.377 107.015 173.182 106.796 172.923 106.646C172.663 106.497 172.342 106.422 171.957 106.422H171.041V110.305ZM175.477 111V105.727H176.273V108.245H176.337L178.549 105.727H179.55L177.424 108.101L179.558 111H178.6L176.896 108.644L176.273 109.36V111H175.477Z" fill="#B9BABF"/>
</g>
<g filter="url(#filter2_d_2339_4243)">
<path d="M212.838 107.087C212.838 107.38 212.809 107.647 212.75 107.89C212.691 108.13 212.603 108.337 212.483 108.511C212.364 108.683 212.216 108.816 212.038 108.912C211.862 109.006 211.655 109.053 211.417 109.053C211.212 109.053 211.025 109.015 210.857 108.938C210.689 108.86 210.546 108.741 210.427 108.581C210.308 108.421 210.216 108.217 210.151 107.969C210.087 107.721 210.055 107.427 210.055 107.087C210.055 106.794 210.084 106.526 210.143 106.284C210.203 106.042 210.292 105.835 210.409 105.663C210.528 105.489 210.677 105.355 210.854 105.262C211.032 105.166 211.239 105.118 211.476 105.118C211.681 105.118 211.867 105.157 212.035 105.235C212.203 105.312 212.347 105.431 212.466 105.593C212.585 105.753 212.677 105.957 212.741 106.205C212.806 106.453 212.838 106.747 212.838 107.087ZM212.322 107.104C212.322 107.038 212.319 106.973 212.313 106.908C212.31 106.842 212.305 106.777 212.299 106.715L210.679 107.919C210.708 108.021 210.745 108.114 210.79 108.2C210.835 108.286 210.889 108.36 210.951 108.423C211.016 108.483 211.088 108.531 211.168 108.566C211.25 108.6 211.343 108.616 211.446 108.616C211.579 108.616 211.699 108.584 211.807 108.52C211.916 108.455 212.009 108.359 212.085 108.232C212.161 108.105 212.22 107.948 212.261 107.761C212.302 107.571 212.322 107.353 212.322 107.104ZM210.57 107.069C210.57 107.13 210.57 107.19 210.57 107.251C210.572 107.312 210.576 107.37 210.582 107.427L212.202 106.229C212.173 106.129 212.136 106.038 212.091 105.956C212.046 105.874 211.992 105.804 211.93 105.745C211.867 105.685 211.796 105.638 211.716 105.604C211.636 105.571 211.546 105.555 211.446 105.555C211.313 105.555 211.192 105.587 211.083 105.651C210.976 105.716 210.884 105.812 210.808 105.941C210.731 106.068 210.673 106.227 210.632 106.416C210.591 106.604 210.57 106.821 210.57 107.069ZM216.017 109H213.611V108.525H214.596V105.73L213.679 106.229L213.491 105.795L214.71 105.153H215.161V108.525H216.017V109ZM219.315 109H216.91V108.525H217.895V105.73L216.978 106.229L216.79 105.795L218.009 105.153H218.46V108.525H219.315V109ZM222.837 108.153H222.184V109H221.662V108.153H219.819V107.705L221.451 105.171H222.184V107.705H222.837V108.153ZM221.662 105.663L220.329 107.705H221.662V105.663ZM226.136 108.153H225.482V109H224.961V108.153H223.118V107.705L224.75 105.171H225.482V107.705H226.136V108.153ZM224.961 105.663L223.628 107.705H224.961V105.663ZM229.147 107.775C229.147 107.965 229.106 108.138 229.024 108.294C228.942 108.45 228.829 108.585 228.685 108.698C228.542 108.81 228.373 108.896 228.178 108.959C227.982 109.021 227.771 109.053 227.545 109.053C227.488 109.053 227.427 109.051 227.36 109.047C227.296 109.045 227.231 109.041 227.167 109.035C227.103 109.031 227.039 109.026 226.977 109.021C226.916 109.015 226.861 109.008 226.812 109V108.537C226.918 108.562 227.038 108.581 227.173 108.593C227.31 108.604 227.447 108.61 227.586 108.61C227.742 108.61 227.883 108.592 228.008 108.555C228.133 108.518 228.239 108.465 228.327 108.396C228.415 108.326 228.482 108.242 228.529 108.145C228.576 108.045 228.6 107.934 228.6 107.811C228.6 107.572 228.514 107.399 228.342 107.292C228.172 107.183 227.927 107.128 227.606 107.128H226.88V105.171H228.942V105.616H227.36V106.691H227.694C227.878 106.691 228.057 106.708 228.23 106.741C228.404 106.774 228.559 106.833 228.693 106.917C228.83 106.999 228.939 107.11 229.021 107.251C229.105 107.39 229.147 107.564 229.147 107.775ZM232.47 107.837C232.47 108.005 232.436 108.163 232.367 108.312C232.299 108.458 232.196 108.587 232.06 108.698C231.923 108.808 231.751 108.895 231.544 108.959C231.337 109.021 231.096 109.053 230.82 109.053C230.668 109.053 230.531 109.048 230.41 109.038C230.289 109.028 230.176 109.016 230.07 109V108.543C230.191 108.564 230.319 108.581 230.454 108.593C230.589 108.604 230.727 108.61 230.867 108.61C231.059 108.61 231.222 108.594 231.356 108.561C231.493 108.525 231.604 108.476 231.69 108.411C231.776 108.347 231.839 108.269 231.878 108.177C231.917 108.085 231.937 107.981 231.937 107.866C231.937 107.761 231.913 107.669 231.866 107.591C231.819 107.513 231.753 107.447 231.667 107.395C231.583 107.342 231.481 107.303 231.362 107.277C231.245 107.25 231.116 107.236 230.976 107.236H230.539V106.817H230.981C231.097 106.817 231.201 106.803 231.295 106.773C231.391 106.742 231.472 106.698 231.538 106.642C231.606 106.585 231.658 106.516 231.693 106.434C231.73 106.35 231.749 106.255 231.749 106.149C231.749 105.944 231.687 105.795 231.562 105.701C231.437 105.607 231.253 105.561 231.011 105.561C230.882 105.561 230.749 105.573 230.612 105.599C230.476 105.624 230.329 105.662 230.173 105.713V105.268C230.239 105.244 230.31 105.224 230.384 105.206C230.46 105.187 230.535 105.171 230.609 105.159C230.686 105.146 230.761 105.136 230.835 105.13C230.909 105.122 230.98 105.118 231.049 105.118C231.252 105.118 231.431 105.141 231.585 105.186C231.739 105.229 231.868 105.291 231.972 105.373C232.075 105.455 232.153 105.555 232.206 105.672C232.259 105.789 232.285 105.921 232.285 106.067C232.285 106.286 232.229 106.47 232.115 106.618C232.004 106.767 231.851 106.885 231.655 106.973C231.755 106.988 231.853 107.02 231.948 107.066C232.046 107.113 232.133 107.174 232.209 107.248C232.287 107.32 232.35 107.406 232.396 107.506C232.445 107.605 232.47 107.716 232.47 107.837Z" fill="#93949F" fill-opacity="0.3" shape-rendering="crispEdges"/>
</g>
<g filter="url(#filter3_d_2339_4243)">
<path fill-rule="evenodd" clip-rule="evenodd" d="M196.386 59C195.537 59 194.838 59.7107 194.838 60.5737V67.2398C194.838 67.4142 194.753 67.5763 194.611 67.6742C194.469 67.7721 194.29 67.7919 194.131 67.7274L188.905 65.5267C188.709 65.4441 188.504 65.4068 188.303 65.4089C187.7 65.4152 187.125 65.7813 186.882 66.3791L184.117 73.1639C183.792 73.9611 184.169 74.8915 184.954 75.2203L191.292 77.8759C191.438 77.9371 191.547 78.0614 191.591 78.2151C191.635 78.3687 191.607 78.5322 191.516 78.6629L187.367 83.9998C186.85 84.6843 186.979 85.6815 187.652 86.2067L193.385 90.678C194.059 91.2033 195.04 91.0717 195.557 90.3869L199.591 85.1965C199.689 85.0667 199.839 84.9915 200 84.9915C200.161 84.9915 200.311 85.0667 200.409 85.1965L204.443 90.3869C204.96 91.0715 205.941 91.2033 206.615 90.678L212.348 86.2067C213.021 85.6814 213.15 84.6845 212.633 83.9998L208.484 78.6629C208.393 78.5324 208.366 78.3687 208.409 78.2151C208.453 78.0614 208.562 77.9371 208.708 77.8759L215.046 75.2203C215.831 74.8915 216.208 73.9614 215.883 73.1639L213.118 66.3791C212.874 65.7813 212.3 65.4153 211.697 65.4089C211.496 65.4068 211.291 65.4443 211.095 65.5267L205.869 67.7274C205.71 67.7921 205.53 67.7721 205.388 67.6742C205.246 67.5763 205.161 67.4142 205.161 67.2398V60.5737C205.161 59.7107 204.462 59 203.613 59H196.386Z" fill="#5E5F6E"/>
</g>
</g>
<defs>
<filter id="filter0_ddi_2339_4243" x="145" y="22" width="110" height="110" filterUnits="userSpaceOnUse" color-interpolation-filters="sRGB">
<feFlood flood-opacity="0" result="BackgroundImageFix"/>
<feColorMatrix in="SourceAlpha" type="matrix" values="0 0 0 0 0 0 0 0 0 0 0 0 0 0 0 0 0 0 127 0" result="hardAlpha"/>
<feOffset dy="1"/>
<feGaussianBlur stdDeviation="1"/>
<feComposite in2="hardAlpha" operator="out"/>
<feColorMatrix type="matrix" values="0 0 0 0 0 0 0 0 0 0 0 0 0 0 0 0 0 0 0.5 0"/>
<feBlend mode="normal" in2="BackgroundImageFix" result="effect1_dropShadow_2339_4243"/>
<feColorMatrix in="SourceAlpha" type="matrix" values="0 0 0 0 0 0 0 0 0 0 0 0 0 0 0 0 0 0 127 0" result="hardAlpha"/>
<feMorphology radius="2" operator="dilate" in="SourceAlpha" result="effect2_dropShadow_2339_4243"/>
<feOffset dy="2"/>
<feGaussianBlur stdDeviation="5"/>
<feComposite in2="hardAlpha" operator="out"/>
<feColorMatrix type="matrix" values="0 0 0 0 0 0 0 0 0 0 0 0 0 0 0 0 0 0 0.2 0"/>
<feBlend mode="normal" in2="effect1_dropShadow_2339_4243" result="effect2_dropShadow_2339_4243"/>
<feBlend mode="normal" in="SourceGraphic" in2="effect2_dropShadow_2339_4243" result="shape"/>
<feColorMatrix in="SourceAlpha" type="matrix" values="0 0 0 0 0 0 0 0 0 0 0 0 0 0 0 0 0 0 127 0" result="hardAlpha"/>
<feOffset dy="1"/>
<feGaussianBlur stdDeviation="0.5"/>
<feComposite in2="hardAlpha" operator="arithmetic" k2="-1" k3="1"/>
<feColorMatrix type="matrix" values="0 0 0 0 1 0 0 0 0 1 0 0 0 0 1 0 0 0 0.11 0"/>
<feBlend mode="normal" in2="shape" result="effect3_innerShadow_2339_4243"/>
</filter>
<filter id="filter1_d_2339_4243" x="164.367" y="103.655" width="16.1875" height="7.43262" filterUnits="userSpaceOnUse" color-interpolation-filters="sRGB">
<feFlood flood-opacity="0" result="BackgroundImageFix"/>
<feColorMatrix in="SourceAlpha" type="matrix" values="0 0 0 0 0 0 0 0 0 0 0 0 0 0 0 0 0 0 127 0" result="hardAlpha"/>
<feOffset dy="-1"/>
<feGaussianBlur stdDeviation="0.5"/>
<feComposite in2="hardAlpha" operator="out"/>
<feColorMatrix type="matrix" values="0 0 0 0 0 0 0 0 0 0 0 0 0 0 0 0 0 0 0.2 0"/>
<feBlend mode="normal" in2="BackgroundImageFix" result="effect1_dropShadow_2339_4243"/>
<feBlend mode="normal" in="SourceGraphic" in2="effect1_dropShadow_2339_4243" result="shape"/>
</filter>
<filter id="filter2_d_2339_4243" x="209.055" y="103.118" width="24.4141" height="5.93457" filterUnits="userSpaceOnUse" color-interpolation-filters="sRGB">
<feFlood flood-opacity="0" result="BackgroundImageFix"/>
<feColorMatrix in="SourceAlpha" type="matrix" values="0 0 0 0 0 0 0 0 0 0 0 0 0 0 0 0 0 0 127 0" result="hardAlpha"/>
<feOffset dy="-1"/>
<feGaussianBlur stdDeviation="0.5"/>
<feComposite in2="hardAlpha" operator="out"/>
<feColorMatrix type="matrix" values="0 0 0 0 0 0 0 0 0 0 0 0 0 0 0 0 0 0 0.2 0"/>
<feBlend mode="normal" in2="BackgroundImageFix" result="effect1_dropShadow_2339_4243"/>
<feBlend mode="normal" in="SourceGraphic" in2="effect1_dropShadow_2339_4243" result="shape"/>
</filter>
<filter id="filter3_d_2339_4243" x="180" y="59" width="40" height="40" filterUnits="userSpaceOnUse" color-interpolation-filters="sRGB">
<feFlood flood-opacity="0" result="BackgroundImageFix"/>
<feColorMatrix in="SourceAlpha" type="matrix" values="0 0 0 0 0 0 0 0 0 0 0 0 0 0 0 0 0 0 127 0" result="hardAlpha"/>
<feOffset dy="4"/>
<feGaussianBlur stdDeviation="2"/>
<feComposite in2="hardAlpha" operator="out"/>
<feColorMatrix type="matrix" values="0 0 0 0 0 0 0 0 0 0 0 0 0 0 0 0 0 0 0.13 0"/>
<feBlend mode="normal" in2="BackgroundImageFix" result="effect1_dropShadow_2339_4243"/>
<feBlend mode="normal" in="SourceGraphic" in2="effect1_dropShadow_2339_4243" result="shape"/>
</filter>
<linearGradient id="paint0_linear_2339_4243" x1="200" y1="23" x2="200" y2="127" gradientUnits="userSpaceOnUse">
<stop stop-color="#343434"/>
<stop offset="1" stop-opacity="0"/>
</linearGradient>
<linearGradient id="paint1_linear_2339_4243" x1="200" y1="32" x2="200" y2="118" gradientUnits="userSpaceOnUse">
<stop stop-color="#2F3037"/>
<stop offset="1" stop-color="#27272D"/>
</linearGradient>
</defs>
</svg>
