<svg width="400" height="158" viewBox="0 0 400 158" fill="none" xmlns="http://www.w3.org/2000/svg">
<g filter="url(#filter0_b_2336_4225)">
<rect x="159.352" y="120.927" width="70.7758" height="6.07248" rx="3.03624" fill="#BACFF7" fill-opacity="0.12"/>
<rect x="159.352" y="120.927" width="70.7758" height="6.07248" rx="3.03624" fill="url(#paint0_linear_2336_4225)"/>
</g>
<g opacity="0.5" filter="url(#filter1_b_2336_4225)">
<path d="M160.854 79.6763H239.512L248.553 118.833H151.812L160.854 79.6763Z" fill="#BACFF7" fill-opacity="0.12"/>
<path d="M160.854 79.6763H239.512L248.553 118.833H151.812L160.854 79.6763Z" fill="url(#paint1_linear_2336_4225)"/>
</g>
<g filter="url(#filter2_b_2336_4225)">
<path d="M151.116 111.763L157.829 76.7224C158.19 74.8378 159.839 73.4751 161.757 73.4751H239.019C240.941 73.4751 242.592 74.8431 242.949 76.7324L249.536 111.591C250.001 114.051 248.118 116.329 245.614 116.334L155.052 116.516C152.538 116.521 150.642 114.233 151.116 111.763Z" fill="url(#paint2_linear_2336_4225)" fill-opacity="0.2" style="mix-blend-mode:overlay"/>
<path d="M152.098 111.952L158.811 76.9106C159.082 75.4971 160.318 74.4751 161.757 74.4751H239.019C240.461 74.4751 241.699 75.5011 241.966 76.918L248.554 111.777C248.902 113.622 247.49 115.33 245.612 115.334L155.05 115.516C153.164 115.52 151.743 113.804 152.098 111.952Z" stroke="url(#paint3_linear_2336_4225)" stroke-width="2"/>
</g>
<g filter="url(#filter3_b_2336_4225)">
<path d="M245.996 125.242L154.636 125.28C152.602 125.281 150.892 123.756 150.66 121.735L150.51 120.425C150.238 118.051 152.095 115.97 154.484 115.97H246.13C248.506 115.97 250.358 118.03 250.107 120.393L249.972 121.664C249.756 123.698 248.041 125.241 245.996 125.242Z" fill="url(#paint4_linear_2336_4225)" fill-opacity="0.2" style="mix-blend-mode:overlay"/>
<path d="M245.996 124.242L154.636 124.28C153.11 124.281 151.827 123.137 151.654 121.621L151.504 120.312C151.3 118.531 152.692 116.97 154.484 116.97H246.13C247.912 116.97 249.301 118.515 249.113 120.287L248.978 121.559C248.816 123.084 247.53 124.241 245.996 124.242Z" stroke="url(#paint5_linear_2336_4225)" stroke-width="2"/>
</g>
<g filter="url(#filter4_b_2336_4225)">
<rect x="159.352" y="106.769" width="70.7758" height="6.07248" rx="3.03624" fill="#BACFF7" fill-opacity="0.12"/>
<rect x="159.352" y="106.769" width="70.7758" height="6.07248" rx="3.03624" fill="url(#paint6_linear_2336_4225)"/>
</g>
<g filter="url(#filter5_b_2336_4225)">
<path d="M151.116 97.6053L157.829 62.5642C158.19 60.6796 159.839 59.3169 161.757 59.3169H239.019C240.941 59.3169 242.592 60.6849 242.949 62.5741L249.536 97.4329C250.001 99.8929 248.118 102.171 245.614 102.176L155.052 102.358C152.538 102.363 150.642 100.075 151.116 97.6053Z" fill="url(#paint7_linear_2336_4225)" fill-opacity="0.2" style="mix-blend-mode:overlay"/>
<path d="M152.098 97.7935L158.811 62.7524C159.082 61.3389 160.318 60.3169 161.757 60.3169H239.019C240.461 60.3169 241.699 61.3429 241.966 62.7598L248.554 97.6186C248.902 99.4636 247.49 101.172 245.612 101.176L155.05 101.358C153.164 101.362 151.743 99.6455 152.098 97.7935Z" stroke="url(#paint8_linear_2336_4225)" stroke-width="2"/>
</g>
<g filter="url(#filter6_b_2336_4225)">
<path d="M245.996 111.084L154.636 111.122C152.602 111.123 150.892 109.597 150.66 107.577L150.51 106.267C150.238 103.893 152.095 101.812 154.484 101.812H246.13C248.506 101.812 250.358 103.871 250.107 106.234L249.972 107.506C249.756 109.54 248.041 111.083 245.996 111.084Z" fill="url(#paint9_linear_2336_4225)" fill-opacity="0.2" style="mix-blend-mode:overlay"/>
<path d="M245.996 110.084L154.636 110.122C153.11 110.122 151.827 108.978 151.654 107.463L151.504 106.153C151.3 104.373 152.692 102.812 154.484 102.812H246.13C247.912 102.812 249.301 104.357 249.113 106.129L248.978 107.4C248.816 108.926 247.53 110.083 245.996 110.084Z" stroke="url(#paint10_linear_2336_4225)" stroke-width="2"/>
</g>
<g filter="url(#filter7_b_2336_4225)">
<rect x="159.352" y="92.6108" width="70.7758" height="6.07248" rx="3.03624" fill="#BACFF7" fill-opacity="0.12"/>
<rect x="159.352" y="92.6108" width="70.7758" height="6.07248" rx="3.03624" fill="url(#paint11_linear_2336_4225)"/>
</g>
<g filter="url(#filter8_b_2336_4225)">
<path d="M151.116 83.4471L157.829 48.406C158.19 46.5214 159.839 45.1587 161.757 45.1587H239.019C240.941 45.1587 242.592 46.5267 242.949 48.4159L249.536 83.2747C250.001 85.7347 248.118 88.0124 245.614 88.0174L155.052 88.1997C152.538 88.2048 150.642 85.9164 151.116 83.4471Z" fill="url(#paint12_linear_2336_4225)" fill-opacity="0.2" style="mix-blend-mode:overlay"/>
<path d="M152.098 83.6353L158.811 48.5942C159.082 47.1807 160.318 46.1587 161.757 46.1587H239.019C240.461 46.1587 241.699 47.1847 241.966 48.6016L248.554 83.4604C248.902 85.3054 247.49 87.0136 245.612 87.0174L155.05 87.1997C153.164 87.2035 151.743 85.4873 152.098 83.6353Z" stroke="url(#paint13_linear_2336_4225)" stroke-width="2"/>
</g>
<g filter="url(#filter9_b_2336_4225)">
<path d="M245.996 96.9254L154.636 96.9635C152.602 96.9643 150.892 95.4391 150.66 93.4187L150.51 92.109C150.238 89.735 152.095 87.6538 154.484 87.6538H246.13C248.506 87.6538 250.358 89.7132 250.107 92.0762L249.972 93.3478C249.756 95.3814 248.041 96.9246 245.996 96.9254Z" fill="url(#paint14_linear_2336_4225)" fill-opacity="0.2" style="mix-blend-mode:overlay"/>
<path d="M245.996 95.9254L154.636 95.9635C153.11 95.9641 151.827 94.8202 151.654 93.3049L151.504 91.9952C151.3 90.2147 152.692 88.6538 154.484 88.6538H246.13C247.912 88.6538 249.301 90.1984 249.113 91.9706L248.978 93.2422C248.816 94.7674 247.53 95.9248 245.996 95.9254Z" stroke="url(#paint15_linear_2336_4225)" stroke-width="2"/>
</g>
<g filter="url(#filter10_b_2336_4225)">
<rect x="159.352" y="78.4521" width="70.7758" height="6.07248" rx="3.03624" fill="#BACFF7" fill-opacity="0.12"/>
<rect x="159.352" y="78.4521" width="70.7758" height="6.07248" rx="3.03624" fill="url(#paint16_linear_2336_4225)"/>
</g>
<g opacity="0.5" filter="url(#filter11_b_2336_4225)">
<path d="M160.854 37.2012H239.512L248.553 76.3582H151.812L160.854 37.2012Z" fill="#BACFF7" fill-opacity="0.12"/>
<path d="M160.854 37.2012H239.512L248.553 76.3582H151.812L160.854 37.2012Z" fill="url(#paint17_linear_2336_4225)"/>
</g>
<g filter="url(#filter12_b_2336_4225)">
<path d="M151.116 69.2884L157.829 34.2473C158.19 32.3627 159.839 31 161.757 31H239.019C240.941 31 242.592 32.368 242.949 34.2573L249.536 69.116C250.001 71.576 248.118 73.8537 245.614 73.8587L155.052 74.041C152.538 74.0461 150.642 71.7577 151.116 69.2884Z" fill="url(#paint18_linear_2336_4225)" fill-opacity="0.2" style="mix-blend-mode:overlay"/>
<path d="M152.098 69.4766L158.811 34.4355C159.082 33.022 160.318 32 161.757 32H239.019C240.461 32 241.699 33.026 241.966 34.4429L248.554 69.3017C248.902 71.1467 247.49 72.8549 245.612 72.8587L155.05 73.0411C153.164 73.0448 151.743 71.3286 152.098 69.4766Z" stroke="url(#paint19_linear_2336_4225)" stroke-width="2"/>
</g>
<g filter="url(#filter13_b_2336_4225)">
<path d="M245.996 82.7668L154.636 82.8048C152.602 82.8056 150.892 81.2804 150.66 79.26L150.51 77.9503C150.238 75.5764 152.095 73.4951 154.484 73.4951H246.13C248.506 73.4951 250.358 75.5545 250.107 77.9175L249.972 79.1892C249.756 81.2227 248.041 82.7659 245.996 82.7668Z" fill="url(#paint20_linear_2336_4225)" fill-opacity="0.2" style="mix-blend-mode:overlay"/>
<path d="M245.996 81.7668L154.636 81.8048C153.11 81.8054 151.827 80.6615 151.654 79.1462L151.504 77.8365C151.3 76.056 152.692 74.4951 154.484 74.4951H246.13C247.912 74.4951 249.301 76.0397 249.113 77.8119L248.978 79.0836C248.816 80.6087 247.53 81.7661 245.996 81.7668Z" stroke="url(#paint21_linear_2336_4225)" stroke-width="2"/>
</g>
<defs>
<filter id="filter0_b_2336_4225" x="117.352" y="78.9272" width="154.773" height="90.0723" filterUnits="userSpaceOnUse" color-interpolation-filters="sRGB">
<feFlood flood-opacity="0" result="BackgroundImageFix"/>
<feGaussianBlur in="BackgroundImageFix" stdDeviation="21"/>
<feComposite in2="SourceAlpha" operator="in" result="effect1_backgroundBlur_2336_4225"/>
<feBlend mode="normal" in="SourceGraphic" in2="effect1_backgroundBlur_2336_4225" result="shape"/>
</filter>
<filter id="filter1_b_2336_4225" x="109.812" y="37.6763" width="180.742" height="123.157" filterUnits="userSpaceOnUse" color-interpolation-filters="sRGB">
<feFlood flood-opacity="0" result="BackgroundImageFix"/>
<feGaussianBlur in="BackgroundImageFix" stdDeviation="21"/>
<feComposite in2="SourceAlpha" operator="in" result="effect1_backgroundBlur_2336_4225"/>
<feBlend mode="normal" in="SourceGraphic" in2="effect1_backgroundBlur_2336_4225" result="shape"/>
</filter>
<filter id="filter2_b_2336_4225" x="109.039" y="31.4751" width="182.57" height="127.041" filterUnits="userSpaceOnUse" color-interpolation-filters="sRGB">
<feFlood flood-opacity="0" result="BackgroundImageFix"/>
<feGaussianBlur in="BackgroundImageFix" stdDeviation="21"/>
<feComposite in2="SourceAlpha" operator="in" result="effect1_backgroundBlur_2336_4225"/>
<feBlend mode="normal" in="SourceGraphic" in2="effect1_backgroundBlur_2336_4225" result="shape"/>
</filter>
<filter id="filter3_b_2336_4225" x="108.484" y="73.9702" width="183.648" height="93.3096" filterUnits="userSpaceOnUse" color-interpolation-filters="sRGB">
<feFlood flood-opacity="0" result="BackgroundImageFix"/>
<feGaussianBlur in="BackgroundImageFix" stdDeviation="21"/>
<feComposite in2="SourceAlpha" operator="in" result="effect1_backgroundBlur_2336_4225"/>
<feBlend mode="normal" in="SourceGraphic" in2="effect1_backgroundBlur_2336_4225" result="shape"/>
</filter>
<filter id="filter4_b_2336_4225" x="117.352" y="64.769" width="154.773" height="90.0723" filterUnits="userSpaceOnUse" color-interpolation-filters="sRGB">
<feFlood flood-opacity="0" result="BackgroundImageFix"/>
<feGaussianBlur in="BackgroundImageFix" stdDeviation="21"/>
<feComposite in2="SourceAlpha" operator="in" result="effect1_backgroundBlur_2336_4225"/>
<feBlend mode="normal" in="SourceGraphic" in2="effect1_backgroundBlur_2336_4225" result="shape"/>
</filter>
<filter id="filter5_b_2336_4225" x="109.039" y="17.3169" width="182.57" height="127.041" filterUnits="userSpaceOnUse" color-interpolation-filters="sRGB">
<feFlood flood-opacity="0" result="BackgroundImageFix"/>
<feGaussianBlur in="BackgroundImageFix" stdDeviation="21"/>
<feComposite in2="SourceAlpha" operator="in" result="effect1_backgroundBlur_2336_4225"/>
<feBlend mode="normal" in="SourceGraphic" in2="effect1_backgroundBlur_2336_4225" result="shape"/>
</filter>
<filter id="filter6_b_2336_4225" x="108.484" y="59.812" width="183.648" height="93.3096" filterUnits="userSpaceOnUse" color-interpolation-filters="sRGB">
<feFlood flood-opacity="0" result="BackgroundImageFix"/>
<feGaussianBlur in="BackgroundImageFix" stdDeviation="21"/>
<feComposite in2="SourceAlpha" operator="in" result="effect1_backgroundBlur_2336_4225"/>
<feBlend mode="normal" in="SourceGraphic" in2="effect1_backgroundBlur_2336_4225" result="shape"/>
</filter>
<filter id="filter7_b_2336_4225" x="117.352" y="50.6108" width="154.773" height="90.0723" filterUnits="userSpaceOnUse" color-interpolation-filters="sRGB">
<feFlood flood-opacity="0" result="BackgroundImageFix"/>
<feGaussianBlur in="BackgroundImageFix" stdDeviation="21"/>
<feComposite in2="SourceAlpha" operator="in" result="effect1_backgroundBlur_2336_4225"/>
<feBlend mode="normal" in="SourceGraphic" in2="effect1_backgroundBlur_2336_4225" result="shape"/>
</filter>
<filter id="filter8_b_2336_4225" x="109.039" y="3.15869" width="182.57" height="127.041" filterUnits="userSpaceOnUse" color-interpolation-filters="sRGB">
<feFlood flood-opacity="0" result="BackgroundImageFix"/>
<feGaussianBlur in="BackgroundImageFix" stdDeviation="21"/>
<feComposite in2="SourceAlpha" operator="in" result="effect1_backgroundBlur_2336_4225"/>
<feBlend mode="normal" in="SourceGraphic" in2="effect1_backgroundBlur_2336_4225" result="shape"/>
</filter>
<filter id="filter9_b_2336_4225" x="108.484" y="45.6538" width="183.648" height="93.3096" filterUnits="userSpaceOnUse" color-interpolation-filters="sRGB">
<feFlood flood-opacity="0" result="BackgroundImageFix"/>
<feGaussianBlur in="BackgroundImageFix" stdDeviation="21"/>
<feComposite in2="SourceAlpha" operator="in" result="effect1_backgroundBlur_2336_4225"/>
<feBlend mode="normal" in="SourceGraphic" in2="effect1_backgroundBlur_2336_4225" result="shape"/>
</filter>
<filter id="filter10_b_2336_4225" x="117.352" y="36.4521" width="154.773" height="90.0723" filterUnits="userSpaceOnUse" color-interpolation-filters="sRGB">
<feFlood flood-opacity="0" result="BackgroundImageFix"/>
<feGaussianBlur in="BackgroundImageFix" stdDeviation="21"/>
<feComposite in2="SourceAlpha" operator="in" result="effect1_backgroundBlur_2336_4225"/>
<feBlend mode="normal" in="SourceGraphic" in2="effect1_backgroundBlur_2336_4225" result="shape"/>
</filter>
<filter id="filter11_b_2336_4225" x="109.812" y="-4.79883" width="180.742" height="123.157" filterUnits="userSpaceOnUse" color-interpolation-filters="sRGB">
<feFlood flood-opacity="0" result="BackgroundImageFix"/>
<feGaussianBlur in="BackgroundImageFix" stdDeviation="21"/>
<feComposite in2="SourceAlpha" operator="in" result="effect1_backgroundBlur_2336_4225"/>
<feBlend mode="normal" in="SourceGraphic" in2="effect1_backgroundBlur_2336_4225" result="shape"/>
</filter>
<filter id="filter12_b_2336_4225" x="109.039" y="-11" width="182.57" height="127.041" filterUnits="userSpaceOnUse" color-interpolation-filters="sRGB">
<feFlood flood-opacity="0" result="BackgroundImageFix"/>
<feGaussianBlur in="BackgroundImageFix" stdDeviation="21"/>
<feComposite in2="SourceAlpha" operator="in" result="effect1_backgroundBlur_2336_4225"/>
<feBlend mode="normal" in="SourceGraphic" in2="effect1_backgroundBlur_2336_4225" result="shape"/>
</filter>
<filter id="filter13_b_2336_4225" x="108.484" y="31.4951" width="183.648" height="93.3096" filterUnits="userSpaceOnUse" color-interpolation-filters="sRGB">
<feFlood flood-opacity="0" result="BackgroundImageFix"/>
<feGaussianBlur in="BackgroundImageFix" stdDeviation="21"/>
<feComposite in2="SourceAlpha" operator="in" result="effect1_backgroundBlur_2336_4225"/>
<feBlend mode="normal" in="SourceGraphic" in2="effect1_backgroundBlur_2336_4225" result="shape"/>
</filter>
<linearGradient id="paint0_linear_2336_4225" x1="194.739" y1="120.927" x2="194.739" y2="127" gradientUnits="userSpaceOnUse">
<stop stop-color="#98C0EF" stop-opacity="0.24"/>
<stop offset="1" stop-color="#D8ECF8" stop-opacity="0"/>
</linearGradient>
<linearGradient id="paint1_linear_2336_4225" x1="200.183" y1="79.6763" x2="200.183" y2="118.833" gradientUnits="userSpaceOnUse">
<stop stop-color="#98C0EF" stop-opacity="0.24"/>
<stop offset="1" stop-color="#D8ECF8" stop-opacity="0"/>
</linearGradient>
<linearGradient id="paint2_linear_2336_4225" x1="200.485" y1="67.5592" x2="200.485" y2="120.945" gradientUnits="userSpaceOnUse">
<stop stop-color="white" stop-opacity="0.15"/>
<stop offset="1" stop-opacity="0.15"/>
</linearGradient>
<linearGradient id="paint3_linear_2336_4225" x1="204.481" y1="120.694" x2="204.481" y2="74.5221" gradientUnits="userSpaceOnUse">
<stop stop-color="#04FFFE"/>
<stop offset="1" stop-color="#2AB5C8" stop-opacity="0"/>
</linearGradient>
<linearGradient id="paint4_linear_2336_4225" x1="200.457" y1="114.691" x2="200.457" y2="126.237" gradientUnits="userSpaceOnUse">
<stop stop-color="white" stop-opacity="0.15"/>
<stop offset="1" stop-opacity="0.15"/>
</linearGradient>
<linearGradient id="paint5_linear_2336_4225" x1="192.858" y1="113.575" x2="192.858" y2="125.196" gradientUnits="userSpaceOnUse">
<stop stop-color="#04FFFE"/>
<stop offset="1" stop-color="#2AC8BF" stop-opacity="0"/>
</linearGradient>
<linearGradient id="paint6_linear_2336_4225" x1="194.739" y1="106.769" x2="194.739" y2="112.842" gradientUnits="userSpaceOnUse">
<stop stop-color="#98C0EF" stop-opacity="0.24"/>
<stop offset="1" stop-color="#D8ECF8" stop-opacity="0"/>
</linearGradient>
<linearGradient id="paint7_linear_2336_4225" x1="200.485" y1="53.401" x2="200.485" y2="106.787" gradientUnits="userSpaceOnUse">
<stop stop-color="white" stop-opacity="0.15"/>
<stop offset="1" stop-opacity="0.15"/>
</linearGradient>
<linearGradient id="paint8_linear_2336_4225" x1="204.481" y1="106.536" x2="204.481" y2="60.3639" gradientUnits="userSpaceOnUse">
<stop stop-color="#04FFFE"/>
<stop offset="1" stop-color="#2AB5C8" stop-opacity="0"/>
</linearGradient>
<linearGradient id="paint9_linear_2336_4225" x1="200.457" y1="100.532" x2="200.457" y2="112.079" gradientUnits="userSpaceOnUse">
<stop stop-color="white" stop-opacity="0.15"/>
<stop offset="1" stop-opacity="0.15"/>
</linearGradient>
<linearGradient id="paint10_linear_2336_4225" x1="192.858" y1="99.4163" x2="192.858" y2="111.038" gradientUnits="userSpaceOnUse">
<stop stop-color="#04FFFE"/>
<stop offset="1" stop-color="#2AC8BF" stop-opacity="0"/>
</linearGradient>
<linearGradient id="paint11_linear_2336_4225" x1="194.739" y1="92.6108" x2="194.739" y2="98.6833" gradientUnits="userSpaceOnUse">
<stop stop-color="#98C0EF" stop-opacity="0.24"/>
<stop offset="1" stop-color="#D8ECF8" stop-opacity="0"/>
</linearGradient>
<linearGradient id="paint12_linear_2336_4225" x1="200.485" y1="39.2428" x2="200.485" y2="92.6286" gradientUnits="userSpaceOnUse">
<stop stop-color="white" stop-opacity="0.15"/>
<stop offset="1" stop-opacity="0.15"/>
</linearGradient>
<linearGradient id="paint13_linear_2336_4225" x1="204.481" y1="92.3774" x2="204.481" y2="46.2057" gradientUnits="userSpaceOnUse">
<stop stop-color="#04FFFE"/>
<stop offset="1" stop-color="#2AB5C8" stop-opacity="0"/>
</linearGradient>
<linearGradient id="paint14_linear_2336_4225" x1="200.457" y1="86.3743" x2="200.457" y2="97.9207" gradientUnits="userSpaceOnUse">
<stop stop-color="white" stop-opacity="0.15"/>
<stop offset="1" stop-opacity="0.15"/>
</linearGradient>
<linearGradient id="paint15_linear_2336_4225" x1="192.858" y1="85.2581" x2="192.858" y2="96.8796" gradientUnits="userSpaceOnUse">
<stop stop-color="#04FFFE"/>
<stop offset="1" stop-color="#2AC8BF" stop-opacity="0"/>
</linearGradient>
<linearGradient id="paint16_linear_2336_4225" x1="194.739" y1="78.4521" x2="194.739" y2="84.5246" gradientUnits="userSpaceOnUse">
<stop stop-color="#98C0EF" stop-opacity="0.24"/>
<stop offset="1" stop-color="#D8ECF8" stop-opacity="0"/>
</linearGradient>
<linearGradient id="paint17_linear_2336_4225" x1="200.183" y1="37.2012" x2="200.183" y2="76.3582" gradientUnits="userSpaceOnUse">
<stop stop-color="#98C0EF" stop-opacity="0.24"/>
<stop offset="1" stop-color="#D8ECF8" stop-opacity="0"/>
</linearGradient>
<linearGradient id="paint18_linear_2336_4225" x1="200.485" y1="25.0841" x2="200.485" y2="78.4699" gradientUnits="userSpaceOnUse">
<stop stop-color="white" stop-opacity="0.15"/>
<stop offset="1" stop-opacity="0.15"/>
</linearGradient>
<linearGradient id="paint19_linear_2336_4225" x1="204.481" y1="78.2187" x2="204.481" y2="32.047" gradientUnits="userSpaceOnUse">
<stop stop-color="#04FFFE"/>
<stop offset="1" stop-color="#2AB5C8" stop-opacity="0"/>
</linearGradient>
<linearGradient id="paint20_linear_2336_4225" x1="200.457" y1="72.2156" x2="200.457" y2="83.7621" gradientUnits="userSpaceOnUse">
<stop stop-color="white" stop-opacity="0.15"/>
<stop offset="1" stop-opacity="0.15"/>
</linearGradient>
<linearGradient id="paint21_linear_2336_4225" x1="192.858" y1="71.0994" x2="192.858" y2="82.7209" gradientUnits="userSpaceOnUse">
<stop stop-color="#04FFFE"/>
<stop offset="1" stop-color="#2AC8BF" stop-opacity="0"/>
</linearGradient>
</defs>
</svg>
