<svg  viewBox="0 0 400 151" fill="none" xmlns="http://www.w3.org/2000/svg">
<g clip-path="url(#clip0_2334_4195)">
<g filter="url(#filter0_d_2334_4195)">
<rect x="50" y="15" width="304" height="42" rx="6" fill="#2F3037"/>
<rect x="50" y="15" width="304" height="42" rx="6" fill="url(#paint0_linear_2334_4195)"/>
<path d="M93.2969 32L95.6719 38.7344H95.7656L98.1406 32H99.1563L96.2188 40H95.2188L92.2813 32H93.2969ZM102.234 40.125C101.656 40.125 101.158 39.9974 100.738 39.7422C100.322 39.4844 100 39.125 99.7734 38.6641C99.5495 38.2005 99.4375 37.6615 99.4375 37.0469C99.4375 36.4323 99.5495 35.8906 99.7734 35.4219C100 34.9505 100.315 34.5833 100.719 34.3203C101.125 34.0547 101.599 33.9219 102.141 33.9219C102.453 33.9219 102.762 33.974 103.066 34.0781C103.371 34.1823 103.648 34.3516 103.898 34.5859C104.148 34.8177 104.348 35.125 104.496 35.5078C104.645 35.8906 104.719 36.362 104.719 36.9219V37.3125H100.094V36.5156H103.781C103.781 36.1771 103.714 35.875 103.578 35.6094C103.445 35.3437 103.255 35.1341 103.008 34.9805C102.763 34.8268 102.474 34.75 102.141 34.75C101.773 34.75 101.456 34.8411 101.188 35.0234C100.922 35.2031 100.717 35.4375 100.574 35.7266C100.431 36.0156 100.359 36.3255 100.359 36.6562V37.1875C100.359 37.6406 100.438 38.0247 100.594 38.3398C100.753 38.6523 100.973 38.8906 101.254 39.0547C101.535 39.2161 101.862 39.2969 102.234 39.2969C102.477 39.2969 102.695 39.263 102.891 39.1953C103.089 39.125 103.259 39.0208 103.402 38.8828C103.546 38.7422 103.656 38.5677 103.734 38.3594L104.625 38.6094C104.531 38.9115 104.374 39.1771 104.152 39.4062C103.931 39.6328 103.658 39.8099 103.332 39.9375C103.007 40.0625 102.641 40.125 102.234 40.125ZM106.121 40V34H107.012V34.9062H107.074C107.184 34.6094 107.382 34.3685 107.668 34.1836C107.954 33.9987 108.277 33.9062 108.637 33.9062C108.704 33.9062 108.789 33.9076 108.891 33.9102C108.992 33.9128 109.069 33.9167 109.121 33.9219V34.8594C109.09 34.8516 109.018 34.8398 108.906 34.8242C108.797 34.806 108.681 34.7969 108.559 34.7969C108.267 34.7969 108.007 34.8581 107.777 34.9805C107.551 35.1003 107.371 35.2669 107.238 35.4805C107.108 35.6914 107.043 35.9323 107.043 36.2031V40H106.121ZM114.464 35.3437L113.636 35.5781C113.584 35.4401 113.507 35.306 113.405 35.1758C113.306 35.043 113.171 34.9336 112.999 34.8477C112.827 34.7617 112.607 34.7187 112.339 34.7187C111.972 34.7187 111.666 34.8034 111.421 34.9727C111.179 35.1393 111.058 35.3516 111.058 35.6094C111.058 35.8385 111.141 36.0195 111.308 36.1523C111.474 36.2852 111.735 36.3958 112.089 36.4844L112.979 36.7031C113.516 36.8333 113.916 37.0326 114.179 37.3008C114.442 37.5664 114.573 37.9089 114.573 38.3281C114.573 38.6719 114.474 38.9792 114.276 39.25C114.081 39.5208 113.808 39.7344 113.456 39.8906C113.104 40.0469 112.696 40.125 112.229 40.125C111.618 40.125 111.111 39.9922 110.71 39.7266C110.309 39.4609 110.055 39.0729 109.948 38.5625L110.823 38.3437C110.907 38.6667 111.064 38.9089 111.296 39.0703C111.53 39.2318 111.836 39.3125 112.214 39.3125C112.644 39.3125 112.985 39.2214 113.237 39.0391C113.493 38.8542 113.62 38.6328 113.62 38.375C113.62 38.1667 113.547 37.9922 113.401 37.8516C113.256 37.7083 113.032 37.6016 112.729 37.5312L111.729 37.2969C111.18 37.1667 110.776 36.9648 110.519 36.6914C110.263 36.4154 110.136 36.0703 110.136 35.6562C110.136 35.3177 110.231 35.0182 110.421 34.7578C110.614 34.4974 110.875 34.293 111.206 34.1445C111.539 33.9961 111.917 33.9219 112.339 33.9219C112.933 33.9219 113.399 34.0521 113.737 34.3125C114.078 34.5729 114.321 34.9167 114.464 35.3437ZM115.961 40V34H116.883V40H115.961ZM116.43 33C116.25 33 116.095 32.9388 115.965 32.8164C115.837 32.694 115.773 32.5469 115.773 32.375C115.773 32.2031 115.837 32.056 115.965 31.9336C116.095 31.8112 116.25 31.75 116.43 31.75C116.609 31.75 116.763 31.8112 116.891 31.9336C117.021 32.056 117.086 32.2031 117.086 32.375C117.086 32.5469 117.021 32.694 116.891 32.8164C116.763 32.9388 116.609 33 116.43 33ZM121.009 40.125C120.467 40.125 119.992 39.9961 119.583 39.7383C119.177 39.4805 118.859 39.1198 118.63 38.6562C118.403 38.1927 118.29 37.651 118.29 37.0312C118.29 36.4062 118.403 35.8607 118.63 35.3945C118.859 34.9284 119.177 34.5664 119.583 34.3086C119.992 34.0508 120.467 33.9219 121.009 33.9219C121.55 33.9219 122.024 34.0508 122.431 34.3086C122.84 34.5664 123.157 34.9284 123.384 35.3945C123.613 35.8607 123.728 36.4062 123.728 37.0312C123.728 37.651 123.613 38.1927 123.384 38.6562C123.157 39.1198 122.84 39.4805 122.431 39.7383C122.024 39.9961 121.55 40.125 121.009 40.125ZM121.009 39.2969C121.42 39.2969 121.759 39.1914 122.024 38.9805C122.29 38.7695 122.487 38.4922 122.614 38.1484C122.742 37.8047 122.806 37.4323 122.806 37.0312C122.806 36.6302 122.742 36.2565 122.614 35.9102C122.487 35.5638 122.29 35.2839 122.024 35.0703C121.759 34.8568 121.42 34.75 121.009 34.75C120.597 34.75 120.259 34.8568 119.993 35.0703C119.728 35.2839 119.531 35.5638 119.403 35.9102C119.276 36.2565 119.212 36.6302 119.212 37.0312C119.212 37.4323 119.276 37.8047 119.403 38.1484C119.531 38.4922 119.728 38.7695 119.993 38.9805C120.259 39.1914 120.597 39.2969 121.009 39.2969ZM126.057 36.3906V40H125.135V34H126.025V34.9375H126.104C126.244 34.6328 126.458 34.388 126.744 34.2031C127.031 34.0156 127.4 33.9219 127.854 33.9219C128.26 33.9219 128.615 34.0052 128.92 34.1719C129.225 34.3359 129.462 34.5859 129.631 34.9219C129.8 35.2552 129.885 35.6771 129.885 36.1875V40H128.963V36.25C128.963 35.7786 128.84 35.4115 128.596 35.1484C128.351 34.8828 128.015 34.75 127.588 34.75C127.294 34.75 127.031 34.8138 126.799 34.9414C126.57 35.069 126.389 35.2552 126.256 35.5C126.123 35.7448 126.057 36.0417 126.057 36.3906ZM134.788 40V32H137.491C138.116 32 138.629 32.1068 139.03 32.3203C139.431 32.5312 139.728 32.8216 139.921 33.1914C140.114 33.5612 140.21 33.9818 140.21 34.4531C140.21 34.9245 140.114 35.3424 139.921 35.707C139.728 36.0716 139.433 36.3581 139.034 36.5664C138.636 36.7721 138.127 36.875 137.507 36.875H135.319V36H137.476C137.903 36 138.246 35.9375 138.507 35.8125C138.77 35.6875 138.96 35.5104 139.077 35.2812C139.197 35.0495 139.257 34.7734 139.257 34.4531C139.257 34.1328 139.197 33.8529 139.077 33.6133C138.957 33.3737 138.766 33.1888 138.503 33.0586C138.24 32.9258 137.892 32.8594 137.46 32.8594H135.757V40H134.788ZM138.554 36.4062L140.522 40H139.397L137.46 36.4062H138.554ZM144.15 40.125C143.572 40.125 143.074 39.9974 142.654 39.7422C142.238 39.4844 141.916 39.125 141.689 38.6641C141.465 38.2005 141.354 37.6615 141.354 37.0469C141.354 36.4323 141.465 35.8906 141.689 35.4219C141.916 34.9505 142.231 34.5833 142.635 34.3203C143.041 34.0547 143.515 33.9219 144.057 33.9219C144.369 33.9219 144.678 33.974 144.982 34.0781C145.287 34.1823 145.564 34.3516 145.814 34.5859C146.064 34.8177 146.264 35.125 146.412 35.5078C146.561 35.8906 146.635 36.362 146.635 36.9219V37.3125H142.01V36.5156H145.697C145.697 36.1771 145.63 35.875 145.494 35.6094C145.361 35.3437 145.171 35.1341 144.924 34.9805C144.679 34.8268 144.39 34.75 144.057 34.75C143.689 34.75 143.372 34.8411 143.104 35.0234C142.838 35.2031 142.633 35.4375 142.49 35.7266C142.347 36.0156 142.275 36.3255 142.275 36.6562V37.1875C142.275 37.6406 142.354 38.0247 142.51 38.3398C142.669 38.6523 142.889 38.8906 143.17 39.0547C143.451 39.2161 143.778 39.2969 144.15 39.2969C144.393 39.2969 144.611 39.263 144.807 39.1953C145.005 39.125 145.175 39.0208 145.318 38.8828C145.462 38.7422 145.572 38.5677 145.65 38.3594L146.541 38.6094C146.447 38.9115 146.29 39.1771 146.068 39.4062C145.847 39.6328 145.574 39.8099 145.248 39.9375C144.923 40.0625 144.557 40.125 144.15 40.125ZM152.287 35.3437L151.459 35.5781C151.407 35.4401 151.33 35.306 151.229 35.1758C151.13 35.043 150.994 34.9336 150.822 34.8477C150.65 34.7617 150.43 34.7187 150.162 34.7187C149.795 34.7187 149.489 34.8034 149.244 34.9727C149.002 35.1393 148.881 35.3516 148.881 35.6094C148.881 35.8385 148.964 36.0195 149.131 36.1523C149.298 36.2852 149.558 36.3958 149.912 36.4844L150.803 36.7031C151.339 36.8333 151.739 37.0326 152.002 37.3008C152.265 37.5664 152.396 37.9089 152.396 38.3281C152.396 38.6719 152.298 38.9792 152.1 39.25C151.904 39.5208 151.631 39.7344 151.279 39.8906C150.928 40.0469 150.519 40.125 150.053 40.125C149.441 40.125 148.934 39.9922 148.533 39.7266C148.132 39.4609 147.878 39.0729 147.771 38.5625L148.646 38.3437C148.73 38.6667 148.887 38.9089 149.119 39.0703C149.354 39.2318 149.66 39.3125 150.037 39.3125C150.467 39.3125 150.808 39.2214 151.061 39.0391C151.316 38.8542 151.443 38.6328 151.443 38.375C151.443 38.1667 151.37 37.9922 151.225 37.8516C151.079 37.7083 150.855 37.6016 150.553 37.5312L149.553 37.2969C149.003 37.1667 148.6 36.9648 148.342 36.6914C148.087 36.4154 147.959 36.0703 147.959 35.6562C147.959 35.3177 148.054 35.0182 148.244 34.7578C148.437 34.4974 148.699 34.293 149.029 34.1445C149.363 33.9961 149.74 33.9219 150.162 33.9219C150.756 33.9219 151.222 34.0521 151.561 34.3125C151.902 34.5729 152.144 34.9167 152.287 35.3437ZM156.394 34V34.7812H153.284V34H156.394ZM154.19 32.5625H155.112V38.2812C155.112 38.5417 155.15 38.737 155.226 38.8672C155.304 38.9948 155.403 39.0807 155.522 39.125C155.645 39.1667 155.774 39.1875 155.909 39.1875C156.011 39.1875 156.094 39.1823 156.159 39.1719C156.224 39.1589 156.276 39.1484 156.315 39.1406L156.503 39.9687C156.44 39.9922 156.353 40.0156 156.241 40.0391C156.129 40.0651 155.987 40.0781 155.815 40.0781C155.555 40.0781 155.3 40.0221 155.05 39.9102C154.802 39.7982 154.597 39.6276 154.433 39.3984C154.271 39.1693 154.19 38.8802 154.19 38.5312V32.5625ZM160.153 40.125C159.612 40.125 159.136 39.9961 158.728 39.7383C158.321 39.4805 158.004 39.1198 157.774 38.6562C157.548 38.1927 157.435 37.651 157.435 37.0312C157.435 36.4062 157.548 35.8607 157.774 35.3945C158.004 34.9284 158.321 34.5664 158.728 34.3086C159.136 34.0508 159.612 33.9219 160.153 33.9219C160.695 33.9219 161.169 34.0508 161.575 34.3086C161.984 34.5664 162.302 34.9284 162.528 35.3945C162.757 35.8607 162.872 36.4062 162.872 37.0312C162.872 37.651 162.757 38.1927 162.528 38.6562C162.302 39.1198 161.984 39.4805 161.575 39.7383C161.169 39.9961 160.695 40.125 160.153 40.125ZM160.153 39.2969C160.565 39.2969 160.903 39.1914 161.169 38.9805C161.435 38.7695 161.631 38.4922 161.759 38.1484C161.886 37.8047 161.95 37.4323 161.95 37.0312C161.95 36.6302 161.886 36.2565 161.759 35.9102C161.631 35.5638 161.435 35.2839 161.169 35.0703C160.903 34.8568 160.565 34.75 160.153 34.75C159.742 34.75 159.403 34.8568 159.138 35.0703C158.872 35.2839 158.675 35.5638 158.548 35.9102C158.42 36.2565 158.356 36.6302 158.356 37.0312C158.356 37.4323 158.42 37.8047 158.548 38.1484C158.675 38.4922 158.872 38.7695 159.138 38.9805C159.403 39.1914 159.742 39.2969 160.153 39.2969ZM164.279 40V34H165.17V34.9062H165.232C165.342 34.6094 165.54 34.3685 165.826 34.1836C166.113 33.9987 166.436 33.9062 166.795 33.9062C166.863 33.9062 166.947 33.9076 167.049 33.9102C167.15 33.9128 167.227 33.9167 167.279 33.9219V34.8594C167.248 34.8516 167.176 34.8398 167.064 34.8242C166.955 34.806 166.839 34.7969 166.717 34.7969C166.425 34.7969 166.165 34.8581 165.936 34.9805C165.709 35.1003 165.529 35.2669 165.396 35.4805C165.266 35.6914 165.201 35.9323 165.201 36.2031V40H164.279ZM170.705 40.125C170.127 40.125 169.628 39.9974 169.209 39.7422C168.792 39.4844 168.471 39.125 168.244 38.6641C168.02 38.2005 167.908 37.6615 167.908 37.0469C167.908 36.4323 168.02 35.8906 168.244 35.4219C168.471 34.9505 168.786 34.5833 169.189 34.3203C169.596 34.0547 170.07 33.9219 170.611 33.9219C170.924 33.9219 171.232 33.974 171.537 34.0781C171.842 34.1823 172.119 34.3516 172.369 34.5859C172.619 34.8177 172.818 35.125 172.967 35.5078C173.115 35.8906 173.189 36.362 173.189 36.9219V37.3125H168.564V36.5156H172.252C172.252 36.1771 172.184 35.875 172.049 35.6094C171.916 35.3437 171.726 35.1341 171.479 34.9805C171.234 34.8268 170.945 34.75 170.611 34.75C170.244 34.75 169.926 34.8411 169.658 35.0234C169.393 35.2031 169.188 35.4375 169.045 35.7266C168.902 36.0156 168.83 36.3255 168.83 36.6562V37.1875C168.83 37.6406 168.908 38.0247 169.064 38.3398C169.223 38.6523 169.443 38.8906 169.725 39.0547C170.006 39.2161 170.333 39.2969 170.705 39.2969C170.947 39.2969 171.166 39.263 171.361 39.1953C171.559 39.125 171.73 39.0208 171.873 38.8828C172.016 38.7422 172.127 38.5677 172.205 38.3594L173.096 38.6094C173.002 38.9115 172.844 39.1771 172.623 39.4062C172.402 39.6328 172.128 39.8099 171.803 39.9375C171.477 40.0625 171.111 40.125 170.705 40.125ZM176.857 40.125C176.357 40.125 175.916 39.9987 175.533 39.7461C175.15 39.4909 174.851 39.1315 174.635 38.668C174.419 38.2018 174.311 37.651 174.311 37.0156C174.311 36.3854 174.419 35.8385 174.635 35.375C174.851 34.9115 175.152 34.5534 175.537 34.3008C175.923 34.0482 176.368 33.9219 176.873 33.9219C177.264 33.9219 177.572 33.987 177.799 34.1172C178.028 34.2448 178.202 34.3906 178.322 34.5547C178.445 34.7161 178.54 34.849 178.607 34.9531H178.686V32H179.607V40H178.717V39.0781H178.607C178.54 39.1875 178.443 39.3255 178.318 39.4922C178.193 39.6562 178.015 39.8034 177.783 39.9336C177.551 40.0612 177.243 40.125 176.857 40.125ZM176.982 39.2969C177.352 39.2969 177.665 39.2005 177.92 39.0078C178.175 38.8125 178.369 38.543 178.502 38.1992C178.635 37.8529 178.701 37.4531 178.701 37C178.701 36.5521 178.636 36.1602 178.506 35.8242C178.376 35.4857 178.183 35.2227 177.928 35.0352C177.673 34.8451 177.357 34.75 176.982 34.75C176.592 34.75 176.266 34.8503 176.006 35.0508C175.748 35.2487 175.554 35.5182 175.424 35.8594C175.296 36.1979 175.232 36.5781 175.232 37C175.232 37.4271 175.298 37.8151 175.428 38.1641C175.561 38.5104 175.756 38.7865 176.014 38.9922C176.274 39.1953 176.597 39.2969 176.982 39.2969Z" fill="#747686"/>
<path d="M319.839 32.9545V40H318.986V33.849H318.945L317.225 34.9911V34.1242L318.986 32.9545H319.839ZM324.246 40.0963C323.792 40.0963 323.387 40.0183 323.032 39.8624C322.678 39.7064 322.397 39.4897 322.189 39.2122C321.982 38.9324 321.87 38.6079 321.852 38.2386H322.718C322.737 38.4657 322.815 38.6618 322.952 38.8269C323.09 38.9897 323.27 39.1159 323.492 39.2053C323.715 39.2948 323.962 39.3395 324.232 39.3395C324.535 39.3395 324.803 39.2867 325.037 39.1812C325.271 39.0757 325.455 38.929 325.588 38.7409C325.721 38.5528 325.787 38.335 325.787 38.0873C325.787 37.8281 325.723 37.5999 325.594 37.4027C325.466 37.2031 325.278 37.0472 325.03 36.9348C324.783 36.8224 324.48 36.7662 324.122 36.7662H323.558V36.0094H324.122C324.402 36.0094 324.647 35.959 324.858 35.858C325.072 35.7571 325.238 35.6149 325.357 35.4315C325.479 35.248 325.539 35.0324 325.539 34.7847C325.539 34.5462 325.487 34.3386 325.381 34.162C325.276 33.9854 325.127 33.8478 324.934 33.7492C324.744 33.6506 324.519 33.6013 324.26 33.6013C324.017 33.6013 323.787 33.646 323.572 33.7355C323.358 33.8226 323.184 33.9499 323.049 34.1173C322.913 34.2824 322.84 34.482 322.829 34.7159H322.003C322.017 34.3467 322.128 34.0233 322.337 33.7458C322.545 33.466 322.818 33.2481 323.155 33.0922C323.495 32.9362 323.867 32.8582 324.273 32.8582C324.709 32.8582 325.083 32.9465 325.395 33.1231C325.707 33.2974 325.946 33.5279 326.114 33.8146C326.281 34.1013 326.365 34.4109 326.365 34.7434C326.365 35.1402 326.261 35.4785 326.052 35.7583C325.846 36.0381 325.565 36.2319 325.209 36.3397V36.3947C325.654 36.4681 326.002 36.6573 326.252 36.9623C326.501 37.2651 326.626 37.64 326.626 38.0873C326.626 38.4703 326.522 38.8143 326.313 39.1193C326.107 39.4221 325.825 39.6606 325.467 39.8349C325.109 40.0092 324.702 40.0963 324.246 40.0963ZM328.639 39.0987C328.469 39.0987 328.324 39.0379 328.202 38.9163C328.081 38.7948 328.02 38.6492 328.02 38.4794C328.02 38.3097 328.081 38.1641 328.202 38.0425C328.324 37.921 328.469 37.8602 328.639 37.8602C328.809 37.8602 328.954 37.921 329.076 38.0425C329.197 38.1641 329.258 38.3097 329.258 38.4794C329.258 38.5918 329.23 38.695 329.172 38.7891C329.117 38.8831 329.043 38.9588 328.949 39.0161C328.857 39.0712 328.754 39.0987 328.639 39.0987ZM328.639 35.5347C328.469 35.5347 328.324 35.4739 328.202 35.3523C328.081 35.2308 328.02 35.0852 328.02 34.9154C328.02 34.7457 328.081 34.6001 328.202 34.4785C328.324 34.357 328.469 34.2962 328.639 34.2962C328.809 34.2962 328.954 34.357 329.076 34.4785C329.197 34.6001 329.258 34.7457 329.258 34.9154C329.258 35.0278 329.23 35.131 329.172 35.2251C329.117 35.3191 329.043 35.3948 328.949 35.4521C328.857 35.5071 328.754 35.5347 328.639 35.5347ZM332.999 40.0963C332.481 40.0963 332.04 39.9553 331.675 39.6732C331.31 39.3888 331.032 38.9771 330.839 38.4382C330.646 37.8969 330.55 37.2433 330.55 36.4773C330.55 35.7158 330.646 35.0657 330.839 34.5267C331.034 33.9854 331.314 33.5726 331.678 33.2882C332.045 33.0016 332.486 32.8582 332.999 32.8582C333.513 32.8582 333.952 33.0016 334.317 33.2882C334.684 33.5726 334.964 33.9854 335.156 34.5267C335.351 35.0657 335.449 35.7158 335.449 36.4773C335.449 37.2433 335.352 37.8969 335.16 38.4382C334.967 38.9771 334.689 39.3888 334.324 39.6732C333.959 39.9553 333.518 40.0963 332.999 40.0963ZM332.999 39.3395C333.513 39.3395 333.912 39.0918 334.197 38.5964C334.481 38.101 334.623 37.3946 334.623 36.4773C334.623 35.8672 334.558 35.3478 334.427 34.9189C334.299 34.49 334.113 34.1632 333.87 33.9384C333.629 33.7137 333.339 33.6013 332.999 33.6013C332.49 33.6013 332.092 33.8524 331.806 34.3547C331.519 34.8547 331.376 35.5622 331.376 36.4773C331.376 37.0873 331.44 37.6056 331.568 38.0322C331.697 38.4588 331.881 38.7833 332.122 39.0058C332.365 39.2283 332.658 39.3395 332.999 39.3395ZM338.999 32.8582C339.288 32.8605 339.577 32.9156 339.866 33.0233C340.155 33.1311 340.419 33.31 340.657 33.56C340.896 33.8077 341.087 34.146 341.232 34.5749C341.376 35.0037 341.448 35.5415 341.448 36.1883C341.448 36.8144 341.389 37.3706 341.27 37.8568C341.153 38.3407 340.983 38.7489 340.76 39.0815C340.54 39.414 340.272 39.6663 339.955 39.8383C339.641 40.0103 339.286 40.0963 338.889 40.0963C338.494 40.0963 338.142 40.0183 337.833 39.8624C337.525 39.7041 337.273 39.4851 337.076 39.2053C336.881 38.9232 336.756 38.5964 336.701 38.2249H337.54C337.616 38.5483 337.766 38.8154 337.991 39.0264C338.218 39.2351 338.517 39.3395 338.889 39.3395C339.432 39.3395 339.861 39.1021 340.176 38.6274C340.492 38.1526 340.65 37.4818 340.65 36.6149H340.595C340.467 36.8075 340.314 36.9738 340.138 37.1137C339.961 37.2536 339.765 37.3614 339.549 37.4371C339.334 37.5128 339.105 37.5506 338.861 37.5506C338.458 37.5506 338.087 37.4508 337.75 37.2513C337.415 37.0495 337.147 36.7731 336.945 36.4222C336.746 36.069 336.646 35.6654 336.646 35.2113C336.646 34.7801 336.742 34.3857 336.935 34.0279C337.13 33.6678 337.403 33.3811 337.754 33.1678C338.107 32.9545 338.522 32.8513 338.999 32.8582ZM338.999 33.6151C338.71 33.6151 338.45 33.6873 338.218 33.8318C337.989 33.974 337.806 34.1666 337.671 34.4097C337.538 34.6505 337.472 34.9177 337.472 35.2113C337.472 35.5049 337.536 35.772 337.664 36.0129C337.795 36.2514 337.973 36.4417 338.197 36.5839C338.425 36.7238 338.683 36.7938 338.972 36.7938C339.189 36.7938 339.392 36.7513 339.58 36.6665C339.768 36.5793 339.932 36.4612 340.072 36.3121C340.215 36.1608 340.326 35.9899 340.406 35.7996C340.486 35.6069 340.526 35.4062 340.526 35.1975C340.526 34.9223 340.46 34.6643 340.327 34.4235C340.196 34.1827 340.015 33.9877 339.783 33.8387C339.554 33.6896 339.293 33.6151 338.999 33.6151Z" fill="#5E5F6E"/>
</g>
<path d="M70 29.75V30.792M70 41.208V42.25M73.125 30.587L72.604 31.489M67.396 40.511L66.875 41.413M75.412 32.875L74.51 33.395M65.49 38.605L64.587 39.125M76.25 36H75.208M64.792 36H63.75M75.412 39.125L74.51 38.605M65.49 33.395L64.587 32.875M73.125 41.413L72.605 40.511M67.395 31.489L66.875 30.587" stroke="url(#paint1_radial_2334_4195)" stroke-width="1.25" stroke-linecap="round" stroke-linejoin="round"/>
<path d="M77.6328 57V63.7078C77.6328 64.1181 78.7418 64.5116 80.7159 64.8017L121.712 88.2941C122.37 89.1882 123.685 94.1426 123.685 94.5529V133" stroke="white" stroke-opacity="0.25"/>
<rect x="96" y="122" width="20" height="20" rx="10" fill="#5E5F6E" fill-opacity="0.2"/>
<g filter="url(#filter1_di_2334_4195)">
<rect x="104" y="130" width="4" height="4" rx="2" fill="#5E5F6E"/>
</g>
<path d="M122.142 128.955L124.234 134.885H124.316L126.408 128.955H127.302L124.715 136H123.835L121.248 128.955H122.142ZM133.477 128.955V136H132.624V129.849H132.583L130.863 130.991V130.124L132.624 128.955H133.477ZM135.693 136.055C135.523 136.055 135.378 135.994 135.256 135.873C135.134 135.751 135.074 135.606 135.074 135.436C135.074 135.266 135.134 135.12 135.256 134.999C135.378 134.877 135.523 134.817 135.693 134.817C135.863 134.817 136.008 134.877 136.13 134.999C136.251 135.12 136.312 135.266 136.312 135.436C136.312 135.548 136.283 135.651 136.226 135.745C136.171 135.839 136.097 135.915 136.003 135.972C135.911 136.028 135.808 136.055 135.693 136.055ZM139.807 136.096C139.289 136.096 138.848 135.955 138.483 135.673C138.118 135.389 137.84 134.977 137.647 134.438C137.454 133.897 137.358 133.243 137.358 132.477C137.358 131.716 137.454 131.066 137.647 130.527C137.842 129.985 138.122 129.573 138.486 129.288C138.853 129.002 139.294 128.858 139.807 128.858C140.321 128.858 140.76 129.002 141.125 129.288C141.492 129.573 141.772 129.985 141.964 130.527C142.159 131.066 142.257 131.716 142.257 132.477C142.257 133.243 142.16 133.897 141.968 134.438C141.775 134.977 141.496 135.389 141.132 135.673C140.767 135.955 140.326 136.096 139.807 136.096ZM139.807 135.339C140.321 135.339 140.72 135.092 141.005 134.596C141.289 134.101 141.431 133.395 141.431 132.477C141.431 131.867 141.366 131.348 141.235 130.919C141.107 130.49 140.921 130.163 140.678 129.938C140.437 129.714 140.147 129.601 139.807 129.601C139.298 129.601 138.9 129.852 138.614 130.355C138.327 130.855 138.184 131.562 138.184 132.477C138.184 133.087 138.248 133.606 138.376 134.032C138.505 134.459 138.689 134.783 138.93 135.006C139.173 135.228 139.466 135.339 139.807 135.339Z" fill="#747686"/>
</g>
<defs>
<filter id="filter0_d_2334_4195" x="46" y="11" width="312" height="50" filterUnits="userSpaceOnUse" color-interpolation-filters="sRGB">
<feFlood flood-opacity="0" result="BackgroundImageFix"/>
<feColorMatrix in="SourceAlpha" type="matrix" values="0 0 0 0 0 0 0 0 0 0 0 0 0 0 0 0 0 0 127 0" result="hardAlpha"/>
<feMorphology radius="4" operator="dilate" in="SourceAlpha" result="effect1_dropShadow_2334_4195"/>
<feOffset/>
<feComposite in2="hardAlpha" operator="out"/>
<feColorMatrix type="matrix" values="0 0 0 0 0.0745098 0 0 0 0 0.0745098 0 0 0 0 0.0862745 0 0 0 0.5 0"/>
<feBlend mode="normal" in2="BackgroundImageFix" result="effect1_dropShadow_2334_4195"/>
<feBlend mode="normal" in="SourceGraphic" in2="effect1_dropShadow_2334_4195" result="shape"/>
</filter>
<filter id="filter1_di_2334_4195" x="102" y="129" width="8" height="8" filterUnits="userSpaceOnUse" color-interpolation-filters="sRGB">
<feFlood flood-opacity="0" result="BackgroundImageFix"/>
<feColorMatrix in="SourceAlpha" type="matrix" values="0 0 0 0 0 0 0 0 0 0 0 0 0 0 0 0 0 0 127 0" result="hardAlpha"/>
<feOffset dy="1"/>
<feGaussianBlur stdDeviation="1"/>
<feComposite in2="hardAlpha" operator="out"/>
<feColorMatrix type="matrix" values="0 0 0 0 0 0 0 0 0 0 0 0 0 0 0 0 0 0 0.25 0"/>
<feBlend mode="normal" in2="BackgroundImageFix" result="effect1_dropShadow_2334_4195"/>
<feBlend mode="normal" in="SourceGraphic" in2="effect1_dropShadow_2334_4195" result="shape"/>
<feColorMatrix in="SourceAlpha" type="matrix" values="0 0 0 0 0 0 0 0 0 0 0 0 0 0 0 0 0 0 127 0" result="hardAlpha"/>
<feOffset dy="1"/>
<feComposite in2="hardAlpha" operator="arithmetic" k2="-1" k3="1"/>
<feColorMatrix type="matrix" values="0 0 0 0 1 0 0 0 0 1 0 0 0 0 1 0 0 0 0.1 0"/>
<feBlend mode="normal" in2="shape" result="effect2_innerShadow_2334_4195"/>
</filter>
<linearGradient id="paint0_linear_2334_4195" x1="196.306" y1="-5.21334" x2="207.694" y2="77.2133" gradientUnits="userSpaceOnUse">
<stop stop-color="white" stop-opacity="0.05"/>
<stop offset="0.65" stop-color="white" stop-opacity="0"/>
</linearGradient>
<radialGradient id="paint1_radial_2334_4195" cx="0" cy="0" r="1" gradientUnits="userSpaceOnUse" gradientTransform="translate(72.4999 30.9993) rotate(102.529) scale(11.5244)">
<stop stop-color="white"/>
<stop offset="1" stop-color="white" stop-opacity="0.2"/>
</radialGradient>
<clipPath id="clip0_2334_4195">
<rect width="400" height="151" fill="white"/>
</clipPath>
</defs>
</svg>
