<svg width="13" height="12" viewBox="0 0 13 12" fill="none" xmlns="http://www.w3.org/2000/svg">
<path d="M6.5 0.148499C3.185 0.148499 0.5 2.835 0.5 6.1485C0.5 8.8 2.219 11.0485 4.6025 11.841C4.9025 11.8975 5.0125 11.712 5.0125 11.5525C5.0125 11.41 5.0075 11.0325 5.005 10.5325C3.336 10.8945 2.984 9.7275 2.984 9.7275C2.711 9.035 2.3165 8.85 2.3165 8.85C1.773 8.478 2.3585 8.4855 2.3585 8.4855C2.961 8.5275 3.2775 9.1035 3.2775 9.1035C3.8125 10.021 4.682 9.756 5.025 9.6025C5.079 9.2145 5.2335 8.95 5.405 8.8C4.0725 8.65 2.672 8.134 2.672 5.835C2.672 5.18 2.9045 4.645 3.2895 4.225C3.222 4.0735 3.0195 3.4635 3.342 2.637C3.342 2.637 3.8445 2.476 4.992 3.252C5.472 3.1185 5.982 3.0525 6.492 3.0495C7.002 3.0525 7.512 3.1185 7.992 3.252C9.132 2.476 9.6345 2.637 9.6345 2.637C9.957 3.4635 9.7545 4.0735 9.6945 4.225C10.077 4.645 10.3095 5.18 10.3095 5.835C10.3095 8.14 8.907 8.6475 7.572 8.795C7.782 8.975 7.977 9.343 7.977 9.905C7.977 10.708 7.9695 11.353 7.9695 11.548C7.9695 11.7055 8.0745 11.893 8.382 11.833C10.7825 11.046 12.5 8.796 12.5 6.1485C12.5 2.835 9.8135 0.148499 6.5 0.148499Z" fill="white"/>
</svg>
