<svg width="1178" height="748" viewBox="0 0 1178 748" fill="none" xmlns="http://www.w3.org/2000/svg">
<path d="M347.671 124.684H276.741V188.521H347.671V124.684Z" fill="url(#paint0_linear_213_20)" fill-opacity="0.02"/>
<path d="M278.514 498.131H207.584V561.969H278.514V498.131Z" fill="url(#paint1_linear_213_20)" fill-opacity="0.02"/>
<path d="M970.083 186.926H899.153V250.763H970.083V186.926Z" fill="url(#paint2_linear_213_20)" fill-opacity="0.02"/>
<path d="M70.1569 1H1V63.2412M70.1569 1V63.2412M70.1569 1H139.314M70.1569 63.2412H1M70.1569 63.2412H139.314M70.1569 63.2412V125.482M1 63.2412V125.482M139.314 1V63.2412M139.314 1H208.471M139.314 63.2412H208.471M139.314 63.2412V125.482M208.471 1V63.2412M208.471 1H277.627M208.471 63.2412H277.627M208.471 63.2412V125.482M277.627 1V63.2412M277.627 1H346.784M277.627 63.2412H346.784M277.627 63.2412V125.482M346.784 1V63.2412M346.784 1H415.941M346.784 63.2412H415.941M346.784 63.2412V125.482M415.941 1V63.2412M415.941 1H485.098M415.941 63.2412H485.098M415.941 63.2412V125.482M485.098 1V63.2412M485.098 1H554.255M485.098 63.2412H554.255M485.098 63.2412V125.482M554.255 1V63.2412M554.255 1H623.412M554.255 63.2412H623.412M554.255 63.2412V125.482M623.412 1V63.2412M623.412 1H692.569M623.412 63.2412H692.569M623.412 63.2412V125.482M692.569 1V63.2412M692.569 1H761.726M692.569 63.2412H761.726M692.569 63.2412V125.482M761.726 1V63.2412M761.726 1H830.882M761.726 63.2412H830.882M761.726 63.2412V125.482M830.882 1V63.2412M830.882 1H900.039M830.882 63.2412H900.039M830.882 63.2412V125.482M900.039 1V63.2412M900.039 1H969.196M900.039 63.2412H969.196M900.039 63.2412V125.482M969.196 1V63.2412M969.196 1H1038.35M969.196 63.2412H1038.35M969.196 63.2412V125.482M1038.35 1V63.2412M1038.35 1H1107.51M1038.35 63.2412H1107.51M1038.35 63.2412V125.482M1107.51 1V63.2412M1107.51 1H1176.67V63.2412M1107.51 63.2412H1176.67M1107.51 63.2412V125.482M1176.67 63.2412V125.482M70.1569 125.482H1M70.1569 125.482H139.314M70.1569 125.482V187.724M1 125.482V187.724M139.314 125.482H208.471M139.314 125.482V187.724M208.471 125.482H277.627M208.471 125.482V187.724M277.627 125.482H346.784M277.627 125.482V187.724M346.784 125.482H415.941M346.784 125.482V187.724M415.941 125.482H485.098M415.941 125.482V187.724M485.098 125.482H554.255M485.098 125.482V187.724M554.255 125.482H623.412M554.255 125.482V187.724M623.412 125.482H692.569M623.412 125.482V187.724M692.569 125.482H761.726M692.569 125.482V187.724M761.726 125.482H830.882M761.726 125.482V187.724M830.882 125.482H900.039M830.882 125.482V187.724M900.039 125.482H969.196M900.039 125.482V187.724M969.196 125.482H1038.35M969.196 125.482V187.724M1038.35 125.482H1107.51M1038.35 125.482V187.724M1107.51 125.482H1176.67M1107.51 125.482V187.724M1176.67 125.482V187.724M70.1569 187.724H1M70.1569 187.724H139.314M70.1569 187.724V249.965M1 187.724V249.965M139.314 187.724H208.471M139.314 187.724V249.965M208.471 187.724H277.627M208.471 187.724V249.965M277.627 187.724H346.784M277.627 187.724V249.965M346.784 187.724H415.941M346.784 187.724V249.965M415.941 187.724H485.098M415.941 187.724V249.965M485.098 187.724H554.255M485.098 187.724V249.965M554.255 187.724H623.412M554.255 187.724V249.965M623.412 187.724H692.569M623.412 187.724V249.965M692.569 187.724H761.726M692.569 187.724V249.965M761.726 187.724H830.882M761.726 187.724V249.965M830.882 187.724H900.039M830.882 187.724V249.965M900.039 187.724H969.196M900.039 187.724V249.965M969.196 187.724H1038.35M969.196 187.724V249.965M1038.35 187.724H1107.51M1038.35 187.724V249.965M1107.51 187.724H1176.67M1107.51 187.724V249.965M1176.67 187.724V249.965M70.1569 249.965H1M70.1569 249.965H139.314M70.1569 249.965V312.206M1 249.965V312.206M139.314 249.965H208.471M139.314 249.965V312.206M208.471 249.965H277.627M208.471 249.965V312.206M277.627 249.965H346.784M277.627 249.965V312.206M346.784 249.965H415.941M346.784 249.965V312.206M415.941 249.965H485.098M415.941 249.965V312.206M485.098 249.965H554.255M485.098 249.965V312.206M554.255 249.965H623.412M554.255 249.965V312.206M623.412 249.965H692.569M623.412 249.965V312.206M692.569 249.965H761.726M692.569 249.965V312.206M761.726 249.965H830.882M761.726 249.965V312.206M830.882 249.965H900.039M830.882 249.965V312.206M900.039 249.965H969.196M900.039 249.965V312.206M969.196 249.965H1038.35M969.196 249.965V312.206M1038.35 249.965H1107.51M1038.35 249.965V312.206M1107.51 249.965H1176.67M1107.51 249.965V312.206M1176.67 249.965V312.206M70.1569 312.206H1M70.1569 312.206H139.314M70.1569 312.206V374.447M1 312.206V374.447M139.314 312.206H208.471M139.314 312.206V374.447M208.471 312.206H277.627M208.471 312.206V374.447M277.627 312.206H346.784M277.627 312.206V374.447M346.784 312.206H415.941M346.784 312.206V374.447M415.941 312.206H485.098M415.941 312.206V374.447M485.098 312.206H554.255M485.098 312.206V374.447M554.255 312.206H623.412M554.255 312.206V374.447M623.412 312.206H692.569M623.412 312.206V374.447M692.569 312.206H761.726M692.569 312.206V374.447M761.726 312.206H830.882M761.726 312.206V374.447M830.882 312.206H900.039M830.882 312.206V374.447M900.039 312.206H969.196M900.039 312.206V374.447M969.196 312.206H1038.35M969.196 312.206V374.447M1038.35 312.206H1107.51M1038.35 312.206V374.447M1107.51 312.206H1176.67M1107.51 312.206V374.447M1176.67 312.206V374.447M70.1569 374.447H1M70.1569 374.447H139.314M70.1569 374.447V436.688M1 374.447V436.688M139.314 374.447H208.471M139.314 374.447V436.688M208.471 374.447H277.627M208.471 374.447V436.688M277.627 374.447H346.784M277.627 374.447V436.688M346.784 374.447H415.941M346.784 374.447V436.688M415.941 374.447H485.098M415.941 374.447V436.688M485.098 374.447H554.255M485.098 374.447V436.688M554.255 374.447H623.412M554.255 374.447V436.688M623.412 374.447H692.569M623.412 374.447V436.688M692.569 374.447H761.726M692.569 374.447V436.688M761.726 374.447H830.882M761.726 374.447V436.688M830.882 374.447H900.039M830.882 374.447V436.688M900.039 374.447H969.196M900.039 374.447V436.688M969.196 374.447H1038.35M969.196 374.447V436.688M1038.35 374.447H1107.51M1038.35 374.447V436.688M1107.51 374.447H1176.67M1107.51 374.447V436.688M1176.67 374.447V436.688M70.1569 436.688H1M70.1569 436.688H139.314M70.1569 436.688V498.929M1 436.688V498.929M139.314 436.688H208.471M139.314 436.688V498.929M208.471 436.688H277.627M208.471 436.688V498.929M277.627 436.688H346.784M277.627 436.688V498.929M346.784 436.688H415.941M346.784 436.688V498.929M415.941 436.688H485.098M415.941 436.688V498.929M485.098 436.688H554.255M485.098 436.688V498.929M554.255 436.688H623.412M554.255 436.688V498.929M623.412 436.688H692.569M623.412 436.688V498.929M692.569 436.688H761.726M692.569 436.688V498.929M761.726 436.688H830.882M761.726 436.688V498.929M830.882 436.688H900.039M830.882 436.688V498.929M900.039 436.688H969.196M900.039 436.688V498.929M969.196 436.688H1038.35M969.196 436.688V498.929M1038.35 436.688H1107.51M1038.35 436.688V498.929M1107.51 436.688H1176.67M1107.51 436.688V498.929M1176.67 436.688V498.929M70.1569 498.929H1M70.1569 498.929H139.314M70.1569 498.929V561.171M1 498.929V561.171M139.314 498.929H208.471M139.314 498.929V561.171M208.471 498.929H277.627M208.471 498.929V561.171M277.627 498.929H346.784M277.627 498.929V561.171M346.784 498.929H415.941M346.784 498.929V561.171M415.941 498.929H485.098M415.941 498.929V561.171M485.098 498.929H554.255M485.098 498.929V561.171M554.255 498.929H623.412M554.255 498.929V561.171M623.412 498.929H692.569M623.412 498.929V561.171M692.569 498.929H761.726M692.569 498.929V561.171M761.726 498.929H830.882M761.726 498.929V561.171M830.882 498.929H900.039M830.882 498.929V561.171M900.039 498.929H969.196M900.039 498.929V561.171M969.196 498.929H1038.35M969.196 498.929V561.171M1038.35 498.929H1107.51M1038.35 498.929V561.171M1107.51 498.929H1176.67M1107.51 498.929V561.171M1176.67 498.929V561.171M70.1569 561.171H1M70.1569 561.171H139.314M70.1569 561.171V623.412M1 561.171V623.412M139.314 561.171H208.471M139.314 561.171V623.412M208.471 561.171H277.627M208.471 561.171V623.412M277.627 561.171H346.784M277.627 561.171V623.412M346.784 561.171H415.941M346.784 561.171V623.412M415.941 561.171H485.098M415.941 561.171V623.412M485.098 561.171H554.255M485.098 561.171V623.412M554.255 561.171H623.412M554.255 561.171V623.412M623.412 561.171H692.569M623.412 561.171V623.412M692.569 561.171H761.726M692.569 561.171V623.412M761.726 561.171H830.882M761.726 561.171V623.412M830.882 561.171H900.039M830.882 561.171V623.412M900.039 561.171H969.196M900.039 561.171V623.412M969.196 561.171H1038.35M969.196 561.171V623.412M1038.35 561.171H1107.51M1038.35 561.171V623.412M1107.51 561.171H1176.67M1107.51 561.171V623.412M1176.67 561.171V623.412M70.1569 623.412H1M70.1569 623.412H139.314M70.1569 623.412V685.653M1 623.412V685.653M139.314 623.412H208.471M139.314 623.412V685.653M208.471 623.412H277.627M208.471 623.412V685.653M277.627 623.412H346.784M277.627 623.412V685.653M346.784 623.412H415.941M346.784 623.412V685.653M415.941 623.412H485.098M415.941 623.412V685.653M485.098 623.412H554.255M485.098 623.412V685.653M554.255 623.412H623.412M554.255 623.412V685.653M623.412 623.412H692.569M623.412 623.412V685.653M692.569 623.412H761.726M692.569 623.412V685.653M761.726 623.412H830.882M761.726 623.412V685.653M830.882 623.412H900.039M830.882 623.412V685.653M900.039 623.412H969.196M900.039 623.412V685.653M969.196 623.412H1038.35M969.196 623.412V685.653M1038.35 623.412H1107.51M1038.35 623.412V685.653M1107.51 623.412H1176.67M1107.51 623.412V685.653M1176.67 623.412V685.653M70.1569 685.653H1M70.1569 685.653H139.314M70.1569 685.653V747.894M1 685.653V747.894H70.1569M139.314 685.653H208.471M139.314 685.653V747.894M208.471 685.653H277.627M208.471 685.653V747.894M277.627 685.653H346.784M277.627 685.653V747.894M346.784 685.653H415.941M346.784 685.653V747.894M415.941 685.653H485.098M415.941 685.653V747.894M485.098 685.653H554.255M485.098 685.653V747.894M554.255 685.653H623.412M554.255 685.653V747.894M623.412 685.653H692.569M623.412 685.653V747.894M692.569 685.653H761.726M692.569 685.653V747.894M761.726 685.653H830.882M761.726 685.653V747.894M830.882 685.653H900.039M830.882 685.653V747.894M900.039 685.653H969.196M900.039 685.653V747.894M969.196 685.653H1038.35M969.196 685.653V747.894M1038.35 685.653H1107.51M1038.35 685.653V747.894M1107.51 685.653H1176.67M1107.51 685.653V747.894M1176.67 685.653V747.894H1107.51M70.1569 747.894H139.314M139.314 747.894H208.471M208.471 747.894H277.627M277.627 747.894H346.784M346.784 747.894H415.941M415.941 747.894H485.098M485.098 747.894H554.255M554.255 747.894H623.412M623.412 747.894H692.569M692.569 747.894H761.726M761.726 747.894H830.882M830.882 747.894H900.039M900.039 747.894H969.196M969.196 747.894H1038.35M1038.35 747.894H1107.51" stroke="url(#paint3_radial_213_20)" stroke-opacity="0.08"/>
<defs>
<linearGradient id="paint0_linear_213_20" x1="312.206" y1="124.684" x2="312.206" y2="188.521" gradientUnits="userSpaceOnUse">
<stop stop-color="white" stop-opacity="0"/>
<stop offset="1" stop-color="white"/>
</linearGradient>
<linearGradient id="paint1_linear_213_20" x1="243.049" y1="498.131" x2="243.049" y2="561.969" gradientUnits="userSpaceOnUse">
<stop stop-color="white" stop-opacity="0"/>
<stop offset="1" stop-color="white"/>
</linearGradient>
<linearGradient id="paint2_linear_213_20" x1="934.618" y1="186.926" x2="934.618" y2="250.763" gradientUnits="userSpaceOnUse">
<stop stop-color="white" stop-opacity="0"/>
<stop offset="1" stop-color="white"/>
</linearGradient>
<radialGradient id="paint3_radial_213_20" cx="0" cy="0" r="1" gradientUnits="userSpaceOnUse" gradientTransform="translate(588.833 394.396) rotate(90) scale(352.7 588.72)">
<stop stop-color="white"/>
<stop offset="1" stop-color="white" stop-opacity="0"/>
</radialGradient>
</defs>
</svg>
