<svg width="61" height="60" viewBox="0 0 61 60" fill="none" xmlns="http://www.w3.org/2000/svg">
<path fill-rule="evenodd" clip-rule="evenodd" d="M23.6117 0C21.9931 0 20.6601 1.33262 20.6601 2.95075V15.4496C20.6601 15.7767 20.4985 16.0806 20.2279 16.2641C19.957 16.4476 19.6153 16.4849 19.3113 16.3638L9.34977 12.2376C8.97601 12.0826 8.58597 12.0127 8.20255 12.0167C7.05263 12.0286 5.95768 12.7149 5.49297 13.8359L0.222312 26.5573C-0.396986 28.052 0.322894 29.7965 1.81931 30.4131L13.901 35.3924C14.1782 35.5071 14.3864 35.7402 14.4698 36.0284C14.5533 36.3164 14.5006 36.6229 14.3275 36.8678L6.41845 46.8746C5.43329 48.1581 5.67837 50.0278 6.9622 51.0126L17.8904 59.3963C19.1742 60.3812 21.0446 60.1344 22.0296 58.8505L29.72 49.1183C29.9065 48.8751 30.1934 48.7341 30.5001 48.7341C30.8065 48.7341 31.0934 48.8751 31.28 49.1183L38.9704 58.8505C39.9556 60.134 41.8254 60.3812 43.1095 59.3963L54.0377 51.0126C55.3216 50.0277 55.5668 48.1585 54.5814 46.8746L46.6725 36.8678C46.4993 36.6233 46.4471 36.3164 46.5301 36.0284C46.6136 35.7402 46.8218 35.5071 47.0989 35.3924L59.1806 30.4131C60.6772 29.7965 61.397 28.0526 60.7777 26.5573L55.5065 13.8359C55.0418 12.7149 53.9469 12.0286 52.7969 12.0167C52.4135 12.0128 52.0236 12.083 51.6498 12.2376L41.6882 16.3638C41.3843 16.4851 41.0424 16.4476 40.7715 16.2641C40.4996 16.0806 40.338 15.7767 40.338 15.4496V2.95075C40.338 1.33262 39.0051 0 37.3865 0H23.6117Z" fill="#D6D6D6"/>
</svg>
