<svg width="1688" height="514" viewBox="0 0 1688 514" fill="none" xmlns="http://www.w3.org/2000/svg">
<path d="M193.729 400.704C193.998 400.165 193.421 399.644 192.823 399.887C192.694 399.94 192.595 400.03 192.535 400.147C192.256 400.686 192.843 401.207 193.44 400.964C193.57 400.91 193.669 400.821 193.729 400.704Z" fill="white" fill-opacity="0.1"/>
<path d="M672.652 431.904C672.921 431.365 672.343 430.844 671.744 431.087C671.614 431.14 671.514 431.23 671.455 431.347C671.185 431.886 671.764 432.407 672.363 432.164C672.492 432.11 672.592 432.021 672.652 431.904Z" fill="white" fill-opacity="0.1"/>
<path d="M569.265 380.478C569.534 379.94 568.957 379.419 568.36 379.661C568.23 379.715 568.131 379.805 568.071 379.922C567.793 380.46 568.38 380.981 568.977 380.739C569.106 380.685 569.206 380.595 569.265 380.478Z" fill="white" fill-opacity="0.1"/>
<path d="M428.843 133.391C429.122 132.852 428.535 132.331 427.938 132.574C427.808 132.628 427.709 132.717 427.649 132.834C427.381 133.373 427.958 133.894 428.555 133.651C428.684 133.597 428.784 133.508 428.843 133.391Z" fill="white" fill-opacity="0.1"/>
<path d="M515.442 119.56C515.721 119.022 515.134 118.494 514.537 118.744C514.407 118.798 514.308 118.888 514.248 119.004C513.979 119.542 514.557 120.061 515.154 119.819C515.283 119.766 515.383 119.676 515.442 119.56Z" fill="white" fill-opacity="0.1"/>
<path d="M1525.27 8.47839C1525.53 7.93955 1524.96 7.41868 1524.36 7.66115C1524.23 7.71504 1524.13 7.80484 1524.07 7.92159C1523.8 8.46042 1524.38 8.9813 1524.98 8.73882C1525.11 8.68494 1525.21 8.59513 1525.27 8.47839Z" fill="white" fill-opacity="0.8"/>
<path d="M1078.6 453.678C1078.87 453.14 1078.29 452.619 1077.69 452.861C1077.56 452.915 1077.46 453.005 1077.4 453.122C1077.13 453.66 1077.71 454.181 1078.31 453.939C1078.44 453.885 1078.54 453.795 1078.6 453.678Z" fill="white" fill-opacity="0.8"/>
<path d="M1197.23 484.426C1197.5 483.887 1196.92 483.366 1196.32 483.609C1196.19 483.663 1196.09 483.753 1196.03 483.869C1195.76 484.408 1196.34 484.929 1196.94 484.687C1197.07 484.633 1197.17 484.543 1197.23 484.426Z" fill="white" fill-opacity="0.1"/>
<path d="M1442.2 361.75C1442.47 361.211 1441.89 360.69 1441.29 360.933C1441.16 360.987 1441.06 361.077 1441 361.193C1440.73 361.732 1441.31 362.253 1441.91 362.011C1442.04 361.957 1442.14 361.867 1442.2 361.75Z" fill="white" fill-opacity="0.1"/>
<path d="M1498.77 166.72C1499.05 166.181 1498.46 165.66 1497.86 165.902C1497.73 165.956 1497.63 166.046 1497.57 166.163C1497.31 166.702 1497.88 167.223 1498.48 166.98C1498.61 166.926 1498.71 166.836 1498.77 166.72Z" fill="white" fill-opacity="0.1"/>
<path d="M1440.98 19.5549C1441.25 19.0161 1440.67 18.4952 1440.08 18.7377C1439.95 18.7916 1439.85 18.8814 1439.79 18.9982C1439.51 19.537 1440.1 20.0579 1440.69 19.8154C1440.82 19.7615 1440.92 19.6717 1440.98 19.5549Z" fill="white" fill-opacity="0.1"/>
<path d="M1541.27 55.2784C1541.53 54.7396 1540.96 54.2187 1540.36 54.4612C1540.23 54.515 1540.13 54.6048 1540.07 54.7216C1539.8 55.2604 1540.38 55.7813 1540.98 55.5388C1541.11 55.4849 1541.21 55.3951 1541.27 55.2784Z" fill="white" fill-opacity="0.1"/>
<path d="M1431.93 84.0784C1432.21 83.5396 1431.62 83.0187 1431.02 83.2612C1430.89 83.315 1430.79 83.4049 1430.73 83.5216C1430.47 84.0604 1431.04 84.5813 1431.64 84.3388C1431.77 84.2849 1431.87 84.1951 1431.93 84.0784Z" fill="white" fill-opacity="0.1"/>
<path d="M1434.6 212.478C1434.87 211.94 1434.29 211.419 1433.69 211.661C1433.56 211.715 1433.46 211.805 1433.4 211.922C1433.13 212.46 1433.71 212.981 1434.31 212.739C1434.44 212.685 1434.54 212.595 1434.6 212.478Z" fill="white" fill-opacity="0.1"/>
<path d="M1645.27 232.878C1645.53 232.34 1644.96 231.819 1644.36 232.061C1644.23 232.115 1644.13 232.205 1644.07 232.322C1643.79 232.86 1644.38 233.381 1644.98 233.139C1645.11 233.085 1645.21 232.995 1645.27 232.878Z" fill="white" fill-opacity="0.1"/>
<path d="M526.599 243.678C526.868 243.14 526.29 242.619 525.693 242.861C525.564 242.915 525.464 243.005 525.405 243.122C525.126 243.66 525.713 244.181 526.31 243.939C526.44 243.885 526.539 243.795 526.599 243.678Z" fill="white" fill-opacity="0.1"/>
<path d="M863.932 422.478C864.201 421.94 863.623 421.419 863.024 421.661C862.894 421.715 862.795 421.805 862.735 421.922C862.465 422.46 863.044 422.981 863.643 422.739C863.772 422.685 863.872 422.595 863.932 422.478Z" fill="white" fill-opacity="0.1"/>
<path d="M683.1 375.728C683.378 375.189 682.791 374.668 682.194 374.911C682.065 374.965 681.965 375.055 681.906 375.171C681.637 375.71 682.214 376.231 682.811 375.989C682.941 375.935 683.04 375.845 683.1 375.728Z" fill="white" fill-opacity="0.1"/>
<path d="M343.734 447.411C344.002 446.872 343.425 446.352 342.828 446.594C342.699 446.648 342.599 446.738 342.539 446.854C342.261 447.393 342.848 447.914 343.445 447.672C343.574 447.618 343.674 447.528 343.734 447.411Z" fill="white" fill-opacity="0.1"/>
<path d="M1146.6 10.8784C1146.87 10.3396 1146.29 9.81869 1145.69 10.0612C1145.56 10.115 1145.46 10.2048 1145.4 10.3216C1145.13 10.8604 1145.71 11.3813 1146.31 11.1388C1146.44 11.0849 1146.54 10.9951 1146.6 10.8784Z" fill="white" fill-opacity="0.8"/>
<path d="M529.265 487.278C529.534 486.74 528.957 486.219 528.36 486.461C528.23 486.515 528.131 486.605 528.071 486.722C527.793 487.26 528.38 487.781 528.977 487.539C529.106 487.485 529.206 487.395 529.265 487.278Z" fill="white" fill-opacity="0.8"/>
<path d="M353.262 66.0784C353.541 65.5396 352.954 65.0187 352.356 65.2612C352.227 65.315 352.128 65.4048 352.068 65.5216C351.799 66.0604 352.376 66.5813 352.973 66.3388C353.103 66.2849 353.202 66.1951 353.262 66.0784Z" fill="white" fill-opacity="0.1"/>
<path d="M517.265 21.6784C517.534 21.1396 516.957 20.6187 516.36 20.8612C516.23 20.915 516.131 21.0048 516.071 21.1216C515.793 21.6604 516.38 22.1813 516.977 21.9388C517.106 21.885 517.206 21.7952 517.265 21.6784Z" fill="white" fill-opacity="0.8"/>
<path d="M131.932 334.878C132.201 334.34 131.623 333.819 131.024 334.061C130.894 334.115 130.794 334.205 130.735 334.322C130.465 334.86 131.044 335.381 131.643 335.139C131.772 335.085 131.872 334.995 131.932 334.878Z" fill="white" fill-opacity="0.8"/>
<path d="M211.424 311.054C211.703 310.515 211.116 309.994 210.519 310.237C210.389 310.291 210.29 310.381 210.23 310.497C209.961 311.036 210.538 311.557 211.136 311.315C211.265 311.261 211.364 311.171 211.424 311.054Z" fill="white" fill-opacity="0.1"/>
<path d="M222.599 171.678C222.868 171.14 222.289 170.619 221.691 170.861C221.561 170.915 221.461 171.005 221.401 171.122C221.132 171.66 221.711 172.181 222.309 171.939C222.439 171.885 222.539 171.795 222.599 171.678Z" fill="white" fill-opacity="0.1"/>
<path d="M213.266 235.278C213.534 234.74 212.957 234.219 212.36 234.461C212.231 234.515 212.131 234.605 212.071 234.722C211.793 235.26 212.38 235.781 212.977 235.539C213.106 235.485 213.206 235.395 213.266 235.278Z" fill="white" fill-opacity="0.1"/>
<path d="M333.131 492.292C333.4 491.753 332.823 491.232 332.226 491.474C332.096 491.528 331.997 491.618 331.937 491.735C331.659 492.274 332.246 492.795 332.843 492.552C332.972 492.498 333.072 492.408 333.131 492.292Z" fill="white" fill-opacity="0.8"/>
<path d="M514.985 312.954C515.254 312.416 514.675 311.895 514.077 312.137C513.947 312.191 513.847 312.281 513.787 312.398C513.518 312.936 514.097 313.457 514.695 313.215C514.825 313.161 514.925 313.071 514.985 312.954Z" fill="white" fill-opacity="0.1"/>
<path d="M470.173 264.831C470.443 264.292 469.864 263.772 469.265 264.014C469.136 264.068 469.036 264.158 468.976 264.275C468.707 264.813 469.285 265.334 469.884 265.092C470.014 265.038 470.114 264.948 470.173 264.831Z" fill="white" fill-opacity="0.8"/>
<path d="M292.357 176.739C292.956 176.981 293.535 176.461 293.265 175.924C293.206 175.808 293.106 175.718 292.976 175.664C292.377 175.413 291.799 175.942 292.068 176.479C292.128 176.596 292.228 176.685 292.357 176.739Z" fill="white" fill-opacity="0.8"/>
<path d="M348.456 357.127C348.724 356.588 348.147 356.067 347.55 356.31C347.421 356.364 347.321 356.453 347.261 356.57C346.983 357.109 347.57 357.63 348.167 357.387C348.296 357.334 348.396 357.244 348.456 357.127Z" fill="white" fill-opacity="0.1"/>
<path d="M769.265 409.278C769.534 408.74 768.957 408.219 768.36 408.461C768.23 408.515 768.131 408.605 768.071 408.722C767.793 409.26 768.38 409.781 768.977 409.539C769.106 409.485 769.206 409.395 769.265 409.278Z" fill="white" fill-opacity="0.1"/>
<path d="M954.599 501.676C954.868 501.139 954.29 500.619 953.693 500.861C953.564 500.915 953.464 501.004 953.405 501.121C953.126 501.658 953.713 502.187 954.31 501.936C954.44 501.882 954.539 501.792 954.599 501.676Z" fill="white" fill-opacity="0.1"/>
<path d="M863.932 464.478C864.201 463.94 863.623 463.419 863.024 463.661C862.894 463.715 862.794 463.805 862.735 463.922C862.465 464.46 863.044 464.981 863.643 464.739C863.772 464.685 863.872 464.595 863.932 464.478Z" fill="white" fill-opacity="0.8"/>
<path d="M1267.21 297.634C1267.47 297.095 1266.9 296.574 1266.3 296.817C1266.17 296.871 1266.07 296.96 1266.01 297.077C1265.73 297.616 1266.32 298.137 1266.92 297.894C1267.05 297.84 1267.15 297.751 1267.21 297.634Z" fill="white" fill-opacity="0.8"/>
<path d="M505.864 106.626C506.133 106.087 505.555 105.566 504.958 105.809C504.829 105.863 504.729 105.952 504.67 106.069C504.391 106.608 504.978 107.129 505.575 106.886C505.705 106.832 505.804 106.743 505.864 106.626Z" fill="white" fill-opacity="0.1"/>
<path d="M1363 129.707C1363.27 129.168 1362.69 128.647 1362.09 128.89C1361.96 128.944 1361.86 129.034 1361.8 129.15C1361.53 129.689 1362.11 130.21 1362.71 129.968C1362.84 129.914 1362.94 129.824 1363 129.707Z" fill="white" fill-opacity="0.1"/>
<path d="M1382.63 30.5999C1382.9 30.0625 1382.32 29.543 1381.72 29.7848C1381.59 29.8386 1381.5 29.9281 1381.44 30.0446C1381.16 30.582 1381.74 31.1104 1382.34 30.8596C1382.47 30.8059 1382.57 30.7163 1382.63 30.5999Z" fill="white" fill-opacity="0.1"/>
<path d="M1290.73 249.064C1291 248.525 1290.42 248.004 1289.82 248.247C1289.7 248.3 1289.6 248.39 1289.54 248.507C1289.26 249.046 1289.84 249.567 1290.44 249.324C1290.57 249.27 1290.67 249.18 1290.73 249.064Z" fill="white" fill-opacity="0.1"/>
<path d="M129.266 10.876C129.534 10.3387 128.957 9.81917 128.36 10.061C128.231 10.1147 128.131 10.2043 128.071 10.3207C127.793 10.8581 128.38 11.3866 128.977 11.1358C129.106 11.0821 129.206 10.9925 129.266 10.876Z" fill="white" fill-opacity="0.1"/>
<path d="M1547.64 94.0642C1547.04 93.8134 1546.47 94.3418 1546.73 94.8792C1546.79 94.9957 1546.89 95.0853 1547.02 95.139C1547.62 95.3808 1548.2 94.8613 1547.93 94.3239C1547.87 94.2075 1547.77 94.1179 1547.64 94.0642Z" fill="white" fill-opacity="0.1"/>
<path d="M875.929 24.0784C876.207 23.5396 875.62 23.0187 875.023 23.2612C874.894 23.315 874.794 23.4048 874.734 23.5216C874.466 24.0604 875.043 24.5813 875.64 24.3388C875.769 24.2849 875.869 24.1951 875.929 24.0784Z" fill="white" fill-opacity="0.1"/>
<path d="M672.797 337.821C673.066 337.282 672.487 336.761 671.889 337.004C671.759 337.058 671.659 337.147 671.599 337.264C671.33 337.803 671.908 338.324 672.507 338.081C672.637 338.028 672.737 337.938 672.797 337.821Z" fill="white" fill-opacity="0.1"/>
<path d="M753.37 38.8757C753.638 38.3383 753.061 37.8188 752.464 38.0606C752.335 38.1143 752.235 38.2039 752.176 38.3203C751.897 38.8577 752.484 39.3862 753.081 39.1354C753.21 39.0817 753.31 38.9921 753.37 38.8757Z" fill="white" fill-opacity="0.1"/>
<path d="M1326.6 375.678C1326.87 375.14 1326.29 374.619 1325.69 374.861C1325.56 374.915 1325.46 375.005 1325.4 375.122C1325.13 375.66 1325.71 376.181 1326.31 375.939C1326.44 375.885 1326.54 375.795 1326.6 375.678Z" fill="white" fill-opacity="0.8"/>
<path d="M192.144 56.6595C192.423 56.1206 191.836 55.5997 191.238 55.8422C191.109 55.8961 191.01 55.9859 190.95 56.1026C190.681 56.6415 191.258 57.1624 191.856 56.9199C191.985 56.866 192.084 56.7762 192.144 56.6595Z" fill="white" fill-opacity="0.8"/>
<path d="M1.26541 69.6784C1.53483 69.1396 0.956073 68.6187 0.357361 68.8612C0.22764 68.915 0.127877 69.0049 0.0680059 69.1216C-0.201415 69.6604 0.377313 70.1813 0.976025 69.9388C1.10575 69.8849 1.20554 69.7951 1.26541 69.6784Z" fill="white" fill-opacity="0.1"/>
<path d="M197.746 114.275C198.015 113.736 197.437 113.215 196.838 113.457C196.708 113.511 196.608 113.601 196.548 113.718C196.279 114.257 196.858 114.778 197.457 114.535C197.586 114.481 197.686 114.391 197.746 114.275Z" fill="white" fill-opacity="0.1"/>
<path d="M600.787 39.6784C601.056 39.1396 600.477 38.6187 599.879 38.8612C599.749 38.915 599.649 39.0049 599.589 39.1216C599.32 39.6604 599.899 40.1813 600.497 39.9388C600.627 39.8849 600.727 39.7951 600.787 39.6784Z" fill="white" fill-opacity="0.1"/>
<path d="M633.787 513.157C634.066 512.619 633.479 512.098 632.882 512.34C632.752 512.394 632.653 512.484 632.593 512.601C632.324 513.14 632.902 513.66 633.499 513.418C633.628 513.364 633.728 513.274 633.787 513.157Z" fill="white" fill-opacity="0.1"/>
<path d="M1487.93 496.878C1488.2 496.34 1487.62 495.819 1487.02 496.061C1486.89 496.115 1486.79 496.205 1486.73 496.322C1486.47 496.86 1487.04 497.381 1487.64 497.139C1487.77 497.085 1487.87 496.995 1487.93 496.878Z" fill="white" fill-opacity="0.1"/>
<path d="M1066.18 82.2163C1066.45 81.6774 1065.87 81.1566 1065.27 81.399C1065.14 81.4529 1065.04 81.5427 1064.98 81.6595C1064.7 82.1983 1065.29 82.7192 1065.89 82.4767C1066.02 82.4228 1066.12 82.333 1066.18 82.2163Z" fill="white" fill-opacity="0.1"/>
<path d="M1120.03 46.4319C1120.31 45.8931 1119.72 45.3722 1119.12 45.6147C1118.99 45.6686 1118.89 45.7584 1118.83 45.8751C1118.57 46.414 1119.14 46.9348 1119.74 46.6923C1119.87 46.6385 1119.97 46.5487 1120.03 46.4319Z" fill="white" fill-opacity="0.1"/>
<path d="M243.932 279.678C244.201 279.14 243.624 278.619 243.027 278.861C242.897 278.915 242.798 279.005 242.738 279.122C242.459 279.66 243.046 280.181 243.644 279.939C243.773 279.885 243.873 279.795 243.932 279.678Z" fill="white" fill-opacity="0.1"/>
<path d="M575.441 104.352C575.71 103.814 575.132 103.293 574.533 103.535C574.403 103.589 574.304 103.679 574.244 103.796C573.974 104.334 574.553 104.855 575.152 104.613C575.281 104.559 575.381 104.469 575.441 104.352Z" fill="white" fill-opacity="0.1"/>
<path d="M1193 377.444C1193.28 376.905 1192.69 376.384 1192.1 376.627C1191.97 376.68 1191.87 376.77 1191.81 376.887C1191.54 377.426 1192.12 377.947 1192.71 377.704C1192.84 377.65 1192.94 377.561 1193 377.444Z" fill="white" fill-opacity="0.1"/>
<path d="M1479.93 313.278C1480.21 312.74 1479.62 312.219 1479.02 312.461C1478.89 312.515 1478.79 312.605 1478.73 312.722C1478.47 313.26 1479.04 313.781 1479.64 313.539C1479.77 313.485 1479.87 313.395 1479.93 313.278Z" fill="white" fill-opacity="0.8"/>
<path d="M1496.02 244.292C1496.29 243.753 1495.71 243.232 1495.12 243.475C1494.99 243.529 1494.89 243.618 1494.83 243.735C1494.56 244.274 1495.14 244.795 1495.73 244.552C1495.86 244.498 1495.96 244.409 1496.02 244.292Z" fill="white" fill-opacity="0.1"/>
<path d="M481.401 201.678C481.132 201.14 481.711 200.619 482.309 200.861C482.439 200.915 482.539 201.005 482.599 201.122C482.868 201.66 482.289 202.181 481.691 201.939C481.561 201.885 481.461 201.795 481.401 201.678Z" fill="white" fill-opacity="0.1"/>
<path d="M906.735 448.878C906.465 448.34 907.044 447.819 907.643 448.061C907.772 448.115 907.872 448.205 907.932 448.322C908.201 448.86 907.623 449.381 907.024 449.139C906.894 449.085 906.794 448.995 906.735 448.878Z" fill="white" fill-opacity="0.1"/>
<path d="M402.734 430.85C402.466 430.311 403.043 429.791 403.64 430.033C403.769 430.087 403.869 430.177 403.929 430.293C404.207 430.832 403.62 431.353 403.023 431.111C402.894 431.057 402.794 430.967 402.734 430.85Z" fill="white" fill-opacity="0.1"/>
<path d="M781.401 451.278C781.132 450.74 781.711 450.219 782.309 450.461C782.439 450.515 782.539 450.605 782.599 450.722C782.868 451.26 782.289 451.781 781.691 451.539C781.561 451.485 781.461 451.395 781.401 451.278Z" fill="white" fill-opacity="0.1"/>
<path d="M953.401 468.076C953.132 467.539 953.71 467.019 954.307 467.261C954.436 467.315 954.536 467.404 954.595 467.521C954.874 468.058 954.287 468.587 953.69 468.336C953.56 468.282 953.461 468.192 953.401 468.076Z" fill="white" fill-opacity="0.1"/>
<path d="M346.609 327.754C346.341 327.215 346.918 326.694 347.515 326.937C347.644 326.991 347.744 327.08 347.804 327.197C348.082 327.736 347.495 328.257 346.898 328.014C346.769 327.961 346.669 327.871 346.609 327.754Z" fill="white" fill-opacity="0.1"/>
<path d="M271.024 132.464C271.623 132.213 272.201 132.742 271.932 133.279C271.872 133.396 271.772 133.485 271.643 133.539C271.044 133.781 270.465 133.261 270.735 132.724C270.794 132.607 270.894 132.518 271.024 132.464Z" fill="white" fill-opacity="0.1"/>
<path d="M152.068 313.57C151.799 313.031 152.376 312.51 152.973 312.752C153.103 312.806 153.202 312.896 153.262 313.013C153.541 313.552 152.954 314.073 152.356 313.83C152.227 313.776 152.128 313.686 152.068 313.57Z" fill="white" fill-opacity="0.1"/>
<path d="M1225.78 38.6788C1225.51 38.1399 1226.09 37.6191 1226.69 37.8615C1226.82 37.9154 1226.92 38.0052 1226.98 38.122C1227.25 38.6608 1226.67 39.1817 1226.07 38.9392C1225.94 38.8853 1225.84 38.7955 1225.78 38.6788Z" fill="white" fill-opacity="0.8"/>
<path d="M1379.41 361.825C1379.13 361.288 1379.71 360.76 1380.31 361.01C1380.44 361.064 1380.54 361.154 1380.6 361.27C1380.87 361.807 1380.29 362.327 1379.69 362.085C1379.57 362.031 1379.47 361.942 1379.41 361.825Z" fill="white" fill-opacity="0.1"/>
<path d="M1428.44 415.241C1428.16 414.702 1428.75 414.181 1429.35 414.424C1429.48 414.478 1429.58 414.567 1429.64 414.684C1429.9 415.223 1429.33 415.744 1428.73 415.501C1428.6 415.447 1428.5 415.358 1428.44 415.241Z" fill="white" fill-opacity="0.8"/>
<path d="M1549.4 152.478C1549.13 151.94 1549.71 151.419 1550.31 151.661C1550.44 151.715 1550.54 151.805 1550.6 151.922C1550.87 152.46 1550.29 152.981 1549.69 152.739C1549.56 152.685 1549.46 152.595 1549.4 152.478Z" fill="white" fill-opacity="0.1"/>
<path d="M1517.98 118.484C1517.7 117.945 1518.29 117.424 1518.89 117.667C1519.02 117.721 1519.12 117.811 1519.17 117.927C1519.44 118.466 1518.87 118.987 1518.27 118.744C1518.14 118.691 1518.04 118.601 1517.98 118.484Z" fill="white" fill-opacity="0.8"/>
<path d="M1425.4 280.878C1425.13 280.34 1425.71 279.819 1426.31 280.061C1426.44 280.115 1426.54 280.205 1426.6 280.322C1426.87 280.86 1426.29 281.381 1425.69 281.139C1425.56 281.085 1425.46 280.995 1425.4 280.878Z" fill="white" fill-opacity="0.1"/>
<path d="M1016.07 1.27839C1015.8 0.739558 1016.38 0.218681 1016.97 0.461157C1017.1 0.51504 1017.2 0.60484 1017.26 0.721588C1017.54 1.26042 1016.95 1.7813 1016.36 1.53882C1016.23 1.48494 1016.13 1.39514 1016.07 1.27839Z" fill="white" fill-opacity="0.1"/>
<path d="M984.552 13.8514C984.283 13.3126 984.862 12.7917 985.46 13.0342C985.59 13.0881 985.69 13.1779 985.75 13.2946C986.019 13.8335 985.44 14.3543 984.842 14.1119C984.712 14.058 984.612 13.9682 984.552 13.8514Z" fill="white" fill-opacity="0.1"/>
<path d="M249.352 409.277C249.083 408.738 249.662 408.217 250.26 408.459C250.39 408.513 250.49 408.603 250.55 408.72C250.819 409.259 250.241 409.78 249.642 409.537C249.512 409.483 249.412 409.393 249.352 409.277Z" fill="white" fill-opacity="0.1"/>
<path d="M86.738 261.679C86.4594 261.142 87.0465 260.613 87.6436 260.864C87.773 260.918 87.8725 261.008 87.9322 261.124C88.2009 261.661 87.6237 262.181 87.0266 261.939C86.8972 261.885 86.7977 261.796 86.738 261.679Z" fill="white" fill-opacity="0.1"/>
<path d="M133.394 236.986C133.115 236.447 133.702 235.926 134.299 236.169C134.429 236.222 134.528 236.312 134.588 236.429C134.857 236.968 134.279 237.489 133.682 237.246C133.553 237.192 133.453 237.103 133.394 236.986Z" fill="white" fill-opacity="0.8"/>
<path d="M366.95 264.259C366.681 263.721 367.258 263.2 367.856 263.442C367.985 263.496 368.084 263.586 368.144 263.703C368.423 264.241 367.836 264.762 367.238 264.52C367.109 264.466 367.01 264.376 366.95 264.259Z" fill="white" fill-opacity="0.1"/>
<path d="M30.7344 135.678C30.4657 135.14 31.043 134.619 31.6401 134.861C31.7695 134.915 31.8689 135.005 31.9287 135.122C32.2073 135.66 31.6202 136.181 31.0231 135.939C30.8937 135.885 30.7942 135.795 30.7344 135.678Z" fill="white" fill-opacity="0.1"/>
<path d="M1575.97 205.226C1575.7 204.687 1576.28 204.166 1576.88 204.408C1577.01 204.462 1577.11 204.552 1577.17 204.669C1577.45 205.208 1576.86 205.729 1576.26 205.486C1576.13 205.432 1576.03 205.342 1575.97 205.226Z" fill="white" fill-opacity="0.1"/>
<path d="M1636.1 163.818C1635.5 164.06 1634.92 163.539 1635.19 163.001C1635.25 162.884 1635.35 162.794 1635.48 162.74C1636.08 162.498 1636.65 163.018 1636.38 163.557C1636.32 163.674 1636.23 163.764 1636.1 163.818Z" fill="white" fill-opacity="0.8"/>
<path d="M1603.64 125.136C1603.04 125.387 1602.47 124.858 1602.73 124.321C1602.79 124.204 1602.89 124.115 1603.02 124.061C1603.62 123.819 1604.2 124.339 1603.93 124.876C1603.87 124.992 1603.77 125.082 1603.64 125.136Z" fill="white" fill-opacity="0.1"/>
<path d="M1081.17 23.3946C1080.9 22.8558 1081.48 22.3349 1082.08 22.5774C1082.21 22.6313 1082.31 22.7211 1082.37 22.8378C1082.64 23.3766 1082.06 23.8975 1081.46 23.655C1081.33 23.6012 1081.23 23.5113 1081.17 23.3946Z" fill="white" fill-opacity="0.1"/>
<path d="M280.428 245.969C280.16 245.43 280.737 244.909 281.334 245.152C281.463 245.205 281.563 245.295 281.623 245.412C281.901 245.951 281.314 246.472 280.717 246.229C280.588 246.175 280.488 246.086 280.428 245.969Z" fill="white" fill-opacity="0.1"/>
<path d="M674.735 14.4784C674.465 13.9396 675.044 13.4187 675.643 13.6612C675.772 13.715 675.872 13.8048 675.932 13.9216C676.201 14.4604 675.623 14.9813 675.024 14.7388C674.894 14.6849 674.795 14.5951 674.735 14.4784Z" fill="white" fill-opacity="0.1"/>
<path d="M604.533 84.0755C604.264 83.5366 604.841 83.0158 605.438 83.2582C605.568 83.3121 605.667 83.4019 605.727 83.5187C606.005 84.0575 605.418 84.5784 604.821 84.3359C604.692 84.282 604.592 84.1922 604.533 84.0755Z" fill="white" fill-opacity="0.1"/>
<path d="M730.305 84.4159C730.036 83.8771 730.614 83.3562 731.213 83.5987C731.343 83.6525 731.442 83.7423 731.502 83.8591C731.772 84.3979 731.193 84.9188 730.594 84.6763C730.465 84.6224 730.365 84.5326 730.305 84.4159Z" fill="white" fill-opacity="0.1"/>
<path d="M511.435 435.435C511.165 434.896 511.744 434.375 512.343 434.617C512.472 434.671 512.572 434.761 512.632 434.878C512.901 435.417 512.323 435.938 511.724 435.695C511.594 435.641 511.494 435.551 511.435 435.435Z" fill="white" fill-opacity="0.1"/>
<path d="M1419.41 441.657C1419.13 441.118 1419.72 440.598 1420.32 440.84C1420.44 440.894 1420.54 440.984 1420.6 441.101C1420.87 441.639 1420.3 442.16 1419.7 441.918C1419.57 441.864 1419.47 441.774 1419.41 441.657Z" fill="white" fill-opacity="0.8"/>
<path d="M738.735 464.478C738.465 463.94 739.044 463.419 739.643 463.661C739.772 463.715 739.872 463.805 739.932 463.922C740.201 464.46 739.623 464.981 739.024 464.739C738.894 464.685 738.795 464.595 738.735 464.478Z" fill="white" fill-opacity="0.1"/>
<path d="M829.401 499.278C829.132 498.74 829.711 498.219 830.309 498.461C830.439 498.515 830.539 498.605 830.599 498.722C830.868 499.26 830.289 499.781 829.691 499.539C829.561 499.485 829.461 499.395 829.401 499.278Z" fill="white" fill-opacity="0.8"/>
<path d="M991.51 417.391C991.241 416.852 991.819 416.332 992.418 416.574C992.548 416.628 992.648 416.718 992.707 416.834C992.977 417.373 992.398 417.894 991.799 417.652C991.67 417.598 991.57 417.508 991.51 417.391Z" fill="white" fill-opacity="0.8"/>
<path d="M669.401 470.478C669.132 469.94 669.711 469.419 670.309 469.661C670.439 469.715 670.539 469.805 670.599 469.922C670.868 470.46 670.289 470.981 669.691 470.739C669.561 470.685 669.461 470.595 669.401 470.478Z" fill="white" fill-opacity="0.8"/>
<path d="M724.068 512.478C723.799 511.94 724.376 511.419 724.973 511.661C725.103 511.715 725.202 511.805 725.262 511.922C725.541 512.46 724.953 512.981 724.356 512.739C724.227 512.685 724.127 512.595 724.068 512.478Z" fill="white" fill-opacity="0.1"/>
<path d="M358.734 102.078C358.466 101.54 359.043 101.019 359.64 101.261C359.769 101.315 359.869 101.405 359.929 101.522C360.207 102.06 359.62 102.581 359.023 102.339C358.894 102.285 358.794 102.195 358.734 102.078Z" fill="white" fill-opacity="0.1"/>
<path d="M1143.19 424.858C1142.92 424.32 1143.49 423.799 1144.09 424.041C1144.22 424.095 1144.32 424.185 1144.38 424.302C1144.66 424.841 1144.07 425.361 1143.47 425.119C1143.35 425.065 1143.25 424.975 1143.19 424.858Z" fill="white" fill-opacity="0.1"/>
<path d="M1097.26 409.563C1096.98 409.024 1097.57 408.503 1098.17 408.746C1098.29 408.8 1098.39 408.89 1098.45 409.006C1098.72 409.545 1098.15 410.066 1097.55 409.824C1097.42 409.77 1097.32 409.68 1097.26 409.563Z" fill="white" fill-opacity="0.1"/>
<path d="M1330.74 193.279C1330.46 192.742 1331.05 192.213 1331.64 192.464C1331.77 192.518 1331.87 192.608 1331.93 192.724C1332.2 193.261 1331.62 193.781 1331.03 193.539C1330.9 193.485 1330.8 193.396 1330.74 193.279Z" fill="white" fill-opacity="0.1"/>
<path d="M1239.59 70.2878C1239.32 69.7489 1239.9 69.2281 1240.49 69.4705C1240.62 69.5244 1240.72 69.6142 1240.78 69.731C1241.05 70.2698 1240.47 70.7907 1239.88 70.5482C1239.75 70.4943 1239.65 70.4045 1239.59 70.2878Z" fill="white" fill-opacity="0.8"/>
<path d="M1169.4 86.4784C1169.13 85.9396 1169.71 85.4187 1170.31 85.6612C1170.44 85.715 1170.54 85.8049 1170.6 85.9216C1170.87 86.4604 1170.29 86.9813 1169.69 86.7388C1169.56 86.6849 1169.46 86.5951 1169.4 86.4784Z" fill="white" fill-opacity="0.1"/>
<path d="M1265.19 424.476C1264.92 423.938 1265.5 423.417 1266.1 423.659C1266.23 423.713 1266.33 423.803 1266.39 423.92C1266.66 424.458 1266.08 424.979 1265.48 424.737C1265.35 424.683 1265.25 424.593 1265.19 424.476Z" fill="white" fill-opacity="0.1"/>
<path d="M1247.29 112.708C1247.01 112.17 1247.6 111.649 1248.2 111.891C1248.33 111.945 1248.43 112.035 1248.49 112.152C1248.76 112.691 1248.18 113.211 1247.58 112.969C1247.45 112.915 1247.35 112.825 1247.29 112.708Z" fill="white" fill-opacity="0.1"/>
<path d="M1322.73 66.0761C1322.47 65.5387 1323.04 65.0192 1323.64 65.261C1323.77 65.3147 1323.87 65.4043 1323.93 65.5207C1324.21 66.0581 1323.62 66.5866 1323.02 66.3358C1322.89 66.2821 1322.79 66.1925 1322.73 66.0761Z" fill="white" fill-opacity="0.1"/>
<path d="M1384.8 293.195C1384.53 292.657 1385.11 292.136 1385.71 292.378C1385.84 292.432 1385.94 292.522 1386 292.639C1386.28 293.177 1385.69 293.698 1385.09 293.456C1384.96 293.402 1384.86 293.312 1384.8 293.195Z" fill="white" fill-opacity="0.1"/>
<path d="M1350.41 235.905C1350.14 235.366 1350.72 234.845 1351.32 235.088C1351.45 235.141 1351.55 235.231 1351.61 235.348C1351.88 235.887 1351.3 236.408 1350.7 236.165C1350.57 236.111 1350.47 236.022 1350.41 235.905Z" fill="white" fill-opacity="0.1"/>
<path d="M1501.4 373.278C1501.13 372.74 1501.71 372.219 1502.31 372.461C1502.44 372.515 1502.54 372.605 1502.6 372.722C1502.87 373.26 1502.29 373.781 1501.69 373.539C1501.56 373.485 1501.46 373.395 1501.4 373.278Z" fill="white" fill-opacity="0.1"/>
<path d="M1320.07 326.478C1319.8 325.94 1320.38 325.419 1320.97 325.661C1321.1 325.715 1321.2 325.805 1321.26 325.922C1321.54 326.46 1320.95 326.981 1320.36 326.739C1320.23 326.685 1320.13 326.595 1320.07 326.478Z" fill="white" fill-opacity="0.1"/>
<path d="M1542.34 335.694C1542.08 335.155 1542.65 334.634 1543.25 334.877C1543.38 334.931 1543.48 335.02 1543.54 335.137C1543.82 335.676 1543.23 336.197 1542.63 335.954C1542.5 335.901 1542.4 335.811 1542.34 335.694Z" fill="white" fill-opacity="0.1"/>
<path d="M274.531 335.786C274.263 335.247 274.84 334.726 275.437 334.969C275.566 335.023 275.666 335.112 275.726 335.229C276.004 335.768 275.417 336.289 274.82 336.046C274.691 335.993 274.591 335.903 274.531 335.786Z" fill="white" fill-opacity="0.1"/>
<path d="M1332.29 429.728C1332.02 429.189 1332.6 428.668 1333.2 428.911C1333.33 428.965 1333.43 429.055 1333.49 429.171C1333.76 429.71 1333.18 430.231 1332.58 429.989C1332.45 429.935 1332.35 429.845 1332.29 429.728Z" fill="white" fill-opacity="0.1"/>
<path d="M1013.4 464.478C1013.13 463.94 1013.71 463.419 1014.31 463.661C1014.44 463.715 1014.54 463.805 1014.6 463.922C1014.87 464.46 1014.29 464.981 1013.69 464.739C1013.56 464.685 1013.46 464.595 1013.4 464.478Z" fill="white" fill-opacity="0.1"/>
<path d="M1311.87 487.492C1311.59 486.953 1312.18 486.432 1312.78 486.674C1312.91 486.728 1313.01 486.818 1313.07 486.935C1313.34 487.474 1312.76 487.995 1312.16 487.752C1312.03 487.698 1311.93 487.608 1311.87 487.492Z" fill="white" fill-opacity="0.8"/>
<path d="M1138.79 124.878C1139.07 124.34 1138.49 123.819 1137.89 124.061C1137.76 124.115 1137.66 124.205 1137.6 124.322C1137.33 124.86 1137.91 125.381 1138.51 125.139C1138.63 125.085 1138.73 124.995 1138.79 124.878Z" fill="white" fill-opacity="0.8"/>
<path d="M1300.13 246.078C1300.4 245.54 1299.82 245.019 1299.22 245.261C1299.09 245.315 1298.99 245.405 1298.93 245.522C1298.66 246.06 1299.24 246.581 1299.84 246.339C1299.97 246.285 1300.07 246.195 1300.13 246.078Z" fill="white" fill-opacity="0.1"/>
<path d="M1240.64 164.441C1240.36 163.902 1240.95 163.381 1241.55 163.624C1241.68 163.678 1241.77 163.767 1241.83 163.884C1242.1 164.423 1241.53 164.944 1240.93 164.701C1240.8 164.647 1240.7 164.558 1240.64 164.441Z" fill="white" fill-opacity="0.8"/>
<path d="M1231.61 190.857C1231.33 190.318 1231.92 189.798 1232.51 190.04C1232.64 190.094 1232.74 190.184 1232.8 190.301C1233.07 190.839 1232.49 191.36 1231.9 191.118C1231.77 191.064 1231.67 190.974 1231.61 190.857Z" fill="white" fill-opacity="0.8"/>
<path d="M1313.6 122.478C1313.32 121.94 1313.91 121.419 1314.51 121.661C1314.64 121.715 1314.74 121.805 1314.8 121.922C1315.07 122.46 1314.49 122.981 1313.89 122.739C1313.76 122.685 1313.66 122.595 1313.6 122.478Z" fill="white" fill-opacity="0.1"/>
<path d="M1144.49 178.928C1144.22 178.389 1144.8 177.868 1145.4 178.111C1145.53 178.165 1145.63 178.255 1145.69 178.371C1145.96 178.91 1145.38 179.431 1144.78 179.189C1144.65 179.135 1144.55 179.045 1144.49 178.928Z" fill="white" fill-opacity="0.1"/>
<path d="M1124.07 236.692C1123.79 236.153 1124.38 235.632 1124.98 235.874C1125.11 235.928 1125.21 236.018 1125.27 236.135C1125.53 236.674 1124.96 237.195 1124.36 236.952C1124.23 236.898 1124.13 236.808 1124.07 236.692Z" fill="white" fill-opacity="0.8"/>
<path d="M1237.64 350.492C1237.36 349.954 1237.95 349.433 1238.55 349.675C1238.68 349.729 1238.78 349.819 1238.84 349.936C1239.11 350.474 1238.53 350.995 1237.93 350.753C1237.8 350.699 1237.7 350.609 1237.64 350.492Z" fill="white" fill-opacity="0.1"/>
<path d="M1579.82 282.388C1579.56 281.849 1580.13 281.328 1580.73 281.571C1580.86 281.624 1580.96 281.714 1581.02 281.831C1581.3 282.37 1580.71 282.891 1580.11 282.648C1579.98 282.594 1579.88 282.505 1579.82 282.388Z" fill="white" fill-opacity="0.1"/>
<path d="M1687.64 92.7358C1687.04 92.9866 1686.47 92.4581 1686.73 91.9207C1686.79 91.8043 1686.89 91.7147 1687.02 91.661C1687.62 91.4192 1688.2 91.9387 1687.93 92.4761C1687.87 92.5925 1687.77 92.6821 1687.64 92.7358Z" fill="white" fill-opacity="0.1"/>
<path d="M1035.02 169.278C1035.29 168.74 1034.71 168.219 1034.11 168.461C1033.98 168.515 1033.88 168.605 1033.82 168.722C1033.55 169.26 1034.13 169.781 1034.73 169.539C1034.86 169.485 1034.96 169.395 1035.02 169.278Z" fill="white" fill-opacity="0.8"/>
<path d="M1008.52 327.52C1008.8 326.981 1008.22 326.46 1007.62 326.702C1007.49 326.756 1007.39 326.846 1007.33 326.963C1007.06 327.502 1007.64 328.023 1008.24 327.78C1008.36 327.726 1008.46 327.636 1008.52 327.52Z" fill="white" fill-opacity="0.1"/>
<path d="M950.738 180.355C951.007 179.816 950.43 179.295 949.833 179.538C949.703 179.592 949.604 179.681 949.544 179.798C949.265 180.337 949.852 180.858 950.45 180.615C950.579 180.562 950.678 180.472 950.738 180.355Z" fill="white" fill-opacity="0.1"/>
<path d="M1051.02 216.078C1051.29 215.54 1050.71 215.019 1050.11 215.261C1049.98 215.315 1049.88 215.405 1049.82 215.522C1049.55 216.06 1050.13 216.581 1050.73 216.339C1050.86 216.285 1050.96 216.195 1051.02 216.078Z" fill="white" fill-opacity="0.1"/>
<path d="M718.595 286.878C718.874 286.34 718.287 285.819 717.69 286.061C717.56 286.115 717.461 286.205 717.401 286.322C717.132 286.86 717.71 287.381 718.307 287.139C718.436 287.085 718.536 286.995 718.595 286.878Z" fill="white" fill-opacity="0.1"/>
<path d="M944.35 373.278C944.628 372.74 944.041 372.219 943.444 372.461C943.315 372.515 943.215 372.605 943.156 372.722C942.887 373.26 943.464 373.781 944.061 373.539C944.191 373.485 944.29 373.395 944.35 373.278Z" fill="white" fill-opacity="0.1"/>
<path d="M1155.02 393.678C1155.29 393.14 1154.71 392.619 1154.11 392.861C1153.99 392.915 1153.89 393.005 1153.83 393.122C1153.55 393.66 1154.13 394.181 1154.73 393.939C1154.86 393.885 1154.96 393.795 1155.02 393.678Z" fill="white" fill-opacity="0.1"/>
<path d="M656.35 171.678C656.628 171.14 656.041 170.619 655.444 170.861C655.315 170.915 655.215 171.005 655.156 171.122C654.887 171.66 655.464 172.181 656.061 171.939C656.191 171.885 656.29 171.795 656.35 171.678Z" fill="white" fill-opacity="0.8"/>
<path d="M649.666 332.507C649.935 331.968 649.357 331.447 648.76 331.69C648.631 331.744 648.531 331.834 648.472 331.95C648.193 332.489 648.78 333.01 649.377 332.768C649.507 332.714 649.606 332.624 649.666 332.507Z" fill="white" fill-opacity="0.1"/>
<path d="M892.385 191.4C892.653 190.862 892.076 190.343 891.479 190.585C891.35 190.639 891.25 190.728 891.19 190.845C890.912 191.382 891.499 191.91 892.096 191.66C892.225 191.606 892.325 191.516 892.385 191.4Z" fill="white" fill-opacity="0.1"/>
<path d="M800.485 409.864C800.754 409.325 800.176 408.804 799.579 409.047C799.45 409.1 799.35 409.19 799.291 409.307C799.012 409.846 799.599 410.367 800.196 410.124C800.326 410.07 800.425 409.981 800.485 409.864Z" fill="white" fill-opacity="0.1"/>
<path d="M1057.4 254.864C1056.8 254.613 1056.22 255.142 1056.49 255.679C1056.55 255.796 1056.65 255.885 1056.78 255.939C1057.38 256.181 1057.96 255.661 1057.69 255.124C1057.63 255.007 1057.53 254.918 1057.4 254.864Z" fill="white" fill-opacity="0.1"/>
<path d="M575.932 243.016C576.201 242.477 575.624 241.957 575.027 242.199C574.897 242.253 574.798 242.343 574.738 242.459C574.459 242.998 575.047 243.519 575.644 243.277C575.773 243.223 575.873 243.133 575.932 243.016Z" fill="white" fill-opacity="0.1"/>
<path d="M629.783 207.232C630.062 206.693 629.474 206.172 628.877 206.415C628.748 206.469 628.648 206.558 628.589 206.675C628.32 207.214 628.897 207.735 629.494 207.492C629.624 207.438 629.723 207.349 629.783 207.232Z" fill="white" fill-opacity="0.1"/>
<path d="M1005.78 405.092C1006.05 404.553 1005.47 404.032 1004.87 404.275C1004.74 404.329 1004.64 404.418 1004.58 404.535C1004.31 405.074 1004.89 405.595 1005.49 405.352C1005.62 405.298 1005.72 405.209 1005.78 405.092Z" fill="white" fill-opacity="0.1"/>
<path d="M735.539 199.479C735.26 198.94 735.847 198.419 736.444 198.662C736.574 198.715 736.673 198.805 736.733 198.922C737.002 199.461 736.424 199.982 735.827 199.739C735.698 199.685 735.598 199.596 735.539 199.479Z" fill="white" fill-opacity="0.8"/>
<path d="M1059.16 313.278C1058.89 312.74 1059.46 312.219 1060.06 312.461C1060.19 312.515 1060.29 312.605 1060.35 312.722C1060.63 313.26 1060.04 313.781 1059.44 313.539C1059.32 313.485 1059.22 313.395 1059.16 313.278Z" fill="white" fill-opacity="0.1"/>
<path d="M1027.74 279.284C1027.46 278.745 1028.04 278.224 1028.64 278.467C1028.77 278.521 1028.87 278.611 1028.93 278.727C1029.2 279.266 1028.62 279.787 1028.02 279.544C1027.89 279.491 1027.8 279.401 1027.74 279.284Z" fill="white" fill-opacity="0.8"/>
<path d="M1085.73 366.026C1085.46 365.487 1086.04 364.966 1086.63 365.208C1086.76 365.262 1086.86 365.352 1086.92 365.469C1087.2 366.008 1086.61 366.529 1086.02 366.286C1085.89 366.232 1085.79 366.142 1085.73 366.026Z" fill="white" fill-opacity="0.1"/>
<path d="M1145.85 324.618C1145.25 324.86 1144.67 324.339 1144.94 323.801C1145 323.684 1145.1 323.594 1145.23 323.54C1145.83 323.298 1146.41 323.818 1146.14 324.357C1146.08 324.474 1145.98 324.564 1145.85 324.618Z" fill="white" fill-opacity="0.8"/>
<path d="M1113.4 285.936C1112.8 286.187 1112.22 285.658 1112.49 285.121C1112.55 285.004 1112.65 284.915 1112.78 284.861C1113.38 284.619 1113.96 285.139 1113.69 285.676C1113.63 285.792 1113.53 285.882 1113.4 285.936Z" fill="white" fill-opacity="0.1"/>
<path d="M590.928 184.195C590.659 183.656 591.237 183.135 591.836 183.377C591.966 183.431 592.066 183.521 592.125 183.638C592.395 184.177 591.816 184.698 591.217 184.455C591.088 184.401 590.988 184.311 590.928 184.195Z" fill="white" fill-opacity="0.1"/>
<path d="M840.493 354.079C840.214 353.542 840.801 353.013 841.398 353.264C841.528 353.318 841.627 353.408 841.687 353.524C841.956 354.061 841.378 354.581 840.781 354.339C840.652 354.285 840.552 354.196 840.493 354.079Z" fill="white" fill-opacity="0.1"/>
<path d="M749.341 231.088C749.071 230.549 749.65 230.028 750.249 230.271C750.379 230.324 750.478 230.414 750.538 230.531C750.808 231.07 750.229 231.591 749.63 231.348C749.5 231.294 749.401 231.205 749.341 231.088Z" fill="white" fill-opacity="0.8"/>
<path d="M679.156 247.278C678.887 246.74 679.464 246.219 680.061 246.461C680.191 246.515 680.29 246.605 680.35 246.722C680.628 247.26 680.041 247.781 679.444 247.539C679.315 247.485 679.215 247.395 679.156 247.278Z" fill="white" fill-opacity="0.1"/>
<path d="M757.047 273.508C756.769 272.97 757.356 272.449 757.953 272.691C758.082 272.745 758.182 272.835 758.242 272.952C758.51 273.491 757.933 274.011 757.336 273.769C757.207 273.715 757.107 273.625 757.047 273.508Z" fill="white" fill-opacity="0.1"/>
<path d="M609.401 268.876C609.132 268.339 609.71 267.819 610.307 268.061C610.436 268.115 610.536 268.204 610.595 268.321C610.874 268.858 610.287 269.387 609.69 269.136C609.56 269.082 609.461 268.993 609.401 268.876Z" fill="white" fill-opacity="0.1"/>
<path d="M860.167 396.705C859.898 396.166 860.476 395.645 861.075 395.888C861.205 395.941 861.305 396.031 861.364 396.148C861.634 396.687 861.055 397.208 860.456 396.965C860.327 396.911 860.227 396.822 860.167 396.705Z" fill="white" fill-opacity="0.1"/>
<path d="M1197.4 253.536C1196.8 253.787 1196.22 253.258 1196.49 252.721C1196.55 252.604 1196.65 252.515 1196.78 252.461C1197.38 252.219 1197.96 252.739 1197.69 253.276C1197.63 253.392 1197.53 253.482 1197.4 253.536Z" fill="white" fill-opacity="0.1"/>
<path d="M304.071 294.078C303.793 293.54 304.38 293.019 304.977 293.261C305.106 293.315 305.206 293.405 305.266 293.522C305.534 294.06 304.957 294.581 304.36 294.339C304.231 294.285 304.131 294.195 304.071 294.078Z" fill="white" fill-opacity="0.1"/>
<path d="M577.405 469.278C577.126 468.74 577.713 468.219 578.31 468.461C578.44 468.515 578.539 468.605 578.599 468.722C578.868 469.26 578.29 469.781 577.693 469.539C577.564 469.485 577.464 469.395 577.405 469.278Z" fill="white" fill-opacity="0.1"/>
<path d="M448.071 463.278C447.793 462.74 448.38 462.219 448.977 462.461C449.106 462.515 449.206 462.605 449.265 462.722C449.534 463.26 448.957 463.781 448.36 463.539C448.23 463.485 448.131 463.395 448.071 463.278Z" fill="white" fill-opacity="0.8"/>
<path d="M572.071 424.878C571.793 424.34 572.38 423.819 572.977 424.061C573.106 424.115 573.206 424.205 573.265 424.322C573.534 424.86 572.957 425.381 572.36 425.139C572.23 425.085 572.131 424.995 572.071 424.878Z" fill="white" fill-opacity="0.1"/>
<path d="M416.287 329.059C416.008 328.521 416.595 328 417.192 328.242C417.322 328.296 417.421 328.386 417.481 328.503C417.75 329.041 417.173 329.562 416.575 329.32C416.446 329.266 416.347 329.176 416.287 329.059Z" fill="white" fill-opacity="0.1"/>
<path d="M570.571 326.56C570.292 326.022 570.879 325.501 571.476 325.743C571.606 325.797 571.705 325.887 571.765 326.004C572.034 326.542 571.456 327.063 570.859 326.821C570.73 326.767 570.63 326.677 570.571 326.56Z" fill="white" fill-opacity="0.1"/>
<path d="M480.78 398.951C480.51 398.412 481.089 397.892 481.688 398.134C481.817 398.188 481.917 398.278 481.977 398.394C482.246 398.933 481.668 399.454 481.069 399.212C480.939 399.158 480.839 399.068 480.78 398.951Z" fill="white" fill-opacity="0.1"/>
<path d="M963.932 51.6784C964.201 51.1396 963.624 50.6187 963.027 50.8612C962.897 50.915 962.798 51.0049 962.738 51.1216C962.459 51.6604 963.047 52.1813 963.644 51.9388C963.773 51.885 963.873 51.7951 963.932 51.6784Z" fill="white" fill-opacity="0.1"/>
<path d="M923.932 158.478C924.201 157.94 923.624 157.419 923.027 157.661C922.897 157.715 922.798 157.805 922.738 157.922C922.459 158.46 923.047 158.981 923.644 158.739C923.773 158.685 923.873 158.595 923.932 158.478Z" fill="white" fill-opacity="0.8"/>
<path d="M797.401 102.05C797.132 101.511 797.71 100.991 798.307 101.233C798.436 101.287 798.536 101.377 798.595 101.493C798.874 102.032 798.287 102.553 797.69 102.311C797.56 102.257 797.461 102.167 797.401 102.05Z" fill="white" fill-opacity="0.1"/>
<path d="M906.101 106.635C905.832 106.096 906.41 105.575 907.009 105.817C907.139 105.871 907.239 105.961 907.298 106.078C907.568 106.617 906.989 107.138 906.39 106.895C906.261 106.841 906.161 106.751 906.101 106.635Z" fill="white" fill-opacity="0.1"/>
<path d="M972.071 140.478C971.793 139.94 972.38 139.419 972.977 139.661C973.106 139.715 973.206 139.805 973.265 139.922C973.534 140.46 972.957 140.981 972.36 140.739C972.23 140.685 972.131 140.595 972.071 140.478Z" fill="white" fill-opacity="0.1"/>
<path d="M842.738 134.478C842.459 133.94 843.047 133.419 843.644 133.661C843.773 133.715 843.873 133.805 843.932 133.922C844.201 134.46 843.624 134.981 843.027 134.739C842.897 134.685 842.798 134.595 842.738 134.478Z" fill="white" fill-opacity="0.8"/>
<path d="M966.738 96.0784C966.459 95.5395 967.047 95.0187 967.644 95.2612C967.773 95.315 967.873 95.4048 967.932 95.5216C968.201 96.0604 967.624 96.5813 967.027 96.3388C966.897 96.2849 966.798 96.1951 966.738 96.0784Z" fill="white" fill-opacity="0.1"/>
<path d="M875.446 70.1512C875.177 69.6124 875.756 69.0915 876.354 69.334C876.484 69.3879 876.584 69.4777 876.644 69.5945C876.913 70.1333 876.334 70.6542 875.736 70.4117C875.606 70.3578 875.506 70.268 875.446 70.1512Z" fill="white" fill-opacity="0.1"/>
<path d="M265.753 377.518C265.483 376.979 266.062 376.459 266.661 376.701C266.791 376.755 266.89 376.845 266.95 376.961C267.22 377.5 266.641 378.021 266.042 377.779C265.912 377.725 265.813 377.635 265.753 377.518Z" fill="white" fill-opacity="0.8"/>
<path d="M110.735 93.6784C110.465 93.1396 111.044 92.6187 111.643 92.8612C111.772 92.915 111.872 93.0048 111.932 93.1216C112.201 93.6604 111.623 94.1813 111.024 93.9388C110.894 93.8849 110.794 93.7951 110.735 93.6784Z" fill="white" fill-opacity="0.1"/>
<path d="M434.451 33.6561C434.182 33.1187 434.759 32.5992 435.356 32.8411C435.485 32.8948 435.585 32.9844 435.645 33.1008C435.923 33.6382 435.336 34.1667 434.739 33.9159C434.61 33.8621 434.51 33.7726 434.451 33.6561Z" fill="white" fill-opacity="0.1"/>
<path d="M291.306 11.3923C291.037 10.8534 291.616 10.3326 292.214 10.575C292.344 10.6289 292.444 10.7187 292.504 10.8355C292.773 11.3743 292.194 11.8952 291.596 11.6527C291.466 11.5988 291.366 11.509 291.306 11.3923Z" fill="white" fill-opacity="0.1"/>
<path d="M290.738 58.8784C290.459 58.3396 291.047 57.8187 291.644 58.0612C291.773 58.115 291.873 58.2048 291.932 58.3216C292.201 58.8604 291.624 59.3813 291.027 59.1388C290.897 59.0849 290.798 58.9951 290.738 58.8784Z" fill="white" fill-opacity="0.1"/>
<path d="M512.071 67.2784C511.793 66.7396 512.38 66.2187 512.977 66.4612C513.106 66.515 513.206 66.6048 513.265 66.7216C513.534 67.2604 512.957 67.7813 512.36 67.5388C512.23 67.4849 512.131 67.3951 512.071 67.2784Z" fill="white" fill-opacity="0.1"/>
<path d="M169.401 174.078C169.132 173.54 169.711 173.019 170.309 173.261C170.439 173.315 170.539 173.405 170.599 173.522C170.868 174.06 170.289 174.581 169.691 174.339C169.561 174.285 169.461 174.195 169.401 174.078Z" fill="white" fill-opacity="0.1"/>
<path d="M99.6934 159.004C99.4247 158.465 100.002 157.944 100.599 158.187C100.728 158.241 100.828 158.33 100.888 158.447C101.166 158.986 100.579 159.507 99.982 159.264C99.8526 159.211 99.7531 159.121 99.6934 159.004Z" fill="white" fill-opacity="0.1"/>
</svg>
