<svg width="25" height="24" viewBox="0 0 25 24" fill="none" xmlns="http://www.w3.org/2000/svg">
<path opacity="0.4" d="M13.7708 3.25H7.64583C4.15458 3.25 2.79688 4.58 2.79688 8V16C2.79688 18.3 4.07292 20.75 7.64583 20.75H13.7708C17.2621 20.75 18.6198 19.42 18.6198 16V8C18.6198 4.58 17.2621 3.25 13.7708 3.25Z" fill="#FAFAFA"/>
<path d="M12.2395 11.38C13.2994 11.38 14.1586 10.5383 14.1586 9.5C14.1586 8.4617 13.2994 7.62 12.2395 7.62C11.1796 7.62 10.3203 8.4617 10.3203 9.5C10.3203 10.5383 11.1796 11.38 12.2395 11.38Z" fill="#FAFAFA"/>
<path d="M22.6013 6.16999C22.1827 5.95999 21.3048 5.71999 20.1104 6.53999L18.5996 7.57999C18.6098 7.71999 18.62 7.84999 18.62 7.99999V16C18.62 16.15 18.5996 16.28 18.5996 16.42L20.1104 17.46C20.7434 17.9 21.2946 18.04 21.7336 18.04C22.1113 18.04 22.4073 17.94 22.6013 17.84C23.0198 17.63 23.7242 17.06 23.7242 15.63V8.37999C23.7242 6.94999 23.0198 6.37999 22.6013 6.16999Z" fill="#FAFAFA"/>
</svg>
