<svg width="198" height="44" viewBox="0 0 198 44" fill="none" xmlns="http://www.w3.org/2000/svg">
<g filter="url(#filter0_d_2342_4205)">
<path fill-rule="evenodd" clip-rule="evenodd" d="M17.9348 0C16.9796 0 16.1928 0.799574 16.1928 1.77045V9.26974C16.1928 9.46602 16.0974 9.64834 15.9378 9.75846C15.7779 9.86857 15.5762 9.89093 15.3968 9.81829L9.5179 7.34253C9.29731 7.24954 9.06713 7.20764 8.84085 7.21002C8.16221 7.21713 7.51601 7.62892 7.24175 8.30157L4.1312 15.9344C3.76571 16.8312 4.19056 17.8779 5.07369 18.2479L12.2039 21.2355C12.3674 21.3043 12.4903 21.4441 12.5396 21.617C12.5888 21.7898 12.5577 21.9738 12.4556 22.1207L7.78794 28.1247C7.20653 28.8949 7.35117 30.0167 8.10884 30.6075L14.5583 35.6378C15.3159 36.2287 16.4197 36.0806 17.0011 35.3103L21.5397 29.471C21.6498 29.3251 21.8191 29.2405 22 29.2405C22.1809 29.2405 22.3502 29.3251 22.4603 29.471L26.9989 35.3103C27.5803 36.0804 28.6839 36.2287 29.4417 35.6378L35.8911 30.6075C36.6488 30.0166 36.7935 28.8951 36.212 28.1247L31.5444 22.1207C31.4422 21.974 31.4114 21.7898 31.4604 21.617C31.5097 21.4441 31.6325 21.3043 31.7961 21.2355L38.9263 18.2479C39.8095 17.8779 40.2343 16.8315 39.8688 15.9344L36.7579 8.30157C36.4837 7.62895 35.8375 7.21717 35.1588 7.21002C34.9326 7.20765 34.7024 7.2498 34.4818 7.34253L28.6029 9.81829C28.4235 9.89103 28.2218 9.86857 28.0619 9.75846C27.9014 9.64834 27.806 9.46602 27.806 9.26974V1.77045C27.806 0.799574 27.0194 0 26.0642 0H17.9348Z" fill="url(#paint0_linear_2342_4205)" fill-opacity="0.88" shape-rendering="crispEdges"/>
<path d="M16.3636 10.3759L16.3632 10.3761C15.9966 10.6286 15.5295 10.6811 15.1154 10.5135L15.1057 10.5096L15.1057 10.5095L9.22681 8.03374L9.22654 8.03363C9.10463 7.98223 8.97673 7.95863 8.84874 7.95998H8.84871C8.46352 7.96401 8.09329 8.19955 7.93624 8.58473L4.82574 16.2174C4.6117 16.7426 4.86897 17.349 5.36345 17.5561L5.36353 17.5561L12.4937 20.5437L12.4948 20.5442C12.8718 20.7028 13.1504 21.0237 13.2609 21.4116C13.372 21.8017 13.3013 22.218 13.0714 22.5487L13.06 22.5652L13.0477 22.581L8.38377 28.5803C8.05031 29.0262 8.13932 29.6802 8.57005 30.0161L8.57009 30.0162L15.0195 35.0464L14.5772 35.6135L15.0196 35.0464C15.4443 35.3776 16.0714 35.2971 16.4024 34.8585L16.4088 34.85L16.4089 34.85L20.9448 29.0143C21.1955 28.6852 21.5839 28.4905 22 28.4905C22.4161 28.4905 22.8043 28.6851 23.055 29.014L27.5911 34.85L27.5976 34.8583L27.5975 34.8584C27.9287 35.297 28.5556 35.3776 28.9804 35.0464C28.9805 35.0463 28.9805 35.0463 28.9805 35.0463L35.4299 30.0162L35.4299 30.0161C35.8607 29.6801 35.9497 29.0264 35.6161 28.5803L30.9523 22.581L30.9402 22.5655L30.929 22.5493C30.6979 22.2176 30.6287 21.801 30.7388 21.4125L30.7391 21.4115C30.8496 21.0237 31.1282 20.7029 31.5051 20.5442L31.5062 20.5437L38.6364 17.5561L38.6365 17.5561C39.131 17.349 39.3883 16.743 39.1743 16.2174L16.3636 10.3759ZM16.3636 10.3759C16.7283 10.1243 16.9428 9.71012 16.9428 9.26974V1.77045C16.9428 1.20226 17.4052 0.75 17.9348 0.75H26.0642C26.5937 0.75 27.056 1.20221 27.056 1.77045V9.26974C27.056 9.71005 27.2705 10.1245 27.6365 10.3761C28.0028 10.6284 28.4701 10.6815 28.8848 10.5133L28.8848 10.5133M16.3636 10.3759L28.8848 10.5133M28.8848 10.5133L28.8939 10.5095M28.8848 10.5133L28.8939 10.5095M28.8939 10.5095L34.7725 8.03394M28.8939 10.5095L34.7725 8.03394M34.7725 8.03394C34.8953 7.98229 35.0235 7.95865 35.1509 7.95998L34.7725 8.03394ZM36.0634 8.58472L39.1742 16.2173L35.151 7.95998C35.5362 7.96405 35.9064 8.19958 36.0634 8.58463C36.0634 8.58466 36.0634 8.58469 36.0634 8.58472Z" stroke="url(#paint1_linear_2342_4205)" stroke-width="1.5" shape-rendering="crispEdges"/>
</g>
<path d="M73.096 31L66.984 21.048L63.912 24.408V31H59.08V8.6H63.912V17.944L72.36 8.6H78.344L70.28 17.464L79.144 31H73.096ZM90.5723 25.528H94.9243C94.2843 29.016 91.2123 31.256 87.2443 31.256C81.7723 31.256 78.9563 26.968 78.9563 22.904C78.9563 18.808 81.4523 14.616 86.9243 14.616C92.6203 14.616 94.8923 18.808 94.8923 22.488C94.8923 23.096 94.8603 23.576 94.8283 23.928H83.2443C83.5643 26.2 85.0043 27.608 87.2443 27.608C89.0363 27.608 90.2203 26.904 90.5723 25.528ZM86.9243 17.88C84.9083 17.88 83.6923 18.872 83.3083 21.112H90.4443C90.3163 19.32 89.0683 17.88 86.9243 17.88ZM111.033 14.872L105.177 30.936L102.905 37.528H98.6488L101.017 30.872L95.1608 14.872H99.7048L103.097 25.272L106.457 14.872H111.033ZM118.27 31.256C114.334 31.256 111.646 29.048 111.486 25.56H115.326C115.486 27 116.606 27.896 118.27 27.896C119.646 27.896 120.606 27.224 120.606 26.328C120.606 23.032 111.934 26.264 111.934 19.48C111.934 16.632 114.398 14.616 117.694 14.616C121.566 14.616 124.19 16.696 124.35 19.864H120.478C120.286 18.488 119.038 17.752 117.822 17.752C116.574 17.752 115.71 18.296 115.71 19.32C115.71 22.616 124.542 18.872 124.542 26.168C124.542 29.24 122.046 31.256 118.27 31.256ZM127.294 31V7.864H131.742V17.112C132.67 15.544 134.43 14.616 136.67 14.616C140.286 14.616 142.654 17.24 142.654 20.952V31H138.206V21.944C138.206 19.992 136.926 18.584 135.07 18.584C133.118 18.584 131.742 20.088 131.742 22.168V31H127.294ZM152.508 14.616C156.572 14.616 159.548 16.984 159.548 20.632V31H155.132V28.76C154.588 30.264 152.796 31.256 150.588 31.256C147.452 31.256 145.308 29.176 145.308 26.424C145.308 23.256 147.676 21.336 151.196 21.336H153.916C154.716 21.336 155.132 20.824 155.132 20.152C155.132 18.808 154.076 17.88 152.252 17.88C150.3 17.88 149.308 19.096 149.244 20.44H145.276C145.468 17.208 148.092 14.616 152.508 14.616ZM151.708 28.024C153.884 28.024 155.132 26.424 155.132 24.376V24.152H151.868C150.524 24.152 149.564 24.984 149.564 26.232C149.564 27.288 150.46 28.024 151.708 28.024ZM169.385 31.256C164.649 31.256 161.769 27.96 161.769 22.936C161.769 17.912 164.649 14.616 169.321 14.616C171.337 14.616 172.905 15.384 173.801 16.568V7.864H178.249V31H173.801V29.24C172.905 30.488 171.241 31.256 169.385 31.256ZM170.121 27.416C172.489 27.416 174.057 25.624 174.057 22.936C174.057 20.216 172.489 18.424 170.121 18.424C167.753 18.424 166.185 20.216 166.185 22.936C166.185 25.624 167.753 27.416 170.121 27.416ZM192.541 25.528H196.893C196.253 29.016 193.181 31.256 189.213 31.256C183.741 31.256 180.925 26.968 180.925 22.904C180.925 18.808 183.421 14.616 188.893 14.616C194.589 14.616 196.861 18.808 196.861 22.488C196.861 23.096 196.829 23.576 196.797 23.928H185.213C185.533 26.2 186.973 27.608 189.213 27.608C191.005 27.608 192.189 26.904 192.541 25.528ZM188.893 17.88C186.877 17.88 185.661 18.872 185.277 21.112H192.413C192.285 19.32 191.037 17.88 188.893 17.88Z" fill="#C3C3C4"/>
<defs>
<filter id="filter0_d_2342_4205" x="0" y="0" width="44" height="44" filterUnits="userSpaceOnUse" color-interpolation-filters="sRGB">
<feFlood flood-opacity="0" result="BackgroundImageFix"/>
<feColorMatrix in="SourceAlpha" type="matrix" values="0 0 0 0 0 0 0 0 0 0 0 0 0 0 0 0 0 0 127 0" result="hardAlpha"/>
<feOffset dy="4"/>
<feGaussianBlur stdDeviation="2"/>
<feComposite in2="hardAlpha" operator="out"/>
<feColorMatrix type="matrix" values="0 0 0 0 0 0 0 0 0 0 0 0 0 0 0 0 0 0 0.13 0"/>
<feBlend mode="normal" in2="BackgroundImageFix" result="effect1_dropShadow_2342_4205"/>
<feBlend mode="normal" in="SourceGraphic" in2="effect1_dropShadow_2342_4205" result="shape"/>
</filter>
<linearGradient id="paint0_linear_2342_4205" x1="23.9149" y1="1.12437e-07" x2="16.2553" y2="37.1489" gradientUnits="userSpaceOnUse">
<stop stop-color="#E6E6E6"/>
<stop offset="1" stop-color="#D6D6D6" stop-opacity="0.44"/>
</linearGradient>
<linearGradient id="paint1_linear_2342_4205" x1="29.6596" y1="-1.91489" x2="12.4255" y2="38.6809" gradientUnits="userSpaceOnUse">
<stop stop-color="white" stop-opacity="0.31"/>
<stop offset="1" stop-color="white" stop-opacity="0"/>
</linearGradient>
</defs>
</svg>
