<svg viewBox="0 0 43 44" fill="none" xmlns="http://www.w3.org/2000/svg">
	<g filter="url(#filter0_d_2379_5063)">
		<path fill-rule="evenodd" clip-rule="evenodd"
			d="M17.2173 0.926758C16.3113 0.926758 15.5651 1.68518 15.5651 2.60603V9.71923C15.5651 9.90539 15.4746 10.0783 15.3231 10.1828C15.1715 10.2872 14.9802 10.3084 14.81 10.2395L9.23379 7.89124C9.02458 7.80306 8.80623 7.76331 8.59159 7.76556C7.94787 7.77227 7.33494 8.16288 7.07482 8.80088L4.12444 16.0407C3.77779 16.8914 4.18072 17.8842 5.01841 18.2351L11.7815 21.0688C11.9366 21.1342 12.0532 21.2668 12.0999 21.4308C12.1466 21.5947 12.1171 21.7692 12.0202 21.9085L7.59287 27.6035C7.0414 28.3339 7.1786 29.398 7.89726 29.9584L14.0147 34.7296C14.7333 35.2902 15.7803 35.1497 16.3317 34.419L20.6366 28.8804C20.741 28.742 20.9016 28.6617 21.0733 28.6617C21.2448 28.6617 21.4054 28.742 21.5098 28.8804L25.8148 34.419C26.3662 35.1495 27.4129 35.2902 28.1318 34.7296L34.2491 29.9584C34.9679 29.3979 35.105 28.3341 34.5535 27.6035L30.1262 21.9085C30.0293 21.7693 30.0001 21.5947 30.0465 21.4308C30.0933 21.2668 30.2098 21.1342 30.3649 21.0688L37.128 18.2351C37.9657 17.8842 38.3687 16.8917 38.022 16.0407L35.0713 8.80088C34.8112 8.16295 34.1983 7.77233 33.5546 7.76556C33.3399 7.76331 33.1216 7.80331 32.9124 7.89124L27.3361 10.2395C27.166 10.3086 26.9747 10.2872 26.823 10.1828C26.6708 10.0783 26.5803 9.90539 26.5803 9.71923V2.60603C26.5803 1.68518 25.8342 0.926758 24.9282 0.926758H17.2173Z"
			fill="#CAECF1" />
		<mask id="mask0_2379_5063" style="mask-type:luminance" maskUnits="userSpaceOnUse" x="4" y="0" width="35"
			height="36">
			<path fill-rule="evenodd" clip-rule="evenodd"
				d="M17.2173 0.926758C16.3113 0.926758 15.5651 1.68518 15.5651 2.60603V9.71923C15.5651 9.90539 15.4746 10.0783 15.3231 10.1828C15.1715 10.2872 14.9802 10.3084 14.81 10.2395L9.23379 7.89124C9.02458 7.80306 8.80623 7.76331 8.59159 7.76556C7.94787 7.77227 7.33494 8.16288 7.07482 8.80088L4.12444 16.0407C3.77779 16.8914 4.18072 17.8842 5.01841 18.2351L11.7815 21.0688C11.9366 21.1342 12.0532 21.2668 12.0999 21.4308C12.1466 21.5947 12.1171 21.7692 12.0202 21.9085L7.59287 27.6035C7.0414 28.3339 7.1786 29.398 7.89726 29.9584L14.0147 34.7296C14.7333 35.2902 15.7803 35.1497 16.3317 34.419L20.6366 28.8804C20.741 28.742 20.9016 28.6617 21.0733 28.6617C21.2448 28.6617 21.4054 28.742 21.5098 28.8804L25.8148 34.419C26.3662 35.1495 27.4129 35.2902 28.1318 34.7296L34.2491 29.9584C34.9679 29.3979 35.105 28.3341 34.5535 27.6035L30.1262 21.9085C30.0293 21.7693 30.0001 21.5947 30.0465 21.4308C30.0933 21.2668 30.2098 21.1342 30.3649 21.0688L37.128 18.2351C37.9657 17.8842 38.3687 16.8917 38.022 16.0407L35.0713 8.80088C34.8112 8.16295 34.1983 7.77233 33.5546 7.76556C33.3399 7.76331 33.1216 7.80331 32.9124 7.89124L27.3361 10.2395C27.166 10.3086 26.9747 10.2872 26.823 10.1828C26.6708 10.0783 26.5803 9.90539 26.5803 9.71923V2.60603C26.5803 1.68518 25.8342 0.926758 24.9282 0.926758H17.2173Z"
				fill="url(#paint0_linear_2379_5063)" />
		</mask>
		<g mask="url(#mask0_2379_5063)">
			<path
				d="M15.3235 10.1829L15.8423 10.9362L15.8428 10.9358L15.3235 10.1829ZM14.8104 10.2396L14.4554 11.0826L14.4613 11.0851L14.4672 11.0874L14.8104 10.2396ZM11.7819 21.0689L12.1366 20.2259L12.1354 20.2254L11.7819 21.0689ZM12.0206 21.9086L12.7427 22.47L12.7577 22.4507L12.7716 22.4307L12.0206 21.9086ZM7.59326 27.6035L6.87118 27.0422L6.86722 27.0473L6.86332 27.0524L7.59326 27.6035ZM16.3321 34.4191L15.6099 33.8578L15.6059 33.863L15.602 33.8682L16.3321 34.4191ZM20.637 28.8805L21.3592 29.4418L21.3631 29.4366L21.3671 29.4314L20.637 28.8805ZM21.5102 28.8805L20.7801 29.4314L20.784 29.4366L20.7881 29.4418L21.5102 28.8805ZM25.8152 34.4191L26.5451 33.868L26.5413 33.8629L26.5373 33.8578L25.8152 34.4191ZM34.5539 27.6035L35.2839 27.0525L35.28 27.0473L35.276 27.0422L34.5539 27.6035ZM30.1266 21.9086L29.3761 22.4313L29.3898 22.451L29.4045 22.47L30.1266 21.9086ZM30.0469 21.4309L29.1673 21.1802L29.1669 21.1815L30.0469 21.4309ZM30.3653 21.0689L30.0118 20.2254L30.0105 20.2259L30.3653 21.0689ZM27.3365 10.2396L27.6804 11.0872L27.6859 11.0849L27.6915 11.0826L27.3365 10.2396ZM26.8234 10.1829L27.3422 9.42962L27.3409 9.42871L26.8234 10.1829ZM17.2177 0.012207C15.7926 0.012207 14.6509 1.19416 14.6509 2.60612H16.4801C16.4801 2.17636 16.8307 1.84148 17.2177 1.84148V0.012207ZM14.6509 2.60612V9.71932H16.4801V2.60612H14.6509ZM14.6509 9.71932C14.6509 9.6078 14.7057 9.49792 14.8043 9.42993L15.8428 10.9358C16.2443 10.6589 16.4801 10.2032 16.4801 9.71932H14.6509ZM14.8043 9.42993C14.9046 9.36078 15.0376 9.34487 15.1536 9.39182L14.4672 11.0874C14.9237 11.2722 15.4386 11.2142 15.8423 10.9362L14.8043 9.42993ZM15.1654 9.3967L9.58918 7.04839L8.87888 8.73413L14.4554 11.0826L15.1654 9.3967ZM9.58918 7.04839C9.25961 6.90949 8.91686 6.84754 8.58235 6.85108L8.60156 8.68023C8.69631 8.67925 8.78997 8.69663 8.87888 8.73413L9.58918 7.04839ZM8.58235 6.85108C7.58076 6.86156 6.63137 7.46705 6.22826 8.45566L7.92217 9.14633C8.03936 8.85889 8.31576 8.68322 8.60156 8.68023L8.58235 6.85108ZM6.22826 8.45566L3.27782 15.6956L4.97185 16.386L7.92217 9.14633L6.22826 8.45566ZM3.27782 15.6956C2.74647 16.9995 3.35379 18.5294 4.66544 19.0788L5.37228 17.3916C5.00856 17.2393 4.80984 16.7835 4.97185 16.386L3.27782 15.6956ZM4.66544 19.0788L11.4284 21.9125L12.1354 20.2254L5.37228 17.3916L4.66544 19.0788ZM11.4271 21.912C11.3219 21.8677 11.2486 21.7796 11.2206 21.6814L12.9799 21.1803C12.8585 20.7542 12.5521 20.4008 12.1366 20.2259L11.4271 21.912ZM11.2206 21.6814C11.1918 21.5803 11.2106 21.4714 11.2696 21.3866L12.7716 22.4307C13.0243 22.0671 13.1022 21.6093 12.9799 21.1803L11.2206 21.6814ZM11.2985 21.3472L6.87118 27.0422L8.3154 28.1649L12.7427 22.47L11.2985 21.3472ZM6.86332 27.0524C6.01338 28.1782 6.21929 29.8095 7.33521 30.6798L8.46015 29.2373C8.13881 28.9867 8.07021 28.4898 8.32326 28.1546L6.86332 27.0524ZM7.33521 30.6798L13.4526 35.451L14.5776 34.0086L8.46015 29.2373L7.33521 30.6798ZM13.4526 35.451C14.5772 36.3282 16.2055 36.1053 17.0621 34.9701L15.602 33.8682C15.3559 34.1943 14.8902 34.2523 14.5776 34.0086L13.4526 35.451ZM17.0542 34.9804L21.3592 29.4418L19.9148 28.3192L15.6099 33.8578L17.0542 34.9804ZM21.3671 29.4314C21.3001 29.5201 21.1914 29.5765 21.0737 29.5765V27.7472C20.6126 27.7472 20.1827 27.9641 19.9069 28.3296L21.3671 29.4314ZM21.0737 29.5765C20.9557 29.5765 20.847 29.52 20.7801 29.4314L22.2403 28.3296C21.9646 27.9642 21.5347 27.7472 21.0737 27.7472V29.5765ZM20.7881 29.4418L25.093 34.9804L26.5373 33.8578L22.2324 28.3192L20.7881 29.4418ZM25.0852 34.9702C25.9419 36.1049 27.5697 36.3282 28.6946 35.451L27.5697 34.0084C27.257 34.2523 26.7914 34.1943 26.5451 33.868L25.0852 34.9702ZM28.6946 35.451L34.812 30.6797L33.687 29.2373L27.5697 34.0084L28.6946 35.451ZM34.812 30.6797C35.9279 29.8094 36.1339 28.1785 35.2839 27.0525L33.8239 28.1546C34.077 28.4899 34.0085 28.9865 33.687 29.2373L34.812 30.6797ZM35.276 27.0422L30.8487 21.3472L29.4045 22.47L33.8318 28.1649L35.276 27.0422ZM30.8772 21.3859C30.9374 21.4724 30.9549 21.5812 30.9269 21.6802L29.1669 21.1815C29.046 21.6083 29.122 22.0665 29.3761 22.4313L30.8772 21.3859ZM30.9265 21.6816C30.8986 21.7796 30.8252 21.8677 30.7201 21.9119L30.0105 20.2259C29.5951 20.4008 29.2887 20.7542 29.1673 21.1802L30.9265 21.6816ZM30.7188 21.9125L37.4819 19.0788L36.7751 17.3915L30.0118 20.2254L30.7188 21.9125ZM37.4819 19.0788C38.7936 18.5294 39.4007 16.9998 38.8695 15.6957L37.1753 16.3859C37.3374 16.7837 37.1388 17.2392 36.7751 17.3915L37.4819 19.0788ZM38.8695 15.6957L35.9187 8.45578L34.2247 9.14621L37.1753 16.3859L38.8695 15.6957ZM35.9187 8.45578C35.5156 7.46724 34.5661 6.86162 33.5646 6.85108L33.5453 8.68023C33.8312 8.68322 34.1075 8.85883 34.2247 9.14621L35.9187 8.45578ZM33.5646 6.85108C33.2295 6.84754 32.8868 6.9101 32.5584 7.04815L33.2672 8.7345C33.3573 8.69663 33.4512 8.67925 33.5453 8.68023L33.5646 6.85108ZM32.5584 7.04815L26.9816 9.3967L27.6915 11.0826L33.2672 8.7345L32.5584 7.04815ZM26.9927 9.39206C27.1096 9.34462 27.2421 9.36072 27.3422 9.42962L26.3046 10.9362C26.708 11.214 27.2232 11.2726 27.6804 11.0872L26.9927 9.39206ZM27.3409 9.42871C27.44 9.4967 27.4954 9.60737 27.4954 9.71932H25.6661C25.6661 10.2036 25.9024 10.6601 26.3059 10.9371L27.3409 9.42871ZM27.4954 9.71932V2.60612H25.6661V9.71932H27.4954ZM27.4954 2.60612C27.4954 1.19422 26.3537 0.012207 24.9286 0.012207V1.84148C25.3154 1.84148 25.6661 2.17624 25.6661 2.60612H27.4954ZM24.9286 0.012207H17.2177V1.84148H24.9286V0.012207Z"
				fill="url(#paint1_linear_2379_5063)" />
		</g>
	</g>
	<defs>
		<filter id="filter0_d_2379_5063" x="0" y="0.926758" width="42.1484" height="42.1465"
			filterUnits="userSpaceOnUse" color-interpolation-filters="sRGB">
			<feFlood flood-opacity="0" result="BackgroundImageFix" />
			<feColorMatrix in="SourceAlpha" type="matrix" values="0 0 0 0 0 0 0 0 0 0 0 0 0 0 0 0 0 0 127 0"
				result="hardAlpha" />
			<feOffset dy="4" />
			<feGaussianBlur stdDeviation="2" />
			<feComposite in2="hardAlpha" operator="out" />
			<feColorMatrix type="matrix" values="0 0 0 0 0 0 0 0 0 0 0 0 0 0 0 0 0 0 0.13 0" />
			<feBlend mode="normal" in2="BackgroundImageFix" result="effect1_dropShadow_2379_5063" />
			<feBlend mode="normal" in="SourceGraphic" in2="effect1_dropShadow_2379_5063" result="shape" />
		</filter>
		<linearGradient id="paint0_linear_2379_5063" x1="21.0732" y1="0.926758" x2="21.0732" y2="35.0732"
			gradientUnits="userSpaceOnUse">
			<stop stop-color="white" />
			<stop offset="1" stop-color="white" stop-opacity="0" />
		</linearGradient>
		<linearGradient id="paint1_linear_2379_5063" x1="28.3388" y1="-0.889443" x2="11.9921" y2="37.6161"
			gradientUnits="userSpaceOnUse">
			<stop stop-color="white" />
			<stop offset="1" stop-color="white" />
		</linearGradient>
	</defs>
</svg>