<svg width="121" height="25" viewBox="0 0 121 25" fill="none" xmlns="http://www.w3.org/2000/svg">
<path d="M115.638 17.8617C112.566 17.8617 110.607 15.7497 110.607 12.5049C110.607 9.27927 112.566 7.14807 115.58 7.14807C118.518 7.14807 120.457 9.18327 120.457 12.6393V13.1961H113.161C113.257 15.0009 114.198 15.9033 115.657 15.9033C116.751 15.9033 117.5 15.3849 117.788 14.4825L120.303 14.6361C119.747 16.6329 117.999 17.8617 115.638 17.8617ZM117.903 11.5449C117.788 9.87447 116.886 9.08727 115.58 9.08727C114.255 9.08727 113.353 9.95127 113.161 11.5449H117.903Z" fill="url(#paint0_linear_229_1039)" fill-opacity="0.96"/>
<path d="M102.964 17.8617C100.333 17.8617 98.7012 15.7881 98.7012 12.5049C98.7012 9.22167 100.372 7.14807 102.964 7.14807C104.384 7.14807 105.517 7.78167 106.074 8.83767V3.99927H108.532V17.6313H106.208L106.151 16.1145C105.575 17.2089 104.384 17.8617 102.964 17.8617ZM103.693 15.8649C105.21 15.8649 106.074 14.6745 106.074 12.5049C106.074 10.3161 105.229 9.14487 103.693 9.14487C102.196 9.14487 101.255 10.4121 101.255 12.5049C101.255 14.5593 102.215 15.8649 103.693 15.8649Z" fill="url(#paint1_linear_229_1039)" fill-opacity="0.96"/>
<path d="M90.9472 17.8617C88.7968 17.8617 87.376 16.8441 87.376 15.0585C87.376 13.2921 88.4704 12.3513 90.7168 11.9097L94.1152 11.2377C94.1152 9.79767 93.4432 9.04887 92.1568 9.04887C90.9472 9.04887 90.2944 9.60567 90.064 10.6425L87.5488 10.5273C87.952 8.37687 89.6032 7.14807 92.1568 7.14807C95.0752 7.14807 96.5728 8.68407 96.5728 11.4105V15.1353C96.5728 15.6921 96.7648 15.8457 97.1488 15.8457H97.4752V17.6313C97.3216 17.6697 96.9184 17.7081 96.592 17.7081C95.4784 17.7081 94.6528 17.3049 94.4416 16.0377C93.9424 17.1321 92.6368 17.8617 90.9472 17.8617ZM91.4464 16.0761C93.0784 16.0761 94.1152 15.0393 94.1152 13.4841V12.9081L91.4656 13.4457C90.3712 13.6569 89.9296 14.1177 89.9296 14.8281C89.9296 15.6345 90.4672 16.0761 91.4464 16.0761Z" fill="url(#paint2_linear_229_1039)" fill-opacity="0.96"/>
<path d="M76.627 17.6313V3.99927H79.0846V8.76087C79.6222 7.66647 80.7166 7.14807 82.003 7.14807C84.2686 7.14807 85.4782 8.76087 85.4782 11.0457V17.6313H83.0206V11.6409C83.0206 9.97047 82.4638 9.14487 81.2734 9.14487C79.9294 9.14487 79.0846 10.0281 79.0846 11.6985V17.6313H76.627Z" fill="url(#paint3_linear_229_1039)" fill-opacity="0.96"/>
<path d="M70.4068 17.8617C67.3732 17.8617 65.7796 16.4217 65.626 14.4057L68.1412 14.2905C68.314 15.3657 68.986 15.9801 70.4068 15.9801C71.5588 15.9801 72.25 15.6345 72.25 14.8281C72.25 14.1369 71.9044 13.8297 70.0036 13.5033C66.8548 12.9657 65.8756 12.1209 65.8756 10.3737C65.8756 8.47287 67.3732 7.14807 70.2148 7.14807C72.9796 7.14807 74.4004 8.62647 74.6884 10.6041L72.1924 10.7193C72.0196 9.68247 71.3284 9.02967 70.1956 9.02967C69.0244 9.02967 68.4292 9.54807 68.4292 10.2969C68.4292 11.1225 68.9668 11.4489 70.522 11.6985C73.7476 12.1977 74.8036 13.0809 74.8036 14.7897C74.8036 16.7673 73.018 17.8617 70.4068 17.8617Z" fill="url(#paint4_linear_229_1039)" fill-opacity="0.96"/>
<path d="M56.4876 20.5113V18.6105H57.7932C58.4652 18.6105 58.734 18.4185 58.926 17.9385L59.1948 17.2281H58.4844L54.8364 7.37848H57.3708L59.9628 14.9241L62.4012 7.37848H64.9548L60.942 18.7065C60.5004 19.9737 59.7324 20.5113 58.2348 20.5113H56.4876Z" fill="url(#paint5_linear_229_1039)" fill-opacity="0.96"/>
<path d="M49.3566 17.8617C46.2846 17.8617 44.3262 15.7497 44.3262 12.5049C44.3262 9.27927 46.2846 7.14807 49.299 7.14807C52.2366 7.14807 54.1758 9.18327 54.1758 12.6393V13.1961H46.8798C46.9758 15.0009 47.9166 15.9033 49.3758 15.9033C50.4702 15.9033 51.219 15.3849 51.507 14.4825L54.0222 14.6361C53.4654 16.6329 51.7182 17.8617 49.3566 17.8617ZM51.6222 11.5449C51.507 9.87447 50.6046 9.08727 49.299 9.08727C47.9742 9.08727 47.0718 9.95127 46.8798 11.5449H51.6222Z" fill="url(#paint6_linear_229_1039)" fill-opacity="0.96"/>
<path d="M33 17.6313V3.99927H35.496V10.2201L40.8336 3.99927H43.7904L38.6832 9.98967L44.1168 17.6313H41.256L37.032 11.6985L35.496 13.4457V17.6313H33Z" fill="url(#paint7_linear_229_1039)" fill-opacity="0.96"/>
<path fill-rule="evenodd" clip-rule="evenodd" d="M10.2898 -0.000244141C9.65303 -0.000244141 9.12858 0.532813 9.12858 1.18004V6.17959C9.12858 6.31043 9.06498 6.43197 8.95853 6.50539C8.85194 6.5788 8.7175 6.59372 8.59788 6.54529L4.67859 4.89477C4.53155 4.8328 4.37808 4.80486 4.22722 4.80645C3.77478 4.81116 3.34398 5.0857 3.16115 5.53412L1.08746 10.6227C0.84382 11.2206 1.12702 11.9184 1.71579 12.165L6.46925 14.1567C6.57828 14.2026 6.66022 14.2958 6.69305 14.4111C6.72588 14.5263 6.70514 14.6489 6.63704 14.7469L3.52526 18.7496C3.13766 19.263 3.23409 20.0109 3.73921 20.4048L8.03885 23.7583C8.54393 24.1523 9.27983 24.0535 9.66738 23.54L12.6931 19.6471C12.7665 19.5498 12.8794 19.4934 13 19.4934C13.1206 19.4934 13.2335 19.5498 13.3069 19.6471L16.3326 23.54C16.7202 24.0534 17.4559 24.1523 17.9611 23.7583L22.2607 20.4048C22.7659 20.0108 22.8623 19.2632 22.4747 18.7496L19.363 14.7469C19.2948 14.6491 19.2743 14.5263 19.3069 14.4111C19.3398 14.2958 19.4217 14.2026 19.5307 14.1567L24.2842 12.165C24.873 11.9184 25.1562 11.2208 24.9125 10.6227L22.8386 5.53412C22.6558 5.08575 22.225 4.8112 21.7726 4.80645C21.6217 4.80486 21.4683 4.83297 21.3212 4.89477L17.4019 6.54529C17.2823 6.5938 17.1478 6.5788 17.0413 6.50539C16.9343 6.43197 16.8707 6.31043 16.8707 6.17959V1.18004C16.8707 0.532813 16.3462 -0.000244141 15.7095 -0.000244141H10.2898Z" fill="url(#paint8_linear_229_1039)" fill-opacity="0.88"/>
<mask id="mask0_229_1039" style="mask-type:luminance" maskUnits="userSpaceOnUse" x="1" y="-1" width="24" height="25">
<path fill-rule="evenodd" clip-rule="evenodd" d="M10.2898 -0.000244141C9.65303 -0.000244141 9.12858 0.532813 9.12858 1.18004V6.17959C9.12858 6.31043 9.06498 6.43197 8.95853 6.50539C8.85194 6.5788 8.7175 6.59372 8.59788 6.54529L4.67859 4.89477C4.53155 4.8328 4.37808 4.80486 4.22722 4.80645C3.77478 4.81116 3.34398 5.0857 3.16115 5.53412L1.08746 10.6227C0.84382 11.2206 1.12702 11.9184 1.71579 12.165L6.46925 14.1567C6.57828 14.2026 6.66022 14.2958 6.69305 14.4111C6.72588 14.5263 6.70514 14.6489 6.63704 14.7469L3.52526 18.7496C3.13766 19.263 3.23409 20.0109 3.73921 20.4048L8.03885 23.7583C8.54393 24.1523 9.27983 24.0535 9.66738 23.54L12.6931 19.6471C12.7665 19.5498 12.8794 19.4934 13 19.4934C13.1206 19.4934 13.2335 19.5498 13.3069 19.6471L16.3326 23.54C16.7202 24.0534 17.4559 24.1523 17.9611 23.7583L22.2607 20.4048C22.7659 20.0108 22.8623 19.2632 22.4747 18.7496L19.363 14.7469C19.2948 14.6491 19.2743 14.5263 19.3069 14.4111C19.3398 14.2958 19.4217 14.2026 19.5307 14.1567L24.2842 12.165C24.873 11.9184 25.1562 11.2208 24.9125 10.6227L22.8386 5.53412C22.6558 5.08575 22.225 4.8112 21.7726 4.80645C21.6217 4.80486 21.4683 4.83297 21.3212 4.89477L17.4019 6.54529C17.2823 6.5938 17.1478 6.5788 17.0413 6.50539C16.9343 6.43197 16.8707 6.31043 16.8707 6.17959V1.18004C16.8707 0.532813 16.3462 -0.000244141 15.7095 -0.000244141H10.2898Z" fill="white"/>
</mask>
<g mask="url(#mask0_229_1039)">
<path d="M8.95868 6.50527L9.32331 7.03473L9.32365 7.03447L8.95868 6.50527ZM8.59804 6.54517L8.34852 7.13763L8.35263 7.13939L8.35679 7.14106L8.59804 6.54517ZM6.46941 14.1566L6.71875 13.5641L6.71785 13.5637L6.46941 14.1566ZM6.63719 14.7468L7.14475 15.1413L7.15529 15.1278L7.16506 15.1137L6.63719 14.7468ZM3.52542 18.7495L3.0179 18.3549L3.01512 18.3585L3.01237 18.3621L3.52542 18.7495ZM9.66754 23.5398L9.15994 23.1453L9.15715 23.1489L9.15436 23.1526L9.66754 23.5398ZM12.6933 19.647L13.2009 20.0415L13.2036 20.0379L13.2064 20.0342L12.6933 19.647ZM13.307 19.647L12.7939 20.0342L12.7966 20.0379L12.7995 20.0415L13.307 19.647ZM16.3328 23.5398L16.8458 23.1525L16.8431 23.1489L16.8403 23.1453L16.3328 23.5398ZM22.4748 18.7495L22.9879 18.3622L22.9851 18.3585L22.9824 18.3549L22.4748 18.7495ZM19.3631 14.7468L18.8356 15.1142L18.8452 15.128L18.8556 15.1413L19.3631 14.7468ZM19.3071 14.411L18.6888 14.2348L18.6886 14.2357L19.3071 14.411ZM19.5309 14.1566L19.2824 13.5637L19.2815 13.5641L19.5309 14.1566ZM17.4021 6.54517L17.6437 7.14089L17.6476 7.1393L17.6516 7.13763L17.4021 6.54517ZM17.0414 6.50527L17.406 5.97586L17.4051 5.97521L17.0414 6.50527ZM10.29 -0.643219C9.28834 -0.643219 8.48588 0.187524 8.48588 1.17993H9.77159C9.77159 0.877868 10.018 0.642496 10.29 0.642496V-0.643219ZM8.48588 1.17993V6.17947H9.77159V1.17993H8.48588ZM8.48588 6.17947C8.48588 6.10109 8.52441 6.02386 8.59371 5.97607L9.32365 7.03447C9.60582 6.83986 9.77159 6.51954 9.77159 6.17947H8.48588ZM8.59371 5.97607C8.66425 5.92747 8.75768 5.91629 8.83924 5.94929L8.35679 7.14106C8.67762 7.27092 9.03955 7.23016 9.32331 7.03473L8.59371 5.97607ZM8.84751 5.95271L4.92826 4.3022L4.42902 5.48703L8.34852 7.13763L8.84751 5.95271ZM4.92826 4.3022C4.69662 4.20457 4.45572 4.16103 4.2206 4.16351L4.2341 5.44914C4.3007 5.44846 4.36653 5.46067 4.42902 5.48703L4.92826 4.3022ZM4.2206 4.16351C3.51663 4.17088 2.84934 4.59646 2.56602 5.2913L3.75659 5.77674C3.83896 5.57471 4.03323 5.45124 4.2341 5.44914L4.2206 4.16351ZM2.56602 5.2913L0.492286 10.3799L1.68294 10.8652L3.75659 5.77674L2.56602 5.2913ZM0.492286 10.3799C0.118828 11.2964 0.545686 12.3717 1.46759 12.7578L1.96439 11.572C1.70874 11.4649 1.56907 11.1446 1.68294 10.8652L0.492286 10.3799ZM1.46759 12.7578L6.22096 14.7495L6.71785 13.5637L1.96439 11.572L1.46759 12.7578ZM6.22006 14.7492C6.14613 14.718 6.09458 14.6561 6.0749 14.5871L7.31146 14.2349C7.22613 13.9354 7.01073 13.687 6.71875 13.5641L6.22006 14.7492ZM6.0749 14.5871C6.05463 14.516 6.06788 14.4395 6.10932 14.3799L7.16506 15.1137C7.34266 14.8581 7.39739 14.5364 7.31146 14.2349L6.0749 14.5871ZM6.12968 14.3522L3.0179 18.3549L4.03297 19.1441L7.14475 15.1413L6.12968 14.3522ZM3.01237 18.3621C2.41499 19.1534 2.55972 20.3 3.34405 20.9116L4.13472 19.8978C3.90886 19.7217 3.86065 19.3724 4.0385 19.1368L3.01237 18.3621ZM3.34405 20.9116L7.64365 24.2651L8.43441 23.2513L4.13472 19.8978L3.34405 20.9116ZM7.64365 24.2651C8.43411 24.8816 9.57856 24.725 10.1807 23.9271L9.15436 23.1526C8.98139 23.3818 8.65409 23.4226 8.43441 23.2513L7.64365 24.2651ZM10.1751 23.9343L13.2009 20.0415L12.1857 19.2525L9.15994 23.1453L10.1751 23.9343ZM13.2064 20.0342C13.1594 20.0965 13.083 20.1362 13.0002 20.1362V18.8505C12.6762 18.8505 12.374 19.0029 12.1801 19.2598L13.2064 20.0342ZM13.0002 20.1362C12.9173 20.1362 12.8409 20.0965 12.7939 20.0342L13.8202 19.2598C13.6264 19.0029 13.3242 18.8505 13.0002 18.8505V20.1362ZM12.7995 20.0415L15.8252 23.9343L16.8403 23.1453L13.8146 19.2525L12.7995 20.0415ZM15.8197 23.9272C16.4218 24.7247 17.5659 24.8817 18.3566 24.2651L17.566 23.2512C17.3462 23.4226 17.019 23.3818 16.8458 23.1525L15.8197 23.9272ZM18.3566 24.2651L22.6563 20.9116L21.8655 19.8978L17.566 23.2512L18.3566 24.2651ZM22.6563 20.9116C23.4406 20.2999 23.5853 19.1536 22.9879 18.3622L21.9618 19.1368C22.1397 19.3725 22.0915 19.7215 21.8655 19.8978L22.6563 20.9116ZM22.9824 18.3549L19.8706 14.3522L18.8556 15.1413L21.9673 19.144L22.9824 18.3549ZM19.8906 14.3794C19.9329 14.4402 19.9453 14.5167 19.9256 14.5863L18.6886 14.2357C18.6036 14.5357 18.657 14.8577 18.8356 15.1142L19.8906 14.3794ZM19.9253 14.5872C19.9057 14.6561 19.8541 14.718 19.7802 14.7491L19.2815 13.5641C18.9895 13.687 18.7742 13.9354 18.6888 14.2348L19.9253 14.5872ZM19.7793 14.7495L24.5328 12.7578L24.036 11.5719L19.2824 13.5637L19.7793 14.7495ZM24.5328 12.7578C25.4548 12.3716 25.8814 11.2966 25.5081 10.38L24.3173 10.8651C24.4312 11.1447 24.2916 11.4649 24.036 11.5719L24.5328 12.7578ZM25.5081 10.38L23.4341 5.29139L22.2435 5.77666L24.3173 10.8651L25.5081 10.38ZM23.4341 5.29139C23.1507 4.59659 22.4834 4.17093 21.7795 4.16351L21.7659 5.44914C21.9669 5.45124 22.1611 5.57467 22.2435 5.77666L23.4341 5.29139ZM21.7795 4.16351C21.5439 4.16103 21.3031 4.205 21.0723 4.30203L21.5705 5.48729C21.6338 5.46067 21.6998 5.44846 21.7659 5.44914L21.7795 4.16351ZM21.0723 4.30203L17.1526 5.95271L17.6516 7.13763L21.5705 5.48729L21.0723 4.30203ZM17.1604 5.94946C17.2425 5.91611 17.3357 5.92743 17.406 5.97586L16.6768 7.03473C16.9603 7.22999 17.3224 7.27122 17.6437 7.14089L17.1604 5.94946ZM17.4051 5.97521C17.4748 6.023 17.5137 6.10079 17.5137 6.17947H16.228C16.228 6.51984 16.3941 6.84071 16.6777 7.03537L17.4051 5.97521ZM17.5137 6.17947V1.17993H16.228V6.17947H17.5137ZM17.5137 1.17993C17.5137 0.187567 16.7113 -0.643219 15.7096 -0.643219V0.642496C15.9815 0.642496 16.228 0.877782 16.228 1.17993H17.5137ZM15.7096 -0.643219H10.29V0.642496H15.7096V-0.643219Z" fill="url(#paint9_linear_229_1039)"/>
</g>
<defs>
<linearGradient id="paint0_linear_229_1039" x1="31.464" y1="11.0313" x2="121.464" y2="11.0313" gradientUnits="userSpaceOnUse">
<stop stop-color="white"/>
<stop offset="1" stop-color="white" stop-opacity="0.8"/>
</linearGradient>
<linearGradient id="paint1_linear_229_1039" x1="31.464" y1="11.0313" x2="121.464" y2="11.0313" gradientUnits="userSpaceOnUse">
<stop stop-color="white"/>
<stop offset="1" stop-color="white" stop-opacity="0.8"/>
</linearGradient>
<linearGradient id="paint2_linear_229_1039" x1="31.4638" y1="11.0313" x2="121.464" y2="11.0313" gradientUnits="userSpaceOnUse">
<stop stop-color="white"/>
<stop offset="1" stop-color="white" stop-opacity="0.8"/>
</linearGradient>
<linearGradient id="paint3_linear_229_1039" x1="31.4642" y1="11.0313" x2="121.464" y2="11.0313" gradientUnits="userSpaceOnUse">
<stop stop-color="white"/>
<stop offset="1" stop-color="white" stop-opacity="0.8"/>
</linearGradient>
<linearGradient id="paint4_linear_229_1039" x1="31.4638" y1="11.0313" x2="121.464" y2="11.0313" gradientUnits="userSpaceOnUse">
<stop stop-color="white"/>
<stop offset="1" stop-color="white" stop-opacity="0.8"/>
</linearGradient>
<linearGradient id="paint5_linear_229_1039" x1="31.464" y1="11.0313" x2="121.464" y2="11.0313" gradientUnits="userSpaceOnUse">
<stop stop-color="white"/>
<stop offset="1" stop-color="white" stop-opacity="0.8"/>
</linearGradient>
<linearGradient id="paint6_linear_229_1039" x1="31.464" y1="11.0313" x2="121.464" y2="11.0313" gradientUnits="userSpaceOnUse">
<stop stop-color="white"/>
<stop offset="1" stop-color="white" stop-opacity="0.8"/>
</linearGradient>
<linearGradient id="paint7_linear_229_1039" x1="31.464" y1="11.0313" x2="121.464" y2="11.0313" gradientUnits="userSpaceOnUse">
<stop stop-color="white"/>
<stop offset="1" stop-color="white" stop-opacity="0.8"/>
</linearGradient>
<linearGradient id="paint8_linear_229_1039" x1="14.2766" y1="-0.000244115" x2="9.1702" y2="24.7657" gradientUnits="userSpaceOnUse">
<stop stop-color="white"/>
<stop offset="1" stop-color="#CEF8FF"/>
</linearGradient>
<linearGradient id="paint9_linear_229_1039" x1="18.1065" y1="-1.27695" x2="6.61717" y2="25.7869" gradientUnits="userSpaceOnUse">
<stop stop-color="white" stop-opacity="0.31"/>
<stop offset="1" stop-color="white" stop-opacity="0"/>
</linearGradient>
</defs>
</svg>
