<svg xmlns="http://www.w3.org/2000/svg" width="24" height="25" viewBox="0 0 24 25" fill="none">
	<path
		d="M12 15.5C13.6569 15.5 15 14.1569 15 12.5C15 10.8431 13.6569 9.5 12 9.5C10.3431 9.5 9 10.8431 9 12.5C9 14.1569 10.3431 15.5 12 15.5Z"
		stroke="currentColor" stroke-opacity="0.866667" stroke-width="1.5" stroke-miterlimit="10" stroke-linecap="round"
		stroke-linejoin="round" />
	<path
		d="M2 13.3799V11.6199C2 10.5799 2.85 9.71994 3.9 9.71994C5.71 9.71994 6.45 8.43994 5.54 6.86994C5.02 5.96994 5.33 4.79994 6.24 4.27994L7.97 3.28994C8.76 2.81994 9.78 3.09994 10.25 3.88994L10.36 4.07994C11.26 5.64994 12.74 5.64994 13.65 4.07994L13.76 3.88994C14.23 3.09994 15.25 2.81994 16.04 3.28994L17.77 4.27994C18.68 4.79994 18.99 5.96994 18.47 6.86994C17.56 8.43994 18.3 9.71994 20.11 9.71994C21.15 9.71994 22.01 10.5699 22.01 11.6199V13.3799C22.01 14.4199 21.16 15.2799 20.11 15.2799C18.3 15.2799 17.56 16.5599 18.47 18.1299C18.99 19.0399 18.68 20.1999 17.77 20.7199L16.04 21.7099C15.25 22.1799 14.23 21.8999 13.76 21.1099L13.65 20.9199C12.75 19.3499 11.27 19.3499 10.36 20.9199L10.25 21.1099C9.78 21.8999 8.76 22.1799 7.97 21.7099L6.24 20.7199C5.33 20.1999 5.02 19.0299 5.54 18.1299C6.45 16.5599 5.71 15.2799 3.9 15.2799C2.85 15.2799 2 14.4199 2 13.3799Z"
		stroke="currentColor" stroke-opacity="0.866667" stroke-width="1.5" stroke-miterlimit="10" stroke-linecap="round"
		stroke-linejoin="round" />
</svg>