<svg width="20" height="21" viewBox="0 0 20 21" fill="none" xmlns="http://www.w3.org/2000/svg">
<path d="M14.1667 3.4165H5.83332C3.33332 3.4165 1.66666 4.6665 1.66666 7.58317V13.4165C1.66666 16.3332 3.33332 17.5832 5.83332 17.5832H14.1667C16.6667 17.5832 18.3333 16.3332 18.3333 13.4165V7.58317C18.3333 4.6665 16.6667 3.4165 14.1667 3.4165ZM14.5583 8.4915L11.95 10.5748C11.4 11.0165 10.7 11.2332 9.99999 11.2332C9.29999 11.2332 8.59166 11.0165 8.04999 10.5748L5.44166 8.4915C5.17499 8.27484 5.13332 7.87484 5.34166 7.60817C5.55832 7.3415 5.94999 7.2915 6.21666 7.50817L8.82499 9.5915C9.45832 10.0998 10.5333 10.0998 11.1667 9.5915L13.775 7.50817C14.0417 7.2915 14.4417 7.33317 14.65 7.60817C14.8667 7.87484 14.825 8.27484 14.5583 8.4915Z" fill="#FAFAFA"/>
</svg>
