<svg width="21" height="20" viewBox="0 0 21 20" fill="none" xmlns="http://www.w3.org/2000/svg">
	<g id="Frame">
		<path id="Vector" fill-rule="evenodd" clip-rule="evenodd"
			d="M10.5 1.25C9.35086 1.24974 8.21293 1.47588 7.15121 1.91552C6.08949 2.35515 5.12479 2.99967 4.31223 3.81223C3.49967 4.62479 2.85515 5.58949 2.41552 6.65121C1.97588 7.71293 1.74974 8.85086 1.75 10C1.75 13.867 4.258 17.144 7.734 18.304C8.169 18.384 8.33 18.116 8.33 17.88C8.33 17.67 8.325 17.122 8.32 16.392C5.886 16.918 5.37 15.221 5.37 15.221C4.973 14.211 4.398 13.937 4.398 13.937C3.603 13.395 4.458 13.406 4.458 13.406C5.333 13.47 5.8 14.308 5.8 14.308C6.579 15.645 7.847 15.258 8.346 15.033C8.426 14.469 8.652 14.083 8.899 13.862C6.96 13.647 4.919 12.895 4.919 9.543C4.919 8.587 5.258 7.808 5.822 7.196C5.73 6.971 5.429 6.084 5.902 4.881C5.902 4.881 6.638 4.645 8.308 5.778C9.02268 5.58452 9.7596 5.48534 10.5 5.483C11.24 5.48579 11.9766 5.58496 12.691 5.778C14.362 4.645 15.098 4.881 15.098 4.881C15.576 6.084 15.275 6.976 15.184 7.196C15.743 7.808 16.081 8.587 16.081 9.543C16.081 12.906 14.034 13.642 12.085 13.862C12.396 14.131 12.681 14.668 12.681 15.484C12.681 16.655 12.67 17.595 12.67 17.885C12.67 18.121 12.826 18.39 13.272 18.305C15.0131 17.7235 16.5273 16.609 17.6001 15.1195C18.673 13.6299 19.2501 11.8407 19.25 10.005C19.2508 8.85548 19.025 7.71706 18.5856 6.65483C18.1463 5.59259 17.5018 4.62736 16.6892 3.81429C15.8766 3.00122 14.9118 2.35626 13.8498 1.91626C12.7878 1.47627 11.6495 1.24987 10.5 1.25Z"
			fill="white" fill-opacity="0.6" />
	</g>
</svg>