<svg width="20" height="21" viewBox="0 0 20 21" fill="none" xmlns="http://www.w3.org/2000/svg">
<g clip-path="url(#clip0_2763_1605)">
<path fill-rule="evenodd" clip-rule="evenodd" d="M10 1.75C8.85086 1.74974 7.71293 1.97588 6.65121 2.41552C5.58949 2.85515 4.62479 3.49967 3.81223 4.31223C2.99967 5.12479 2.35515 6.08949 1.91552 7.15121C1.47588 8.21293 1.24974 9.35086 1.25 10.5C1.25 14.367 3.758 17.644 7.234 18.804C7.669 18.884 7.83 18.616 7.83 18.38C7.83 18.17 7.825 17.622 7.82 16.892C5.386 17.418 4.87 15.721 4.87 15.721C4.473 14.711 3.898 14.437 3.898 14.437C3.103 13.895 3.958 13.906 3.958 13.906C4.833 13.97 5.3 14.808 5.3 14.808C6.079 16.145 7.347 15.758 7.846 15.533C7.926 14.969 8.152 14.583 8.399 14.362C6.46 14.147 4.419 13.395 4.419 10.043C4.419 9.087 4.758 8.308 5.322 7.696C5.23 7.471 4.929 6.584 5.402 5.381C5.402 5.381 6.138 5.145 7.808 6.278C8.52268 6.08452 9.2596 5.98534 10 5.983C10.74 5.98579 11.4766 6.08496 12.191 6.278C13.862 5.145 14.598 5.381 14.598 5.381C15.076 6.584 14.775 7.476 14.684 7.696C15.243 8.308 15.581 9.087 15.581 10.043C15.581 13.406 13.534 14.142 11.585 14.362C11.896 14.631 12.181 15.168 12.181 15.984C12.181 17.155 12.17 18.095 12.17 18.385C12.17 18.621 12.326 18.89 12.772 18.805C14.5131 18.2235 16.0273 17.109 17.1001 15.6195C18.173 14.1299 18.7501 12.3407 18.75 10.505C18.7508 9.35548 18.525 8.21706 18.0856 7.15483C17.6463 6.09259 17.0018 5.12736 16.1892 4.31429C15.3766 3.50122 14.4118 2.85626 13.3498 2.41626C12.2878 1.97627 11.1495 1.74987 10 1.75Z" fill="white"/>
</g>
<defs>
<clipPath id="clip0_2763_1605">
<rect width="20" height="20" fill="white" transform="translate(0 0.5)"/>
</clipPath>
</defs>
</svg>
