<svg width="20" height="21" viewBox="0 0 20 21" fill="none" xmlns="http://www.w3.org/2000/svg">
<path d="M19.493 8.52843L19.4653 8.4578L16.7922 1.48155C16.7378 1.34479 16.6415 1.22878 16.517 1.15015C16.3926 1.07285 16.2474 1.03562 16.1011 1.04347C15.9548 1.05132 15.8144 1.10388 15.6989 1.19405C15.5847 1.28681 15.5019 1.41252 15.4617 1.55405L13.6569 7.07624H6.34829L4.54329 1.55405C4.50413 1.4118 4.42114 1.28551 4.3061 1.19312C4.19062 1.10295 4.05025 1.05038 3.90394 1.04253C3.75764 1.03468 3.61245 1.07192 3.48798 1.14921C3.36386 1.22819 3.26763 1.34409 3.21282 1.48062L0.534695 8.45374L0.508132 8.52437C-0.282336 10.5898 0.388913 12.9294 2.15454 14.2612L2.16376 14.2684L2.18829 14.2858L6.26032 17.3351L8.27485 18.8598L9.50204 19.7864C9.6456 19.8954 9.82087 19.9543 10.0011 19.9543C10.1813 19.9543 10.3566 19.8954 10.5002 19.7864L11.7274 18.8598L13.7419 17.3351L17.8384 14.2673L17.8486 14.2592C19.61 12.927 20.2802 10.5917 19.493 8.52843Z" fill="white"/>
<path d="M19.493 8.52863L19.4653 8.45801C18.1628 8.72537 16.9354 9.2771 15.8708 10.0738L10 14.513C11.9992 16.0255 13.7397 17.3396 13.7397 17.3396L17.8363 14.2718L17.8464 14.2636C19.6106 12.9313 20.2817 10.5936 19.493 8.52863Z" fill="white"/>
<path d="M6.26031 17.3393L8.27485 18.8639L9.50203 19.7905C9.64559 19.8995 9.82087 19.9585 10.0011 19.9585C10.1813 19.9585 10.3566 19.8995 10.5002 19.7905L11.7273 18.8639L13.7419 17.3393C13.7419 17.3393 11.9994 16.0211 10.0002 14.5127C8.75278 15.4539 7.50616 16.3961 6.26031 17.3393Z" fill="white"/>
<path d="M4.12813 10.0735C3.06438 9.2752 1.83728 8.72205 0.534695 8.45361L0.508132 8.52424C-0.282336 10.5897 0.388913 12.9292 2.15454 14.2611L2.16376 14.2683L2.18829 14.2856L6.26032 17.335L10 14.5085L4.12813 10.0735Z" fill="white"/>
</svg>
