<svg width="19" height="19" viewBox="0 0 19 19" fill="none" xmlns="http://www.w3.org/2000/svg">
<path d="M17.2108 8.76367C17.1713 8.35992 16.8308 8.05908 16.4271 8.05908H10.45C10.0146 8.05908 9.65833 8.41533 9.65833 8.85075V10.2045C9.65833 10.6399 10.0146 10.9962 10.45 10.9962H14.0204C13.9333 11.7245 13.4583 12.8249 12.4054 13.5612C11.7325 14.0283 10.8379 14.3528 9.65833 14.3528C9.60292 14.3528 9.55542 14.3528 9.5 14.3449C7.48125 14.2816 5.77126 12.9278 5.15376 11.0674C4.98751 10.5687 4.8925 10.0462 4.8925 9.49992C4.8925 8.95367 4.9875 8.42324 5.14584 7.93241C5.19334 7.78991 5.24875 7.64743 5.31209 7.50493C6.04042 5.86618 7.63167 4.71034 9.5 4.65492C9.5475 4.64701 9.60292 4.647 9.65833 4.647C10.7904 4.647 11.6375 5.01907 12.2313 5.43074C12.54 5.64449 12.9517 5.59699 13.2208 5.33574L14.3213 4.25909C14.6696 3.91867 14.6379 3.34074 14.2421 3.05574C12.9833 2.12949 11.4475 1.58325 9.65833 1.58325C9.60292 1.58325 9.55542 1.58326 9.5 1.59118C6.46792 1.64659 3.86334 3.40409 2.58875 5.94534C2.05042 7.02201 1.74167 8.22534 1.74167 9.49992C1.74167 10.7745 2.05042 11.9778 2.58875 13.0545H2.59667C3.87125 15.5957 6.47584 17.3532 9.5 17.4087C9.55542 17.4166 9.60292 17.4166 9.65833 17.4166C11.7958 17.4166 13.5929 16.712 14.8992 15.5007C16.3954 14.1153 17.2583 12.0887 17.2583 9.67409C17.2583 9.33367 17.2425 9.04076 17.2108 8.76367Z" fill="white"/>
</svg>
