<svg xmlns="http://www.w3.org/2000/svg" width="131" height="130" viewBox="0 0 131 130" fill="none">
	<g filter="url(#filter0_d_5_3250)">
	  <path fill-rule="evenodd" clip-rule="evenodd" d="M51.7234 0C48.4862 0 45.8203 2.70971 45.8203 5.99979V31.4142C45.8203 32.0793 45.497 32.6971 44.9558 33.0703C44.414 33.4435 43.7306 33.5193 43.1226 33.2731L23.1995 24.883C22.4521 24.568 21.6719 24.4259 20.9051 24.434C18.6051 24.458 16.4152 25.8536 15.4859 28.133L4.9446 53.9999C3.70608 57.0392 5.14569 60.5863 8.13861 61.8399L32.302 71.9646C32.8563 72.1979 33.2728 72.6718 33.4397 73.2578C33.6066 73.8434 33.5011 74.4667 33.1549 74.9647L17.3368 95.3117C15.3665 97.9216 15.8566 101.723 18.4243 103.726L40.2808 120.772C42.8483 122.775 46.5891 122.273 48.5592 119.663L63.9399 99.8741C64.3131 99.3795 64.887 99.0928 65.5002 99.0928C66.1131 99.0928 66.6869 99.3795 67.0599 99.8741L82.4408 119.663C84.4111 122.273 88.1508 122.775 90.7192 120.772L112.575 103.726C115.143 101.723 115.634 97.9223 113.663 95.3117L97.8451 74.9647C97.4987 74.4673 97.3943 73.8434 97.5601 73.2578C97.7272 72.6718 98.1435 72.1979 98.6977 71.9646L122.861 61.8399C125.854 60.5863 127.294 57.0403 126.055 53.9999L115.513 28.133C114.584 25.8538 112.394 24.4582 110.094 24.434C109.327 24.4259 108.547 24.5689 107.8 24.883L87.8764 33.2731C87.2685 33.5197 86.5849 33.4435 86.0431 33.0703C85.4993 32.6971 85.176 32.0793 85.176 31.4142V5.99979C85.176 2.70971 82.5101 0 79.2732 0H51.7234Z" fill="url(#paint0_linear_5_3250)" fill-opacity="0.88"/>
	  <mask id="mask0_5_3250" style="mask-type:luminance" maskUnits="userSpaceOnUse" x="4" y="0" width="123" height="123">
		<path fill-rule="evenodd" clip-rule="evenodd" d="M51.7234 0C48.4862 0 45.8203 2.70971 45.8203 5.99979V31.4142C45.8203 32.0793 45.497 32.6971 44.9558 33.0703C44.414 33.4435 43.7306 33.5193 43.1226 33.2731L23.1995 24.883C22.4521 24.568 21.6719 24.4259 20.9051 24.434C18.6051 24.458 16.4152 25.8536 15.4859 28.133L4.9446 53.9999C3.70608 57.0392 5.14569 60.5863 8.13861 61.8399L32.302 71.9646C32.8563 72.1979 33.2728 72.6718 33.4397 73.2578C33.6066 73.8434 33.5011 74.4667 33.1549 74.9647L17.3368 95.3117C15.3665 97.9216 15.8566 101.723 18.4243 103.726L40.2808 120.772C42.8483 122.775 46.5891 122.273 48.5592 119.663L63.9399 99.8741C64.3131 99.3795 64.887 99.0928 65.5002 99.0928C66.1131 99.0928 66.6869 99.3795 67.0599 99.8741L82.4408 119.663C84.4111 122.273 88.1508 122.775 90.7192 120.772L112.575 103.726C115.143 101.723 115.634 97.9223 113.663 95.3117L97.8451 74.9647C97.4987 74.4673 97.3943 73.8434 97.5601 73.2578C97.7272 72.6718 98.1435 72.1979 98.6977 71.9646L122.861 61.8399C125.854 60.5863 127.294 57.0403 126.055 53.9999L115.513 28.133C114.584 25.8538 112.394 24.4582 110.094 24.434C109.327 24.4259 108.547 24.5689 107.8 24.883L87.8764 33.2731C87.2685 33.5197 86.5849 33.4435 86.0431 33.0703C85.4993 32.6971 85.176 32.0793 85.176 31.4142V5.99979C85.176 2.70971 82.5101 0 79.2732 0H51.7234Z" fill="white"/>
	  </mask>
	  <g mask="url(#mask0_5_3250)">
		<path d="M44.9567 33.0696L46.8102 35.761L46.812 35.7597L44.9567 33.0696ZM43.1234 33.2724L41.8551 36.2841L41.876 36.293L41.8971 36.3015L43.1234 33.2724ZM32.3029 71.9639L33.5704 68.952L33.5658 68.9501L32.3029 71.9639ZM33.1558 74.964L35.7359 76.9696L35.7895 76.9008L35.8391 76.8291L33.1558 74.964ZM17.3376 95.311L14.7577 93.3054L14.7436 93.3237L14.7296 93.342L17.3376 95.311ZM48.5601 119.662L45.9798 117.657L45.9656 117.675L45.9514 117.694L48.5601 119.662ZM63.9408 99.8734L66.5211 101.879L66.5352 101.86L66.5494 101.842L63.9408 99.8734ZM67.0607 99.8734L64.4523 101.842L64.4663 101.86L64.4806 101.879L67.0607 99.8734ZM82.4417 119.662L85.0496 117.693L85.0359 117.675L85.0217 117.657L82.4417 119.662ZM113.664 95.311L116.272 93.3422L116.258 93.3237L116.244 93.3054L113.664 95.311ZM97.8459 74.964L95.1643 76.8315L95.2133 76.9018L95.2658 76.9696L97.8459 74.964ZM97.561 73.2571L94.4184 72.3615L94.4171 72.3661L97.561 73.2571ZM98.6986 71.9639L97.4357 68.9501L97.4309 68.952L98.6986 71.9639ZM87.8772 33.2724L89.1057 36.3006L89.1255 36.2926L89.1456 36.2841L87.8772 33.2724ZM86.0439 33.0696L87.8975 30.3784L87.8929 30.3752L86.0439 33.0696ZM51.7242 -3.26855C46.6325 -3.26855 42.5533 0.954391 42.5533 5.99909H49.089C49.089 4.46364 50.3417 3.26716 51.7242 3.26716V-3.26855ZM42.5533 5.99909V31.4135H49.089V5.99909H42.5533ZM42.5533 31.4135C42.5533 31.015 42.7491 30.6224 43.1014 30.3795L46.812 35.7597C48.2463 34.7704 49.089 33.1422 49.089 31.4135H42.5533ZM43.1014 30.3795C43.46 30.1325 43.9349 30.0756 44.3495 30.2433L41.8971 36.3015C43.528 36.9616 45.3678 36.7544 46.8102 35.761L43.1014 30.3795ZM44.3916 30.2608L24.4687 21.8707L21.9309 27.8935L41.8551 36.2841L44.3916 30.2608ZM24.4687 21.8707C23.2912 21.3744 22.0666 21.153 20.8715 21.1657L20.9401 27.701C21.2787 27.6975 21.6133 27.7596 21.9309 27.8935L24.4687 21.8707ZM20.8715 21.1657C17.293 21.2031 13.9009 23.3665 12.4607 26.8986L18.5127 29.3663C18.9315 28.3393 19.919 27.7116 20.9401 27.701L20.8715 21.1657ZM12.4607 26.8986L1.9192 52.7659L7.97171 55.2325L18.5127 29.3663L12.4607 26.8986ZM1.9192 52.7659C0.0207928 57.4245 2.19065 62.8906 6.87698 64.8535L9.40238 58.8254C8.10286 58.2812 7.39287 56.6527 7.97171 55.2325L1.9192 52.7659ZM6.87698 64.8535L31.04 74.978L33.5658 68.9501L9.40238 58.8254L6.87698 64.8535ZM31.0354 74.976C30.6596 74.8178 30.3975 74.5028 30.2975 74.1523L36.5833 72.3619C36.1496 70.8393 35.0546 69.5766 33.5704 68.952L31.0354 74.976ZM30.2975 74.1523C30.1945 73.7908 30.2618 73.402 30.4724 73.0989L35.8391 76.8291C36.742 75.53 37.0201 73.8945 36.5833 72.3619L30.2975 74.1523ZM30.5759 72.9582L14.7577 93.3054L19.9177 97.3168L35.7359 76.9696L30.5759 72.9582ZM14.7296 93.342C11.6929 97.3643 12.4286 103.193 16.4156 106.302L20.4349 101.148C19.2868 100.253 19.0417 98.4776 19.9458 97.28L14.7296 93.342ZM16.4156 106.302L38.272 123.349L42.2916 118.195L20.4349 101.148L16.4156 106.302ZM38.272 123.349C42.2901 126.483 48.1078 125.686 51.1685 121.631L45.9514 117.694C45.0722 118.859 43.4084 119.066 42.2916 118.195L38.272 123.349ZM51.1401 121.667L66.5211 101.879L61.3607 97.8678L45.9798 117.657L51.1401 121.667ZM66.5494 101.842C66.3102 102.158 65.9218 102.36 65.5011 102.36V95.8243C63.8539 95.8243 62.3177 96.5992 61.3324 97.905L66.5494 101.842ZM65.5011 102.36C65.0795 102.36 64.6911 102.158 64.4523 101.842L69.6693 97.905C68.6842 96.5994 67.1483 95.8243 65.5011 95.8243V102.36ZM64.4806 101.879L79.8616 121.667L85.0217 117.657L69.641 97.8678L64.4806 101.879ZM79.8335 121.631C82.8944 125.685 88.7103 126.483 92.7295 123.349L88.7105 118.195C87.5931 119.066 85.9298 118.859 85.0496 117.693L79.8335 121.631ZM92.7295 123.349L114.586 106.302L110.567 101.148L88.7105 118.195L92.7295 123.349ZM114.586 106.302C118.573 103.192 119.309 97.3652 116.272 93.3422L111.056 97.2798C111.96 98.478 111.715 100.252 110.567 101.148L114.586 106.302ZM116.244 93.3054L100.426 72.9582L95.2658 76.9696L111.084 97.3166L116.244 93.3054ZM100.528 73.0963C100.743 73.4052 100.805 73.7941 100.705 74.1479L94.4171 72.3661C93.9848 73.8911 94.2565 75.528 95.1643 76.8315L100.528 73.0963ZM100.704 74.1527C100.604 74.503 100.342 74.8178 99.9663 74.9758L97.4309 68.952C95.9469 69.5766 94.8521 70.8393 94.4184 72.3615L100.704 74.1527ZM99.9615 74.978L124.125 64.8532L121.6 58.8251L97.4357 68.9501L99.9615 74.978ZM124.125 64.8532C128.812 62.8904 130.981 57.4256 129.083 52.7663L123.03 55.232C123.609 56.6535 122.899 58.2809 121.6 58.8251L124.125 64.8532ZM129.083 52.7663L118.54 26.899L112.488 29.3658L123.03 55.232L129.083 52.7663ZM118.54 26.899C117.1 23.3671 113.707 21.2034 110.129 21.1657L110.06 27.701C111.082 27.7116 112.069 28.3391 112.488 29.3658L118.54 26.899ZM110.129 21.1657C108.932 21.153 107.707 21.3766 106.534 21.8698L109.067 27.8948C109.388 27.7596 109.724 27.6975 110.06 27.701L110.129 21.1657ZM106.534 21.8698L86.6091 30.2608L89.1456 36.2841L109.067 27.8948L106.534 21.8698ZM86.6489 30.2442C87.0663 30.0747 87.54 30.1322 87.8975 30.3784L84.1904 35.761C85.6315 36.7536 87.4724 36.9632 89.1057 36.3006L86.6489 30.2442ZM87.8929 30.3752C88.2471 30.6181 88.4447 31.0135 88.4447 31.4135H81.909C81.909 33.1437 82.7532 34.7748 84.195 35.7643L87.8929 30.3752ZM88.4447 31.4135V5.99909H81.909V31.4135H88.4447ZM88.4447 5.99909C88.4447 0.954608 84.3658 -3.26855 79.274 -3.26855V3.26716C80.6561 3.26716 81.909 4.4632 81.909 5.99909H88.4447ZM79.274 -3.26855H51.7242V3.26716H79.274V-3.26855Z" fill="url(#paint1_linear_5_3250)"/>
	  </g>
	</g>
	<defs>
	  <filter id="filter0_d_5_3250" x="0.5" y="0" width="130" height="130" filterUnits="userSpaceOnUse" color-interpolation-filters="sRGB">
		<feFlood flood-opacity="0" result="BackgroundImageFix"/>
		<feColorMatrix in="SourceAlpha" type="matrix" values="0 0 0 0 0 0 0 0 0 0 0 0 0 0 0 0 0 0 127 0" result="hardAlpha"/>
		<feOffset dy="4"/>
		<feGaussianBlur stdDeviation="2"/>
		<feComposite in2="hardAlpha" operator="out"/>
		<feColorMatrix type="matrix" values="0 0 0 0 0 0 0 0 0 0 0 0 0 0 0 0 0 0 0.13 0"/>
		<feBlend mode="normal" in2="BackgroundImageFix" result="effect1_dropShadow_5_3250"/>
		<feBlend mode="normal" in="SourceGraphic" in2="effect1_dropShadow_5_3250" result="shape"/>
	  </filter>
	  <linearGradient id="paint0_linear_5_3250" x1="71.9893" y1="1.28374e-07" x2="46.0318" y2="125.894" gradientUnits="userSpaceOnUse">
		<stop stop-color="#E6E6E6"/>
		<stop offset="0.551312" stop-color="#8FB1B8"/>
		<stop offset="1" stop-color="#6C9AA4"/>
	  </linearGradient>
	  <linearGradient id="paint1_linear_5_3250" x1="91.4583" y1="-6.49001" x2="33.054" y2="131.084" gradientUnits="userSpaceOnUse">
		<stop stop-color="white" stop-opacity="0.31"/>
		<stop offset="1" stop-color="white" stop-opacity="0"/>
	  </linearGradient>
	</defs>
  </svg>