<svg width="265" height="49" viewBox="0 0 265 49" fill="none" xmlns="http://www.w3.org/2000/svg">
<path d="M0.5 16.5C0.5 7.66344 7.66344 0.5 16.5 0.5H248.5C257.337 0.5 264.5 7.66344 264.5 16.5V48.5H0.5V16.5Z" fill="#1E3F51"/>
<path d="M0.5 16.5C0.5 7.66344 7.66344 0.5 16.5 0.5H248.5C257.337 0.5 264.5 7.66344 264.5 16.5V48.5H0.5V16.5Z" fill="url(#paint0_radial_1_1979)"/>
<g opacity="0.6">
<path d="M31.9242 24.1902L34.0334 23.2306L33.8098 20.9242L34.7694 23.0334L37.0758 22.8098L34.9666 23.7694L35.1902 26.0758L34.2306 23.9666L31.9242 24.1902Z" fill="white"/>
<g opacity="0.1">
<path d="M34.7316 24.8131C35.4567 24.6852 35.941 23.9937 35.8131 23.2685C35.6852 22.5433 34.9937 22.0591 34.2685 22.1869C33.5433 22.3148 33.0591 23.0063 33.1869 23.7315C33.3148 24.4567 34.0064 24.941 34.7316 24.8131Z" fill="white"/>
</g>
</g>
<g opacity="0.6">
<path d="M46.5681 12.0176L48.1501 11.2979L47.9824 9.56812L48.702 11.15L50.4319 10.9823L48.8499 11.702L49.0176 13.4318L48.298 11.8499L46.5681 12.0176Z" fill="white"/>
<g opacity="0.1">
<path d="M48.6737 12.4847C49.2176 12.3888 49.5807 11.8702 49.4848 11.3263C49.3889 10.7824 48.8703 10.4192 48.3264 10.5151C47.7825 10.611 47.4193 11.1297 47.5152 11.6736C47.6111 12.2175 48.1298 12.5807 48.6737 12.4847Z" fill="white"/>
</g>
</g>
<g opacity="0.6">
<path d="M213.28 12.3627L215.917 11.1633L215.637 8.28021L216.837 10.9168L219.72 10.6372L217.083 11.8367L217.363 14.7197L216.163 12.0832L213.28 12.3627Z" fill="white"/>
<g opacity="0.1">
<path d="M216.789 13.1413C217.696 12.9815 218.301 12.117 218.141 11.2105C217.982 10.304 217.117 9.69876 216.211 9.8586C215.304 10.0184 214.699 10.8829 214.859 11.7894C215.019 12.6958 215.883 13.3011 216.789 13.1413Z" fill="white"/>
</g>
</g>
<g opacity="0.6">
<path d="M246.568 15.0176L248.15 14.2979L247.982 12.5681L248.702 14.15L250.432 13.9823L248.85 14.702L249.018 16.4318L248.298 14.8499L246.568 15.0176Z" fill="white"/>
<g opacity="0.1">
<path d="M248.674 15.4847C249.218 15.3888 249.581 14.8702 249.485 14.3263C249.389 13.7824 248.87 13.4192 248.326 13.5151C247.782 13.611 247.419 14.1297 247.515 14.6736C247.611 15.2175 248.13 15.5807 248.674 15.4847Z" fill="white"/>
</g>
</g>
<path d="M16.6144 10.6144L18.5 11.9613L20.3856 10.6144L19.0387 12.5001L20.3856 14.3857L18.5 13.0388L16.6144 14.3857L17.9613 12.5001L16.6144 10.6144Z" fill="white"/>
<g opacity="0.1">
<path d="M16.6144 14.3857C17.6558 15.4271 19.3442 15.4271 20.3856 14.3857C21.427 13.3443 21.427 11.6559 20.3856 10.6145C19.3442 9.5731 17.6558 9.5731 16.6144 10.6145C15.573 11.6559 15.573 13.3443 16.6144 14.3857Z" fill="white"/>
</g>
<path d="M231.614 22.6144L233.5 23.9613L235.386 22.6144L234.039 24.5001L235.386 26.3857L233.5 25.0388L231.614 26.3857L232.961 24.5001L231.614 22.6144Z" fill="white"/>
<g opacity="0.1">
<path d="M231.614 26.3857C232.656 27.4271 234.344 27.4271 235.386 26.3857C236.427 25.3443 236.427 23.6559 235.386 22.6145C234.344 21.5731 232.656 21.5731 231.614 22.6145C230.573 23.6559 230.573 25.3443 231.614 26.3857Z" fill="white"/>
</g>
<path d="M60.2688 11.7727H61.8668L64.6452 18.5568H64.7475L67.5259 11.7727H69.1239V20.5H67.8711V14.1847H67.7901L65.2162 20.4872H64.1765L61.6026 14.1804H61.5216V20.5H60.2688V11.7727ZM79.5793 16.1364C79.5793 17.0682 79.4088 17.8693 79.0679 18.5398C78.727 19.2074 78.2597 19.7216 77.6659 20.0824C77.075 20.4403 76.4032 20.6193 75.6503 20.6193C74.8946 20.6193 74.2199 20.4403 73.6262 20.0824C73.0353 19.7216 72.5694 19.206 72.2284 18.5355C71.8875 17.8651 71.7171 17.0653 71.7171 16.1364C71.7171 15.2045 71.8875 14.4048 72.2284 13.7372C72.5694 13.0668 73.0353 12.5526 73.6262 12.1946C74.2199 11.8338 74.8946 11.6534 75.6503 11.6534C76.4032 11.6534 77.075 11.8338 77.6659 12.1946C78.2597 12.5526 78.727 13.0668 79.0679 13.7372C79.4088 14.4048 79.5793 15.2045 79.5793 16.1364ZM78.2753 16.1364C78.2753 15.4261 78.1603 14.8281 77.9302 14.3423C77.7029 13.8537 77.3904 13.4844 76.9927 13.2344C76.5978 12.9815 76.1503 12.8551 75.6503 12.8551C75.1475 12.8551 74.6986 12.9815 74.3037 13.2344C73.9088 13.4844 73.5963 13.8537 73.3662 14.3423C73.139 14.8281 73.0253 15.4261 73.0253 16.1364C73.0253 16.8466 73.139 17.446 73.3662 17.9347C73.5963 18.4205 73.9088 18.7898 74.3037 19.0426C74.6986 19.2926 75.1475 19.4176 75.6503 19.4176C76.1503 19.4176 76.5978 19.2926 76.9927 19.0426C77.3904 18.7898 77.7029 18.4205 77.9302 17.9347C78.1603 17.446 78.2753 16.8466 78.2753 16.1364ZM86.9409 14.0653C86.8955 13.6619 86.708 13.3494 86.3784 13.1278C86.0489 12.9034 85.6341 12.7912 85.1341 12.7912C84.7762 12.7912 84.4665 12.848 84.2051 12.9616C83.9438 13.0724 83.7407 13.2259 83.5958 13.4219C83.4537 13.6151 83.3827 13.8352 83.3827 14.0824C83.3827 14.2898 83.431 14.4687 83.5276 14.6193C83.627 14.7699 83.7563 14.8963 83.9154 14.9986C84.0773 15.098 84.2506 15.1818 84.4353 15.25C84.6199 15.3153 84.7975 15.3693 84.9679 15.4119L85.8202 15.6335C86.0986 15.7017 86.3841 15.794 86.6767 15.9105C86.9693 16.027 87.2407 16.1804 87.4907 16.3707C87.7407 16.5611 87.9424 16.7969 88.0958 17.0781C88.252 17.3594 88.3301 17.696 88.3301 18.0881C88.3301 18.5824 88.2023 19.0213 87.9466 19.4048C87.6938 19.7884 87.3259 20.0909 86.8429 20.3125C86.3628 20.5341 85.7818 20.6449 85.1 20.6449C84.4466 20.6449 83.8813 20.5412 83.404 20.3338C82.9267 20.1264 82.5532 19.8324 82.2833 19.4517C82.0134 19.0682 81.8642 18.6136 81.8358 18.0881H83.1568C83.1824 18.4034 83.2847 18.6662 83.4637 18.8764C83.6455 19.0838 83.877 19.2386 84.1583 19.3409C84.4424 19.4403 84.7534 19.4901 85.0915 19.4901C85.4637 19.4901 85.7946 19.4318 86.0844 19.3153C86.377 19.196 86.6071 19.0312 86.7747 18.821C86.9424 18.608 87.0262 18.3594 87.0262 18.0753C87.0262 17.8168 86.9523 17.6051 86.8046 17.4403C86.6597 17.2756 86.4622 17.1392 86.2122 17.0312C85.9651 16.9233 85.6853 16.8281 85.3728 16.7457L84.3415 16.4645C83.6426 16.2741 83.0887 15.9943 82.6796 15.625C82.2733 15.2557 82.0702 14.767 82.0702 14.1591C82.0702 13.6562 82.2066 13.2173 82.4793 12.8423C82.752 12.4673 83.1213 12.1761 83.5872 11.9688C84.0532 11.7585 84.5787 11.6534 85.1639 11.6534C85.7549 11.6534 86.2762 11.7571 86.7279 11.9645C87.1824 12.1719 87.5404 12.4574 87.8017 12.821C88.0631 13.1818 88.1995 13.5966 88.2108 14.0653H86.9409ZM90.4332 12.9062V11.7727H97.1875V12.9062H94.4645V20.5H93.152V12.9062H90.4332ZM103.776 20.5V11.7727H106.887C107.566 11.7727 108.128 11.8963 108.574 12.1435C109.02 12.3906 109.354 12.7287 109.576 13.1577C109.797 13.5838 109.908 14.0639 109.908 14.598C109.908 15.1349 109.796 15.6179 109.571 16.0469C109.35 16.473 109.014 16.8111 108.566 17.0611C108.12 17.3082 107.559 17.4318 106.882 17.4318H104.743V16.3153H106.763C107.192 16.3153 107.54 16.2415 107.807 16.0938C108.074 15.9432 108.27 15.7386 108.395 15.4801C108.52 15.2216 108.583 14.9276 108.583 14.598C108.583 14.2685 108.52 13.9759 108.395 13.7202C108.27 13.4645 108.073 13.2642 107.803 13.1193C107.536 12.9744 107.184 12.902 106.746 12.902H105.093V20.5H103.776ZM119.993 16.1364C119.993 17.0682 119.822 17.8693 119.481 18.5398C119.14 19.2074 118.673 19.7216 118.079 20.0824C117.488 20.4403 116.816 20.6193 116.064 20.6193C115.308 20.6193 114.633 20.4403 114.039 20.0824C113.449 19.7216 112.983 19.206 112.642 18.5355C112.301 17.8651 112.13 17.0653 112.13 16.1364C112.13 15.2045 112.301 14.4048 112.642 13.7372C112.983 13.0668 113.449 12.5526 114.039 12.1946C114.633 11.8338 115.308 11.6534 116.064 11.6534C116.816 11.6534 117.488 11.8338 118.079 12.1946C118.673 12.5526 119.14 13.0668 119.481 13.7372C119.822 14.4048 119.993 15.2045 119.993 16.1364ZM118.689 16.1364C118.689 15.4261 118.574 14.8281 118.343 14.3423C118.116 13.8537 117.804 13.4844 117.406 13.2344C117.011 12.9815 116.564 12.8551 116.064 12.8551C115.561 12.8551 115.112 12.9815 114.717 13.2344C114.322 13.4844 114.01 13.8537 113.78 14.3423C113.552 14.8281 113.439 15.4261 113.439 16.1364C113.439 16.8466 113.552 17.446 113.78 17.9347C114.01 18.4205 114.322 18.7898 114.717 19.0426C115.112 19.2926 115.561 19.4176 116.064 19.4176C116.564 19.4176 117.011 19.2926 117.406 19.0426C117.804 18.7898 118.116 18.4205 118.343 17.9347C118.574 17.446 118.689 16.8466 118.689 16.1364ZM122.594 20.5V11.7727H125.705C126.384 11.7727 126.947 11.8963 127.393 12.1435C127.839 12.3906 128.172 12.7287 128.394 13.1577C128.616 13.5838 128.726 14.0639 128.726 14.598C128.726 15.1349 128.614 15.6179 128.39 16.0469C128.168 16.473 127.833 16.8111 127.384 17.0611C126.938 17.3082 126.377 17.4318 125.701 17.4318H123.562V16.3153H125.581C126.01 16.3153 126.358 16.2415 126.626 16.0938C126.893 15.9432 127.089 15.7386 127.214 15.4801C127.339 15.2216 127.401 14.9276 127.401 14.598C127.401 14.2685 127.339 13.9759 127.214 13.7202C127.089 13.4645 126.891 13.2642 126.621 13.1193C126.354 12.9744 126.002 12.902 125.564 12.902H123.911V20.5H122.594ZM136.842 11.7727H138.163V17.5128C138.163 18.1236 138.02 18.6648 137.733 19.1364C137.446 19.6051 137.043 19.9744 136.523 20.2443C136.003 20.5114 135.393 20.6449 134.695 20.6449C133.999 20.6449 133.391 20.5114 132.871 20.2443C132.351 19.9744 131.947 19.6051 131.66 19.1364C131.374 18.6648 131.23 18.1236 131.23 17.5128V11.7727H132.547V17.4062C132.547 17.8011 132.633 18.152 132.807 18.4588C132.983 18.7656 133.231 19.0071 133.552 19.1832C133.874 19.3565 134.254 19.4432 134.695 19.4432C135.138 19.4432 135.52 19.3565 135.841 19.1832C136.165 19.0071 136.412 18.7656 136.582 18.4588C136.756 18.152 136.842 17.8011 136.842 17.4062V11.7727ZM141.038 20.5V11.7727H142.354V19.3665H146.309V20.5H141.038ZM149.954 20.5H148.556L151.697 11.7727H153.218L156.359 20.5H154.961L152.493 13.358H152.425L149.954 20.5ZM150.188 17.0824H154.722V18.1903H150.188V17.0824ZM158.579 20.5V11.7727H161.69C162.366 11.7727 162.927 11.8892 163.373 12.1222C163.822 12.3551 164.157 12.6776 164.379 13.0895C164.6 13.4986 164.711 13.9716 164.711 14.5085C164.711 15.0426 164.599 15.5128 164.374 15.919C164.153 16.3224 163.817 16.6364 163.369 16.8608C162.923 17.0852 162.361 17.1974 161.685 17.1974H159.329V16.0639H161.566C161.992 16.0639 162.339 16.0028 162.606 15.8807C162.876 15.7585 163.073 15.581 163.198 15.348C163.323 15.1151 163.386 14.8352 163.386 14.5085C163.386 14.179 163.322 13.8935 163.194 13.652C163.069 13.4105 162.871 13.2259 162.602 13.098C162.334 12.9673 161.984 12.902 161.549 12.902H159.896V20.5H158.579ZM162.887 16.5625L165.043 20.5H163.543L161.43 16.5625H162.887ZM171.409 20.5V11.7727H174.52C175.199 11.7727 175.761 11.8963 176.207 12.1435C176.653 12.3906 176.987 12.7287 177.209 13.1577C177.43 13.5838 177.541 14.0639 177.541 14.598C177.541 15.1349 177.429 15.6179 177.204 16.0469C176.983 16.473 176.648 16.8111 176.199 17.0611C175.753 17.3082 175.192 17.4318 174.515 17.4318H172.376V16.3153H174.396C174.825 16.3153 175.173 16.2415 175.44 16.0938C175.707 15.9432 175.903 15.7386 176.028 15.4801C176.153 15.2216 176.216 14.9276 176.216 14.598C176.216 14.2685 176.153 13.9759 176.028 13.7202C175.903 13.4645 175.706 13.2642 175.436 13.1193C175.169 12.9744 174.817 12.902 174.379 12.902H172.726V20.5H171.409ZM180.045 20.5V11.7727H181.362V19.3665H185.316V20.5H180.045ZM188.961 20.5H187.563L190.704 11.7727H192.225L195.366 20.5H193.968L191.5 13.358H191.432L188.961 20.5ZM189.195 17.0824H193.729V18.1903H189.195V17.0824ZM204.63 11.7727V20.5H203.42L198.984 14.0994H198.903V20.5H197.586V11.7727H198.805L203.245 18.1818H203.326V11.7727H204.63Z" fill="url(#paint1_linear_1_1979)"/>
<defs>
<radialGradient id="paint0_radial_1_1979" cx="0" cy="0" r="1" gradientUnits="userSpaceOnUse" gradientTransform="translate(132.5 54.1016) scale(229.31 41.6928)">
<stop stop-color="#96D4F8" stop-opacity="0.5"/>
<stop offset="1" stop-color="#96D4F8" stop-opacity="0"/>
</radialGradient>
<linearGradient id="paint1_linear_1_1979" x1="132.6" y1="8.5" x2="132.6" y2="24.5" gradientUnits="userSpaceOnUse">
<stop offset="0.225" stop-color="white"/>
<stop offset="1" stop-color="white" stop-opacity="0.7"/>
</linearGradient>
</defs>
</svg>
