<svg width="19" height="19" viewBox="0 0 19 19" fill="none" xmlns="http://www.w3.org/2000/svg">
<mask id="mask0_1_2014" style="mask-type:luminance" maskUnits="userSpaceOnUse" x="0" y="0" width="19" height="19">
<path d="M18.5 0.5H0.5V18.5H18.5V0.5Z" fill="white"/>
</mask>
<g mask="url(#mask0_1_2014)">
<path opacity="0.2" d="M7.05101 9.13643C6.61654 8.05392 6.5692 6.85458 6.91701 5.7412C7.26482 4.62782 7.98645 3.66868 8.95986 3.02599C9.93328 2.3833 11.0988 2.09647 12.2593 2.214C13.4198 2.33153 14.5041 2.84621 15.329 3.67101C16.1537 4.49582 16.6684 5.58014 16.786 6.74065C16.9035 7.90117 16.6166 9.06667 15.9739 10.0401C15.3312 11.0135 14.3721 11.7351 13.2587 12.083C12.1453 12.4307 10.946 12.3835 9.86351 11.949L8.9375 12.875H7.25V14.5625H5.5625V16.25H2.75V13.4375L7.05101 9.13643Z" fill="#9B96B0"/>
<path d="M7.05101 9.13643C6.61654 8.05392 6.5692 6.85458 6.91701 5.74121C7.26482 4.62782 7.98645 3.66868 8.95986 3.02599C9.93328 2.3833 11.0988 2.09647 12.2593 2.214C13.4198 2.33153 14.5041 2.84621 15.329 3.67101C16.1537 4.49582 16.6684 5.58014 16.786 6.74065C16.9035 7.90117 16.6166 9.06667 15.9739 10.0401C15.3312 11.0135 14.3721 11.7351 13.2587 12.083C12.1453 12.4307 10.946 12.3835 9.86351 11.949L8.9375 12.875H7.25V14.5625H5.5625V16.25H2.75V13.4375L7.05101 9.13643Z" stroke="#9B96B0" stroke-width="1.125" stroke-linecap="round" stroke-linejoin="round"/>
<path d="M13.1562 6.6875C13.6222 6.6875 14 6.30974 14 5.84375C14 5.37776 13.6222 5 13.1562 5C12.6903 5 12.3125 5.37776 12.3125 5.84375C12.3125 6.30974 12.6903 6.6875 13.1562 6.6875Z" fill="#9B96B0"/>
</g>
</svg>
