<svg viewBox="0 0 42 24" fill="none" xmlns="http://www.w3.org/2000/svg">
    <g opacity="0.6">
        <path
            d="M21.9242 20.1902L24.0334 19.2306L23.8098 16.9242L24.7694 19.0334L27.0758 18.8098L24.9666 19.7694L25.1902 22.0758L24.2306 19.9666L21.9242 20.1902Z"
            fill="white" />
        <g opacity="0.1">
            <path
                d="M24.7316 20.8131C25.4567 20.6852 25.941 19.9937 25.8131 19.2685C25.6852 18.5433 24.9937 18.0591 24.2685 18.1869C23.5433 18.3148 23.0591 19.0063 23.1869 19.7315C23.3148 20.4567 24.0064 20.941 24.7316 20.8131Z"
                fill="white" />
        </g>
    </g>
    <g opacity="0.6">
        <path
            d="M36.5681 8.01761L38.1501 7.29794L37.9824 5.56812L38.702 7.15004L40.4319 6.98233L38.8499 7.702L39.0176 9.43182L38.298 7.8499L36.5681 8.01761Z"
            fill="white" />
        <g opacity="0.1">
            <path
                d="M38.6737 8.48475C39.2176 8.38885 39.5807 7.87019 39.4848 7.32629C39.3889 6.7824 38.8703 6.41923 38.3264 6.51513C37.7825 6.61104 37.4193 7.1297 37.5152 7.67359C37.6111 8.21748 38.1298 8.58065 38.6737 8.48475Z"
                fill="white" />
        </g>
    </g>
    <path
        d="M6.61439 6.61444L8.5 7.96132L10.3856 6.61444L9.03875 8.50007L10.3856 10.3857L8.5 9.03881L6.61439 10.3857L7.96125 8.50007L6.61439 6.61444Z"
        fill="white" />
    <g opacity="0.1">
        <path
            d="M6.61438 10.3857C7.65578 11.4271 9.34422 11.4271 10.3856 10.3857C11.427 9.34434 11.427 7.6559 10.3856 6.6145C9.34422 5.5731 7.65578 5.5731 6.61438 6.6145C5.57298 7.6559 5.57298 9.34434 6.61438 10.3857Z"
            fill="white" />
    </g>
</svg>