<svg viewBox="0 0 41 27" fill="none" xmlns="http://www.w3.org/2000/svg">
    <g opacity="0.6">
        <path
            d="M2.28024 6.3627L4.91678 5.16325L4.63727 2.28021L5.83671 4.91675L8.71975 4.63724L6.08321 5.83669L6.36273 8.71972L5.16328 6.08318L2.28024 6.3627Z"
            fill="white" />
        <g opacity="0.1">
            <path
                d="M5.78943 7.14129C6.69592 6.98145 7.3012 6.11702 7.14137 5.21053C6.98153 4.30404 6.1171 3.69876 5.21061 3.8586C4.30412 4.01844 3.69883 4.88287 3.85867 5.78936C4.01851 6.69585 4.88294 7.30113 5.78943 7.14129Z"
                fill="white" />
        </g>
    </g>
    <g opacity="0.6">
        <path
            d="M35.5681 9.01761L37.1501 8.29794L36.9824 6.56812L37.702 8.15004L39.4319 7.98233L37.8499 8.702L38.0176 10.4318L37.298 8.8499L35.5681 9.01761Z"
            fill="white" />
        <g opacity="0.1">
            <path
                d="M37.6737 9.48475C38.2176 9.38885 38.5807 8.87019 38.4848 8.32629C38.3889 7.7824 37.8703 7.41923 37.3264 7.51513C36.7825 7.61104 36.4193 8.1297 36.5152 8.67359C36.6111 9.21748 37.1298 9.58065 37.6737 9.48475Z"
                fill="white" />
        </g>
    </g>
    <path
        d="M20.6144 16.6144L22.5 17.9613L24.3856 16.6144L23.0387 18.5001L24.3856 20.3857L22.5 19.0388L20.6144 20.3857L21.9612 18.5001L20.6144 16.6144Z"
        fill="white" />
    <g opacity="0.1">
        <path
            d="M20.6144 20.3857C21.6558 21.4271 23.3442 21.4271 24.3856 20.3857C25.427 19.3443 25.427 17.6559 24.3856 16.6145C23.3442 15.5731 21.6558 15.5731 20.6144 16.6145C19.573 17.6559 19.573 19.3443 20.6144 20.3857Z"
            fill="white" />
    </g>
</svg>