<svg width="19" height="19" viewBox="0 0 19 19" fill="none" xmlns="http://www.w3.org/2000/svg">
    <mask id="mask0_3_348" style="mask-type:luminance" maskUnits="userSpaceOnUse" x="0" y="0" width="19" height="19">
        <path d="M18.5 0.5H0.5V18.5H18.5V0.5Z" fill="white" />
    </mask>
    <g mask="url(#mask0_3_348)">
        <path opacity="0.2"
            d="M2.75 13.4375C2.75 13.7358 2.86853 14.022 3.0795 14.233C3.29048 14.4439 3.57663 14.5625 3.875 14.5625H5C5.29837 14.5625 5.58452 14.4439 5.7955 14.233C6.00647 14.022 6.125 13.7358 6.125 13.4375V10.625C6.125 10.3266 6.00647 10.0405 5.7955 9.8295C5.58452 9.61853 5.29837 9.5 5 9.5H2.75V13.4375Z"
            fill="currentColor" />
        <path opacity="0.2"
            d="M14 9.5C13.7017 9.5 13.4155 9.61853 13.2045 9.8295C12.9936 10.0405 12.875 10.3266 12.875 10.625V13.4375C12.875 13.7358 12.9936 14.022 13.2045 14.233C13.4155 14.4439 13.7017 14.5625 14 14.5625H16.25V9.5H14Z"
            fill="currentColor" />
        <path
            d="M16.25 14.5625V15.125C16.25 15.7217 16.013 16.294 15.591 16.716C15.169 17.138 14.5967 17.375 14 17.375H10.0625"
            stroke="currentColor" stroke-width="1.125" stroke-linecap="round" stroke-linejoin="round" />
        <path
            d="M16.25 9.5H14C13.7017 9.5 13.4155 9.61853 13.2045 9.8295C12.9936 10.0405 12.875 10.3266 12.875 10.625V13.4375C12.875 13.7358 12.9936 14.022 13.2045 14.233C13.4155 14.4439 13.7017 14.5625 14 14.5625H16.25V9.5ZM16.25 9.5C16.25 8.61358 16.0754 7.73583 15.7362 6.91689C15.3969 6.09794 14.8998 5.35382 14.2729 4.72703C13.6462 4.10024 12.9021 3.60303 12.0831 3.26381C11.2642 2.92459 10.3864 2.75 9.5 2.75C8.61358 2.75 7.73583 2.92459 6.91689 3.26381C6.09794 3.60303 5.35382 4.10024 4.72703 4.72703C4.10024 5.35382 3.60303 6.09794 3.26381 6.91689C2.92459 7.73583 2.75 8.61358 2.75 9.5M2.75 9.5V13.4375C2.75 13.7358 2.86853 14.022 3.0795 14.233C3.29048 14.4439 3.57663 14.5625 3.875 14.5625H5C5.29837 14.5625 5.58452 14.4439 5.7955 14.233C6.00647 14.022 6.125 13.7358 6.125 13.4375V10.625C6.125 10.3266 6.00647 10.0405 5.7955 9.8295C5.58452 9.61853 5.29837 9.5 5 9.5H2.75Z"
            stroke="currentColor" stroke-width="1.125" stroke-linecap="round" stroke-linejoin="round" />
    </g>
</svg>