<svg width="19" height="19" viewBox="0 0 19 19" fill="none" xmlns="http://www.w3.org/2000/svg">
<mask id="mask0_3_359" style="mask-type:luminance" maskUnits="userSpaceOnUse" x="0" y="0" width="19" height="19">
<path d="M18.5 0.5H0.5V18.5H18.5V0.5Z" fill="white"/>
</mask>
<g mask="url(#mask0_3_359)">
<path opacity="0.2" d="M4.19806 11.6969C4.08551 11.4261 3.90672 11.1869 3.72965 10.9816C3.60842 10.841 3.46995 10.6965 3.34184 10.5628C3.28692 10.5054 3.23391 10.4501 3.18496 10.3979C3.0103 10.2117 2.86933 10.0474 2.77161 9.88902C2.6757 9.73359 2.63751 9.60903 2.63751 9.49995C2.63751 9.3909 2.6757 9.26636 2.77161 9.11089C2.86933 8.95248 3.0103 8.78826 3.18496 8.60199C3.2339 8.5498 3.28692 8.49447 3.34184 8.43714C3.46995 8.30342 3.60842 8.15888 3.72965 8.01829C3.90672 7.81297 4.08518 7.57456 4.19773 7.30387C4.30819 7.03691 4.34734 6.74391 4.36459 6.47791C4.37584 6.30422 4.3788 6.11288 4.38154 5.93485C4.38288 5.84796 4.38417 5.76423 4.38636 5.68728C4.4016 5.14994 4.46579 4.82901 4.64743 4.64737C4.82908 4.46573 5.15 4.40154 5.68734 4.3863C5.76429 4.38411 5.84802 4.38282 5.93491 4.38148C6.11294 4.37874 6.30428 4.37578 6.47797 4.36452C6.74397 4.34728 7.03628 4.30841 7.30324 4.19794C7.57495 4.08547 7.81397 3.90696 8.01969 3.72972C8.16136 3.60766 8.30666 3.46835 8.44092 3.33963C8.49746 3.28542 8.55203 3.2331 8.60356 3.18473C8.7897 3.00998 8.95357 2.86908 9.11168 2.77141C9.26678 2.67559 9.39103 2.63745 9.50001 2.63745C9.60909 2.63745 9.73365 2.67564 9.88908 2.77155C10.0475 2.86927 10.2117 3.01024 10.3979 3.1849C10.4501 3.23385 10.5055 3.28686 10.5628 3.34178C10.6966 3.46989 10.8411 3.60836 10.9817 3.72959C11.187 3.90666 11.4254 4.08512 11.6961 4.19766C11.9631 4.30808 12.2563 4.34728 12.5224 4.36452C12.6961 4.37578 12.8873 4.37874 13.0654 4.38148C13.1523 4.38282 13.236 4.38411 13.313 4.3863C13.8502 4.40154 14.1709 4.46571 14.3526 4.64737C14.5343 4.82902 14.5984 5.14981 14.6136 5.68702C14.6159 5.76396 14.6171 5.84767 14.6185 5.93456C14.6212 6.11258 14.6242 6.30391 14.6354 6.47761C14.6527 6.74367 14.6916 7.03598 14.802 7.30305C14.9145 7.57476 15.093 7.81391 15.2703 8.01963C15.3923 8.16129 15.5316 8.30659 15.6603 8.44085C15.7145 8.49739 15.7669 8.55197 15.8152 8.6035C15.99 8.78963 16.1309 8.95351 16.2286 9.11162C16.3244 9.26672 16.3625 9.39097 16.3625 9.49995C16.3625 9.60903 16.3244 9.73359 16.2284 9.88902C16.1307 10.0474 15.9897 10.2117 15.815 10.3979C15.7661 10.4501 15.7131 10.5054 15.6582 10.5628C15.5301 10.6965 15.3916 10.841 15.2704 10.9816C15.0933 11.1869 14.9149 11.4253 14.8023 11.696C14.6918 11.9631 14.6527 12.2562 14.6354 12.5223C14.6242 12.696 14.6212 12.8874 14.6185 13.0653C14.6171 13.1522 14.6159 13.2359 14.6136 13.3129C14.5984 13.8501 14.5343 14.1709 14.3526 14.3526C14.1709 14.5342 13.8502 14.5984 13.313 14.6136C13.236 14.6158 13.1523 14.6171 13.0654 14.6184C12.8874 14.6211 12.6961 14.6241 12.5224 14.6354C12.2563 14.6526 11.9639 14.6915 11.6969 14.8019C11.4262 14.9145 11.187 15.0933 10.9817 15.2703C10.8411 15.3915 10.6966 15.53 10.5628 15.6581C10.5055 15.713 10.4501 15.766 10.3979 15.815C10.2117 15.9897 10.0475 16.1306 9.88908 16.2284C9.73365 16.3243 9.60909 16.3625 9.50001 16.3625C9.39096 16.3625 9.26642 16.3243 9.11095 16.2284C8.95254 16.1306 8.78832 15.9897 8.60205 15.815C8.54986 15.766 8.49452 15.713 8.43719 15.6581C8.30347 15.53 8.15893 15.3915 8.01835 15.2703C7.81303 15.0933 7.57462 14.9148 7.30393 14.8022C7.03697 14.6918 6.74397 14.6526 6.47797 14.6354C6.30428 14.6241 6.11294 14.6211 5.93491 14.6184C5.84801 14.6171 5.76429 14.6158 5.68734 14.6136C5.15 14.5984 4.82908 14.5342 4.64743 14.3526C4.46577 14.1709 4.4016 13.8501 4.38636 13.3129C4.38417 13.2359 4.38288 13.1522 4.38154 13.0653C4.3788 12.8873 4.37584 12.696 4.36459 12.5223C4.34734 12.2562 4.30847 11.9639 4.19806 11.6969Z" fill="#9B96B0" stroke="#676182" stroke-width="0.9"/>
<path d="M4.32922 14.6708C3.68235 14.0239 4.11125 12.6648 3.78219 11.8688C3.44047 11.0469 2.1875 10.3789 2.1875 9.5C2.1875 8.6211 3.44047 7.95312 3.78219 7.13117C4.11125 6.33593 3.68235 4.9761 4.32922 4.32922C4.9761 3.68235 6.33593 4.11125 7.13117 3.78219C7.95664 3.44047 8.6211 2.1875 9.5 2.1875C10.3789 2.1875 11.0469 3.44047 11.8688 3.78219C12.6648 4.11125 14.0239 3.68235 14.6708 4.32922C15.3177 4.9761 14.8887 6.33523 15.2178 7.13117C15.5595 7.95664 16.8125 8.6211 16.8125 9.5C16.8125 10.3789 15.5595 11.0469 15.2178 11.8688C14.8887 12.6648 15.3177 14.0239 14.6708 14.6708C14.0239 15.3177 12.6648 14.8887 11.8688 15.2178C11.0469 15.5595 10.3789 16.8125 9.5 16.8125C8.6211 16.8125 7.95312 15.5595 7.13117 15.2178C6.33593 14.8887 4.9761 15.3177 4.32922 14.6708Z" stroke="#676182" stroke-width="0.9" stroke-linecap="round" stroke-linejoin="round"/>
<path d="M6.6875 10.0625L8.375 11.75L12.3125 7.8125" stroke="#9B96B0" stroke-width="0.9" stroke-linecap="round" stroke-linejoin="round"/>
</g>
</svg>
