<svg width="21" height="20" viewBox="0 0 21 20" fill="none" xmlns="http://www.w3.org/2000/svg">
	<g clip-path="url(#clip0_7_3270)">
		<path
			d="M20.354 10.22C20.354 9.57201 20.301 8.92001 20.189 8.28101H11.189V11.956H16.343C16.2373 12.5432 16.0137 13.1029 15.6858 13.6013C15.3579 14.0997 14.9324 14.5265 14.435 14.856V17.24H17.51C19.316 15.578 20.354 13.124 20.354 10.22Z"
			fill="#4285F4" />
		<path
			d="M11.1869 19.543C13.7599 19.543 15.9309 18.698 17.5119 17.239L14.4369 14.854C13.5809 15.437 12.4769 15.766 11.1899 15.766C8.69991 15.766 6.58991 14.086 5.83191 11.829H2.65991V14.286C3.45446 15.8664 4.67256 17.1948 6.17827 18.1231C7.68398 19.0514 9.41805 19.543 11.1869 19.543Z"
			fill="#34A853" />
		<path
			d="M5.83007 11.829C5.43027 10.6438 5.43027 9.36023 5.83007 8.17504V5.71704H2.66007C1.99245 7.04678 1.64478 8.51412 1.64478 10.002C1.64478 11.49 1.99245 12.9573 2.66007 14.287L5.83007 11.829Z"
			fill="#FBBC04" />
		<path
			d="M11.1869 4.23505C12.5473 4.21306 13.8618 4.72665 14.8469 5.66505L17.5719 2.94105C15.8443 1.31967 13.5561 0.429854 11.1869 0.458048C9.41749 0.457682 7.68281 0.949433 6.17679 1.87833C4.67078 2.80723 3.45277 4.13667 2.65894 5.71805L5.82894 8.17605C6.58294 5.91405 8.69694 4.23505 11.1869 4.23505Z"
			fill="#EA4335" />
	</g>
	<defs>
		<clipPath id="clip0_7_3270">
			<rect width="20" height="20" fill="white" transform="translate(0.5)" />
		</clipPath>
	</defs>
</svg>