<svg width="16" height="16" viewBox="0 0 20 20" fill="none" xmlns="http://www.w3.org/2000/svg">
<path d="M15.5585 15.5584L17.4085 14.6334V12.3167M11.8501 8.15002L10.0001 9.07502L11.8501 8.15002ZM10.0001 9.07502L8.15013 8.15002L10.0001 9.07502ZM10.0001 9.07502V11.3917V9.07502ZM17.4085 5.36669L15.5585 6.29169L17.4085 5.36669ZM17.4085 5.36669L15.5585 4.44169L17.4085 5.36669ZM17.4085 5.36669V7.68335V5.36669ZM11.8501 2.59169L10.0001 1.66669L8.15013 2.59169H11.8501ZM2.5918 5.36669L4.4418 4.44169L2.5918 5.36669ZM2.5918 5.36669L4.4418 6.29169L2.5918 5.36669ZM2.5918 5.36669V7.68335V5.36669ZM10.0001 18.3334L8.15013 17.4084L10.0001 18.3334ZM10.0001 18.3334L11.8501 17.4084L10.0001 18.3334ZM10.0001 18.3334V16.0167V18.3334ZM4.4418 15.5584L2.5918 14.6334V12.3167L4.4418 15.5584Z" stroke="currentColor" stroke-width="1.5" stroke-linecap="round" stroke-linejoin="round"/>
</svg>
