<svg xmlns="http://www.w3.org/2000/svg" viewBox="0 0 16 17" fill="none">
	<path
		d="M12.4466 12.9468L13.9266 12.2068V10.3535M9.47991 7.02016L7.99991 7.76016L9.47991 7.02016ZM7.99991 7.76016L6.51991 7.02016L7.99991 7.76016ZM7.99991 7.76016V9.6135V7.76016ZM13.9266 4.7935L12.4466 5.5335L13.9266 4.7935ZM13.9266 4.7935L12.4466 4.0535L13.9266 4.7935ZM13.9266 4.7935V6.64683V4.7935ZM9.47991 2.5735L7.99991 1.8335L6.51991 2.5735H9.47991ZM2.07324 4.7935L3.55324 4.0535L2.07324 4.7935ZM2.07324 4.7935L3.55324 5.5335L2.07324 4.7935ZM2.07324 4.7935V6.64683V4.7935ZM7.99991 15.1668L6.51991 14.4268L7.99991 15.1668ZM7.99991 15.1668L9.47991 14.4268L7.99991 15.1668ZM7.99991 15.1668V13.3135V15.1668ZM3.55324 12.9468L2.07324 12.2068V10.3535L3.55324 12.9468Z"
		stroke="#DDDDDD" stroke-linecap="round" stroke-linejoin="round" />
</svg>