<svg width="100" height="100" viewBox="0 0 100 100" fill="none" xmlns="http://www.w3.org/2000/svg">
<path d="M89.7683 37.2196C90.0438 37.8548 89.5624 38.5417 88.87 38.5417H9.3335C8.78121 38.5417 8.3335 38.094 8.3335 37.5417V26.75C8.3335 16.5833 16.5835 8.33334 26.7502 8.33334H36.4168C43.2085 8.33334 45.3335 10.5417 48.0418 14.1667L53.8752 21.9167C55.1668 23.625 55.3335 23.8333 57.7502 23.8333H69.3752C78.4983 23.8333 86.3487 29.3363 89.7683 37.2196Z" fill="#71717A"/>
<path d="M90.5869 44.7906C91.1378 44.7906 91.585 45.2362 91.5869 45.7872L91.6668 69.375C91.6668 81.6667 81.6668 91.6667 69.3752 91.6667H30.6252C18.3335 91.6667 8.3335 81.6667 8.3335 69.375V45.7917C8.3335 45.2394 8.7812 44.7917 9.33348 44.7917L90.5869 44.7906Z" fill="#71717A"/>
</svg>
