<svg width="16" height="16" viewBox="0 0 16 16" fill="none" xmlns="http://www.w3.org/2000/svg">
<path d="M7.99992 14.6667C11.6818 14.6667 14.6666 11.6819 14.6666 8.00001C14.6666 4.31811 11.6818 1.33334 7.99992 1.33334C4.31802 1.33334 1.33325 4.31811 1.33325 8.00001C1.33325 11.6819 4.31802 14.6667 7.99992 14.6667Z" stroke="#FAFAFA" stroke-linecap="round" stroke-linejoin="round"/>
<path d="M5.33324 2H5.9999C4.6999 5.89333 4.6999 10.1067 5.9999 14H5.33324" stroke="#FAFAFA" stroke-linecap="round" stroke-linejoin="round"/>
<path d="M10 2C11.3 5.89333 11.3 10.1067 10 14" stroke="#FAFAFA" stroke-linecap="round" stroke-linejoin="round"/>
<path d="M2 10.6667V10C5.89333 11.3 10.1067 11.3 14 10V10.6667" stroke="#FAFAFA" stroke-linecap="round" stroke-linejoin="round"/>
<path d="M2 5.99999C5.89333 4.69999 10.1067 4.69999 14 5.99999" stroke="#FAFAFA" stroke-linecap="round" stroke-linejoin="round"/>
</svg>
