<svg xmlns="http://www.w3.org/2000/svg" width="16" height="17" viewBox="0 0 16 17" fill="none">
	<path d="M4 7.16683V5.8335C4 3.62683 4.66667 1.8335 8 1.8335C11.3333 1.8335 12 3.62683 12 5.8335V7.16683"
		stroke="#DDDDDD" stroke-linecap="round" stroke-linejoin="round" />
	<path
		d="M8.00016 12.8333C8.92064 12.8333 9.66683 12.0871 9.66683 11.1667C9.66683 10.2462 8.92064 9.5 8.00016 9.5C7.07969 9.5 6.3335 10.2462 6.3335 11.1667C6.3335 12.0871 7.07969 12.8333 8.00016 12.8333Z"
		stroke="#DDDDDD" stroke-linecap="round" stroke-linejoin="round" />
	<path
		d="M11.3335 15.1665H4.66683C2.00016 15.1665 1.3335 14.4998 1.3335 11.8332V10.4998C1.3335 7.83317 2.00016 7.1665 4.66683 7.1665H11.3335C14.0002 7.1665 14.6668 7.83317 14.6668 10.4998V11.8332C14.6668 14.4998 14.0002 15.1665 11.3335 15.1665Z"
		stroke="#DDDDDD" stroke-linecap="round" stroke-linejoin="round" />
</svg>