<svg width="16" height="16" viewBox="0 0 16 16" fill="none" xmlns="http://www.w3.org/2000/svg">
<path d="M7.99967 1.33337C4.32634 1.33337 1.33301 4.32671 1.33301 8.00004C1.33301 11.6734 4.32634 14.6667 7.99967 14.6667C11.673 14.6667 14.6663 11.6734 14.6663 8.00004C14.6663 4.32671 11.673 1.33337 7.99967 1.33337ZM11.1863 6.46671L7.40634 10.2467C7.31301 10.34 7.18634 10.3934 7.05301 10.3934C6.91967 10.3934 6.79301 10.34 6.69967 10.2467L4.81301 8.36004C4.61967 8.16671 4.61967 7.84671 4.81301 7.65337C5.00634 7.46004 5.32634 7.46004 5.51967 7.65337L7.05301 9.18671L10.4797 5.76004C10.673 5.56671 10.993 5.56671 11.1863 5.76004C11.3797 5.95337 11.3797 6.26671 11.1863 6.46671Z" fill="#A4A4A4"/>
</svg>
