<svg width="16" height="16" viewBox="0 0 20 20" fill="none" xmlns="http://www.w3.org/2000/svg">
<path d="M6.24967 3.33331H13.7497C14.2663 3.33331 14.7247 3.34998 15.133 3.40831C17.3247 3.64998 17.9163 4.68331 17.9163 7.49998V12.5C17.9163 15.3166 17.3247 16.35 15.133 16.5916C14.7247 16.65 14.2663 16.6666 13.7497 16.6666H6.24967C5.73301 16.6666 5.27467 16.65 4.86634 16.5916C2.67467 16.35 2.08301 15.3166 2.08301 12.5V7.49998C2.08301 4.68331 2.67467 3.64998 4.86634 3.40831C5.27467 3.34998 5.73301 3.33331 6.24967 3.33331Z" stroke="currentColor" stroke-width="1.5" stroke-linecap="round" stroke-linejoin="round"/>
<path d="M11.25 8.33331H14.1667" stroke="currentColor" stroke-width="1.5" stroke-linecap="round" stroke-linejoin="round"/>
<path d="M5.83301 12.9167H5.84967H14.1663" stroke="currentColor" stroke-width="1.5" stroke-linecap="round" stroke-linejoin="round"/>
<path d="M8.41209 8.33335H8.41957" stroke="currentColor" stroke-width="2" stroke-linecap="round" stroke-linejoin="round"/>
<path d="M5.91209 8.33335H5.91957" stroke="currentColor" stroke-width="2" stroke-linecap="round" stroke-linejoin="round"/>
</svg>
