<svg viewBox="0 0 16 17" fill="none" xmlns="http://www.w3.org/2000/svg">
<path d="M4.99996 3.16666H11C11.4133 3.16666 11.78 3.18 12.1066 3.22666C13.86 3.42 14.3333 4.24666 14.3333 6.5V10.5C14.3333 12.7533 13.86 13.58 12.1066 13.7733C11.78 13.82 11.4133 13.8333 11 13.8333H4.99996C4.58663 13.8333 4.21996 13.82 3.89329 13.7733C2.13996 13.58 1.66663 12.7533 1.66663 10.5V6.5C1.66663 4.24666 2.13996 3.42 3.89329 3.22666C4.21996 3.18 4.58663 3.16666 4.99996 3.16666Z" stroke="#DDDDDD" stroke-linecap="round" stroke-linejoin="round"/>
<path d="M9 7.16666H11.3333" stroke="#DDDDDD" stroke-linecap="round" stroke-linejoin="round"/>
<path d="M4.66663 10.8333H4.67996H11.3333" stroke="#DDDDDD" stroke-linecap="round" stroke-linejoin="round"/>
<path d="M6.7297 7.16667H6.73568" stroke="#DDDDDD" stroke-linecap="round" stroke-linejoin="round"/>
<path d="M4.7297 7.16667H4.73568" stroke="#DDDDDD" stroke-linecap="round" stroke-linejoin="round"/>
</svg>
