<svg xmlns="http://www.w3.org/2000/svg" viewBox="0 0 40 40" fill="none">
	<path
		d="M35.4165 12.51V23.5217C35.417 24.3895 35.2464 25.2488 34.9146 26.0507C34.5827 26.8525 34.0961 27.5811 33.4826 28.1948C32.869 28.8085 32.1405 29.2953 31.3388 29.6274C30.537 29.9594 29.6777 30.1302 28.8099 30.13H24.4049L20.7715 33.7633C20.6725 33.8683 20.553 33.9519 20.4204 34.0091C20.2879 34.0662 20.1451 34.0957 20.0007 34.0957C19.8564 34.0957 19.7135 34.0662 19.581 34.0091C19.4484 33.9519 19.329 33.8683 19.2299 33.7633L15.5965 30.13H11.1882C10.3205 30.13 9.46123 29.959 8.65956 29.6269C7.8579 29.2948 7.12951 28.808 6.516 28.1944C5.90249 27.5807 5.41589 26.8522 5.08397 26.0504C4.75205 25.2487 4.58132 24.3894 4.58154 23.5217V12.51C4.58154 10.7578 5.2776 9.07736 6.51659 7.83837C7.75558 6.59938 9.43601 5.90332 11.1882 5.90332H28.8082C30.5604 5.90332 32.2408 6.59938 33.4798 7.83837C34.7188 9.07736 35.4165 10.7578 35.4165 12.51Z"
		stroke="#FFF8F8" stroke-opacity="0.59" stroke-width="2" stroke-linecap="round" stroke-linejoin="round" />
	<path d="M14.0981 18.1167H25.9015" stroke="#FFF8F8" stroke-opacity="0.59" stroke-width="2" stroke-miterlimit="10"
		stroke-linecap="round" />
</svg>