<svg viewBox="0 0 26 24" fill="none" xmlns="http://www.w3.org/2000/svg">
	<g clip-path="url(#clip0_294_150)">
		<path fill-rule="evenodd" clip-rule="evenodd"
			d="M12.9635 0C6.20975 0 0.75 5.5 0.75 12.3042C0.75 17.7432 4.24825 22.3472 9.10125 23.9767C9.708 24.0992 9.93025 23.712 9.93025 23.3862C9.93025 23.101 9.91025 22.1232 9.91025 21.1045C6.51275 21.838 5.80525 19.6378 5.80525 19.6378C5.25925 18.2118 4.45025 17.8452 4.45025 17.8452C3.33825 17.0915 4.53125 17.0915 4.53125 17.0915C5.76475 17.173 6.412 18.3545 6.412 18.3545C7.50375 20.2285 9.263 19.699 9.97075 19.373C10.0717 18.5785 10.3955 18.0285 10.7393 17.723C8.0295 17.4377 5.1785 16.3785 5.1785 11.6523C5.1785 10.3078 5.6635 9.20775 6.432 8.35225C6.31075 8.04675 5.886 6.7835 6.5535 5.09275C6.5535 5.09275 7.58475 4.76675 9.91 6.35575C10.9055 6.08642 11.9322 5.9494 12.9635 5.94825C13.9948 5.94825 15.046 6.091 16.0168 6.35575C18.3423 4.76675 19.3735 5.09275 19.3735 5.09275C20.041 6.7835 19.616 8.04675 19.4947 8.35225C20.2835 9.20775 20.7485 10.3078 20.7485 11.6523C20.7485 16.3785 17.8975 17.4172 15.1675 17.723C15.6125 18.11 15.9965 18.8433 15.9965 20.0045C15.9965 21.6545 15.9765 22.9788 15.9765 23.386C15.9765 23.712 16.199 24.0992 16.8055 23.977C21.6585 22.347 25.1567 17.7432 25.1567 12.3042C25.1768 5.5 19.697 0 12.9635 0Z"
			fill="#FAFAFA" />
	</g>
	<defs>
		<clipPath id="clip0_294_150">
			<rect width="24.5" height="24" fill="white" transform="translate(0.75)" />
		</clipPath>
	</defs>
</svg>