<svg width="22" height="22" viewBox="0 0 22 22" fill="none" xmlns="http://www.w3.org/2000/svg">
<path fill-rule="evenodd" clip-rule="evenodd" d="M10.0356 1.14551H11.9643C12.7879 1.14548 13.4746 1.14546 14.0199 1.21876C14.5953 1.29613 15.1149 1.46633 15.5324 1.88385C15.9499 2.30136 16.1201 2.82093 16.1975 3.3964C16.2708 3.94162 16.2708 4.62841 16.2708 5.45202L16.2708 6.64556C16.7993 6.64598 17.2472 6.65001 17.6173 6.68766C18.0513 6.73181 18.4541 6.8278 18.8171 7.07035C19.0923 7.25426 19.3287 7.49059 19.5126 7.76584C19.7551 8.12884 19.8511 8.53159 19.8953 8.96561C19.9374 9.38025 19.9374 9.89243 19.9374 10.5062V19.4788H20.1666C20.5463 19.4788 20.8541 19.7866 20.8541 20.1663C20.8541 20.546 20.5463 20.8538 20.1666 20.8538H1.83325C1.45356 20.8538 1.14575 20.546 1.14575 20.1663C1.14575 19.7866 1.45356 19.4788 1.83325 19.4788H2.06242L2.06242 10.5062C2.0624 9.89241 2.06239 9.38025 2.10457 8.96561C2.14872 8.53159 2.24471 8.12884 2.48726 7.76584C2.67117 7.49059 2.9075 7.25426 3.18275 7.07035C3.54575 6.8278 3.9485 6.73181 4.38252 6.68766C4.75268 6.65001 5.20056 6.64598 5.72909 6.64556L5.72908 5.45202C5.72906 4.62841 5.72903 3.94162 5.80234 3.3964C5.87971 2.82093 6.04991 2.30136 6.46742 1.88384C6.88493 1.46633 7.4045 1.29613 7.97998 1.21876C8.5252 1.14546 9.21198 1.14548 10.0356 1.14551ZM5.72909 8.0206C5.19505 8.0212 4.81779 8.02548 4.52168 8.0556C4.19638 8.08869 4.04607 8.14719 3.94666 8.21362C3.82155 8.29722 3.71412 8.40464 3.63053 8.52975C3.5641 8.62917 3.5056 8.77947 3.47251 9.10477C3.43825 9.44156 3.43742 9.88332 3.43742 10.5413V19.4788H5.72909V8.0206ZM7.10409 19.4788H10.3124V17.4163C10.3124 17.0366 10.6202 16.7288 10.9999 16.7288C11.3796 16.7288 11.6874 17.0366 11.6874 17.4163V19.4788H14.8958V5.49968C14.8958 4.616 14.8943 4.0224 14.8348 3.57962C14.7779 3.15661 14.6796 2.97557 14.5601 2.85612C14.4407 2.73666 14.2596 2.63837 13.8366 2.5815C13.3939 2.52197 12.8003 2.52051 11.9166 2.52051H10.0833C9.19958 2.52051 8.60598 2.52197 8.1632 2.5815C7.74019 2.63837 7.55915 2.73666 7.43969 2.85612C7.32024 2.97557 7.22195 3.15661 7.16508 3.57962C7.10555 4.0224 7.10409 4.616 7.10409 5.49968V19.4788ZM16.2708 19.4788H18.5624V10.5413C18.5624 9.88332 18.5616 9.44156 18.5273 9.10477C18.4942 8.77947 18.4357 8.62917 18.3693 8.52975C18.2857 8.40464 18.1783 8.29722 18.0532 8.21362C17.9538 8.14719 17.8035 8.08869 17.4782 8.0556C17.1821 8.02548 16.8048 8.0212 16.2708 8.0206V19.4788ZM8.47909 4.58301C8.47909 4.20331 8.78689 3.89551 9.16659 3.89551H12.8333C13.2129 3.89551 13.5208 4.20331 13.5208 4.58301C13.5208 4.96271 13.2129 5.27051 12.8333 5.27051H9.16659C8.78689 5.27051 8.47909 4.96271 8.47909 4.58301ZM8.47909 7.33301C8.47909 6.95331 8.78689 6.64551 9.16659 6.64551H12.8333C13.2129 6.64551 13.5208 6.95331 13.5208 7.33301C13.5208 7.71271 13.2129 8.02051 12.8333 8.02051H9.16659C8.78689 8.02051 8.47909 7.71271 8.47909 7.33301ZM8.47909 10.083C8.47909 9.70331 8.78689 9.39551 9.16659 9.39551H12.8333C13.2129 9.39551 13.5208 9.70331 13.5208 10.083C13.5208 10.4627 13.2129 10.7705 12.8333 10.7705H9.16659C8.78689 10.7705 8.47909 10.4627 8.47909 10.083ZM8.47909 12.833C8.47909 12.4533 8.78689 12.1455 9.16659 12.1455H12.8333C13.2129 12.1455 13.5208 12.4533 13.5208 12.833C13.5208 13.2127 13.2129 13.5205 12.8333 13.5205H9.16659C8.78689 13.5205 8.47909 13.2127 8.47909 12.833Z" fill="white"/>
</svg>
