<svg width="22" height="22" viewBox="0 0 22 22" fill="none" xmlns="http://www.w3.org/2000/svg">
<path fill-rule="evenodd" clip-rule="evenodd" d="M14.5679 2.88161C14.1786 3.18348 13.7187 3.6487 13.042 4.33631L12.07 5.32402C12.7367 5.8471 13.4849 6.59536 14.4088 7.51922L14.4805 7.591C15.4446 8.555 16.2174 9.3278 16.7427 10.0163C16.7473 10.0223 16.7519 10.0284 16.7565 10.0345L17.6876 9.08833C18.3642 8.40086 18.8222 7.93335 19.1196 7.5373C19.4047 7.15755 19.4791 6.9235 19.4791 6.71232C19.4791 6.50114 19.4047 6.26709 19.1196 5.88734C18.8222 5.49129 18.3642 5.02378 17.6876 4.33631C17.0109 3.64869 16.551 3.18347 16.1617 2.88161C15.7877 2.59168 15.5626 2.52051 15.3648 2.52051C15.167 2.52051 14.9419 2.59168 14.5679 2.88161ZM17.4607 11.2792L18.7014 10.0185C19.3357 9.37401 19.8599 8.84138 20.2191 8.3629C20.597 7.85967 20.8541 7.3383 20.8541 6.71232C20.8541 6.08634 20.597 5.56497 20.2191 5.06174C19.8599 4.58326 19.3357 4.05062 18.7014 3.40613L18.6336 3.33726C17.9996 2.69302 17.4754 2.16025 17.0042 1.79494C16.5092 1.41118 15.9909 1.14551 15.3648 1.14551C14.7387 1.14551 14.2204 1.41118 13.7254 1.79494C13.2543 2.16026 12.73 2.69302 12.096 3.33726L10.8613 4.59191C10.5063 4.44941 10.1373 4.37029 9.73927 4.37029C8.91062 4.37029 8.20794 4.71317 7.49507 5.25708C6.80658 5.78237 6.03377 6.5552 5.06977 7.51923L4.29482 8.29418C3.33079 9.25818 2.55796 10.031 2.03266 10.7195C1.48876 11.4324 1.14587 12.135 1.14587 12.9637C1.14587 13.7923 1.48876 14.495 2.03266 15.2079C2.55796 15.8964 3.3308 16.6692 4.29484 17.6332L4.36658 17.7049C5.33057 18.669 6.10338 19.4418 6.79186 19.9671C7.50473 20.511 8.20741 20.8539 9.03606 20.8539C9.86471 20.8539 10.5674 20.511 11.2803 19.9671C11.9687 19.4418 12.7416 18.669 13.7056 17.7049L14.4805 16.9299C15.4446 15.966 16.2174 15.1932 16.7427 14.5047C17.2866 13.7918 17.6295 13.0891 17.6295 12.2605C17.6295 11.9148 17.5698 11.591 17.4607 11.2792ZM10.5816 5.97682C10.2675 5.80972 10.0023 5.74529 9.73927 5.74529C9.33213 5.74529 8.91968 5.89965 8.32912 6.35023C7.72269 6.81292 7.01439 7.51915 6.00617 8.52738L5.30296 9.23058C4.29473 10.2388 3.5885 10.9471 3.12581 11.5535C2.67523 12.1441 2.52087 12.5565 2.52087 12.9637C2.52087 13.3708 2.67523 13.7833 3.12581 14.3738C3.5885 14.9803 4.29473 15.6886 5.30296 16.6968C6.31119 17.705 7.01948 18.4112 7.62591 18.8739C8.21647 19.3245 8.62893 19.4789 9.03606 19.4789C9.4432 19.4789 9.85565 19.3245 10.4462 18.8739C11.0526 18.4112 11.7609 17.705 12.7692 16.6968L13.4724 15.9936C14.4806 14.9854 15.1868 14.2771 15.6495 13.6706C16.1001 13.0801 16.2545 12.6676 16.2545 12.2605C16.2545 11.8533 16.1001 11.4409 15.6495 10.8503C15.1868 10.2439 14.4806 9.5356 13.4724 8.52738C12.4641 7.51915 11.7558 6.81292 11.1494 6.35023C11.0038 6.23911 10.869 6.14601 10.7424 6.0688C10.6859 6.04598 10.6317 6.01533 10.5816 5.97682ZM15.6993 4.35582C15.9678 4.6243 15.9678 5.0596 15.6993 5.32809L15.0511 5.97627C14.7827 6.24476 14.3474 6.24476 14.0789 5.97627C13.8104 5.70779 13.8104 5.27248 14.0789 5.004L14.7271 4.35582C14.9955 4.08733 15.4308 4.08733 15.6993 4.35582ZM17.6439 6.30036C17.9124 6.56885 17.9124 7.00415 17.6439 7.27263L16.9957 7.92081C16.7272 8.1893 16.2919 8.1893 16.0234 7.92081C15.7549 7.65233 15.7549 7.21703 16.0234 6.94854L16.6716 6.30036C16.9401 6.03188 17.3754 6.03187 17.6439 6.30036ZM4.33069 12.4775C4.59917 12.2091 5.03448 12.2091 5.30296 12.4775L9.5222 16.6968C9.79068 16.9653 9.79068 17.4006 9.5222 17.6691C9.25371 17.9375 8.81841 17.9375 8.54993 17.6691L4.33069 13.4498C4.0622 13.1813 4.0622 12.746 4.33069 12.4775Z" fill="white"/>
</svg>
