<svg width="22" height="22" viewBox="0 0 22 22" fill="none" xmlns="http://www.w3.org/2000/svg">
<path fill-rule="evenodd" clip-rule="evenodd" d="M11.0001 1.14551C8.59534 1.14551 6.64591 3.09493 6.64591 5.49967C6.64591 7.90441 8.59534 9.85384 11.0001 9.85384C13.4048 9.85384 15.3542 7.90441 15.3542 5.49967C15.3542 3.09493 13.4048 1.14551 11.0001 1.14551ZM8.02091 5.49967C8.02091 3.85433 9.35473 2.52051 11.0001 2.52051C12.6454 2.52051 13.9792 3.85433 13.9792 5.49967C13.9792 7.14502 12.6454 8.47884 11.0001 8.47884C9.35473 8.47884 8.02091 7.14502 8.02091 5.49967Z" fill="white"/>
<path d="M16.5001 2.97884C16.1204 2.97884 15.8126 3.28665 15.8126 3.66634C15.8126 4.04604 16.1204 4.35384 16.5001 4.35384C17.7619 4.35384 18.5626 5.18409 18.5626 5.95801C18.5626 6.73192 17.7619 7.56217 16.5001 7.56217C16.1204 7.56217 15.8126 7.86998 15.8126 8.24967C15.8126 8.62937 16.1204 8.93717 16.5001 8.93717C18.2759 8.93717 19.9376 7.7154 19.9376 5.95801C19.9376 4.20062 18.2759 2.97884 16.5001 2.97884Z" fill="white"/>
<path d="M6.18758 3.66634C6.18758 3.28665 5.87978 2.97884 5.50008 2.97884C3.72429 2.97884 2.06258 4.20062 2.06258 5.95801C2.06258 7.7154 3.72429 8.93717 5.50008 8.93717C5.87978 8.93717 6.18758 8.62937 6.18758 8.24967C6.18758 7.86998 5.87978 7.56217 5.50008 7.56217C4.2383 7.56217 3.43758 6.73192 3.43758 5.95801C3.43758 5.18409 4.2383 4.35384 5.50008 4.35384C5.87978 4.35384 6.18758 4.04604 6.18758 3.66634Z" fill="white"/>
<path fill-rule="evenodd" clip-rule="evenodd" d="M11.0001 11.2288C9.3645 11.2288 7.85266 11.6696 6.72964 12.4182C5.61142 13.1637 4.81258 14.2691 4.81258 15.583C4.81258 16.8969 5.61142 18.0023 6.72964 18.7478C7.85266 19.4964 9.3645 19.9372 11.0001 19.9372C12.6357 19.9372 14.1475 19.4964 15.2705 18.7478C16.3887 18.0023 17.1876 16.8969 17.1876 15.583C17.1876 14.2691 16.3887 13.1637 15.2705 12.4182C14.1475 11.6696 12.6357 11.2288 11.0001 11.2288ZM6.18758 15.583C6.18758 14.8719 6.61996 14.1439 7.49235 13.5623C8.35993 12.9839 9.5981 12.6038 11.0001 12.6038C12.4021 12.6038 13.6402 12.9839 14.5078 13.5623C15.3802 14.1439 15.8126 14.8719 15.8126 15.583C15.8126 16.2941 15.3802 17.0221 14.5078 17.6037C13.6402 18.1821 12.4021 18.5622 11.0001 18.5622C9.5981 18.5622 8.35993 18.1821 7.49235 17.6037C6.61996 17.0221 6.18758 16.2941 6.18758 15.583Z" fill="white"/>
<path d="M17.6619 12.6857C17.7432 12.3149 18.1098 12.0801 18.4807 12.1615C19.3624 12.3548 20.1569 12.7041 20.7468 13.1868C21.3362 13.669 21.7709 14.332 21.7709 15.1247C21.7709 15.9174 21.3362 16.5803 20.7468 17.0626C20.1569 17.5453 19.3624 17.8945 18.4807 18.0879C18.1098 18.1692 17.7432 17.9345 17.6619 17.5636C17.5805 17.1927 17.8153 16.8261 18.1861 16.7448C18.9125 16.5855 19.493 16.3119 19.8761 15.9984C20.2597 15.6845 20.3959 15.378 20.3959 15.1247C20.3959 14.8714 20.2597 14.5648 19.8761 14.2509C19.493 13.9374 18.9125 13.6638 18.1861 13.5045C17.8153 13.4232 17.5805 13.0566 17.6619 12.6857Z" fill="white"/>
<path d="M3.51948 12.1615C3.89037 12.0801 4.25696 12.3149 4.33829 12.6857C4.41962 13.0566 4.1849 13.4232 3.81401 13.5045C3.08768 13.6638 2.50721 13.9374 2.12411 14.2509C1.74049 14.5648 1.60425 14.8714 1.60425 15.1247C1.60425 15.378 1.74049 15.6845 2.12411 15.9984C2.50721 16.3119 3.08768 16.5855 3.81401 16.7448C4.1849 16.8261 4.41962 17.1927 4.33829 17.5636C4.25696 17.9345 3.89037 18.1692 3.51948 18.0879C2.63776 17.8945 1.84322 17.5453 1.25334 17.0626C0.663976 16.5803 0.229248 15.9174 0.229248 15.1247C0.229248 14.332 0.663976 13.669 1.25334 13.1868C1.84322 12.7041 2.63776 12.3548 3.51948 12.1615Z" fill="white"/>
</svg>
