<svg viewBox="0 0 27 27" fill="none" xmlns="http://www.w3.org/2000/svg">
<path d="M18.2138 2.25H8.78625C4.69125 2.25 2.25 4.69125 2.25 8.78625V18.2025C2.25 22.3088 4.69125 24.75 8.78625 24.75H18.2025C22.2975 24.75 24.7388 22.3088 24.7388 18.2138V8.78625C24.75 4.69125 22.3088 2.25 18.2138 2.25Z" fill="white" fill-opacity="0.15"/>
<path d="M11.9026 17.5273C11.6776 17.5273 11.4639 17.4373 11.3064 17.2798L8.12262 14.0961C7.79637 13.7698 7.79637 13.2298 8.12262 12.9036C8.44887 12.5773 8.98887 12.5773 9.31512 12.9036L11.9026 15.4911L17.6851 9.70855C18.0114 9.3823 18.5514 9.3823 18.8776 9.70855C19.2039 10.0348 19.2039 10.5748 18.8776 10.9011L12.4989 17.2798C12.3414 17.4373 12.1276 17.5273 11.9026 17.5273Z" fill="white" fill-opacity="0.8"/>
</svg>
