<svg width="14" height="14" viewBox="0 0 8 10" fill="none" xmlns="http://www.w3.org/2000/svg">
<path d="M4.35323 0.646667L7.21323 3.50667C7.40656 3.7 7.40656 4.02 7.21323 4.21333C7.01989 4.40667 6.69989 4.40667 6.50656 4.21333L4.49989 2.20667V9C4.49989 9.27333 4.27323 9.5 3.99989 9.5C3.72656 9.5 3.49989 9.27333 3.49989 9V2.20667L1.49323 4.21333C1.29989 4.40667 0.979892 4.40667 0.786559 4.21333C0.686559 4.11333 0.639893 3.98667 0.639893 3.86C0.639893 3.73333 0.693226 3.6 0.786559 3.50667L3.64656 0.646667C3.73989 0.553333 3.86656 0.5 3.99989 0.5C4.13323 0.5 4.25989 0.553333 4.35323 0.646667Z" fill="currentColor"/>
</svg>
