<svg width="14" height="14" viewBox="0 0 8 10" fill="none" xmlns="http://www.w3.org/2000/svg">
<path d="M3.64677 9.35333L0.786775 6.49333C0.593441 6.3 0.593441 5.98 0.786775 5.78667C0.980108 5.59333 1.30011 5.59333 1.49344 5.78667L3.50011 7.79333L3.50011 1C3.50011 0.726666 3.72677 0.5 4.00011 0.5C4.27344 0.5 4.50011 0.726666 4.50011 1L4.50011 7.79333L6.50677 5.78667C6.70011 5.59333 7.02011 5.59333 7.21344 5.78667C7.31344 5.88667 7.36011 6.01333 7.36011 6.14C7.36011 6.26667 7.30677 6.4 7.21344 6.49333L4.35344 9.35333C4.26011 9.44667 4.13344 9.5 4.00011 9.5C3.86677 9.5 3.74011 9.44667 3.64677 9.35333Z" fill="currentColor"/>
</svg>
