<svg width="20" height="20" viewBox="0 0 20 20" fill="none" xmlns="http://www.w3.org/2000/svg">
<path fill-rule="evenodd" clip-rule="evenodd" d="M8.28628 2.70801H11.7136C13.2451 2.70799 14.4581 2.70798 15.4075 2.83562C16.3845 2.96698 17.1753 3.24374 17.7989 3.86738C18.4226 4.49101 18.6993 5.2818 18.8307 6.25882C18.9061 6.81955 18.9369 7.47226 18.9496 8.22824C18.9553 8.2623 18.9583 8.29731 18.9583 8.33301C18.9583 8.36239 18.9563 8.39129 18.9523 8.41959C18.9583 8.89103 18.9583 9.4012 18.9583 9.95267V10.0467C18.9583 11.5782 18.9583 12.7912 18.8307 13.7405C18.6993 14.7175 18.4226 15.5083 17.7989 16.132C17.1753 16.7556 16.3845 17.0324 15.4075 17.1637C14.4581 17.2914 13.2451 17.2914 11.7136 17.2913H8.28628C6.75482 17.2914 5.54179 17.2914 4.59244 17.1637C3.61542 17.0324 2.82463 16.7556 2.201 16.132C1.57736 15.5083 1.3006 14.7175 1.16924 13.7405C1.0416 12.7912 1.04161 11.5782 1.04163 10.0467V9.95266C1.04162 9.40119 1.04162 8.89102 1.04757 8.41957C1.04365 8.39128 1.04163 8.36238 1.04163 8.33301C1.04163 8.29731 1.04462 8.26231 1.05037 8.22825C1.06299 7.47226 1.09385 6.81955 1.16924 6.25882C1.3006 5.2818 1.57736 4.49101 2.201 3.86738C2.82463 3.24374 3.61542 2.96698 4.59244 2.83562C5.54179 2.70798 6.75481 2.70799 8.28628 2.70801ZM2.29328 8.95801C2.2917 9.28167 2.29163 9.62809 2.29163 9.99968C2.29163 11.5887 2.29295 12.7176 2.40809 13.574C2.52081 14.4124 2.7322 14.8954 3.08488 15.2481C3.43755 15.6008 3.92059 15.8122 4.759 15.9249C5.61539 16.04 6.74428 16.0413 8.33329 16.0413H11.6666C13.2556 16.0413 14.3845 16.04 15.2409 15.9249C16.0793 15.8122 16.5624 15.6008 16.915 15.2481C17.2677 14.8954 17.4791 14.4124 17.5918 13.574C17.707 12.7176 17.7083 11.5887 17.7083 9.99968C17.7083 9.62809 17.7082 9.28167 17.7066 8.95801H2.29328ZM17.6866 7.70801H2.31335C2.32966 7.21907 2.35818 6.79662 2.40809 6.42538C2.52081 5.58697 2.7322 5.10394 3.08488 4.75126C3.43755 4.39859 3.92059 4.18719 4.759 4.07447C5.61539 3.95934 6.74428 3.95801 8.33329 3.95801H11.6666C13.2556 3.95801 14.3845 3.95934 15.2409 4.07447C16.0793 4.18719 16.5624 4.39859 16.915 4.75126C17.2677 5.10394 17.4791 5.58697 17.5918 6.42538C17.6417 6.79662 17.6703 7.21907 17.6866 7.70801ZM4.37496 13.333C4.37496 12.9878 4.65478 12.708 4.99996 12.708H8.33329C8.67847 12.708 8.95829 12.9878 8.95829 13.333C8.95829 13.6782 8.67847 13.958 8.33329 13.958H4.99996C4.65478 13.958 4.37496 13.6782 4.37496 13.333ZM9.79163 13.333C9.79163 12.9878 10.0714 12.708 10.4166 12.708H11.6666C12.0118 12.708 12.2916 12.9878 12.2916 13.333C12.2916 13.6782 12.0118 13.958 11.6666 13.958H10.4166C10.0714 13.958 9.79163 13.6782 9.79163 13.333Z" fill="#BDBCBF"/>
</svg>
