<svg width="20" height="20" viewBox="0 0 20 20" fill="none" xmlns="http://www.w3.org/2000/svg">
	<path d="M1.66666 10.5083H15.8333" stroke="currentColor" stroke-width="1.5" stroke-miterlimit="10"
		stroke-linecap="round" stroke-linejoin="round" />
	<path
		d="M15.8333 8.56683V14.5252C15.8083 16.9002 15.1583 17.5002 12.6833 17.5002H4.81668C2.30001 17.5002 1.66666 16.8752 1.66666 14.3918V8.56683C1.66666 6.31683 2.19166 5.59183 4.16666 5.47516C4.36666 5.46683 4.58335 5.4585 4.81668 5.4585H12.6833C15.2 5.4585 15.8333 6.0835 15.8333 8.56683Z"
		stroke="currentColor" stroke-width="1.5" stroke-linecap="round" stroke-linejoin="round" />
	<path
		d="M18.3333 5.60833V11.4333C18.3333 13.6833 17.8083 14.4083 15.8333 14.525V8.56667C15.8333 6.08333 15.2 5.45833 12.6833 5.45833H4.81668C4.58335 5.45833 4.36666 5.46667 4.16666 5.475C4.19166 3.1 4.84168 2.5 7.31668 2.5H15.1833C17.7 2.5 18.3333 3.125 18.3333 5.60833Z"
		stroke="currentColor" stroke-width="1.5" stroke-linecap="round" stroke-linejoin="round" />
	<path d="M4.375 14.8418H5.80831" stroke="currentColor" stroke-width="1.5" stroke-miterlimit="10"
		stroke-linecap="round" stroke-linejoin="round" />
	<path d="M7.59164 14.8418H10.4583" stroke="currentColor" stroke-width="1.5" stroke-miterlimit="10"
		stroke-linecap="round" stroke-linejoin="round" />
</svg>