<svg width="12" height="13" viewBox="0 0 12 13" fill="none" xmlns="http://www.w3.org/2000/svg">
<path d="M8.34961 9.99005H3.64961C3.43961 9.99005 3.20461 9.82505 3.13461 9.62505L1.06461 3.83505C0.769611 3.00505 1.11461 2.75005 1.82461 3.26005L3.77461 4.65505C4.09961 4.88005 4.46961 4.76505 4.60961 4.40005L5.48961 2.05505C5.76961 1.30505 6.23461 1.30505 6.51461 2.05505L7.39461 4.40005C7.53461 4.76505 7.90461 4.88005 8.22461 4.65505L10.0546 3.35005C10.8346 2.79005 11.2096 3.07505 10.8896 3.98005L8.86961 9.63505C8.79461 9.82505 8.55961 9.99005 8.34961 9.99005Z" stroke="white" stroke-linecap="round" stroke-linejoin="round"/>
<path d="M3.25 11.5H8.75" stroke="white" stroke-linecap="round" stroke-linejoin="round"/>
<path d="M4.75 7.5H7.25" stroke="white" stroke-linecap="round" stroke-linejoin="round"/>
</svg>
