<svg width="27" height="27" viewBox="0 0 27 27" fill="none" xmlns="http://www.w3.org/2000/svg">
<path fill-rule="evenodd" clip-rule="evenodd" d="M24.75 13.5C24.75 7.2868 19.7132 2.25 13.5 2.25C7.2868 2.25 2.25 7.2868 2.25 13.5C2.25 19.7132 7.2868 24.75 13.5 24.75C19.7132 24.75 24.75 19.7132 24.75 13.5ZM13.5 7.03125C13.966 7.03125 14.3438 7.40901 14.3438 7.875V14.625C14.3438 15.091 13.966 15.4688 13.5 15.4688C13.034 15.4688 12.6562 15.091 12.6562 14.625V7.875C12.6562 7.40901 13.034 7.03125 13.5 7.03125ZM13.5 19.125C14.1213 19.125 14.625 18.6213 14.625 18C14.625 17.3787 14.1213 16.875 13.5 16.875C12.8787 16.875 12.375 17.3787 12.375 18C12.375 18.6213 12.8787 19.125 13.5 19.125Z" fill="#FF0004"/>
</svg>
