<svg width="16" height="16" viewBox="0 0 16 16" fill="none" xmlns="http://www.w3.org/2000/svg">
<path  d="M19.6 9.99999C19.6 12.5461 18.5886 14.9879 16.7882 16.7882C14.9879 18.5886 12.5461 19.6 9.99999 19.6C7.45392 19.6 5.01212 18.5886 3.21177 16.7882C1.41142 14.9879 0.399994 12.5461 0.399994 9.99999C0.399994 7.45392 1.41142 5.01212 3.21177 3.21177C5.01212 1.41142 7.45392 0.399994 9.99999 0.399994C12.5461 0.399994 14.9879 1.41142 16.7882 3.21177C18.5886 5.01212 19.6 7.45392 19.6 9.99999ZM9.99999 3.99999C10.2387 3.99999 10.4676 4.09482 10.6364 4.2636C10.8052 4.43238 10.9 4.6613 10.9 4.89999V10.3C10.9 10.5387 10.8052 10.7676 10.6364 10.9364C10.4676 11.1052 10.2387 11.2 9.99999 11.2C9.7613 11.2 9.53238 11.1052 9.3636 10.9364C9.19482 10.7676 9.09999 10.5387 9.09999 10.3V4.89999C9.09999 4.6613 9.19482 4.43238 9.3636 4.2636C9.53238 4.09482 9.7613 3.99999 9.99999 3.99999ZM9.99999 16C10.3183 16 10.6235 15.8736 10.8485 15.6485C11.0736 15.4235 11.2 15.1183 11.2 14.8C11.2 14.4817 11.0736 14.1765 10.8485 13.9515C10.6235 13.7264 10.3183 13.6 9.99999 13.6C9.68173 13.6 9.37651 13.7264 9.15147 13.9515C8.92642 14.1765 8.79999 14.4817 8.79999 14.8C8.79999 15.1183 8.92642 15.4235 9.15147 15.6485C9.37651 15.8736 9.68173 16 9.99999 16Z" fill="#E92D1F"/>
</svg><svg xmlns="http://www.w3.org/2000/svg" width="20" height="20" viewBox="0 0 22 22" fill="none" stroke="currentColor" strokeWidth="2" strokeLinecap="round" strokeLinejoin="round" className="text-red-400">
    <circle cx="12" cy="12" r="10" />
    <line x1="12" y1="8" x2="12" y2="14" />
    <circle cx="12" cy="17" r="0.5" />
</svg>
