<svg width="25" height="24" viewBox="0 0 25 24" fill="none" xmlns="http://www.w3.org/2000/svg">
<path d="M15.3634 9.47L10.3034 14.53C9.65342 13.88 9.25342 12.99 9.25342 12C9.25342 10.02 10.8534 8.42 12.8334 8.42C13.8234 8.42 14.7134 8.82 15.3634 9.47Z" stroke="#FAFAFA" stroke-width="1.5" stroke-linecap="round" stroke-linejoin="round"/>
<path d="M18.6533 5.77C16.9033 4.45 14.9033 3.73 12.8333 3.73C9.30334 3.73 6.01334 5.81 3.72334 9.41C2.82334 10.82 2.82334 13.19 3.72334 14.6C4.51334 15.84 5.43334 16.91 6.43334 17.77" stroke="#FAFAFA" stroke-width="1.5" stroke-linecap="round" stroke-linejoin="round"/>
<path d="M9.25342 19.53C10.3934 20.01 11.6034 20.27 12.8334 20.27C16.3634 20.27 19.6534 18.19 21.9434 14.59C22.8434 13.18 22.8434 10.81 21.9434 9.4C21.6134 8.88 21.2534 8.39 20.8834 7.93" stroke="#FAFAFA" stroke-width="1.5" stroke-linecap="round" stroke-linejoin="round"/>
<path d="M16.3433 12.7C16.0833 14.11 14.9333 15.26 13.5233 15.52" stroke="#FAFAFA" stroke-width="1.5" stroke-linecap="round" stroke-linejoin="round"/>
<path d="M10.3034 14.53L2.83337 22" stroke="#FAFAFA" stroke-width="1.5" stroke-linecap="round" stroke-linejoin="round"/>
<path d="M22.8334 2L15.3634 9.47" stroke="#FAFAFA" stroke-width="1.5" stroke-linecap="round" stroke-linejoin="round"/>
</svg>
