<svg width="25" height="24" viewBox="0 0 25 24" fill="none" xmlns="http://www.w3.org/2000/svg">
<path d="M16.4134 12C16.4134 13.98 14.8134 15.58 12.8334 15.58C10.8534 15.58 9.25339 13.98 9.25339 12C9.25339 10.02 10.8534 8.42 12.8334 8.42C14.8134 8.42 16.4134 10.02 16.4134 12Z" stroke="#FAFAFA" stroke-width="1.5" stroke-linecap="round" stroke-linejoin="round"/>
<path d="M12.8334 20.27C16.3634 20.27 19.6534 18.19 21.9434 14.59C22.8434 13.18 22.8434 10.81 21.9434 9.4C19.6534 5.8 16.3634 3.72 12.8334 3.72C9.30337 3.72 6.01337 5.8 3.72337 9.4C2.82337 10.81 2.82337 13.18 3.72337 14.59C6.01337 18.19 9.30337 20.27 12.8334 20.27Z" stroke="#FAFAFA" stroke-width="1.5" stroke-linecap="round" stroke-linejoin="round"/>
</svg>
