<svg width="25" height="24" viewBox="0 0 25 24" fill="none" xmlns="http://www.w3.org/2000/svg">
<path d="M9.92358 9.00002C10.1587 8.33169 10.6227 7.76813 11.2335 7.40915C11.8443 7.05018 12.5625 6.91896 13.2608 7.03873C13.959 7.15851 14.5924 7.52154 15.0487 8.06355C15.5049 8.60555 15.7546 9.29154 15.7536 10C15.7536 12 12.7536 13 12.7536 13M12.8335 17H12.8435M22.8335 12C22.8335 17.5228 18.3563 22 12.8335 22C7.31065 22 2.8335 17.5228 2.8335 12C2.8335 6.47715 7.31065 2 12.8335 2C18.3563 2 22.8335 6.47715 22.8335 12Z" stroke="#FAFAFA" stroke-width="2" stroke-linecap="round" stroke-linejoin="round"/>
</svg>
