<svg xmlns="http://www.w3.org/2000/svg" width="25" height="24" viewBox="0 0 25 24" fill="none">
	<g filter="url(#filter0_d_151_403)">
		<path fill-rule="evenodd" clip-rule="evenodd"
			d="M9.47247 0C8.83566 0 8.31118 0.533049 8.31118 1.1803V6.17983C8.31118 6.31068 8.24758 6.43222 8.14113 6.50564C8.03455 6.57905 7.90012 6.59395 7.78049 6.54552L3.86122 4.89502C3.71416 4.83302 3.5607 4.80509 3.40985 4.80668C2.95742 4.81142 2.52662 5.08595 2.34378 5.53438L0.270084 10.6229C0.0264258 11.2208 0.309657 11.9186 0.898412 12.1652L5.65188 14.157C5.76092 14.2029 5.84283 14.2961 5.87566 14.4113C5.90849 14.5265 5.88776 14.6492 5.81967 14.7471L2.70791 18.7498C2.3203 19.2633 2.41673 20.0111 2.92184 20.405L7.22147 23.7585C7.72655 24.1525 8.46244 24.0538 8.84999 23.5402L11.8757 19.6473C11.9491 19.5501 12.062 19.4937 12.1826 19.4937C12.3032 19.4937 12.4161 19.5501 12.4895 19.6473L15.5152 23.5402C15.9028 24.0536 16.6385 24.1525 17.1437 23.7585L21.4434 20.405C21.9485 20.0111 22.045 19.2634 21.6573 18.7498L18.5456 14.7471C18.4774 14.6493 18.4569 14.5265 18.4895 14.4113C18.5224 14.2961 18.6043 14.2029 18.7133 14.157L23.4668 12.1652C24.0556 11.9186 24.3388 11.221 24.0951 10.6229L22.0212 5.53438C21.8384 5.08597 21.4076 4.81145 20.9552 4.80668C20.8043 4.8051 20.6509 4.8332 20.5038 4.89502L16.5845 6.54552C16.465 6.59402 16.3305 6.57905 16.2239 6.50564C16.1169 6.43222 16.0533 6.31068 16.0533 6.17983V1.1803C16.0533 0.533049 15.5289 0 14.8921 0H9.47247Z"
			fill="white" />
	</g>
	<defs>
		<filter id="filter0_d_151_403" x="-134.617" y="-130.8" width="293.6" height="293.6" filterUnits="userSpaceOnUse"
			color-interpolation-filters="sRGB">
			<feFlood flood-opacity="0" result="BackgroundImageFix" />
			<feColorMatrix in="SourceAlpha" type="matrix" values="0 0 0 0 0 0 0 0 0 0 0 0 0 0 0 0 0 0 127 0"
				result="hardAlpha" />
			<feOffset dy="4" />
			<feGaussianBlur stdDeviation="67.4" />
			<feComposite in2="hardAlpha" operator="out" />
			<feColorMatrix type="matrix" values="0 0 0 0 0 0 0 0 0 0 0 0 0 0 0 0 0 0 0.95 0" />
			<feBlend mode="normal" in2="BackgroundImageFix" result="effect1_dropShadow_151_403" />
			<feBlend mode="normal" in="SourceGraphic" in2="effect1_dropShadow_151_403" result="shape" />
		</filter>
	</defs>
</svg>