<svg width="24" height="25" viewBox="0 0 24 25" fill="none" xmlns="http://www.w3.org/2000/svg">
<path d="M19 9.53931C19 10.9893 18.57 12.3193 17.83 13.4293C16.75 15.0293 15.04 16.1593 13.05 16.4493C12.71 16.5093 12.36 16.5393 12 16.5393C11.64 16.5393 11.29 16.5093 10.95 16.4493C8.96 16.1593 7.25 15.0293 6.17 13.4293C5.43 12.3193 5 10.9893 5 9.53931C5 5.66931 8.13 2.53931 12 2.53931C15.87 2.53931 19 5.66931 19 9.53931Z" stroke="#FAFAFA" stroke-width="1.5" stroke-linecap="round" stroke-linejoin="round"/>
<path d="M21.25 19.0093L19.6 19.3993C19.23 19.4893 18.94 19.7693 18.86 20.1393L18.51 21.6093C18.32 22.4093 17.3 22.6493 16.77 22.0193L12 16.5393L7.22996 22.0293C6.69996 22.6593 5.67996 22.4193 5.48996 21.6193L5.13996 20.1493C5.04996 19.7793 4.75996 19.4893 4.39996 19.4093L2.74996 19.0193C1.98996 18.8393 1.71996 17.8893 2.26996 17.3393L6.16996 13.4393C7.24996 15.0393 8.95996 16.1693 10.95 16.4593C11.29 16.5193 11.64 16.5493 12 16.5493C12.36 16.5493 12.71 16.5193 13.05 16.4593C15.04 16.1693 16.75 15.0393 17.83 13.4393L21.73 17.3393C22.28 17.8793 22.01 18.8293 21.25 19.0093Z" stroke="#FAFAFA" stroke-width="1.5" stroke-linecap="round" stroke-linejoin="round"/>
<path d="M12.58 6.51931L13.17 7.6993C13.25 7.8593 13.46 8.01931 13.65 8.04931L14.72 8.2293C15.4 8.3393 15.56 8.8393 15.07 9.3293L14.24 10.1593C14.1 10.2993 14.02 10.5693 14.07 10.7693L14.31 11.7993C14.5 12.6093 14.07 12.9293 13.35 12.4993L12.35 11.9093C12.17 11.7993 11.87 11.7993 11.69 11.9093L10.69 12.4993C9.96997 12.9193 9.53997 12.6093 9.72997 11.7993L9.96997 10.7693C10.01 10.5793 9.93997 10.2993 9.79997 10.1593L8.96997 9.3293C8.47997 8.8393 8.63997 8.3493 9.31997 8.2293L10.39 8.04931C10.57 8.01931 10.78 7.8593 10.86 7.6993L11.45 6.51931C11.74 5.87931 12.26 5.87931 12.58 6.51931Z" stroke="#FAFAFA" stroke-width="1.5" stroke-linecap="round" stroke-linejoin="round"/>
</svg>
