<svg width="34" height="32" viewBox="0 0 34 32" fill="none" xmlns="http://www.w3.org/2000/svg">
<path d="M32.4167 8.50999V19.5217C32.4171 20.3895 32.2465 21.2488 31.9147 22.0507C31.5828 22.8525 31.0962 23.5811 30.4827 24.1948C29.8691 24.8085 29.1407 25.2953 28.3389 25.6274C27.5371 25.9594 26.6778 26.1302 25.81 26.13H21.405L17.7717 29.7633C17.6726 29.8683 17.5531 29.9519 17.4206 30.0091C17.288 30.0662 17.1452 30.0957 17.0008 30.0957C16.8565 30.0957 16.7137 30.0662 16.5811 30.0091C16.4486 29.9519 16.3291 29.8683 16.23 29.7633L12.5967 26.13H8.18833C7.32059 26.13 6.46135 25.959 5.65969 25.6269C4.85802 25.2948 4.12963 24.808 3.51612 24.1944C2.90262 23.5807 2.41601 22.8522 2.08409 22.0504C1.75217 21.2487 1.58145 20.3894 1.58167 19.5217V8.50999C1.58167 6.75779 2.27772 5.07736 3.51671 3.83837C4.7557 2.59938 6.43613 1.90332 8.18833 1.90332H25.8083C27.5605 1.90332 29.241 2.59938 30.48 3.83837C31.7189 5.07736 32.4167 6.75779 32.4167 8.50999Z" stroke="white" stroke-opacity="0.6" stroke-width="2" stroke-linecap="round" stroke-linejoin="round"/>
</svg>
