<svg width="16" height="16" viewBox="0 0 16 16" fill="none" xmlns="http://www.w3.org/2000/svg">
<path opacity="0.4" d="M10.793 1.33337H5.20634C2.77967 1.33337 1.33301 2.78004 1.33301 5.20671V10.7867C1.33301 13.22 2.77967 14.6667 5.20634 14.6667H10.7863C13.213 14.6667 14.6597 13.22 14.6597 10.7934V5.20671C14.6663 2.78004 13.2197 1.33337 10.793 1.33337Z" fill="#FAFAFA"/>
<path d="M10.6663 8.5H5.33301C5.05967 8.5 4.83301 8.27333 4.83301 8C4.83301 7.72667 5.05967 7.5 5.33301 7.5H10.6663C10.9397 7.5 11.1663 7.72667 11.1663 8C11.1663 8.27333 10.9397 8.5 10.6663 8.5Z" fill="#FAFAFA"/>
</svg>
