<svg width="80" height="80" viewBox="0 0 100 100" fill="none" xmlns="http://www.w3.org/2000/svg">
<path opacity="0.4" d="M70 8.33334H25.875C16.2083 8.33334 8.375 16.1667 8.375 25.7917V51.5417V52.3333C8.375 62 16.2083 69.7917 25.8333 69.7917H40.8333C43.125 69.7917 45 71.6667 45 73.9583V77.375C45 79.6667 43.125 81.5417 40.8333 81.5417H31.4583C29.8333 81.5417 28.5 82.875 28.5 84.5C28.5 86.125 29.8333 87.4583 31.4583 87.4583H64.5C66.125 87.4583 67.4583 86.125 67.4583 84.5C67.4583 82.875 66.125 81.5417 64.5 81.5417H55.125C52.8333 81.5417 50.9583 79.6667 50.9583 77.375V73.9583C50.9583 71.6667 52.8333 69.7917 55.125 69.7917H70C79.6667 69.7917 87.4583 61.9583 87.4583 52.3333V51.5417V25.7917C87.4583 16.1667 79.625 8.33334 70 8.33334Z" fill="#71717A"/>
<path d="M81.8333 39.5833H59.7917C52.5833 39.5833 49.9583 42.2083 49.9583 49.5V81.7084C49.9583 89.0417 52.5417 91.625 59.7917 91.625H81.8333C89.0417 91.625 91.6667 89 91.6667 81.7084V49.5C91.6667 42.1667 89.0833 39.5833 81.8333 39.5833ZM70.8333 84.6667C68.2917 84.6667 66.25 82.625 66.25 80.0833C66.25 77.5417 68.2917 75.5 70.8333 75.5C73.375 75.5 75.4167 77.5417 75.4167 80.0833C75.4167 82.625 73.375 84.6667 70.8333 84.6667Z" fill="#71717A"/>
<path opacity="0.4" d="M75.4167 80.0833C75.4167 82.625 73.375 84.6667 70.8333 84.6667C68.2917 84.6667 66.25 82.625 66.25 80.0833C66.25 77.5417 68.2917 75.5 70.8333 75.5C73.375 75.5 75.4167 77.5833 75.4167 80.0833Z" fill="#71717A"/>
</svg>
