<?xml version="1.0" encoding="UTF-8"?>
<svg version="1.1" xmlns="http://www.w3.org/2000/svg" width="22" height="22" viewBox="40 0 500 500">
<path d="M0 0 C2.59729509 2.31710743 5.13711895 4.68292023 7.66015625 7.08105469 C10.16735285 9.47708274 10.16735285 9.47708274 12.84765625 11.55371094 C16.45412744 14.45677121 19.22241494 17.93649032 22.2109375 21.45605469 C23.02691406 22.37257813 23.84289062 23.28910156 24.68359375 24.23339844 C32.45702821 33.03968675 38.9758093 42.51331495 45.2109375 52.45605469 C45.62085938 53.10380859 46.03078125 53.7515625 46.453125 54.41894531 C57.8156705 72.62570866 65.37078144 93.61351557 70.2109375 114.45605469 C70.41976563 115.33438965 70.62859375 116.21272461 70.84375 117.11767578 C77.23630237 145.34301975 77.01226067 178.37679442 70.2109375 206.45605469 C69.97487793 207.43558105 69.73881836 208.41510742 69.49560547 209.42431641 C60.84986254 243.99056521 44.52387012 273.77764608 21.2109375 300.45605469 C20.48777344 301.30296875 19.76460938 302.14988281 19.01953125 303.02246094 C14.74270184 307.96885268 10.2116514 312.25613654 5.2109375 316.45605469 C4.29957031 317.266875 3.38820313 318.07769531 2.44921875 318.91308594 C-31.23737031 348.66650297 -77.29854245 368.23479105 -122.50390625 368.69433594 C-123.30864883 368.70417511 -124.11339142 368.71401428 -124.94252014 368.72415161 C-181.29355701 369.27054898 -231.21203775 352.98648386 -273.7890625 315.45605469 C-275.05363281 314.37517578 -275.05363281 314.37517578 -276.34375 313.27246094 C-281.29643082 308.99514568 -285.5859949 304.46051854 -289.7890625 299.45605469 C-290.59988281 298.5446875 -291.41070312 297.63332031 -292.24609375 296.69433594 C-300.02722646 287.88459755 -306.54989729 278.40523198 -312.7890625 268.45605469 C-313.40394531 267.48442383 -313.40394531 267.48442383 -314.03125 266.49316406 C-325.3937955 248.28640071 -332.94890644 227.2985938 -337.7890625 206.45605469 C-337.99789062 205.57771973 -338.20671875 204.69938477 -338.421875 203.79443359 C-350.02238761 152.57413228 -339.61608241 94.77093449 -311.7890625 50.45605469 C-304.89135078 39.80662638 -297.17083094 29.96489246 -288.7890625 20.45605469 C-288.06847656 19.61300781 -287.34789062 18.76996094 -286.60546875 17.90136719 C-282.3281535 12.94868637 -277.79352636 8.65912229 -272.7890625 4.45605469 C-271.87769531 3.64523438 -270.96632813 2.83441406 -270.02734375 1.99902344 C-261.21760536 -5.78210928 -251.7382398 -12.3047801 -241.7890625 -18.54394531 C-241.14130859 -18.95386719 -240.49355469 -19.36378906 -239.82617188 -19.78613281 C-167.09379365 -65.17722959 -64.49038523 -55.65463922 0 0 Z " fill="#8FCAF9" transform="translate(389.7890625,95.5439453125)"/>
<path d="M0 0 C5.27011062 1.82426906 7.83751204 4.57251686 11 9 C12.05721748 12.06301176 12.02614024 14.60693993 11.7477417 17.81602478 C11.66922187 18.78502244 11.59070204 19.7540201 11.50980282 20.75238132 C11.37491624 22.34049578 11.37491624 22.34049578 11.23730469 23.96069336 C10.00349276 39.93971487 9.21428142 55.9196662 8.75 71.9375 C8.71825361 73.008993 8.71825361 73.008993 8.68586588 74.10213232 C7.74803653 107.09562574 6.88851159 138.51008812 30.61410522 164.20466614 C42.7688467 176.72678867 56.83013345 187.56532287 71.45042419 197.04432678 C74.59524165 199.45658503 75.75712793 201.26519952 76.30078125 205.1484375 C76.32731997 210.19079431 75.92606094 213.70844396 73 218 C68.99653611 222.03627917 65.41408246 224.12458106 59.6875 224.3125 C58.57955078 224.36857422 58.57955078 224.36857422 57.44921875 224.42578125 C51.19484256 223.33849735 46.50142892 217.79379434 42.20019531 213.47485352 C41.54904251 212.82881165 40.89788971 212.18276978 40.227005 211.51715088 C38.08887697 209.39285636 35.95819156 207.26128194 33.828125 205.12890625 C32.33955449 203.64422481 30.85076124 202.15976667 29.36175537 200.67552185 C26.24833447 197.56954878 23.13879961 194.45974646 20.03173828 191.34741211 C16.04991964 187.35978714 12.05682453 183.38367015 8.06053543 179.41055393 C4.98584117 176.35058605 1.91809592 173.28372516 -1.14768219 170.21482658 C-2.61734668 168.74567541 -4.08937583 167.27888576 -5.56380463 165.81451607 C-7.62237124 163.76828085 -9.6711757 161.71273779 -11.71777344 159.65454102 C-12.63259743 158.75118263 -12.63259743 158.75118263 -13.56590271 157.82957458 C-14.40264275 156.98231308 -14.40264275 156.98231308 -15.25628662 156.11793518 C-15.98295343 155.39151998 -15.98295343 155.39151998 -16.72430038 154.65042973 C-19.71625913 150.7795987 -20.25134652 147.02518497 -20.26742554 142.23805237 C-20.27595551 141.0871109 -20.28448547 139.93616943 -20.29327393 138.75035095 C-20.29236755 137.49670242 -20.29146118 136.24305389 -20.29052734 134.95141602 C-20.2965152 133.61067329 -20.30332134 132.269934 -20.31088257 130.92919922 C-20.3285216 127.29489231 -20.333237 123.66067963 -20.33451414 120.02633405 C-20.33593724 117.7543161 -20.3402098 115.482322 -20.34550858 113.21030998 C-20.36400039 105.2800838 -20.37218006 97.34992477 -20.37060547 89.41967773 C-20.3694036 82.0333827 -20.39051688 74.64737966 -20.4220928 67.26115853 C-20.44825904 60.91365645 -20.45897266 54.56624974 -20.45769465 48.21869415 C-20.45718521 44.43015674 -20.46285855 40.64187903 -20.48405075 36.85339546 C-20.50343985 33.29015954 -20.50355358 29.72743094 -20.48901749 26.16417694 C-20.48593558 24.2378188 -20.50260032 22.31146056 -20.51989746 20.38517761 C-20.47331177 13.97810674 -20.42486763 9.8131044 -16 5 C-10.58420856 0.22894564 -7.09115125 -0.64682799 0 0 Z " fill="#1E88E5" transform="translate(260,112)"/>
</svg>
