<svg width="27" height="27" viewBox="0 0 27 27" fill="none" xmlns="http://www.w3.org/2000/svg">
<path d="M13.5 2.25C7.29 2.25 2.25 7.29 2.25 13.5C2.25 19.71 7.29 24.75 13.5 24.75C19.71 24.75 24.75 19.71 24.75 13.5C24.75 7.29 19.71 2.25 13.5 2.25ZM7.425 12.6337C7.61625 11.295 8.2125 10.0912 9.14625 9.14625C11.3962 6.9075 14.94 6.78375 17.3475 8.74125V7.6725C17.3475 7.21125 17.73 6.82875 18.1912 6.82875C18.6525 6.82875 19.035 7.21125 19.035 7.6725V10.6762C19.035 11.1375 18.6525 11.52 18.1912 11.52H15.1875C14.7262 11.52 14.3438 11.1375 14.3438 10.6762C14.3438 10.215 14.7262 9.8325 15.1875 9.8325H16.0312C14.2875 8.6175 11.88 8.78625 10.3275 10.3387C9.6525 11.0137 9.225 11.8912 9.07875 12.87C9.0225 13.2862 8.6625 13.59 8.24625 13.59C8.20125 13.59 8.1675 13.59 8.1225 13.5787C7.68375 13.5225 7.3575 13.095 7.425 12.6337ZM17.8538 17.8538C16.65 19.0575 15.075 19.6537 13.5 19.6537C12.1275 19.6537 10.7662 19.17 9.64125 18.2587V19.3162C9.64125 19.7775 9.25875 20.16 8.7975 20.16C8.33625 20.16 7.95375 19.7775 7.95375 19.3162V16.3125C7.95375 15.8512 8.33625 15.4688 8.7975 15.4688H11.8012C12.2625 15.4688 12.645 15.8512 12.645 16.3125C12.645 16.7738 12.2625 17.1562 11.8012 17.1562H10.9575C12.7013 18.3713 15.1088 18.2025 16.6613 16.65C17.3363 15.975 17.7638 15.0975 17.91 14.1188C17.9775 13.6575 18.3938 13.3313 18.8663 13.3988C19.3275 13.4662 19.6425 13.8938 19.5863 14.355C19.3837 15.7163 18.7875 16.92 17.8538 17.8538Z" fill="#00FBFF"/>
</svg>
