<svg width="16" height="16" viewBox="0 0 16 16" fill="none" xmlns="http://www.w3.org/2000/svg"> <path d="M5 5.56006H9.93333C10.5267 5.56006 11 6.04004 11 
6.62671V7.80672" stroke="white" stroke-opacity="0.7" stroke-width="1.5" stroke-miterlimit="10" stroke-linecap="round" stroke-linejoin="round"/> <path d="M6.12667 4.44L5 
5.56004L6.12667 6.68671" stroke="white" stroke-opacity="0.7" stroke-width="1.5" stroke-miterlimit="10" stroke-linecap="round" stroke-linejoin="round"/> <path d="M11 
10.44H6.06667C5.47334 10.44 5 9.96004 5 9.37337V8.19336" stroke="white" stroke-opacity="0.7" stroke-width="1.5" stroke-miterlimit="10" stroke-linecap="round" 
stroke-linejoin="round"/> <path d="M9.87329 11.5601L11 10.44L9.87329 9.31335" stroke="white" stroke-opacity="0.7" stroke-width="1.5" stroke-miterlimit="10" 
stroke-linecap="round" stroke-linejoin="round"/> <path d="M8.00004 14.6666C11.6819 14.6666 14.6667 11.6819 14.6667 7.99998C14.6667 4.31808 11.6819 1.33331 8.00004 
1.33331C4.31814 1.33331 1.33337 4.31808 1.33337 7.99998C1.33337 11.6819 4.31814 14.6666 8.00004 14.6666Z" stroke="white" stroke-opacity="0.7" stroke-width="1.5" 
stroke-miterlimit="10" stroke-linecap="round" stroke-linejoin="round"/> </svg>
