<svg width="20" height="20" viewBox="0 0 20 20" fill="none" xmlns="http://www.w3.org/2000/svg">
<path d="M10 6.66666V9.99999L12.0833 12.0833" stroke="white" stroke-width="1.5" stroke-linecap="round" stroke-linejoin="round"/>
<path d="M3.61477 5.72544L2.98978 5.72858C2.99151 6.07131 3.26891 6.34871 3.61163 6.35043L3.61477 5.72544ZM5.73292 6.36109C6.0781 6.36283 6.35932 6.08441 6.36106 5.73924C6.36279 5.39406 6.08438 5.11284 5.73921 5.11111L5.73292 6.36109ZM4.22911 3.601C4.22737 3.25583 3.94615 2.97742 3.60097 2.97916C3.2558 2.98089 2.97739 3.26211 2.97912 3.60729L4.22911 3.601ZM3.18882 8.98742C3.23569 8.64542 2.99646 8.33023 2.65447 8.28336C2.3125 8.23648 1.99727 8.47567 1.95039 8.81767L3.18882 8.98742ZM15.7185 4.28148C12.535 1.09799 7.39058 1.06575 4.22815 4.22818L5.11203 5.11206C7.77796 2.44614 12.1309 2.46163 14.8346 5.16536L15.7185 4.28148ZM4.28145 15.7185C7.46494 18.902 12.6094 18.9343 15.7718 15.7718L14.8879 14.8879C12.222 17.5538 7.86907 17.5384 5.16533 14.8347L4.28145 15.7185ZM15.7718 15.7718C18.9342 12.6094 18.902 7.46497 15.7185 4.28148L14.8346 5.16536C17.5384 7.8691 17.5538 12.222 14.8879 14.8879L15.7718 15.7718ZM4.22815 4.22818L3.17283 5.2835L4.05672 6.16738L5.11203 5.11206L4.22815 4.22818ZM3.61163 6.35043L5.73292 6.36109L5.73921 5.11111L3.61792 5.10045L3.61163 6.35043ZM4.23977 5.7223L4.22911 3.601L2.97912 3.60729L2.98978 5.72858L4.23977 5.7223ZM1.95039 8.81767C1.61587 11.2583 2.39491 13.832 4.28145 15.7185L5.16533 14.8347C3.56485 13.2342 2.9055 11.0543 3.18882 8.98742L1.95039 8.81767Z" fill="white"/>
</svg>
