<svg width="27" height="27" viewBox="0 0 27 27" fill="none" xmlns="http://www.w3.org/2000/svg">
<path d="M13.5 2.25C7.30125 2.25 2.25 7.30125 2.25 13.5C2.25 19.6987 7.30125 24.75 13.5 24.75C19.6987 24.75 24.75 19.6987 24.75 13.5C24.75 7.30125 19.6987 2.25 13.5 2.25ZM18.8775 10.9125L12.4987 17.2913C12.3412 17.4487 12.1275 17.5387 11.9025 17.5387C11.6775 17.5387 11.4637 17.4487 11.3063 17.2913L8.1225 14.1075C7.79625 13.7812 7.79625 13.2412 8.1225 12.915C8.44875 12.5887 8.98875 12.5887 9.315 12.915L11.9025 15.5025L17.685 9.72C18.0113 9.39375 18.5513 9.39375 18.8775 9.72C19.2038 10.0463 19.2038 10.575 18.8775 10.9125Z" fill="#09FF00"/>
</svg>
