<svg width="24" height="24" viewBox="0 0 24 24" fill="none" xmlns="http://www.w3.org/2000/svg">
<path d="M21.0699 5.23C19.4599 5.07 17.8499 4.95 16.2299 4.86V4.85L16.0099 3.55C15.8599 2.63 15.6399 1.25 13.2999 1.25H10.6799C8.34991 1.25 8.12991 2.57 7.96991 3.54L7.75991 4.82C6.82991 4.88 5.89991 4.94 4.96991 5.03L2.92991 5.23C2.50991 5.27 2.20991 5.64 2.24991 6.05C2.28991 6.46 2.64991 6.76 3.06991 6.72L5.10991 6.52C10.3499 6 15.6299 6.2 20.9299 6.73C20.9599 6.73 20.9799 6.73 21.0099 6.73C21.3899 6.73 21.7199 6.44 21.7599 6.05C21.7899 5.64 21.4899 5.27 21.0699 5.23Z" fill="#FB7185"/>
<path opacity="0.3991" d="M19.23 8.14C18.99 7.89 18.66 7.75 18.32 7.75H5.67999C5.33999 7.75 4.99999 7.89 4.76999 8.14C4.53999 8.39 4.40999 8.73 4.42999 9.08L5.04999 19.34C5.15999 20.86 5.29999 22.76 8.78999 22.76H15.21C18.7 22.76 18.84 20.87 18.95 19.34L19.57 9.09C19.59 8.73 19.46 8.39 19.23 8.14Z" fill="#FB7185"/>
<path fill-rule="evenodd" clip-rule="evenodd" d="M9.58008 17C9.58008 16.5858 9.91586 16.25 10.3301 16.25H13.6601C14.0743 16.25 14.4101 16.5858 14.4101 17C14.4101 17.4142 14.0743 17.75 13.6601 17.75H10.3301C9.91586 17.75 9.58008 17.4142 9.58008 17Z" fill="#FB7185"/>
<path fill-rule="evenodd" clip-rule="evenodd" d="M8.75 13C8.75 12.5858 9.08579 12.25 9.5 12.25H14.5C14.9142 12.25 15.25 12.5858 15.25 13C15.25 13.4142 14.9142 13.75 14.5 13.75H9.5C9.08579 13.75 8.75 13.4142 8.75 13Z" fill="#FB7185"/>
</svg>
