<svg width="25" height="24" viewBox="0 0 25 24" fill="none" xmlns="http://www.w3.org/2000/svg">
<path d="M21.8334 5.98C18.5034 5.65 15.1534 5.48 11.8134 5.48C9.83337 5.48 7.85337 5.58 5.87337 5.78L3.83337 5.98" stroke="#FAFAFA" stroke-width="1.5" stroke-linecap="round" stroke-linejoin="round"/>
<path d="M9.33337 4.97L9.55337 3.66C9.71337 2.71 9.83337 2 11.5234 2H14.1434C15.8334 2 15.9634 2.75 16.1134 3.67L16.3334 4.97" stroke="#FAFAFA" stroke-width="1.5" stroke-linecap="round" stroke-linejoin="round"/>
<path d="M19.6834 9.14L19.0334 19.21C18.9234 20.78 18.8334 22 16.0434 22H9.6234C6.8334 22 6.7434 20.78 6.6334 19.21L5.9834 9.14" stroke="#FAFAFA" stroke-width="1.5" stroke-linecap="round" stroke-linejoin="round"/>
<path d="M11.1633 16.5H14.4933" stroke="#FAFAFA" stroke-width="1.5" stroke-linecap="round" stroke-linejoin="round"/>
<path d="M10.3334 12.5H15.3334" stroke="#FAFAFA" stroke-width="1.5" stroke-linecap="round" stroke-linejoin="round"/>
</svg>
