<svg width="24" height="25" viewBox="0 0 24 25" fill="none" xmlns="http://www.w3.org/2000/svg">
<path d="M12 12.5393C14.7614 12.5393 17 10.3007 17 7.53931C17 4.77788 14.7614 2.53931 12 2.53931C9.23858 2.53931 7 4.77788 7 7.53931C7 10.3007 9.23858 12.5393 12 12.5393Z" stroke="#FAFAFA" stroke-width="1.5" stroke-linecap="round" stroke-linejoin="round"/>
<path d="M3.41003 22.5393C3.41003 18.6693 7.26003 15.5393 12 15.5393C12.96 15.5393 13.89 15.6693 14.76 15.9093" stroke="#FAFAFA" stroke-width="1.5" stroke-linecap="round" stroke-linejoin="round"/>
<path d="M22 18.5393C22 18.8593 21.96 19.1693 21.88 19.4693C21.79 19.8693 21.63 20.2593 21.42 20.5993C20.73 21.7593 19.46 22.5393 18 22.5393C16.97 22.5393 16.04 22.1493 15.34 21.5093C15.04 21.2493 14.78 20.9393 14.58 20.5993C14.21 19.9993 14 19.2893 14 18.5393C14 17.4593 14.43 16.4693 15.13 15.7493C15.86 14.9993 16.88 14.5393 18 14.5393C19.18 14.5393 20.25 15.0493 20.97 15.8693C21.61 16.5793 22 17.5193 22 18.5393Z" stroke="#FAFAFA" stroke-width="1.5" stroke-miterlimit="10" stroke-linecap="round" stroke-linejoin="round"/>
<path d="M19.03 17.4793L16.92 19.5893" stroke="#FAFAFA" stroke-width="1.5" stroke-miterlimit="10" stroke-linecap="round" stroke-linejoin="round"/>
<path d="M16.9401 17.4993L19.0601 19.6093" stroke="#FAFAFA" stroke-width="1.5" stroke-miterlimit="10" stroke-linecap="round" stroke-linejoin="round"/>
</svg>
