<svg width="20" height="20" viewBox="0 0 20 20" fill="none" xmlns="http://www.w3.org/2000/svg">
<path fill-rule="evenodd" clip-rule="evenodd" d="M9.9999 19.6C12.546 19.6 14.9878 18.5886 16.7881 16.7882C18.5885 14.9879 19.5999 12.5461 19.5999 9.99999C19.5999 7.45392 18.5885 5.01212 16.7881 3.21177C14.9878 1.41142 12.546 0.399994 9.9999 0.399994C7.45382 0.399994 5.01203 1.41142 3.21168 3.21177C1.41133 5.01212 0.399902 7.45392 0.399902 9.99999C0.399902 12.5461 1.41133 14.9879 3.21168 16.7882C5.01203 18.5886 7.45382 19.6 9.9999 19.6ZM14.6283 7.82919C14.6978 7.73354 14.7478 7.62513 14.7754 7.51016C14.803 7.3952 14.8077 7.27592 14.7892 7.15914C14.7707 7.04236 14.7293 6.93037 14.6676 6.82956C14.6058 6.72874 14.5248 6.64109 14.4291 6.57159C14.3334 6.5021 14.225 6.45212 14.1101 6.42452C13.9951 6.39692 13.8758 6.39224 13.759 6.41074C13.6423 6.42923 13.5303 6.47055 13.4295 6.53233C13.3287 6.59411 13.241 6.67514 13.1715 6.77079L8.9919 12.5188L6.7359 10.2628C6.65284 10.1769 6.5535 10.1084 6.44367 10.0612C6.33385 10.0141 6.21574 9.98936 6.09624 9.98837C5.97673 9.98739 5.85823 10.0102 5.74765 10.0555C5.63706 10.1008 5.53661 10.1677 5.45215 10.2522C5.36768 10.3368 5.3009 10.4373 5.2557 10.5479C5.2105 10.6586 5.18779 10.7771 5.18888 10.8966C5.18997 11.0161 5.21486 11.1342 5.26208 11.244C5.3093 11.3537 5.3779 11.453 5.4639 11.536L8.4639 14.536C8.55585 14.628 8.66666 14.699 8.78868 14.744C8.9107 14.7891 9.04104 14.8072 9.17072 14.797C9.3004 14.7869 9.42633 14.7487 9.53986 14.6852C9.65338 14.6217 9.75179 14.5344 9.8283 14.4292L14.6283 7.82919Z" fill="#6EE7B7"/>
</svg>
